<svg xmlns="http://www.w3.org/2000/svg" xmlns:xlink="http://www.w3.org/1999/xlink" width="90" height="90" version="1.1" style=""><rect id="backgroundrect" width="100%" height="100%" x="0" y="0" fill="none" stroke="none"/>
    <title>popular</title>
    
<g class="currentLayer" style=""><title>Layer 1</title><g id="Page-1" stroke="none" stroke-width="1" fill="none" fill-rule="evenodd" class="">
        <g id="Hubstaff-Field-pricing-1.1">
            <g id="popular">
                <polygon id="Path-30" fill="#0F9B74" points="90.17947389122983,90.43838442759989 84.372846878557,90.43838442759989 84.372846878557,82.75914429956538 "/>
                <polygon id="Path-28" fill="#0F9B74" points="0.0000043952894831327006,0.2589115082726039 0.0000043952894831327006,8.556080949418401 11.075234400167256,8.556080949418401 "/>
                <g id="Group">
                    <polygon id="Rectangle" fill="#0CDFA3" points="44.673423797850226,0.25896505000702064 90.17944259743072,45.557427971465586 90.17948953812939,90.43840789794922 2.370208704860488e-7,0.25891395310065946 " stroke-width="0"/>
                    <path d="M31.276455760653544,18.90570123790158 L34.46668147689075,15.715475521664377 L36.35072039159153,17.59951443636518 C37.333871742852715,18.582665787626368 38.306990875471406,19.122395857385154 39.27007787750123,19.218704557588143 C40.23316487953106,19.315013257791144 41.238386882866045,18.83948901751883 42.2857439755601,17.792131924824766 C43.244818107743676,16.833057792641185 43.6882394772996,15.85993866002261 43.61600797856348,14.87277445652591 C43.54377645341124,13.885610279445327 43.06223297000708,12.946600478882264 42.171377449102614,12.055744957977804 L42.171377449102614,12.055744957977804 L38.30699083144453,8.191358340319708 L29.434551847258106,17.063797324506147 L31.276455760653544,18.90570123790158 zM37.7231194135109,15.914112270866593 L35.99558207059971,14.186574927955416 L38.607955585619,11.574201412936109 L40.33549292853019,13.301738755847309 C40.77289494928987,13.73914077660698 41.01466980719192,14.177545992814792 41.06081776639695,14.616954492524442 C41.10696563754854,15.056362904180489 40.89930004125944,15.50680672992706 40.43782088947578,15.968285881710695 C39.97634164963849,16.429765121548005 39.517872084199325,16.645456457529708 39.06241228121193,16.615359977709495 C38.60695230211734,16.585263497889358 38.16052143427057,16.351514291626273 37.7231194135109,15.914112270866593 L37.7231194135109,15.914112270866593 zM40.19704913896823,28.28376089815367 C41.3246635405339,29.41137529971935 42.507454748391794,29.909973475567398 43.745422762541715,29.77955542569802 C44.98339086474549,29.649137463882315 46.083918372835406,29.10238493793278 47.047005374865236,28.139297935902935 C47.99404098556371,27.19226232520448 48.53778383711513,26.094744491512678 48.67823401757335,24.846744170666405 C48.818684198031576,23.59874402592763 48.32510217553153,22.410936664721707 47.19748777396587,21.283322263156034 C46.06987346045394,20.155707949644107 44.88206601119439,19.662125839090418 43.63406586645561,19.802576019548653 C42.386065545609334,19.943026200006884 41.28854771191752,20.486769051558305 40.34151210121906,21.433804662256755 C39.37842509918923,22.396891664286578 38.831672573239686,23.49741917237652 38.70125461142397,24.73538727458029 C38.57083656155461,25.973355288730204 39.0694348254563,27.156146584641746 40.19704913896823,28.28376089815367 zM41.62964103247422,26.839130483162663 C41.128033182227945,26.337522632916386 40.920367585938834,25.772712236685376 41.006644155552955,25.14469920641608 C41.09292063711353,24.51668626420034 41.46511363293849,23.87362503804772 42.12322305497426,23.215515616011942 C42.781332565063764,22.557406105922436 43.42339050771462,22.186216393599256 44.04939714708765,22.101946214881398 C44.67540369840705,22.01767612421718 45.23921081113609,22.226345004008245 45.74081866138237,22.727952854254518 C46.242426423574905,23.229560616447053 46.45009210791786,23.792364533727977 46.36381562635737,24.416364694151113 C46.277538968689505,25.04036485457414 45.9053460609182,25.681419601776888 45.24723655082869,26.339529111866394 C44.58912712879292,26.99763853390215 43.94706909808842,27.37083472517524 43.32106263482267,27.459117685685804 C42.69505599544964,27.54740064619618 42.13124879466675,27.340738245355197 41.62964103247422,26.839130483162663 zM44.073474278111526,36.86727382575791 L47.49243313531743,33.448314968552026 C47.396124435114444,33.90578125048943 47.37004091319421,34.30104826994386 47.41418239344945,34.634115850808044 C47.49845248411367,35.240058140949714 47.80142358515764,35.803865341732596 48.32309569658153,36.325537453156485 C49.141719648306896,37.14416140488186 50.11383558547747,37.51033513996428 51.23944350809313,37.42405848229643 C52.3650514307087,37.337782000735956 53.505707549207614,36.71679151471094 54.661411951643416,35.561087112275146 C55.75692348249259,34.465575581425966 56.321733878723606,33.369061031236036 56.355843228389986,32.27154302143684 C56.389952578056366,31.17402518774493 56.02377884297393,30.242037772929805 55.25732211119632,29.475581041152196 C54.731637129926156,28.94989605988205 54.131714188580744,28.642912177045368 53.45755328715976,28.554629216535005 C53.08435709588669,28.510487648226114 52.6630064664584,28.53857773714998 52.19350157498222,28.63889930719921 L52.19350157498222,28.63889930719921 L53.1626079258083,27.669792956373144 L51.519340673561345,26.026525704126193 L42.376033415020565,35.16983296266696 L44.073474278111526,36.86727382575791 zM49.31025991768899,34.43547918965946 C48.98120511861742,34.10642439058789 48.78658123926145,33.73122180841846 48.726388367674836,33.30987117899017 C48.630079667471854,32.595581755214035 48.96314724833604,31.857214936252923 49.7255911102674,31.094771074321564 C50.207134611282314,30.613227573306624 50.66460098127326,30.27614712259618 51.09799013218678,30.083529810243874 C51.92062695375839,29.726385010302167 52.64294220528066,29.85880953912151 53.2649358867538,30.48080322059465 C53.78259512833146,30.998462462172306 53.962170723750525,31.567285640195827 53.80366267301094,32.1872729307726 C53.64515462227145,32.807260221349495 53.313090236855295,33.370064138630404 52.80746951676276,33.87568485872294 C52.193501574982236,34.48965280050347 51.57652395880357,34.85582644753238 50.9565366682267,34.974205975916604 C50.33654946570354,35.092585416247104 49.78779054885765,34.91300982082812 49.31025991768899,34.43547918965946 zM54.589180470518045,42.50735204837505 C54.92626092122849,42.84443249908548 55.264344655440794,43.09423327278731 55.603431497047474,43.256754193373055 C55.94251833865418,43.419275113959 56.36687864248062,43.514580618713744 56.87651214436576,43.54267061958399 C57.041039455847766,43.55470922912273 57.205566855383594,43.542670707637626 57.37009416686569,43.50655487902127 C57.53462156640153,43.470439138458616 57.63494313645087,43.45037478922725 57.67105896506714,43.446361919381005 L57.67105896506714,43.446361919381005 L56.744087703600044,44.373333180848086 L58.41143208687088,46.04067756411893 L64.97246231021249,39.479647340777326 L63.23288635776255,37.740071388327365 L59.66344510145593,41.309512644634005 C59.24209456008136,41.73086318600856 58.846827540626926,42.013770025875004 58.477644307253726,42.15823307617947 C57.78743192644774,42.415056218018314 57.14938685364323,42.2505289065362 56.563508912732836,41.66465096562581 C56.1060425427418,41.20718459563477 55.965592362283566,40.73366683431235 56.142158283304525,40.24409759360495 C56.24247985335378,39.96721010253474 56.47923873401496,39.642168261363054 56.852434925288044,39.26897207009 L56.852434925288044,39.26897207009 L60.80711098240659,35.314296012971425 L59.04947724772902,33.55666227829386 L55.094801190610475,37.511338335412425 C54.344395938217964,38.26174358780493 53.87087808884193,38.92386587968695 53.674247818589706,39.49770521105857 C53.31309023685528,40.533023694213874 53.61806781684934,41.53623939470635 54.589180470518045,42.50735204837505 zM61.818352334538034,49.44759781178606 L70.69079131872446,40.57515882759963 L68.97529258535212,38.85966009422731 L60.102853601165684,47.73209907841373 L61.818352334538034,49.44759781178606 zM64.89421139223724,52.93276888937471 C65.35970350192078,53.39826099905829 65.88338200424094,53.70925783979494 66.46524707530509,53.865759411584435 C66.95481631601251,53.994171070557655 67.44639194761638,54.04834468140164 67.93997405816995,54.0282803321703 C67.80353674755808,54.18879486185986 67.68716378617738,54.337270782010584 67.59085499792076,54.47370809262245 C67.49454629771778,54.610145491288165 67.4062633372074,54.770659932924 67.32600611638944,54.95525159363746 L67.32600611638944,54.95525159363746 L69.19198716080874,56.82123263805676 L69.44479752085496,56.56842227801055 C69.38460456121472,56.4038950545821 69.36654669093333,56.25341256742773 69.3906238219573,56.11697525681578 C69.41470104103485,55.98053803425754 69.53308048136553,55.79393989459411 69.74576214294902,55.55718101393289 C70.03468824355798,55.25220343393894 70.28348573375803,54.995380204046384 70.492154613549,54.786711324255386 L70.492154613549,54.786711324255386 L73.50180145086537,51.77706448693903 C74.29233540172058,50.9865305360838 74.55116511056306,50.169913063308435 74.27829040128547,49.32721189250545 C74.00541578006163,48.48451080975624 73.50982719055797,47.70400907754361 72.79152480888185,46.985706695867506 C71.68798762639379,45.88216951337943 70.62056618446847,45.392600272672034 69.58926048310579,45.51699897374512 C68.93516393091627,45.60126906440925 68.30313811885428,45.91226599319957 67.69318295886625,46.44998949595483 L67.69318295886625,46.44998949595483 L69.34848882065197,48.10529535774056 C69.64142779110728,47.892613608103225 69.92232815202362,47.772227688822646 70.19118999145495,47.74413768795251 C70.56037322482814,47.712034817236024 70.94761450459005,47.89863295689948 71.35291356657962,48.30393201888902 C71.71407123636766,48.665089688677085 71.93678511659385,48.99013144179503 72.02105520725799,49.27905763045762 C72.10532538597585,49.56798373106666 72.01302955561911,49.84687761303311 71.74416771618779,50.11573945246444 C71.5234603149117,50.33644685374054 71.23854708414899,50.376575464149525 70.88942802389981,50.23612528369129 C70.69279775364757,50.15988093271957 70.4159102625774,49.9833149236451 70.05876546263559,49.70642752062854 L70.05876546263559,49.70642752062854 L69.40266243149607,49.19478745173978 C68.65627004894982,48.616935250521955 68.01421201824532,48.255777580733906 67.47648842743642,48.111314530429425 C66.49333707617522,47.85047851874434 65.59846877347825,48.12335313996818 64.79188343129165,48.929938482154775 C64.16988966176487,49.551932251681556 63.882970128159634,50.226093153102454 63.93112439020739,50.95242127447106 C63.979278828362624,51.6787493958397 64.30030779968797,52.33886529682547 64.89421139223724,52.93276888937471 zM66.64582595422594,52.192395767571085 C66.41307994341098,51.95964975675613 66.28065541459173,51.69680717806742 66.24855245582161,51.403868295665845 C66.21644958510514,51.11092932521065 66.34686763497449,50.81799044280908 66.6398066054297,50.52505147235388 C66.96886140450127,50.195996673282316 67.3440639866708,50.085642972644216 67.76541452804537,50.193990194332315 C68.01421201824532,50.25819602381882 68.35129246895576,50.438774814686035 68.7766558801767,50.735726743041205 L68.7766558801767,50.735726743041205 L69.23412225016773,51.04872997467404 C69.46285539113633,51.20523163451737 69.65346631259239,51.31759172605174 69.8059551906431,51.385810425384506 C69.95844389258644,51.454029124717344 70.1229712921222,51.508202735561355 70.29953721314305,51.548331257916686 L70.29953721314305,51.548331257916686 L69.66149205228491,52.18637641877483 C69.07561419942814,52.74817722866137 68.518829454836,52.98192652297809 67.99113808266958,52.88762421367137 C67.46344662244952,52.79332199241848 67.01500927565286,52.56157908899803 66.64582595422594,52.192395767571085 zM72.05717103587436,59.686416513122396 L75.19322305321381,56.550364495782944 C75.71890803448396,56.0246795145128 76.174367925525,55.70164406423746 76.55960272633695,55.58125814495678 C77.24580223729657,55.36857639531951 77.93400813915268,55.607341754930744 78.62422051995857,56.29755413573663 C78.67638773990632,56.34972135568438 78.74259987223543,56.41994644591348 78.82285718110704,56.50822931837032 C78.90311448997865,56.596512366934434 78.99139745048912,56.700846806829915 79.08770606263847,56.82123263805679 L79.08770606263847,56.82123263805679 L80.84533988536968,55.063598815325584 C80.77310831619067,54.98334168256136 80.72696044503908,54.93117446261351 80.70689618386146,54.90709724353587 C80.6868318346302,54.88302011251211 80.66074822465623,54.854930111641885 80.6286452658861,54.822827152871746 C80.11499889415481,54.309180781140476 79.5632303909644,54.02627394127401 78.97333949215403,53.97410672132628 C78.61619469221232,53.93799098076354 78.08649692914956,54.00620968009642 77.38424593880481,54.178762731271014 L77.38424593880481,54.178762731271014 L78.52791181975549,53.03509685032031 L76.89066391630477,51.39784894686959 L70.32963369296317,57.95887917021119 L72.05717103587436,59.686416513122396 z" id="Popular" fill="#FFFFFF" fill-rule="nonzero" stroke-width="0"/>
                </g>
            </g>
        </g>
    </g></g></svg>