<?xml version="1.0" encoding="UTF-8"?>
<svg width="669px" height="102px" viewBox="0 0 669 102" version="1.1" xmlns="http://www.w3.org/2000/svg" xmlns:xlink="http://www.w3.org/1999/xlink">
    <title>opulent-bw</title>
    <g id="opulent-bw" stroke="none" stroke-width="1" fill="none" fill-rule="evenodd">
        <path d="M40.47,0.85 C53.64,-2 67.94,0.33 79.29,7.67 C91.02,15.06 99.5,27.46 102.02,41.1 C104.85,55.1 101.47,70.28 92.82,81.68 C85.88,91.19 75.44,98.08 63.99,100.81 C51.64,103.91 38.15,102.2 26.98,96.06 C12.65,88.24 2.34,73.29 0.65,56.99 C-0.96,43.91 2.74,30.27 10.82,19.85 C17.97,10.19 28.78,3.46 40.47,0.85 M43.46,3.64 C29.16,6.02 16.26,15.38 9.42,28.15 C4.54,37.14 2.46,47.75 4.08,57.89 C5.88,70.51 13.03,82.23 23.32,89.73 C34.27,97.92 48.86,100.95 62.18,97.87 C75.59,94.93 87.4,85.81 93.93,73.76 C98.63,65.07 100.65,54.9 99.33,45.09 C97.54,29.62 87.57,15.43 73.72,8.35 C64.52,3.47 53.7,1.86 43.46,3.64 Z" id="Shape" fill="#B2B6C3" fill-rule="nonzero"></path>
        <path d="M35.91,16.92 C41.15,12.9 47.97,10.86 54.55,11.66 C63.82,12.67 72.18,19.13 75.46,27.86 C79.8,38.84 75.39,52.32 65.36,58.55 C59,62.71 50.79,63.52 43.6,61.29 C43.99,60.38 44.39,59.48 44.79,58.58 C51.65,60.5 59.34,59.38 65.04,55 C72.81,49.56 75.99,38.81 72.95,29.91 C69.78,20.13 59.36,13.31 49.1,14.66 C38.56,15.72 29.56,25.2 29.24,35.82 C28.72,43.69 32.82,51.44 39.31,55.83 C38.99,56.54 38.37,57.94 38.06,58.65 C31.09,54.26 26.4,46.4 26.24,38.13 C25.78,30.05 29.47,21.83 35.91,16.92 Z" id="Path" fill="#B2B6C3" fill-rule="nonzero"></path>
        <path d="M149.51,31.76 C159.32,29.03 170.51,34.81 173.64,44.55 C176.52,52.66 173.58,62.45 166.47,67.39 C161.28,71.24 154.26,71.97 148.18,70.08 C141.28,67.81 135.88,61.52 134.99,54.27 C133.23,44.49 139.81,34.12 149.51,31.76 M150.41,37.63 C145.34,39.21 141.46,43.89 140.7,49.12 C139.16,57.42 146.72,65.91 155.16,65.29 C163.69,65.35 170.82,56.28 168.53,48.02 C166.92,40.24 157.99,34.89 150.41,37.63 Z" id="Shape" fill="#B2B6C3" fill-rule="nonzero"></path>
        <path d="M335.55,32.24 C335.42,30.94 337.4,31.49 338.21,31.06 C346.09,40.26 354.1,49.35 361.96,58.57 C362.08,49.66 361.9,40.75 362.06,31.84 C363.99,31.76 365.93,31.75 367.87,31.82 C368.12,44.81 368.02,57.82 367.92,70.81 C367.22,70.87 365.82,71 365.12,71.06 C357.25,61.7 349.35,52.36 341.52,42.97 C341.41,52.14 341.67,61.31 341.38,70.47 C339.45,70.5 337.54,70.5 335.62,70.47 C335.37,57.73 335.5,44.98 335.55,32.24 Z" id="Path" fill="#B2B6C3" fill-rule="nonzero"></path>
        <path d="M440.73,33.89 C441.29,32.54 442.11,31.33 443.04,30.19 C449.28,43.49 455.02,57.03 460.81,70.53 C460.1,70.5 458.66,70.44 457.95,70.4 C456.07,67.08 454.77,63.46 453.17,60 C446.2,60 439.24,60 432.28,60 C430.72,63.49 429.25,67.03 427.63,70.49 C426.89,70.49 425.4,70.49 424.66,70.48 C429.84,58.21 435.45,46.12 440.73,33.89 M442.84,35.69 C439.69,42.96 436.48,50.2 433.4,57.5 C439.63,57.5 445.86,57.49 452.09,57.51 C448.96,50.26 445.94,42.96 442.84,35.69 Z" id="Shape" fill="#B2B6C3" fill-rule="nonzero"></path>
        <path d="M475.39,35.25 C483.05,29.3 495.18,29.76 501.92,36.93 C501.42,37.39 500.42,38.31 499.92,38.77 C497.2,36.89 494.49,34.75 491.14,34.19 C482.43,32.05 472.96,38.36 471.14,47.04 C469.29,54.42 472.91,62.79 479.72,66.28 C485.69,69.53 493.17,68.6 499,65.46 C498.99,62.06 499,58.65 499,55.25 C495.67,55.25 492.34,55.27 489.01,55.21 C489.01,54.53 489,53.18 489,52.5 C493.33,52.52 497.66,52.42 501.99,52.6 C501.89,57.3 502.24,62.03 501.83,66.72 C498.24,70.15 492.73,70.94 487.94,71.03 C480.95,71.33 474.02,67.59 470.48,61.56 C465.3,53.19 467.41,41.12 475.39,35.25 Z" id="Path" fill="#B2B6C3" fill-rule="nonzero"></path>
        <path d="M552.86,31.77 C553.16,31.53 553.76,31.05 554.06,30.81 C556.35,32.9 558.04,35.54 559.94,37.97 C566.96,47.09 573.96,56.24 580.99,65.37 C581.02,54.17 580.98,42.97 581.01,31.77 C581.69,31.79 583.05,31.83 583.74,31.85 C583.67,45.01 583.9,58.19 583.62,71.35 C582.45,70.95 581.15,70.67 580.54,69.49 C572.12,58.6 563.77,47.65 555.5,36.64 C555.49,47.87 555.53,59.09 555.48,70.32 C554.57,70.41 553.68,70.5 552.78,70.59 C552.78,57.65 552.61,44.7 552.86,31.77 Z" id="Path" fill="#B2B6C3" fill-rule="nonzero"></path>
        <path d="M600.8,38.85 C607.62,29.51 622.97,28.41 630.91,36.92 C630.42,37.41 629.46,38.38 628.98,38.87 C624.96,35.33 619.58,33.11 614.17,34.07 C605.11,35.23 598.33,44.61 599.8,53.58 C600.81,62.14 609.13,69.13 617.79,68.3 C622.04,68.37 625.5,65.75 628.86,63.51 C629.39,63.91 630.44,64.7 630.96,65.1 C623.29,73.62 608.19,72.91 601.17,63.93 C595.24,57.01 595.04,45.93 600.8,38.85 Z" id="Path" fill="#B2B6C3" fill-rule="nonzero"></path>
        <path d="M186.56,31.79 C191.67,31.77 196.79,31.63 201.89,31.83 C208.66,32.38 213.87,39.45 212.58,46.08 C211.78,51.66 206.68,56.29 201.04,56.48 C198.19,56.56 195.34,56.49 192.5,56.49 C192.43,61.03 192.67,65.59 192.37,70.12 C190.58,70.93 188.45,70.33 186.53,70.41 C186.49,57.54 186.44,44.67 186.56,31.79 M192.5,37.51 C192.5,42 192.5,46.5 192.5,51 C195.82,50.89 199.26,51.41 202.48,50.37 C206.55,48.88 208.24,43.06 205.18,39.83 C201.97,36.21 196.71,37.86 192.5,37.51 Z" id="Shape" fill="#B2B6C3" fill-rule="nonzero"></path>
        <path d="M223.01,31.77 C224.96,31.75 226.91,31.76 228.87,31.83 C229.22,40.29 228.81,48.76 229.08,57.21 C229.43,61.57 233.23,65.41 237.7,65.3 C242.47,65.76 246.86,61.66 246.98,56.93 C247.11,48.57 246.82,40.2 247.13,31.83 C249.12,31.76 251.12,31.75 253.12,31.78 C253.4,39.2 253.17,46.62 253.26,54.05 C253.38,58.18 252.6,62.58 249.79,65.78 C244.3,72.71 232.44,72.93 226.65,66.28 C224.21,63.53 222.8,59.82 222.98,56.13 C223.02,48.01 222.98,39.89 223.01,31.77 Z" id="Path" fill="#B2B6C3" fill-rule="nonzero"></path>
        <path d="M267.29,70.39 C267.28,57.52 267.14,44.64 267.36,31.77 C269.3,31.75 271.25,31.76 273.2,31.8 C273.32,42.94 273.21,54.09 273.26,65.24 C278.58,65.31 283.91,65.14 289.24,65.37 C289.24,67.06 289.23,68.75 289.2,70.44 C281.9,70.51 274.59,70.6 267.29,70.39 Z" id="Path" fill="#B2B6C3" fill-rule="nonzero"></path>
        <path d="M299.06,31.86 C307.12,31.63 315.19,31.79 323.26,31.76 C323.25,33.51 323.23,35.25 323.21,37 C317.05,37 310.9,37 304.74,37 C304.74,40.75 304.74,44.5 304.74,48.26 C310.04,48.28 315.34,48.2 320.65,48.31 C320.69,50.01 320.68,51.71 320.68,53.41 C315.36,53.6 310.05,53.47 304.73,53.5 C304.75,57.42 304.74,61.34 304.74,65.26 C310.89,65.26 317.04,65.24 323.19,65.27 C323.23,67.01 323.24,68.75 323.26,70.49 C315.17,70.46 307.09,70.62 299.01,70.4 C299.03,57.55 298.93,44.7 299.06,31.86 Z" id="Path" fill="#B2B6C3" fill-rule="nonzero"></path>
        <path d="M377.77,31.81 C386.39,31.71 395.02,31.73 403.65,31.79 C403.71,33.51 403.73,35.23 403.73,36.94 C400.4,37.03 397.07,37 393.74,37 C393.72,48.13 393.79,59.26 393.71,70.39 C391.74,70.49 389.76,70.5 387.8,70.47 C387.68,59.32 387.78,48.16 387.75,37 C384.45,37 381.15,37.03 377.85,36.94 C377.78,35.23 377.76,33.52 377.77,31.81 Z" id="Path" fill="#B2B6C3" fill-rule="nonzero"></path>
        <path d="M515.52,70.48 C515.47,57.57 515.5,44.67 515.51,31.77 C523.38,31.78 531.26,31.65 539.13,31.82 C539.13,32.41 539.13,33.59 539.13,34.18 C532.26,34.37 525.38,34.19 518.51,34.26 C518.49,39.26 518.51,44.26 518.5,49.27 C524.75,49.41 531.04,48.88 537.27,49.61 C536.98,50.18 536.4,51.34 536.11,51.91 C530.25,52.14 524.37,51.93 518.5,52 C518.5,57.33 518.5,62.67 518.5,68 C525.46,68.02 532.42,67.95 539.38,68.04 C539.29,68.63 539.12,69.82 539.03,70.41 C531.2,70.63 523.36,70.46 515.52,70.48 Z" id="Path" fill="#B2B6C3" fill-rule="nonzero"></path>
        <path d="M636.58,31.84 C637.42,31.81 639.11,31.74 639.96,31.7 C644.28,37.43 648.44,43.27 652.69,49.04 C657,43.31 661.23,37.53 665.5,31.78 C666.35,31.79 668.05,31.83 668.9,31.85 C664.18,38.69 658.99,45.18 654,51.81 C654,58.02 654,64.22 654,70.43 C653.31,70.45 651.95,70.5 651.27,70.52 C651.24,64.31 651.26,58.09 651.26,51.88 C646.46,45.14 641.32,38.63 636.58,31.84 Z" id="Path" fill="#B2B6C3" fill-rule="nonzero"></path>
        <path d="M27.45,87 C34.49,69.41 41.63,51.86 48.6,34.24 C50.29,34.25 51.98,34.27 53.68,34.29 C46.75,51.89 39.64,69.42 32.65,86.99 C30.92,87 29.18,87 27.45,87 Z" id="Path" fill="#B2B6C3" fill-rule="nonzero"></path>
        <path d="M54.48,34.06 C57.61,41.12 60.3,48.36 63.19,55.52 C61.75,56.22 60.32,56.92 58.88,57.62 C56.66,52.12 54.37,46.65 52.28,41.1 C52.26,38.6 53.8,36.41 54.48,34.06 Z" id="Path" fill="#B2B6C3" fill-rule="nonzero"></path>
        <path d="M60.49,61.74 C61.96,61.05 63.42,60.35 64.87,59.62 C68.5,68.75 72.14,77.89 75.83,87 C74.1,87 72.37,87 70.64,87 C67.35,78.54 63.87,70.16 60.49,61.74 Z" id="Path" fill="#B2B6C3" fill-rule="nonzero"></path>
    </g>
</svg>