<svg width="183" height="64" viewBox="0 0 183 64" fill="none" xmlns="http://www.w3.org/2000/svg">
<path d="M51.976 35.09V32.8602C49.7626 32.9566 48.3028 33.3386 47.597 34.0064C46.891 34.6743 46.5383 35.6407 46.5383 36.9072C46.5383 37.8295 46.7504 38.5451 47.1752 39.0541C47.5999 39.5638 48.0875 39.8183 48.6379 39.8183C49.3439 39.8183 49.9809 39.5466 50.5492 39.0027C51.1174 38.4593 51.4973 37.9123 51.6887 37.3616C51.88 36.8109 51.976 36.0535 51.976 35.09ZM51.976 31.9103V29.8043C51.976 28.0841 51.8532 26.9551 51.6079 26.4186C51.3628 25.8813 50.7017 25.6134 49.625 25.6134C47.6869 25.6134 46.7175 26.0402 46.7175 26.8931C46.7175 27.141 46.7983 27.4132 46.96 27.7088C47.1216 28.005 47.2023 28.3528 47.2023 28.7514C47.2023 29.3162 47.0408 29.7461 46.7175 30.0417C46.3945 30.3379 46.0296 30.4857 45.6228 30.4857C45.0962 30.4857 44.6897 30.2968 44.4025 29.9178C44.1155 29.5393 43.9719 29.0961 43.9719 28.5865C43.9719 27.4855 44.5309 26.5596 45.65 25.8095C46.7685 25.0596 48.3266 24.6841 50.3248 24.6841C51.9281 24.6841 53.1003 24.8976 53.8426 25.3238C54.5842 25.7506 55.0418 26.2811 55.2152 26.914C55.3884 27.5476 55.4757 28.4416 55.4757 29.5983V37.196C55.4757 38.3109 55.5443 39.0063 55.6818 39.2816C55.8194 39.5571 56.0319 39.6944 56.3191 39.6944C56.7497 39.6944 57.1684 39.3571 57.5752 38.6826H58.006C57.6947 40.6928 56.678 41.6974 54.9552 41.6974C53.2922 41.6974 52.299 40.596 51.976 38.3938C50.576 40.596 48.9368 41.6974 47.0587 41.6974C45.8143 41.6974 44.8212 41.3079 44.0796 40.5303C43.3376 39.7533 42.9669 38.7996 42.9669 37.6714C42.9669 34.161 45.9697 32.2408 51.976 31.9103Z" fill="#539BCE"/>
<path d="M62.7618 40.128V26.0057H60.2136V24.9522H61.8467C63.462 24.9522 64.9275 24.8492 66.2435 24.6425V28.6692H66.3154C67.5473 25.8476 69.2882 24.4364 71.5376 24.4364C72.5905 24.4364 73.455 24.7462 74.131 25.3656C74.8068 25.9849 75.2675 26.7147 75.5131 27.5542C75.7579 28.3938 75.8807 29.6945 75.8807 31.4565V40.128H78.6804V41.1809H69.9944V40.128H72.3814V29.8043C72.3814 28.2215 72.2942 27.1273 72.1209 26.5215C71.9475 25.9161 71.4956 25.6133 70.7662 25.6133C69.6054 25.6133 68.5615 26.2982 67.6343 27.6677C66.707 29.037 66.2435 30.8782 66.2435 33.1908V40.128H68.5944V41.1809H60.2136V40.128H62.7618Z" fill="#539BCE"/>
<path d="M84.4409 30.899H89.6635C89.7589 29.9214 89.8071 29.1781 89.8071 28.6691C89.8071 26.4669 88.9393 25.3655 87.2048 25.3655C86.3434 25.3655 85.6674 25.6304 85.1767 26.1602C84.686 26.6901 84.4409 27.4094 84.4409 28.3176V30.899ZM93.5221 31.828H84.4409C84.3571 35.9025 84.5547 38.4108 85.0331 39.3535C85.5115 40.2966 86.3672 40.7682 87.5996 40.7682C90.1357 40.7682 91.8529 39.075 92.7502 35.6885H93.5221C93.1272 37.7398 92.3792 39.254 91.2786 40.2309C90.1775 41.2085 88.9514 41.6973 87.5996 41.6973C85.6732 41.6973 83.9982 40.8749 82.5745 39.2295C81.1507 37.5854 80.4391 35.5168 80.4391 33.0252C80.4391 30.6028 81.1359 28.5655 82.5297 26.914C83.9235 25.2617 85.5417 24.4365 87.3842 24.4365C88.9875 24.4365 90.3904 25.0902 91.5927 26.3976C92.795 27.7056 93.4382 29.5154 93.5221 31.828Z" fill="#539BCE"/>
<path d="M107.664 33.1079C107.664 31.4429 107.553 30.1796 107.332 29.3193C107.111 28.4594 106.65 27.5848 105.95 26.6969C105.25 25.8095 104.314 25.3655 103.142 25.3655C102.567 25.3655 102.056 25.5856 101.607 26.0259C101.158 26.4669 100.88 27.1617 100.773 28.1116C100.665 29.0609 100.611 30.7266 100.611 33.1079C100.611 36.1227 100.82 38.1078 101.239 39.0645C101.658 40.0212 102.352 40.4996 103.321 40.4996C104.278 40.4996 105.14 40.1659 105.905 39.4982C106.671 38.8309 107.155 38.0362 107.359 37.1137C107.562 36.1913 107.664 34.8563 107.664 33.1079ZM107.664 38.4764H107.592C106.599 40.445 105.199 41.4287 103.393 41.4287C101.67 41.4287 100.105 40.5585 98.6997 38.8168C97.2936 37.0757 96.591 35.0145 96.591 32.6332C96.591 30.4034 97.2342 28.4796 98.5204 26.8624C99.8062 25.2454 101.299 24.4365 102.998 24.4365C105.068 24.4365 106.599 25.6066 107.592 27.9461H107.664V24.6842C109.088 24.8633 110.457 24.9521 111.774 24.9521H113.802V26.0058H111.146V50.8232H113.586V52H104.757V50.8232H107.664V38.4764Z" fill="#539BCE"/>
<path d="M131.156 24.9522V40.1281H133.579V41.181H131.156C129.289 41.181 128.111 41.2637 127.62 41.4288V37.5884H127.548C126.472 40.1489 124.779 41.4288 122.47 41.4288C121.142 41.4288 120.074 41.0259 119.266 40.2206C118.459 39.4154 118.055 37.7191 118.055 35.1311V26.0058H115.452V24.9522H121.554V35.8542C121.554 37.5609 121.644 38.7414 121.824 39.3951C122.003 40.049 122.463 40.3758 123.206 40.3758C124.306 40.3758 125.323 39.6981 126.256 38.3422C127.189 36.9863 127.656 34.9453 127.656 32.2199V26.0058H124.785V24.9522H131.156Z" fill="#539BCE"/>
<path d="M137.939 16.6939C137.939 16.088 138.134 15.5649 138.522 15.1246C138.911 14.6843 139.369 14.4635 139.896 14.4635C140.422 14.4635 140.88 14.6806 141.268 15.1141C141.657 15.5478 141.852 16.0745 141.852 16.6939C141.852 17.3409 141.661 17.8775 141.278 18.3044C140.895 18.7312 140.434 18.944 139.896 18.944C139.357 18.944 138.897 18.7275 138.514 18.2939C138.131 17.8604 137.939 17.3268 137.939 16.6939ZM141.547 24.6424V40.128H143.898V41.1809H135.552V40.128H138.065V26.0057H135.552V24.9522H138.101C139.321 24.9522 140.47 24.8492 141.547 24.6424Z" fill="#539BCE"/>
<path d="M148.385 40.128V26.0057H145.854V24.9522H147.433C149.299 24.9522 150.783 24.8632 151.884 24.6842V28.6692H151.956C152.901 26.0125 154.588 24.6842 157.017 24.6842C159.661 24.6842 161.12 26.0953 161.396 28.9169H161.467C162.508 26.0953 164.237 24.6842 166.654 24.6842C167.731 24.6842 168.637 24.9939 169.372 25.6133C170.109 26.2327 170.563 26.9484 170.737 27.7602C170.91 28.5728 170.997 29.9147 170.997 31.7864V40.128H173.491V41.1809H165.146V40.128H167.498V29.9283C167.498 28.3177 167.417 27.2103 167.255 26.6043C167.094 25.9984 166.66 25.6954 165.953 25.6954C164.985 25.6954 163.989 26.3252 162.966 27.5849C161.943 28.8446 161.432 31.2363 161.432 34.7595V40.128H163.746V41.1809H155.616V40.128H157.95V32.1377C157.95 29.0273 157.851 27.1752 157.653 26.5834C157.456 25.9916 156.986 25.6954 156.245 25.6954C155.228 25.6954 154.339 26.2119 153.58 27.2446C152.82 28.2766 152.348 29.2818 152.162 30.2587C151.977 31.2363 151.884 32.7916 151.884 34.925V40.128H154.199V41.1809H145.854V40.128H148.385Z" fill="#539BCE"/>
<mask id="mask0_40_3720" style="mask-type:luminance" maskUnits="userSpaceOnUse" x="15" y="16" width="19" height="31">
<path d="M25.4905 21.3636C25.5179 22.4659 25.5225 23.5232 25.5107 24.4732L25.5225 24.4771L25.4463 36.3207L15.1966 42.1945L15.1398 42.1609L15.1238 42.1689C15.994 42.6816 18.7528 44.4704 19.802 45.0401C20.877 45.6203 21.7441 46.0305 22.4995 46.285C23.3692 46.5446 24.0884 46.5832 24.8145 46.4187L33.6349 41.7008L33.7144 33.8494L33.698 33.8554C33.7278 33.1784 33.8324 30.0826 33.7522 26.7284C33.6587 22.924 33.1232 21.6742 31.1124 20.3973C29.1006 19.1172 25.5779 16.9289 25.5779 16.9289L24.136 16.0715C25.1078 17.137 25.4201 18.5529 25.4905 21.3636Z" fill="white"/>
</mask>
<g mask="url(#mask0_40_3720)">
<path d="M25.4905 21.3636C25.5179 22.4659 25.5225 23.5232 25.5107 24.4732L25.5225 24.4771L25.4463 36.3207L15.1966 42.1945L15.1398 42.1609L15.1238 42.1689C15.994 42.6816 18.7528 44.4704 19.802 45.0401C20.877 45.6203 21.7441 46.0305 22.4995 46.285C23.3692 46.5446 24.0884 46.5832 24.8145 46.4187L33.6349 41.7008L33.7144 33.8494L33.698 33.8554C33.7278 33.1784 33.8324 30.0826 33.7522 26.7284C33.6587 22.924 33.1232 21.6742 31.1124 20.3973C29.1006 19.1172 25.5779 16.9289 25.5779 16.9289L24.136 16.0715C25.1078 17.137 25.4201 18.5529 25.4905 21.3636Z" fill="url(#paint0_linear_40_3720)"/>
</g>
<mask id="mask1_40_3720" style="mask-type:luminance" maskUnits="userSpaceOnUse" x="0" y="24" width="27" height="27">
<path d="M3.79005 27.136C2.74713 27.783 1.95853 28.3364 1.35637 28.8692C0.69784 29.4975 0.368731 29.9203 0.146663 30.6384L0 41.0559L6.50432 44.9021L6.5057 44.8852C7.07899 45.2476 9.71017 46.8911 12.658 48.5002C15.9972 50.3224 17.3502 50.4836 19.467 49.3632C21.586 48.2464 25.2485 46.2619 25.2485 46.2619L26.7156 45.4315C25.3056 45.748 23.9199 45.3106 21.4506 43.9615C20.4818 43.4347 19.5638 42.9086 18.7455 42.4252L18.7365 42.4326L8.51276 36.4348L8.56774 24.5331L8.62563 24.4993V24.4815C7.74581 24.9871 4.81178 26.5007 3.79005 27.136Z" fill="white"/>
</mask>
<g mask="url(#mask1_40_3720)">
<path d="M3.79005 27.136C2.74713 27.783 1.95853 28.3364 1.35637 28.8692C0.69784 29.4975 0.368731 29.9203 0.146663 30.6384L0 41.0559L6.50432 44.9021L6.5057 44.8852C7.07899 45.2476 9.71017 46.8911 12.658 48.5002C15.9972 50.3224 17.3502 50.4836 19.467 49.3632C21.586 48.2464 25.2485 46.2619 25.2485 46.2619L26.7156 45.4315C25.3056 45.748 23.9199 45.3106 21.4506 43.9615C20.4818 43.4347 19.5638 42.9086 18.7455 42.4252L18.7365 42.4326L8.51276 36.4348L8.56774 24.5331L8.62563 24.4993V24.4815C7.74581 24.9871 4.81178 26.5007 3.79005 27.136Z" fill="url(#paint1_linear_40_3720)"/>
</g>
<mask id="mask2_40_3720" style="mask-type:luminance" maskUnits="userSpaceOnUse" x="0" y="12" width="26" height="21">
<path d="M10.7256 15.7069L10.7419 15.7187C10.1408 16.0312 7.40594 17.4852 4.53626 19.234C1.28418 21.2155 0.465933 22.309 0.355513 24.7123C0.249854 27.1148 0.105034 31.2957 0.105034 31.2957L0.0776978 32.9895C0.516919 31.6041 1.59148 30.6205 3.99291 29.157C4.93739 28.5822 5.85239 28.0494 6.68107 27.5825L6.67877 27.5728L16.9825 21.7226L25.5086 26.7831L25.5232 24.3593L25.5114 24.3548C25.5208 23.399 25.5163 22.3365 25.4867 21.2295C25.4208 18.6714 25.1522 17.2679 24.3803 16.2272L16.9825 12L10.7256 15.7069Z" fill="white"/>
</mask>
<g mask="url(#mask2_40_3720)">
<path d="M10.7256 15.7069L10.7419 15.7187C10.1408 16.0312 7.40594 17.4852 4.53626 19.234C1.28418 21.2155 0.465933 22.309 0.355513 24.7123C0.249854 27.1148 0.105034 31.2957 0.105034 31.2957L0.0776978 32.9895C0.516919 31.6041 1.59148 30.6205 3.99291 29.157C4.93739 28.5822 5.85239 28.0494 6.68107 27.5825L6.67877 27.5728L16.9825 21.7226L25.5086 26.7831L25.5232 24.3593L25.5114 24.3548C25.5208 23.399 25.5163 22.3365 25.4867 21.2295C25.4208 18.6714 25.1522 17.2679 24.3803 16.2272L16.9825 12L10.7256 15.7069Z" fill="url(#paint2_linear_40_3720)"/>
</g>
<path d="M176.627 15.4209C176.577 15.3624 176.51 15.3058 176.427 15.2513C176.343 15.197 176.25 15.1477 176.146 15.1037C176.042 15.0598 175.928 15.0243 175.806 14.997C175.683 14.9698 175.555 14.9562 175.421 14.9562C175.076 14.9562 174.823 15.0212 174.663 15.1508C174.502 15.2807 174.422 15.4586 174.422 15.6847C174.422 15.8062 174.445 15.9066 174.491 15.9861C174.537 16.0656 174.608 16.1336 174.706 16.1901C174.804 16.2466 174.926 16.2959 175.072 16.3377C175.217 16.3796 175.39 16.4236 175.59 16.4696C175.819 16.5198 176.026 16.5774 176.211 16.6423C176.397 16.7073 176.555 16.7879 176.686 16.8841C176.817 16.9805 176.917 17.0976 176.986 17.2358C177.055 17.3738 177.089 17.5435 177.089 17.7445C177.089 17.9579 177.047 18.1432 176.964 18.3003C176.881 18.4572 176.767 18.5869 176.623 18.6896C176.48 18.7921 176.31 18.8675 176.115 18.9155C175.919 18.9637 175.707 18.9878 175.478 18.9878C175.136 18.9878 174.812 18.9344 174.507 18.8276C174.201 18.7209 173.923 18.565 173.673 18.3599L173.941 17.8825C174.008 17.9537 174.094 18.0249 174.201 18.0961C174.307 18.1673 174.427 18.2311 174.563 18.2876C174.698 18.3441 174.844 18.3903 175 18.4258C175.156 18.4613 175.319 18.4791 175.49 18.4791C175.806 18.4791 176.052 18.4226 176.227 18.3097C176.402 18.1966 176.489 18.0269 176.489 17.801C176.489 17.6753 176.461 17.5696 176.405 17.4838C176.349 17.3981 176.267 17.3236 176.158 17.2609C176.05 17.1981 175.916 17.1426 175.756 17.0945C175.595 17.0463 175.413 16.9972 175.209 16.9468C174.984 16.8925 174.787 16.8338 174.616 16.7711C174.445 16.7082 174.302 16.6329 174.188 16.545C174.073 16.457 173.987 16.3503 173.929 16.2247C173.871 16.0992 173.841 15.9484 173.841 15.7725C173.841 15.5591 173.881 15.3707 173.96 15.2073C174.039 15.0441 174.15 14.906 174.291 14.793C174.433 14.6799 174.601 14.5951 174.797 14.5386C174.992 14.4821 175.205 14.4538 175.434 14.4538C175.734 14.4538 176.004 14.4999 176.246 14.5919C176.487 14.6841 176.702 14.8076 176.889 14.9624L176.627 15.4209Z" fill="#539BCE"/>
<path d="M181.66 18.9438V15.4962L180.186 18.14H179.868L178.388 15.4962V18.9438H177.826V14.4851H178.419L180.024 17.3802L181.635 14.4851H182.222V18.9438H181.66Z" fill="#539BCE"/>
<defs>
<linearGradient id="paint0_linear_40_3720" x1="31.2499" y1="16.1506" x2="23.2403" y2="46.1305" gradientUnits="userSpaceOnUse">
<stop stop-color="#549BCE"/>
<stop offset="0.284848" stop-color="#549BCE"/>
<stop offset="1" stop-color="#BDBCBC"/>
</linearGradient>
<linearGradient id="paint1_linear_40_3720" x1="14.1116" y1="51.9076" x2="11.7018" y2="24.5164" gradientUnits="userSpaceOnUse">
<stop stop-color="#549BCE"/>
<stop offset="0.284848" stop-color="#549BCE"/>
<stop offset="1" stop-color="#BDBCBC"/>
</linearGradient>
<linearGradient id="paint2_linear_40_3720" x1="1.0948" y1="32.7747" x2="23.288" y2="17.3212" gradientUnits="userSpaceOnUse">
<stop stop-color="#549BCE"/>
<stop offset="0.284848" stop-color="#549BCE"/>
<stop offset="1" stop-color="#BDBCBC"/>
</linearGradient>
</defs>
</svg>
