<svg width="64" height="72" viewBox="0 0 64 72" fill="none" xmlns="http://www.w3.org/2000/svg">
<path d="M5.30463 56.0537L32.5167 69.9291L58.6954 56.0537V1.79483H5.30463V56.0537Z" fill="#9197A9"/>
<path d="M59.2465 2.00192L4.75351 57.0201L32.9989 71.0336L59.2465 57.5724V2.00192Z" fill="#898FA2"/>
<path d="M3.51343 19.8811V57.2272L4.47791 57.7105L31.69 71.5858L32.5167 72L33.3433 71.5858L59.5909 57.7105L60.5554 57.2272V0H3.51343V19.8811ZM5.3046 56.1918V1.79482H58.7642V56.1918L32.5167 70.0671L5.3046 56.1918Z" fill="#4D5672"/>
<path d="M32.0345 2.69223C32.31 2.69223 32.5856 2.69223 32.8612 2.76127L32.0345 4.34899C30.7944 4.27996 29.6922 5.24641 29.6233 6.48897C29.5544 7.73154 30.5189 8.83605 31.7589 8.90508H32.0345C32.5856 8.90508 33.1367 8.69799 33.5501 8.35283L34.4457 9.87152C33.7567 10.3547 32.93 10.6309 32.0345 10.6309C29.8299 10.6999 27.9699 9.04315 27.901 6.83413C27.8321 4.62512 29.4855 2.76127 31.69 2.69223H32.0345ZM34.859 6.07478L35.8924 7.80058L34.859 9.45733L33.8945 7.80058H31.8967L32.93 6.07478H34.859ZM33.2056 5.4535C33.2056 5.17737 33.2745 4.90125 33.4123 4.69415C33.5501 4.48706 33.8256 4.27996 34.0323 4.1419L34.1701 4.07287C34.4457 3.9348 34.5145 3.86577 34.5145 3.72771C34.5145 3.58965 34.3079 3.45158 34.1701 3.45158C33.8945 3.45158 33.6879 3.58965 33.5501 3.86577L33.2056 3.52061C33.2745 3.38255 33.4123 3.24449 33.5501 3.10642C33.7567 2.96836 33.9634 2.96836 34.1701 2.96836C34.3768 2.96836 34.6523 3.03739 34.7901 3.17546C34.9279 3.31352 35.0657 3.52061 35.0657 3.72771C35.0657 4.07287 34.859 4.34899 34.4457 4.48706L34.239 4.62512C34.0323 4.76318 33.8945 4.83221 33.8256 5.03931H35.0657V5.52253L33.2056 5.4535ZM32.0345 14.0825L38.5791 10.3547V0H25.4209V10.2857L32.0345 14.0825Z" fill="#4D5672"/>
<path d="M61.8644 38.5197H2.20452L0 43.3519L2.20452 48.1841H61.8644L64 43.3519L61.8644 38.5197Z" fill="#4D5672"/>
<path d="M8.18429 35.4132C8.16133 35.4132 8.14296 35.404 8.12918 35.3856C8.11081 35.3718 8.10162 35.3534 8.10162 35.3304V30.6639C8.10162 30.6408 8.11081 30.6224 8.12918 30.6086C8.14296 30.5902 8.16133 30.581 8.18429 30.581H8.99032C9.01328 30.581 9.03395 30.5902 9.05232 30.6086C9.0661 30.6224 9.07299 30.6408 9.07299 30.6639V35.3304C9.07299 35.3534 9.0661 35.3718 9.05232 35.3856C9.03395 35.404 9.01328 35.4132 8.99032 35.4132H8.18429ZM13.7783 31.8098C14.1365 31.8098 14.4167 31.9179 14.6187 32.1342C14.8208 32.3505 14.9219 32.6543 14.9219 33.0454V35.3304C14.9219 35.3534 14.9127 35.3718 14.8943 35.3856C14.8805 35.404 14.8622 35.4132 14.8392 35.4132H14.0332C14.0102 35.4132 13.9895 35.404 13.9712 35.3856C13.9574 35.3718 13.9505 35.3534 13.9505 35.3304V33.2594C13.9505 33.0708 13.9023 32.9212 13.8058 32.8107C13.7094 32.7003 13.5808 32.6451 13.42 32.6451C13.2593 32.6451 13.1284 32.7003 13.0273 32.8107C12.9263 32.9212 12.8758 33.0685 12.8758 33.2525V35.3304C12.8758 35.3534 12.8666 35.3718 12.8482 35.3856C12.8345 35.404 12.8161 35.4132 12.7931 35.4132H11.994C11.971 35.4132 11.9503 35.404 11.932 35.3856C11.9182 35.3718 11.9113 35.3534 11.9113 35.3304V33.2594C11.9113 33.0754 11.8608 32.9258 11.7597 32.8107C11.6587 32.7003 11.5278 32.6451 11.3671 32.6451C11.2201 32.6451 11.0961 32.6888 10.9951 32.7762C10.8986 32.8637 10.8412 32.9856 10.8228 33.1421V35.3304C10.8228 35.3534 10.8159 35.3718 10.8022 35.3856C10.7838 35.404 10.7631 35.4132 10.7402 35.4132H9.93413C9.91117 35.4132 9.8928 35.404 9.87902 35.3856C9.86065 35.3718 9.85146 35.3534 9.85146 35.3304V31.9478C9.85146 31.9248 9.86065 31.9041 9.87902 31.8857C9.8928 31.8719 9.91117 31.865 9.93413 31.865H10.7402C10.7631 31.865 10.7838 31.8719 10.8022 31.8857C10.8159 31.9041 10.8228 31.9248 10.8228 31.9478V32.2171C10.8228 32.2309 10.8274 32.2401 10.8366 32.2447C10.8458 32.2493 10.855 32.2447 10.8642 32.2309C11.0525 31.9501 11.3441 31.8098 11.7391 31.8098C11.9687 31.8098 12.1685 31.8581 12.3384 31.9548C12.513 32.0514 12.6462 32.1895 12.738 32.3689C12.7518 32.3966 12.7679 32.3966 12.7862 32.3689C12.8873 32.1803 13.0228 32.0399 13.1927 31.9478C13.3672 31.8558 13.5624 31.8098 13.7783 31.8098ZM18.766 32.8176C18.8487 33.0524 18.89 33.3285 18.89 33.646C18.89 33.9636 18.8464 34.2512 18.7591 34.5089C18.6535 34.8035 18.4881 35.0382 18.2631 35.213C18.0334 35.3833 17.751 35.4685 17.4157 35.4685C17.085 35.4685 16.8279 35.3534 16.6441 35.1233C16.635 35.1095 16.6258 35.1049 16.6166 35.1095C16.6074 35.1141 16.6028 35.1233 16.6028 35.1371V36.6144C16.6028 36.6374 16.5959 36.6558 16.5821 36.6696C16.5638 36.688 16.5431 36.6972 16.5201 36.6972H15.7141C15.6911 36.6972 15.6728 36.688 15.659 36.6696C15.6406 36.6558 15.6314 36.6374 15.6314 36.6144V31.9478C15.6314 31.9248 15.6406 31.9041 15.659 31.8857C15.6728 31.8719 15.6911 31.865 15.7141 31.865H16.5201C16.5431 31.865 16.5638 31.8719 16.5821 31.8857C16.5959 31.9041 16.6028 31.9248 16.6028 31.9478V32.1757C16.6028 32.1895 16.6074 32.1964 16.6166 32.1964C16.6258 32.201 16.635 32.1987 16.6441 32.1895C16.837 31.9363 17.1034 31.8098 17.4433 31.8098C17.7602 31.8098 18.0357 31.8995 18.27 32.079C18.4996 32.2539 18.665 32.5001 18.766 32.8176ZM17.712 34.364C17.8268 34.1845 17.8842 33.9406 17.8842 33.6322C17.8842 33.3423 17.836 33.1122 17.7395 32.9419C17.6339 32.744 17.4639 32.6451 17.2297 32.6451C17.0185 32.6451 16.86 32.744 16.7544 32.9419C16.6579 33.1076 16.6097 33.34 16.6097 33.6391C16.6097 33.9475 16.6602 34.1868 16.7613 34.3571C16.8669 34.5411 17.023 34.6332 17.2297 34.6332C17.4364 34.6332 17.5971 34.5434 17.712 34.364ZM19.5996 35.4132C19.5766 35.4132 19.5559 35.404 19.5376 35.3856C19.5238 35.3718 19.5169 35.3534 19.5169 35.3304V30.6639C19.5169 30.6408 19.5238 30.6224 19.5376 30.6086C19.5559 30.5902 19.5766 30.581 19.5996 30.581H20.4056C20.4286 30.581 20.4469 30.5902 20.4607 30.6086C20.4791 30.6224 20.4883 30.6408 20.4883 30.6639V35.3304C20.4883 35.3534 20.4791 35.3718 20.4607 35.3856C20.4469 35.404 20.4286 35.4132 20.4056 35.4132H19.5996ZM24.3324 33.2733C24.36 33.4481 24.3691 33.6437 24.36 33.86C24.3554 33.9152 24.3255 33.9429 24.2704 33.9429H22.1417C22.1141 33.9429 22.1049 33.9544 22.1141 33.9774C22.1279 34.0694 22.1531 34.1615 22.1899 34.2535C22.3093 34.5112 22.5527 34.6401 22.9201 34.6401C23.2141 34.6355 23.446 34.5158 23.6159 34.2811C23.6343 34.2535 23.655 34.2397 23.6779 34.2397C23.6917 34.2397 23.7078 34.2489 23.7262 34.2673L24.2222 34.7574C24.2451 34.7804 24.2566 34.8012 24.2566 34.8196C24.2566 34.8288 24.2474 34.8472 24.2291 34.8748C24.0775 35.0635 23.8823 35.2107 23.6435 35.3166C23.4047 35.4178 23.1429 35.4685 22.8581 35.4685C22.4632 35.4685 22.1302 35.3787 21.8592 35.1992C21.5836 35.0198 21.3862 34.7689 21.2667 34.4468C21.1703 34.2167 21.1221 33.9152 21.1221 33.5425C21.1221 33.2894 21.1565 33.0662 21.2254 32.8729C21.331 32.5461 21.5148 32.2861 21.7765 32.0928C22.0429 31.8995 22.3575 31.8029 22.7204 31.8029C23.1796 31.8029 23.5493 31.9363 23.8295 32.2033C24.1051 32.4702 24.2727 32.8269 24.3324 33.2733ZM22.7272 32.6451C22.4379 32.6451 22.2473 32.7808 22.1554 33.0524C22.1371 33.1122 22.121 33.1858 22.1072 33.2733C22.1072 33.2963 22.1187 33.3078 22.1417 33.3078H23.3335C23.361 33.3078 23.3702 33.2963 23.361 33.2733C23.3381 33.1398 23.3266 33.0754 23.3266 33.08C23.2853 32.9419 23.2141 32.8338 23.113 32.7555C23.0074 32.6819 22.8788 32.6451 22.7272 32.6451ZM28.8861 31.8098C29.2444 31.8098 29.5245 31.9179 29.7266 32.1342C29.9287 32.3505 30.0297 32.6543 30.0297 33.0454V35.3304C30.0297 35.3534 30.0228 35.3718 30.009 35.3856C29.9907 35.404 29.97 35.4132 29.947 35.4132H29.141C29.1181 35.4132 29.0997 35.404 29.0859 35.3856C29.0675 35.3718 29.0584 35.3534 29.0584 35.3304V33.2594C29.0584 33.0708 29.0101 32.9212 28.9137 32.8107C28.8172 32.7003 28.6886 32.6451 28.5279 32.6451C28.3671 32.6451 28.2362 32.7003 28.1352 32.8107C28.0342 32.9212 27.9836 33.0685 27.9836 33.2525V35.3304C27.9836 35.3534 27.9768 35.3718 27.963 35.3856C27.9446 35.404 27.9239 35.4132 27.901 35.4132H27.1018C27.0789 35.4132 27.0605 35.404 27.0467 35.3856C27.0284 35.3718 27.0192 35.3534 27.0192 35.3304V33.2594C27.0192 33.0754 26.9686 32.9258 26.8676 32.8107C26.7666 32.7003 26.6357 32.6451 26.4749 32.6451C26.328 32.6451 26.2062 32.6888 26.1098 32.7762C26.0088 32.8637 25.9491 32.9856 25.9307 33.1421V35.3304C25.9307 35.3534 25.9238 35.3718 25.91 35.3856C25.8916 35.404 25.871 35.4132 25.848 35.4132H25.042C25.019 35.4132 25.0007 35.404 24.9869 35.3856C24.9685 35.3718 24.9593 35.3534 24.9593 35.3304V31.9478C24.9593 31.9248 24.9685 31.9041 24.9869 31.8857C25.0007 31.8719 25.019 31.865 25.042 31.865H25.848C25.871 31.865 25.8916 31.8719 25.91 31.8857C25.9238 31.9041 25.9307 31.9248 25.9307 31.9478V32.2171C25.9307 32.2309 25.9353 32.2401 25.9445 32.2447C25.9536 32.2493 25.9628 32.2447 25.972 32.2309C26.1603 31.9501 26.452 31.8098 26.8469 31.8098C27.0766 31.8098 27.2787 31.8581 27.4532 31.9548C27.6231 32.0514 27.754 32.1895 27.8459 32.3689C27.8596 32.3966 27.8757 32.3966 27.8941 32.3689C27.9951 32.1803 28.1329 32.0399 28.3074 31.9478C28.4774 31.8558 28.6703 31.8098 28.8861 31.8098ZM33.8256 33.2733C33.8532 33.4481 33.8624 33.6437 33.8532 33.86C33.8486 33.9152 33.8187 33.9429 33.7636 33.9429H31.6349C31.6073 33.9429 31.5981 33.9544 31.6073 33.9774C31.6211 34.0694 31.6464 34.1615 31.6831 34.2535C31.8025 34.5112 32.0459 34.6401 32.4134 34.6401C32.7073 34.6355 32.9392 34.5158 33.1092 34.2811C33.1275 34.2535 33.1482 34.2397 33.1712 34.2397C33.1849 34.2397 33.201 34.2489 33.2194 34.2673L33.7154 34.7574C33.7384 34.7804 33.7498 34.8012 33.7498 34.8196C33.7498 34.8288 33.7407 34.8472 33.7223 34.8748C33.5707 35.0635 33.3755 35.2107 33.1367 35.3166C32.8979 35.4178 32.6361 35.4685 32.3514 35.4685C31.9564 35.4685 31.6234 35.3787 31.3524 35.1992C31.0769 35.0198 30.8794 34.7689 30.76 34.4468C30.6635 34.2167 30.6153 33.9152 30.6153 33.5425C30.6153 33.2894 30.6497 33.0662 30.7186 32.8729C30.8243 32.5461 31.0103 32.2861 31.2766 32.0928C31.5384 31.8995 31.8507 31.8029 32.2136 31.8029C32.6728 31.8029 33.0426 31.9363 33.3227 32.2033C33.5983 32.4702 33.7659 32.8269 33.8256 33.2733ZM32.2205 32.6451C31.9311 32.6451 31.7405 32.7808 31.6487 33.0524C31.6303 33.1122 31.6142 33.1858 31.6004 33.2733C31.6004 33.2963 31.6119 33.3078 31.6349 33.3078H32.8267C32.8543 33.3078 32.8634 33.2963 32.8543 33.2733C32.8313 33.1398 32.8198 33.0754 32.8198 33.08C32.7785 32.9419 32.7073 32.8338 32.6063 32.7555C32.5006 32.6819 32.372 32.6451 32.2205 32.6451ZM36.2988 31.8098C36.6662 31.8098 36.9625 31.9225 37.1875 32.148C37.4126 32.3735 37.5251 32.6796 37.5251 33.0662V35.3304C37.5251 35.3534 37.5182 35.3718 37.5044 35.3856C37.486 35.404 37.4654 35.4132 37.4424 35.4132H36.6364C36.6134 35.4132 36.5951 35.404 36.5813 35.3856C36.5629 35.3718 36.5537 35.3534 36.5537 35.3304V33.2664C36.5537 33.0823 36.5032 32.9327 36.4022 32.8176C36.2965 32.7026 36.1587 32.6451 35.9888 32.6451C35.8189 32.6451 35.6834 32.7026 35.5824 32.8176C35.4767 32.9327 35.4239 33.0823 35.4239 33.2664V35.3304C35.4239 35.3534 35.417 35.3718 35.4032 35.3856C35.3849 35.404 35.3642 35.4132 35.3412 35.4132H34.5352C34.5122 35.4132 34.4939 35.404 34.4801 35.3856C34.4617 35.3718 34.4525 35.3534 34.4525 35.3304V31.9478C34.4525 31.9248 34.4617 31.9041 34.4801 31.8857C34.4939 31.8719 34.5122 31.865 34.5352 31.865H35.3412C35.3642 31.865 35.3849 31.8719 35.4032 31.8857C35.417 31.9041 35.4239 31.9248 35.4239 31.9478V32.1895C35.4239 32.2033 35.4285 32.2125 35.4377 32.2171C35.4469 32.2217 35.4538 32.2194 35.4583 32.2102C35.6467 31.9432 35.9268 31.8098 36.2988 31.8098ZM40.2532 32.5622C40.2532 32.5852 40.2463 32.6059 40.2325 32.6244C40.2141 32.6382 40.1935 32.6451 40.1705 32.6451H39.5092C39.4862 32.6451 39.4747 32.6566 39.4747 32.6796V34.1431C39.4747 34.2949 39.5069 34.4077 39.5712 34.4813C39.6309 34.5549 39.7296 34.5918 39.8674 34.5918H40.0947C40.1177 34.5918 40.1384 34.5987 40.1567 34.6125C40.1705 34.6309 40.1774 34.6516 40.1774 34.6746V35.3304C40.1774 35.381 40.1498 35.4109 40.0947 35.4201C39.9018 35.4293 39.7641 35.4339 39.6814 35.4339C39.3002 35.4339 39.0154 35.3718 38.8271 35.2476C38.6388 35.1187 38.5424 34.8794 38.5378 34.5296V32.6796C38.5378 32.6566 38.5263 32.6451 38.5033 32.6451H38.1107C38.0877 32.6451 38.0693 32.6382 38.0555 32.6244C38.0372 32.6059 38.028 32.5852 38.028 32.5622V31.9478C38.028 31.9248 38.0372 31.9041 38.0555 31.8857C38.0693 31.8719 38.0877 31.865 38.1107 31.865H38.5033C38.5263 31.865 38.5378 31.8535 38.5378 31.8305V31.009C38.5378 30.986 38.547 30.9676 38.5653 30.9538C38.5791 30.9354 38.5975 30.9262 38.6205 30.9262H39.392C39.415 30.9262 39.4357 30.9354 39.454 30.9538C39.4678 30.9676 39.4747 30.986 39.4747 31.009V31.8305C39.4747 31.8535 39.4862 31.865 39.5092 31.865H40.1705C40.1935 31.865 40.2141 31.8719 40.2325 31.8857C40.2463 31.9041 40.2532 31.9248 40.2532 31.9478V32.5622ZM42.251 31.8098C42.5496 31.8098 42.8159 31.8604 43.0502 31.9617C43.2844 32.0675 43.4658 32.2102 43.5944 32.3896C43.7276 32.5691 43.7942 32.7693 43.7942 32.9902V35.3304C43.7942 35.3534 43.785 35.3718 43.7666 35.3856C43.7529 35.404 43.7345 35.4132 43.7115 35.4132H42.9055C42.8825 35.4132 42.8642 35.404 42.8504 35.3856C42.832 35.3718 42.8228 35.3534 42.8228 35.3304V35.1026C42.8228 35.0888 42.8182 35.0796 42.809 35.075C42.7999 35.0704 42.7907 35.075 42.7815 35.0888C42.5886 35.3419 42.2786 35.4685 41.8515 35.4685C41.4932 35.4685 41.2039 35.381 40.9834 35.2061C40.763 35.0313 40.6528 34.7735 40.6528 34.433C40.6528 34.0786 40.7768 33.8025 41.0248 33.6046C41.2728 33.4113 41.6264 33.3147 42.0857 33.3147H42.7884C42.8113 33.3147 42.8228 33.3032 42.8228 33.2802V33.1283C42.8228 32.9764 42.7769 32.8568 42.685 32.7693C42.5932 32.6865 42.4554 32.6451 42.2717 32.6451C42.1293 32.6451 42.0122 32.6704 41.9203 32.721C41.8239 32.7716 41.7619 32.843 41.7343 32.935C41.7206 32.9856 41.6907 33.0086 41.6448 33.004L40.8112 32.8936C40.7561 32.8844 40.7308 32.8637 40.7354 32.8315C40.7538 32.6382 40.8296 32.4633 40.9628 32.3068C41.1005 32.1503 41.2797 32.0284 41.5001 31.9409C41.7252 31.8535 41.9755 31.8098 42.251 31.8098ZM42.1132 34.7436C42.3107 34.7436 42.4784 34.6907 42.6161 34.5849C42.7539 34.479 42.8228 34.3432 42.8228 34.1776V33.9291C42.8228 33.906 42.8113 33.8945 42.7884 33.8945H42.2924C42.0857 33.8945 41.9226 33.9337 41.8032 34.0119C41.6884 34.0901 41.631 34.2006 41.631 34.3432C41.631 34.4675 41.6746 34.5641 41.7619 34.6332C41.8492 34.7068 41.9663 34.7436 42.1132 34.7436ZM46.4327 32.5622C46.4327 32.5852 46.4258 32.6059 46.4121 32.6244C46.3937 32.6382 46.373 32.6451 46.3501 32.6451H45.6887C45.6657 32.6451 45.6543 32.6566 45.6543 32.6796V34.1431C45.6543 34.2949 45.6864 34.4077 45.7507 34.4813C45.8104 34.5549 45.9092 34.5918 46.0469 34.5918H46.2743C46.2972 34.5918 46.3179 34.5987 46.3363 34.6125C46.3501 34.6309 46.3569 34.6516 46.3569 34.6746V35.3304C46.3569 35.381 46.3294 35.4109 46.2743 35.4201C46.0814 35.4293 45.9436 35.4339 45.8609 35.4339C45.4797 35.4339 45.195 35.3718 45.0067 35.2476C44.8184 35.1187 44.7219 34.8794 44.7173 34.5296V32.6796C44.7173 32.6566 44.7059 32.6451 44.6829 32.6451H44.2902C44.2673 32.6451 44.2466 32.6382 44.2282 32.6244C44.2144 32.6059 44.2075 32.5852 44.2075 32.5622V31.9478C44.2075 31.9248 44.2144 31.9041 44.2282 31.8857C44.2466 31.8719 44.2673 31.865 44.2902 31.865H44.6829C44.7059 31.865 44.7173 31.8535 44.7173 31.8305V31.009C44.7173 30.986 44.7265 30.9676 44.7449 30.9538C44.7587 30.9354 44.777 30.9262 44.8 30.9262H45.5716C45.5946 30.9262 45.6152 30.9354 45.6336 30.9538C45.6474 30.9676 45.6543 30.986 45.6543 31.009V31.8305C45.6543 31.8535 45.6657 31.865 45.6887 31.865H46.3501C46.373 31.865 46.3937 31.8719 46.4121 31.8857C46.4258 31.9041 46.4327 31.9248 46.4327 31.9478V32.5622ZM47.5419 31.4646C47.3857 31.4646 47.2571 31.4117 47.1561 31.3059C47.0505 31.2046 46.9976 31.0757 46.9976 30.9193C46.9976 30.7582 47.0482 30.627 47.1492 30.5258C47.2502 30.4245 47.3811 30.3739 47.5419 30.3739C47.7026 30.3739 47.8335 30.4245 47.9346 30.5258C48.0356 30.627 48.0861 30.7582 48.0861 30.9193C48.0861 31.0757 48.0333 31.2046 47.9277 31.3059C47.8266 31.4117 47.698 31.4646 47.5419 31.4646ZM47.1285 35.4132C47.1056 35.4132 47.0849 35.404 47.0665 35.3856C47.0527 35.3718 47.0459 35.3534 47.0459 35.3304V31.9409C47.0459 31.9179 47.0527 31.8972 47.0665 31.8788C47.0849 31.865 47.1056 31.8581 47.1285 31.8581H47.9346C47.9575 31.8581 47.9782 31.865 47.9966 31.8788C48.0103 31.8972 48.0172 31.9179 48.0172 31.9409V35.3304C48.0172 35.3534 48.0103 35.3718 47.9966 35.3856C47.9782 35.404 47.9575 35.4132 47.9346 35.4132H47.1285ZM50.3389 35.4685C49.9531 35.4685 49.6224 35.3672 49.3468 35.1647C49.0713 34.9622 48.883 34.6861 48.7819 34.3363C48.7176 34.12 48.6855 33.8853 48.6855 33.6322C48.6855 33.3607 48.7176 33.1168 48.7819 32.9005C48.8876 32.5599 49.0782 32.293 49.3537 32.0997C49.6293 31.9064 49.96 31.8098 50.3458 31.8098C50.7224 31.8098 51.0438 31.9064 51.3102 32.0997C51.5766 32.2884 51.7649 32.553 51.8751 32.8936C51.9486 33.1237 51.9854 33.3653 51.9854 33.6184C51.9854 33.8669 51.9532 34.0993 51.8889 34.3156C51.7879 34.6746 51.5996 34.9576 51.324 35.1647C51.053 35.3672 50.7247 35.4685 50.3389 35.4685ZM50.3389 34.6332C50.4904 34.6332 50.619 34.5872 50.7247 34.4951C50.8303 34.4031 50.9061 34.2765 50.952 34.1154C50.9887 33.9682 51.0071 33.8071 51.0071 33.6322C51.0071 33.4389 50.9887 33.2756 50.952 33.1421C50.9015 32.9856 50.8234 32.8637 50.7178 32.7762C50.6121 32.6888 50.4835 32.6451 50.332 32.6451C50.1758 32.6451 50.0449 32.6888 49.9393 32.7762C49.8383 32.8637 49.7648 32.9856 49.7188 33.1421C49.6821 33.2525 49.6637 33.4159 49.6637 33.6322C49.6637 33.8393 49.6798 34.0004 49.712 34.1154C49.7579 34.2765 49.8337 34.4031 49.9393 34.4951C50.0495 34.5872 50.1827 34.6332 50.3389 34.6332ZM54.4586 31.8098C54.826 31.8098 55.1222 31.9225 55.3473 32.148C55.5723 32.3735 55.6848 32.6796 55.6848 33.0662V35.3304C55.6848 35.3534 55.6756 35.3718 55.6573 35.3856C55.6435 35.404 55.6251 35.4132 55.6022 35.4132H54.7961C54.7732 35.4132 54.7525 35.404 54.7341 35.3856C54.7204 35.3718 54.7135 35.3534 54.7135 35.3304V33.2664C54.7135 33.0823 54.6606 32.9327 54.555 32.8176C54.454 32.7026 54.3185 32.6451 54.1485 32.6451C53.9786 32.6451 53.8408 32.7026 53.7352 32.8176C53.6342 32.9327 53.5836 33.0823 53.5836 33.2664V35.3304C53.5836 35.3534 53.5745 35.3718 53.5561 35.3856C53.5423 35.404 53.5239 35.4132 53.501 35.4132H52.6949C52.672 35.4132 52.6513 35.404 52.6329 35.3856C52.6192 35.3718 52.6123 35.3534 52.6123 35.3304V31.9478C52.6123 31.9248 52.6192 31.9041 52.6329 31.8857C52.6513 31.8719 52.672 31.865 52.6949 31.865H53.501C53.5239 31.865 53.5423 31.8719 53.5561 31.8857C53.5745 31.9041 53.5836 31.9248 53.5836 31.9478V32.1895C53.5836 32.2033 53.5882 32.2125 53.5974 32.2171C53.6066 32.2217 53.6135 32.2194 53.6181 32.2102C53.8064 31.9432 54.0865 31.8098 54.4586 31.8098ZM24.0775 24.4303C24.0775 24.4533 24.0683 24.4717 24.05 24.4855C24.0362 24.5039 24.0178 24.5131 23.9948 24.5131H21.7421C21.7191 24.5131 21.7077 24.5246 21.7077 24.5477V25.6176C21.7077 25.6407 21.7191 25.6522 21.7421 25.6522H23.2233C23.2462 25.6522 23.2646 25.6591 23.2784 25.6729C23.2967 25.6913 23.3059 25.712 23.3059 25.735V26.4046C23.3059 26.4276 23.2967 26.4483 23.2784 26.4667C23.2646 26.4805 23.2462 26.4874 23.2233 26.4874H21.7421C21.7191 26.4874 21.7077 26.4989 21.7077 26.522V28.4272C21.7077 28.4502 21.7008 28.4687 21.687 28.4825C21.6686 28.5009 21.6479 28.5101 21.625 28.5101H20.819C20.796 28.5101 20.7776 28.5009 20.7638 28.4825C20.7455 28.4687 20.7363 28.4502 20.7363 28.4272V23.7607C20.7363 23.7377 20.7455 23.7193 20.7638 23.7055C20.7776 23.6871 20.796 23.6779 20.819 23.6779H23.9948C24.0178 23.6779 24.0362 23.6871 24.05 23.7055C24.0683 23.7193 24.0775 23.7377 24.0775 23.7607V24.4303ZM25.6069 24.9066C25.9054 24.9066 26.1718 24.9572 26.406 25.0585C26.6403 25.1643 26.824 25.307 26.9572 25.4865C27.0858 25.666 27.1501 25.8662 27.1501 26.0871V28.4272C27.1501 28.4502 27.1432 28.4687 27.1294 28.4825C27.111 28.5009 27.0904 28.5101 27.0674 28.5101H26.2614C26.2384 28.5101 26.2177 28.5009 26.1994 28.4825C26.1856 28.4687 26.1787 28.4502 26.1787 28.4272V28.1994C26.1787 28.1856 26.1741 28.1764 26.1649 28.1718C26.1557 28.1672 26.1465 28.1718 26.1374 28.1856C25.9445 28.4387 25.6345 28.5653 25.2073 28.5653C24.8491 28.5653 24.5597 28.4779 24.3393 28.303C24.1188 28.1281 24.0086 27.8704 24.0086 27.5298C24.0086 27.1755 24.1326 26.8993 24.3806 26.7014C24.6286 26.5082 24.9823 26.4115 25.4416 26.4115H26.1442C26.1672 26.4115 26.1787 26.4 26.1787 26.377V26.2251C26.1787 26.0733 26.1328 25.9536 26.0409 25.8662C25.9491 25.7833 25.8113 25.7419 25.6276 25.7419C25.4852 25.7419 25.3681 25.7672 25.2762 25.8178C25.1798 25.8685 25.1178 25.9398 25.0902 26.0318C25.0764 26.0825 25.0466 26.1055 25.0007 26.1009L24.1671 25.9904C24.112 25.9812 24.0867 25.9605 24.0913 25.9283C24.1097 25.735 24.1877 25.5601 24.3255 25.4036C24.4587 25.2472 24.6378 25.1252 24.8629 25.0378C25.0833 24.9503 25.3313 24.9066 25.6069 24.9066ZM25.4691 27.8405C25.6666 27.8405 25.8342 27.7875 25.972 27.6817C26.1098 27.5758 26.1787 27.4401 26.1787 27.2744V27.0259C26.1787 27.0029 26.1672 26.9914 26.1442 26.9914H25.6482C25.4416 26.9914 25.2808 27.0305 25.166 27.1087C25.0466 27.187 24.9869 27.2974 24.9869 27.4401C24.9869 27.5643 25.0305 27.661 25.1178 27.73C25.205 27.8036 25.3221 27.8405 25.4691 27.8405ZM29.2444 28.5584C28.9366 28.5584 28.668 28.5147 28.4383 28.4272C28.2087 28.3398 28.0319 28.2178 27.9079 28.0614C27.7793 27.9049 27.715 27.7277 27.715 27.5298V27.4608C27.715 27.4378 27.7242 27.4194 27.7425 27.4056C27.7563 27.3872 27.7747 27.378 27.7976 27.378H28.5623C28.5853 27.378 28.6037 27.3872 28.6174 27.4056C28.6358 27.4194 28.645 27.4378 28.645 27.4608V27.4677C28.645 27.5689 28.7024 27.6541 28.8172 27.7231C28.9275 27.7967 29.0675 27.8336 29.2375 27.8336C29.3936 27.8336 29.5199 27.8036 29.6164 27.7438C29.7128 27.6794 29.761 27.6012 29.761 27.5091C29.761 27.4263 29.7197 27.3641 29.637 27.3227C29.5544 27.2813 29.4189 27.2376 29.2306 27.1916C29.0147 27.1363 28.8448 27.0834 28.7208 27.0328C28.4268 26.9315 28.1926 26.8073 28.0181 26.66C27.8436 26.5128 27.7563 26.3011 27.7563 26.0249C27.7563 25.6844 27.8895 25.4129 28.1559 25.2104C28.4177 25.0125 28.7667 24.9135 29.203 24.9135C29.497 24.9135 29.7542 24.9618 29.9746 25.0585C30.1951 25.1505 30.3673 25.2817 30.4913 25.452C30.6107 25.6222 30.6704 25.8155 30.6704 26.0318C30.6704 26.0548 30.6635 26.0756 30.6497 26.094C30.6314 26.1078 30.6107 26.1147 30.5877 26.1147H29.8506C29.8276 26.1147 29.8093 26.1078 29.7955 26.094C29.7771 26.0756 29.7679 26.0548 29.7679 26.0318C29.7679 25.9306 29.7174 25.8455 29.6164 25.7764C29.5107 25.7074 29.373 25.6729 29.203 25.6729C29.0515 25.6729 28.9275 25.7005 28.831 25.7557C28.7346 25.8109 28.6863 25.8869 28.6863 25.9835C28.6863 26.0756 28.7346 26.1446 28.831 26.1906C28.9229 26.2366 29.079 26.285 29.2995 26.3356L29.4717 26.3839C29.536 26.3977 29.6049 26.4161 29.6784 26.4391C30.0045 26.5358 30.2617 26.66 30.45 26.8119C30.6383 26.9638 30.7324 27.1847 30.7324 27.4746C30.7324 27.8152 30.5992 28.0798 30.3328 28.2685C30.0619 28.4618 29.699 28.5584 29.2444 28.5584ZM33.3158 25.6591C33.3158 25.6821 33.3089 25.7028 33.2952 25.7212C33.2768 25.735 33.2561 25.7419 33.2332 25.7419H32.5718C32.5488 25.7419 32.5374 25.7534 32.5374 25.7764V27.2399C32.5374 27.3918 32.5695 27.5045 32.6338 27.5781C32.6935 27.6518 32.7923 27.6886 32.93 27.6886H33.1574C33.1803 27.6886 33.201 27.6955 33.2194 27.7093C33.2332 27.7277 33.2401 27.7484 33.2401 27.7714V28.4272C33.2401 28.4779 33.2125 28.5078 33.1574 28.517C32.9645 28.5262 32.8267 28.5308 32.744 28.5308C32.3628 28.5308 32.0781 28.4687 31.8898 28.3444C31.7015 28.2155 31.605 27.9762 31.6004 27.6265V25.7764C31.6004 25.7534 31.589 25.7419 31.566 25.7419H31.1733C31.1503 25.7419 31.132 25.735 31.1182 25.7212C31.0998 25.7028 31.0906 25.6821 31.0906 25.6591V25.0447C31.0906 25.0217 31.0998 25.001 31.1182 24.9826C31.132 24.9687 31.1503 24.9618 31.1733 24.9618H31.566C31.589 24.9618 31.6004 24.9503 31.6004 24.9273V24.1059C31.6004 24.0828 31.6073 24.0644 31.6211 24.0506C31.6395 24.0322 31.6601 24.023 31.6831 24.023H32.4547C32.4777 24.023 32.4983 24.0322 32.5167 24.0506C32.5305 24.0644 32.5374 24.0828 32.5374 24.1059V24.9273C32.5374 24.9503 32.5488 24.9618 32.5718 24.9618H33.2332C33.2561 24.9618 33.2768 24.9687 33.2952 24.9826C33.3089 25.001 33.3158 25.0217 33.3158 25.0447V25.6591ZM36.9877 26.3701C37.0153 26.545 37.0245 26.7406 37.0153 26.9569C37.0107 27.0121 36.9808 27.0397 36.9257 27.0397H34.797C34.7694 27.0397 34.7603 27.0512 34.7694 27.0742C34.7832 27.1663 34.8085 27.2583 34.8452 27.3503C34.9646 27.6081 35.208 27.7369 35.5755 27.7369C35.8694 27.7323 36.1013 27.6127 36.2713 27.378C36.2896 27.3503 36.3103 27.3365 36.3333 27.3365C36.347 27.3365 36.3631 27.3457 36.3815 27.3641L36.8775 27.8543C36.9005 27.8773 36.912 27.898 36.912 27.9164C36.912 27.9256 36.9028 27.944 36.8844 27.9716C36.7328 28.1603 36.5376 28.3076 36.2988 28.4134C36.06 28.5147 35.7982 28.5653 35.5135 28.5653C35.1185 28.5653 34.7855 28.4756 34.5145 28.2961C34.239 28.1166 34.0415 27.8658 33.9221 27.5436C33.8256 27.3135 33.7774 27.0121 33.7774 26.6393C33.7774 26.3862 33.8118 26.163 33.8807 25.9697C33.9864 25.643 34.1701 25.3829 34.4319 25.1896C34.6982 24.9964 35.0129 24.8997 35.3757 24.8997C35.835 24.8997 36.2024 25.0332 36.4779 25.3001C36.7581 25.567 36.928 25.9237 36.9877 26.3701ZM35.3826 25.7419C35.0932 25.7419 34.9026 25.8777 34.8108 26.1492C34.7924 26.209 34.7763 26.2827 34.7625 26.3701C34.7625 26.3931 34.774 26.4046 34.797 26.4046H35.9888C36.0164 26.4046 36.0256 26.3931 36.0164 26.3701C35.9934 26.2366 35.9819 26.1722 35.9819 26.1768C35.9406 26.0387 35.8671 25.9306 35.7615 25.8524C35.6604 25.7787 35.5341 25.7419 35.3826 25.7419ZM38.9787 28.5584C38.671 28.5584 38.4023 28.5147 38.1727 28.4272C37.943 28.3398 37.7639 28.2178 37.6353 28.0614C37.5113 27.9049 37.4493 27.7277 37.4493 27.5298V27.4608C37.4493 27.4378 37.4585 27.4194 37.4769 27.4056C37.4906 27.3872 37.509 27.378 37.532 27.378H38.2967C38.3196 27.378 38.338 27.3872 38.3518 27.4056C38.3702 27.4194 38.3793 27.4378 38.3793 27.4608V27.4677C38.3793 27.5689 38.4345 27.6541 38.5447 27.7231C38.6595 27.7967 38.8019 27.8336 38.9718 27.8336C39.128 27.8336 39.2543 27.8036 39.3507 27.7438C39.4472 27.6794 39.4954 27.6012 39.4954 27.5091C39.4954 27.4263 39.454 27.3641 39.3714 27.3227C39.2887 27.2813 39.1532 27.2376 38.9649 27.1916C38.7491 27.1363 38.5791 27.0834 38.4551 27.0328C38.1612 26.9315 37.927 26.8073 37.7524 26.66C37.5779 26.5128 37.4906 26.3011 37.4906 26.0249C37.4906 25.6844 37.6215 25.4129 37.8833 25.2104C38.1497 25.0125 38.501 24.9135 38.9374 24.9135C39.2313 24.9135 39.4885 24.9618 39.7089 25.0585C39.9294 25.1505 40.0993 25.2817 40.2187 25.452C40.3427 25.6222 40.4047 25.8155 40.4047 26.0318C40.4047 26.0548 40.3979 26.0756 40.3841 26.094C40.3657 26.1078 40.345 26.1147 40.3221 26.1147H39.5849C39.562 26.1147 39.5413 26.1078 39.5229 26.094C39.5092 26.0756 39.5023 26.0548 39.5023 26.0318C39.5023 25.9306 39.4517 25.8455 39.3507 25.7764C39.2451 25.7074 39.1073 25.6729 38.9374 25.6729C38.7858 25.6729 38.6618 25.7005 38.5653 25.7557C38.4689 25.8109 38.4207 25.8869 38.4207 25.9835C38.4207 26.0756 38.4666 26.1446 38.5585 26.1906C38.6549 26.2366 38.8134 26.285 39.0338 26.3356L39.206 26.3839C39.2703 26.3977 39.3392 26.4161 39.4127 26.4391C39.7388 26.5358 39.996 26.66 40.1843 26.8119C40.3726 26.9638 40.4667 27.1847 40.4667 27.4746C40.4667 27.8152 40.3313 28.0798 40.0603 28.2685C39.7939 28.4618 39.4334 28.5584 38.9787 28.5584ZM43.0502 25.6591C43.0502 25.6821 43.041 25.7028 43.0226 25.7212C43.0088 25.735 42.9905 25.7419 42.9675 25.7419H42.3061C42.2832 25.7419 42.2717 25.7534 42.2717 25.7764V27.2399C42.2717 27.3918 42.3015 27.5045 42.3613 27.5781C42.4256 27.6518 42.5266 27.6886 42.6644 27.6886H42.8917C42.9147 27.6886 42.9331 27.6955 42.9468 27.7093C42.9652 27.7277 42.9744 27.7484 42.9744 27.7714V28.4272C42.9744 28.4779 42.9468 28.5078 42.8917 28.517C42.6988 28.5262 42.561 28.5308 42.4784 28.5308C42.0972 28.5308 41.8124 28.4687 41.6241 28.3444C41.4358 28.2155 41.3394 27.9762 41.3348 27.6265V25.7764C41.3348 25.7534 41.3233 25.7419 41.3003 25.7419H40.9076C40.8847 25.7419 40.864 25.735 40.8456 25.7212C40.8319 25.7028 40.825 25.6821 40.825 25.6591V25.0447C40.825 25.0217 40.8319 25.001 40.8456 24.9826C40.864 24.9687 40.8847 24.9618 40.9076 24.9618H41.3003C41.3233 24.9618 41.3348 24.9503 41.3348 24.9273V24.1059C41.3348 24.0828 41.3417 24.0644 41.3554 24.0506C41.3738 24.0322 41.3945 24.023 41.4174 24.023H42.189C42.212 24.023 42.2304 24.0322 42.2441 24.0506C42.2625 24.0644 42.2717 24.0828 42.2717 24.1059V24.9273C42.2717 24.9503 42.2832 24.9618 42.3061 24.9618H42.9675C42.9905 24.9618 43.0088 24.9687 43.0226 24.9826C43.041 25.001 43.0502 25.0217 43.0502 25.0447V25.6591Z" fill="#253053"/>
<path d="M18.3458 41.2671C18.3687 41.2303 18.4009 41.2119 18.4422 41.2119H19.076C19.099 41.2119 19.1173 41.2211 19.1311 41.2395C19.1495 41.2533 19.1587 41.2717 19.1587 41.2947V45.9612C19.1587 45.9843 19.1495 46.0027 19.1311 46.0165C19.1173 46.0349 19.099 46.0441 19.076 46.0441H18.4422C18.4192 46.0441 18.3986 46.0349 18.3802 46.0165C18.3664 46.0027 18.3595 45.9843 18.3595 45.9612V42.6684C18.3595 42.6546 18.355 42.6454 18.3458 42.6408C18.332 42.6362 18.3228 42.6408 18.3182 42.6546L17.4571 43.98C17.4341 44.0169 17.402 44.0353 17.3606 44.0353H17.0437C17.0024 44.0353 16.9702 44.0169 16.9473 43.98L16.0792 42.6615C16.0746 42.6477 16.0678 42.6431 16.0586 42.6477C16.0448 42.6523 16.0379 42.6615 16.0379 42.6753V45.9612C16.0379 45.9843 16.0287 46.0027 16.0104 46.0165C15.9966 46.0349 15.9782 46.0441 15.9552 46.0441H15.3214C15.2985 46.0441 15.2801 46.0349 15.2663 46.0165C15.248 46.0027 15.2388 45.9843 15.2388 45.9612V41.2947C15.2388 41.2717 15.248 41.2533 15.2663 41.2395C15.2801 41.2211 15.2985 41.2119 15.3214 41.2119H15.9552C15.9966 41.2119 16.0287 41.2303 16.0517 41.2671L17.1746 42.9722C17.1838 42.9814 17.193 42.986 17.2022 42.986C17.2114 42.986 17.2182 42.9814 17.2228 42.9722L18.3458 41.2671ZM20.5434 42.0333C20.401 42.0333 20.2839 41.9873 20.1921 41.8953C20.1002 41.8032 20.0543 41.6859 20.0543 41.5432C20.0543 41.4006 20.1002 41.2832 20.1921 41.1912C20.2839 41.0991 20.401 41.0531 20.5434 41.0531C20.6858 41.0531 20.8029 41.0991 20.8947 41.1912C20.9866 41.2832 21.0325 41.4006 21.0325 41.5432C21.0325 41.6859 20.9866 41.8032 20.8947 41.8953C20.8029 41.9873 20.6858 42.0333 20.5434 42.0333ZM20.2127 46.0441C20.1898 46.0441 20.1714 46.0349 20.1576 46.0165C20.1392 46.0027 20.1301 45.9843 20.1301 45.9612V42.5925C20.1301 42.5695 20.1392 42.5511 20.1576 42.5373C20.1714 42.5189 20.1898 42.5097 20.2127 42.5097H20.8465C20.8695 42.5097 20.8902 42.5189 20.9085 42.5373C20.9223 42.5511 20.9292 42.5695 20.9292 42.5925V45.9612C20.9292 45.9843 20.9223 46.0027 20.9085 46.0165C20.8902 46.0349 20.8695 46.0441 20.8465 46.0441H20.2127ZM24.0293 41.2947C24.0293 41.2717 24.0385 41.2533 24.0569 41.2395C24.0706 41.2211 24.089 41.2119 24.112 41.2119H24.7458C24.7687 41.2119 24.7894 41.2211 24.8078 41.2395C24.8215 41.2533 24.8284 41.2717 24.8284 41.2947V45.9612C24.8284 45.9843 24.8215 46.0027 24.8078 46.0165C24.7894 46.0349 24.7687 46.0441 24.7458 46.0441H24.112C24.089 46.0441 24.0706 46.0349 24.0569 46.0165C24.0385 46.0027 24.0293 45.9843 24.0293 45.9612V45.7542C24.0293 45.7404 24.0247 45.7311 24.0155 45.7265C24.0063 45.7219 23.9971 45.7265 23.988 45.7403C23.7859 45.9797 23.5218 46.0993 23.1957 46.0993C22.8696 46.0993 22.5941 46.0142 22.369 45.8439C22.144 45.6736 21.9809 45.4366 21.8799 45.1329C21.7972 44.8752 21.7559 44.5875 21.7559 44.27C21.7559 43.9432 21.7949 43.6625 21.873 43.4278C21.974 43.1241 22.1371 42.887 22.3621 42.7168C22.5872 42.5465 22.8696 42.4613 23.2095 42.4613C23.5264 42.4613 23.7859 42.5764 23.988 42.8065C23.9971 42.8157 24.0063 42.8203 24.0155 42.8203C24.0247 42.8157 24.0293 42.8065 24.0293 42.7927V41.2947ZM23.864 45.0776C23.9696 44.889 24.0224 44.622 24.0224 44.2769C24.0224 43.9179 23.965 43.6441 23.8502 43.4554C23.7262 43.2529 23.5516 43.1517 23.3266 43.1517C23.0924 43.1517 22.9087 43.2483 22.7755 43.4416C22.6377 43.6441 22.5688 43.9248 22.5688 44.2838C22.5688 44.6059 22.6239 44.8706 22.7341 45.0776C22.8627 45.2985 23.0579 45.409 23.3197 45.409C23.5539 45.409 23.7354 45.2985 23.864 45.0776ZM25.5725 44.3114C25.5495 44.3114 25.5311 44.3045 25.5173 44.2907C25.499 44.2723 25.4898 44.2516 25.4898 44.2286V43.7039C25.4898 43.6809 25.499 43.6602 25.5173 43.6418C25.5311 43.628 25.5495 43.6211 25.5725 43.6211H27.7425C27.7655 43.6211 27.7839 43.628 27.7976 43.6418C27.816 43.6602 27.8252 43.6809 27.8252 43.7039V44.2286C27.8252 44.2516 27.816 44.2723 27.7976 44.2907C27.7839 44.3045 27.7655 44.3114 27.7425 44.3114H25.5725ZM31.6624 41.2671C31.6854 41.2303 31.7176 41.2119 31.7589 41.2119H32.3927C32.4157 41.2119 32.4363 41.2211 32.4547 41.2395C32.4685 41.2533 32.4754 41.2717 32.4754 41.2947V45.9612C32.4754 45.9843 32.4685 46.0027 32.4547 46.0165C32.4363 46.0349 32.4157 46.0441 32.3927 46.0441H31.7589C31.7359 46.0441 31.7176 46.0349 31.7038 46.0165C31.6854 46.0027 31.6762 45.9843 31.6762 45.9612V42.6684C31.6762 42.6546 31.6716 42.6454 31.6624 42.6408C31.6487 42.6362 31.6395 42.6408 31.6349 42.6546L30.7738 43.98C30.7508 44.0169 30.7186 44.0353 30.6773 44.0353H30.3604C30.3191 44.0353 30.2869 44.0169 30.264 43.98L29.3959 42.6615C29.3913 42.6477 29.3844 42.6431 29.3753 42.6477C29.3615 42.6523 29.3546 42.6615 29.3546 42.6753V45.9612C29.3546 45.9843 29.3477 46.0027 29.3339 46.0165C29.3156 46.0349 29.2949 46.0441 29.2719 46.0441H28.6381C28.6152 46.0441 28.5968 46.0349 28.583 46.0165C28.5646 46.0027 28.5555 45.9843 28.5555 45.9612V41.2947C28.5555 41.2717 28.5646 41.2533 28.583 41.2395C28.5968 41.2211 28.6152 41.2119 28.6381 41.2119H29.2719C29.3133 41.2119 29.3454 41.2303 29.3684 41.2671L30.4913 42.9722C30.5005 42.9814 30.5097 42.986 30.5189 42.986C30.528 42.986 30.5349 42.9814 30.5395 42.9722L31.6624 41.2671ZM34.7488 42.4613C35.0381 42.4613 35.293 42.512 35.5135 42.6132C35.7339 42.7145 35.9039 42.8525 36.0233 43.0274C36.1427 43.2069 36.2024 43.4094 36.2024 43.6349V45.9612C36.2024 45.9843 36.1955 46.0027 36.1817 46.0165C36.1633 46.0349 36.1427 46.0441 36.1197 46.0441H35.4859C35.463 46.0441 35.4446 46.0349 35.4308 46.0165C35.4124 46.0027 35.4032 45.9843 35.4032 45.9612V45.7403C35.4032 45.7265 35.3987 45.7173 35.3895 45.7127C35.3803 45.7127 35.3711 45.7173 35.3619 45.7265C35.1369 45.9751 34.8108 46.0993 34.3837 46.0993C34.0392 46.0993 33.7567 46.0119 33.5363 45.837C33.3112 45.6621 33.1987 45.4021 33.1987 45.0569C33.1987 44.698 33.325 44.4172 33.5776 44.2148C33.8256 44.0169 34.177 43.9179 34.6317 43.9179H35.3688C35.3918 43.9179 35.4032 43.9064 35.4032 43.8834V43.7177C35.4032 43.5382 35.3504 43.3979 35.2448 43.2966C35.1392 43.2 34.9807 43.1517 34.7694 43.1517C34.5949 43.1517 34.4548 43.1839 34.3492 43.2483C34.239 43.3081 34.1701 43.3933 34.1425 43.5037C34.1288 43.559 34.0966 43.582 34.0461 43.5728L33.3778 43.4899C33.3549 43.4853 33.3365 43.4784 33.3227 43.4692C33.3044 43.4554 33.2975 43.4393 33.3021 43.4209C33.3388 43.1402 33.4904 42.9101 33.7567 42.7306C34.0185 42.5511 34.3492 42.4613 34.7488 42.4613ZM34.5834 45.4642C34.8085 45.4642 35.0014 45.4044 35.1621 45.2847C35.3229 45.1651 35.4032 45.0132 35.4032 44.8291V44.5047C35.4032 44.4817 35.3918 44.4702 35.3688 44.4702H34.7901C34.5467 44.4702 34.3561 44.5162 34.2183 44.6082C34.0759 44.7003 34.0048 44.8314 34.0048 45.0017C34.0048 45.149 34.0599 45.2617 34.1701 45.34C34.2757 45.4228 34.4135 45.4642 34.5834 45.4642ZM38.6411 42.4752C38.7881 42.4752 38.9167 42.5051 39.0269 42.5649C39.0637 42.5833 39.0774 42.6178 39.0683 42.6684L38.9511 43.2897C38.9466 43.345 38.9144 43.3611 38.8547 43.3381C38.7858 43.315 38.7054 43.3035 38.6136 43.3035C38.5539 43.3035 38.5079 43.3058 38.4758 43.3104C38.2829 43.3196 38.1222 43.3864 37.9936 43.5106C37.865 43.6395 37.8007 43.8052 37.8007 44.0077V45.9612C37.8007 45.9843 37.7938 46.0027 37.78 46.0165C37.7616 46.0349 37.741 46.0441 37.718 46.0441H37.0842C37.0612 46.0441 37.0429 46.0349 37.0291 46.0165C37.0107 46.0027 37.0015 45.9843 37.0015 45.9612V42.5994C37.0015 42.5764 37.0107 42.5557 37.0291 42.5373C37.0429 42.5235 37.0612 42.5166 37.0842 42.5166H37.718C37.741 42.5166 37.7616 42.5235 37.78 42.5373C37.7938 42.5557 37.8007 42.5764 37.8007 42.5994V42.9101C37.8007 42.9285 37.8053 42.9377 37.8144 42.9377C37.819 42.9423 37.8259 42.9377 37.8351 42.9239C38.028 42.6247 38.2967 42.4752 38.6411 42.4752ZM39.6745 46.0441C39.6515 46.0441 39.6332 46.0349 39.6194 46.0165C39.601 46.0027 39.5918 45.9843 39.5918 45.9612V41.2947C39.5918 41.2717 39.601 41.2533 39.6194 41.2395C39.6332 41.2211 39.6515 41.2119 39.6745 41.2119H40.3083C40.3313 41.2119 40.3496 41.2211 40.3634 41.2395C40.3818 41.2533 40.391 41.2717 40.391 41.2947V43.7868C40.391 43.8006 40.3956 43.8098 40.4048 43.8144C40.4139 43.819 40.4231 43.8144 40.4323 43.8006L41.5483 42.5649C41.5805 42.5327 41.6149 42.5166 41.6517 42.5166H42.3819C42.4279 42.5166 42.4508 42.5327 42.4508 42.5649C42.4508 42.5787 42.4439 42.5971 42.4302 42.6201L41.5552 43.6694C41.5415 43.6832 41.5392 43.6993 41.5483 43.7177L42.5817 45.9474C42.5909 45.9659 42.5955 45.9797 42.5955 45.9889C42.5955 46.0257 42.5702 46.0441 42.5197 46.0441H41.8515C41.8055 46.0441 41.7734 46.0234 41.755 45.982L41.0041 44.2286C40.9995 44.2194 40.9903 44.2124 40.9766 44.2078C40.9674 44.2078 40.9605 44.2125 40.9559 44.2217L40.4048 44.8567C40.3956 44.8752 40.391 44.8913 40.391 44.9051V45.9612C40.391 45.9843 40.3818 46.0027 40.3634 46.0165C40.3496 46.0349 40.3313 46.0441 40.3083 46.0441H39.6745ZM45.9092 43.8834C45.9275 43.9984 45.9367 44.1273 45.9367 44.27L45.9298 44.484C45.9298 44.5392 45.9023 44.5668 45.8472 44.5668H43.6909C43.6679 44.5668 43.6564 44.5783 43.6564 44.6013C43.6702 44.7532 43.6909 44.8567 43.7184 44.912C43.8286 45.2433 44.0973 45.4113 44.5244 45.4159C44.8368 45.4159 45.0848 45.287 45.2685 45.0293C45.2868 45.0017 45.3098 44.9879 45.3374 44.9879C45.3557 44.9879 45.3718 44.9948 45.3856 45.0086L45.8127 45.3607C45.8541 45.3929 45.8609 45.4297 45.8334 45.4711C45.691 45.6736 45.5004 45.8301 45.2616 45.9405C45.0274 46.051 44.7656 46.1062 44.4762 46.1062C44.118 46.1062 43.8126 46.0257 43.56 45.8646C43.312 45.7035 43.1306 45.478 43.0157 45.1881C42.9101 44.9396 42.8573 44.5944 42.8573 44.1526C42.8573 43.8857 42.8848 43.6694 42.94 43.5037C43.0318 43.1816 43.2063 42.9262 43.4635 42.7375C43.7161 42.5534 44.0215 42.4613 44.3798 42.4613C45.2845 42.4613 45.7943 42.9354 45.9092 43.8834ZM44.3798 43.1517C44.2098 43.1517 44.0675 43.1954 43.9527 43.2828C43.8424 43.3657 43.7644 43.483 43.7184 43.6349C43.6909 43.7131 43.6725 43.8144 43.6633 43.9386C43.6541 43.9616 43.6633 43.9731 43.6909 43.9731H45.0894C45.1123 43.9731 45.1238 43.9616 45.1238 43.9386C45.1146 43.8236 45.1008 43.7361 45.0825 43.6763C45.0411 43.5106 44.9608 43.3818 44.8413 43.2897C44.7173 43.1977 44.5635 43.1517 44.3798 43.1517ZM48.465 43.0826C48.465 43.1056 48.4581 43.1241 48.4444 43.1379C48.426 43.1563 48.4053 43.1655 48.3824 43.1655H47.6797C47.6567 43.1655 47.6452 43.177 47.6452 43.2V44.8636C47.6452 45.0385 47.6843 45.1651 47.7623 45.2433C47.8358 45.3216 47.9552 45.3607 48.1206 45.3607H48.3273C48.3502 45.3607 48.3686 45.3676 48.3824 45.3814C48.4007 45.3998 48.4099 45.4205 48.4099 45.4435V45.9612C48.4099 46.0119 48.3824 46.0418 48.3273 46.051L47.969 46.0579C47.6062 46.0579 47.3352 45.9958 47.1561 45.8715C46.977 45.7473 46.8851 45.5125 46.8805 45.1674V43.2C46.8805 43.177 46.8691 43.1655 46.8461 43.1655H46.4534C46.4304 43.1655 46.4121 43.1563 46.3983 43.1379C46.3799 43.1241 46.3707 43.1056 46.3707 43.0826V42.5994C46.3707 42.5764 46.3799 42.5557 46.3983 42.5373C46.4121 42.5235 46.4304 42.5166 46.4534 42.5166H46.8461C46.8691 42.5166 46.8805 42.5051 46.8805 42.4821V41.6744C46.8805 41.6514 46.8897 41.6307 46.9081 41.6123C46.9219 41.5985 46.9402 41.5915 46.9632 41.5915H47.5626C47.5855 41.5915 47.6039 41.5985 47.6177 41.6123C47.636 41.6307 47.6452 41.6514 47.6452 41.6744V42.4821C47.6452 42.5051 47.6567 42.5166 47.6797 42.5166H48.3824C48.4053 42.5166 48.426 42.5235 48.4444 42.5373C48.4581 42.5557 48.465 42.5764 48.465 42.5994V43.0826Z" fill="#B0B6C9"/>
<path d="M21.191 55.7776C21.1404 55.7776 21.1083 55.7545 21.0945 55.7085L19.8751 51.0351L19.8683 51.0075C19.8683 50.966 19.8935 50.9453 19.944 50.9453H20.7983C20.8442 50.9453 20.8741 50.9684 20.8878 51.0144L21.5423 53.824C21.5469 53.8424 21.5538 53.8516 21.563 53.8516C21.5722 53.8516 21.5791 53.8424 21.5836 53.824L22.2174 51.0213C22.2312 50.9707 22.2611 50.9453 22.307 50.9453H23.1406C23.1911 50.9453 23.2233 50.9684 23.237 51.0144L23.926 53.824C23.9305 53.8378 23.9374 53.847 23.9466 53.8516C23.9558 53.8516 23.9627 53.8424 23.9673 53.824L24.6011 51.0213C24.6149 50.9707 24.6447 50.9453 24.6906 50.9453H25.5036C25.5679 50.9453 25.5931 50.9753 25.5793 51.0351L24.4495 55.7085C24.4357 55.7545 24.4036 55.7776 24.3531 55.7776H23.5333C23.4873 55.7776 23.4575 55.7545 23.4437 55.7085L22.741 52.7195C22.7364 52.701 22.7295 52.6918 22.7204 52.6918C22.7112 52.6918 22.7043 52.701 22.6997 52.7195L22.0452 55.7016C22.036 55.7522 22.0062 55.7776 21.9557 55.7776H21.191ZM26.2476 55.7776C26.2246 55.7776 26.204 55.7684 26.1856 55.7499C26.1718 55.7361 26.1649 55.7177 26.1649 55.6947V51.0282C26.1649 51.0052 26.1718 50.9868 26.1856 50.973C26.204 50.9545 26.2246 50.9453 26.2476 50.9453H27.0536C27.0766 50.9453 27.095 50.9545 27.1087 50.973C27.1271 50.9868 27.1363 51.0052 27.1363 51.0282V55.6947C27.1363 55.7177 27.1271 55.7361 27.1087 55.7499C27.095 55.7684 27.0766 55.7776 27.0536 55.7776H26.2476ZM30.7462 51.0282C30.7462 51.0052 30.7531 50.9868 30.7669 50.973C30.7852 50.9545 30.8059 50.9453 30.8289 50.9453H31.6349C31.6579 50.9453 31.6762 50.9545 31.69 50.973C31.7084 50.9868 31.7176 51.0052 31.7176 51.0282V55.6947C31.7176 55.7177 31.7084 55.7361 31.69 55.7499C31.6762 55.7684 31.6579 55.7776 31.6349 55.7776H30.8564C30.8105 55.7776 30.7783 55.7591 30.76 55.7223L28.9757 52.7678C28.9665 52.754 28.9573 52.7494 28.9481 52.754C28.9389 52.754 28.9343 52.7632 28.9343 52.7816L28.9481 55.6947C28.9481 55.7177 28.9389 55.7361 28.9206 55.7499C28.9068 55.7684 28.8884 55.7776 28.8655 55.7776H28.0594C28.0365 55.7776 28.0158 55.7684 27.9974 55.7499C27.9836 55.7361 27.9768 55.7177 27.9768 55.6947V51.0282C27.9768 51.0052 27.9836 50.9868 27.9974 50.973C28.0158 50.9545 28.0365 50.9453 28.0594 50.9453H28.8379C28.8838 50.9453 28.916 50.9638 28.9343 51.0006L30.7117 53.9413C30.7209 53.9551 30.7301 53.9597 30.7393 53.9551C30.7485 53.9551 30.7531 53.9459 30.7531 53.9275L30.7462 51.0282ZM35.8855 50.9453C35.9084 50.9453 35.9268 50.9545 35.9406 50.973C35.959 50.9868 35.9681 51.0052 35.9681 51.0282V51.7047C35.9681 51.7277 35.959 51.7461 35.9406 51.7599C35.9268 51.7783 35.9084 51.7875 35.8855 51.7875H34.6523C34.6294 51.7875 34.6179 51.799 34.6179 51.822V55.6947C34.6179 55.7177 34.6087 55.7361 34.5903 55.7499C34.5765 55.7684 34.5582 55.7776 34.5352 55.7776H33.7292C33.7062 55.7776 33.6856 55.7684 33.6672 55.7499C33.6534 55.7361 33.6465 55.7177 33.6465 55.6947V51.822C33.6465 51.799 33.635 51.7875 33.6121 51.7875H32.4134C32.3904 51.7875 32.3697 51.7783 32.3514 51.7599C32.3376 51.7461 32.3307 51.7277 32.3307 51.7047V51.0282C32.3307 51.0052 32.3376 50.9868 32.3514 50.973C32.3697 50.9545 32.3904 50.9453 32.4134 50.9453H35.8855ZM39.9363 51.6978C39.9363 51.7208 39.9294 51.7392 39.9156 51.753C39.8972 51.7714 39.8766 51.7806 39.8536 51.7806H37.594C37.571 51.7806 37.5595 51.7921 37.5595 51.8151V52.8851C37.5595 52.9081 37.571 52.9196 37.594 52.9196H39.0751C39.0981 52.9196 39.1165 52.9266 39.1303 52.9404C39.1486 52.9588 39.1578 52.9795 39.1578 53.0025V53.6721C39.1578 53.6951 39.1486 53.7158 39.1303 53.7342C39.1165 53.748 39.0981 53.7549 39.0751 53.7549H37.594C37.571 53.7549 37.5595 53.7664 37.5595 53.7894V54.9078C37.5595 54.9308 37.571 54.9423 37.594 54.9423H39.8536C39.8766 54.9423 39.8972 54.9492 39.9156 54.963C39.9294 54.9814 39.9363 55.0021 39.9363 55.0251V55.6947C39.9363 55.7177 39.9294 55.7361 39.9156 55.7499C39.8972 55.7684 39.8766 55.7776 39.8536 55.7776H36.6708C36.6479 55.7776 36.6272 55.7684 36.6088 55.7499C36.5951 55.7361 36.5882 55.7177 36.5882 55.6947V51.0282C36.5882 51.0052 36.5951 50.9868 36.6088 50.973C36.6272 50.9545 36.6479 50.9453 36.6708 50.9453H39.8536C39.8766 50.9453 39.8972 50.9545 39.9156 50.973C39.9294 50.9868 39.9363 51.0052 39.9363 51.0282V51.6978ZM43.2568 55.7776C43.2109 55.7776 43.1788 55.7569 43.1604 55.7154L42.2993 53.8033C42.2901 53.7848 42.2763 53.7756 42.2579 53.7756H41.6172C41.5943 53.7756 41.5828 53.7871 41.5828 53.8102V55.6947C41.5828 55.7177 41.5736 55.7361 41.5552 55.7499C41.5415 55.7684 41.5231 55.7776 41.5001 55.7776H40.6941C40.6711 55.7776 40.6505 55.7684 40.6321 55.7499C40.6183 55.7361 40.6114 55.7177 40.6114 55.6947V51.0282C40.6114 51.0052 40.6183 50.9868 40.6321 50.973C40.6505 50.9545 40.6711 50.9453 40.6941 50.9453H42.6644C42.9583 50.9453 43.2155 51.0052 43.436 51.1248C43.661 51.2445 43.8332 51.4148 43.9526 51.6357C44.0767 51.8566 44.1387 52.112 44.1387 52.4019C44.1387 52.7149 44.0606 52.9818 43.9044 53.2027C43.7483 53.4282 43.5301 53.587 43.25 53.679C43.227 53.6882 43.2201 53.7043 43.2293 53.7273L44.1662 55.6809C44.1754 55.6993 44.18 55.7131 44.18 55.7223C44.18 55.7591 44.1547 55.7776 44.1042 55.7776H43.2568ZM41.6172 51.7806C41.5943 51.7806 41.5828 51.7921 41.5828 51.8151V52.9956C41.5828 53.0186 41.5943 53.0301 41.6172 53.0301H42.5197C42.7126 53.0301 42.8688 52.9726 42.9882 52.8575C43.1122 52.7425 43.1742 52.5929 43.1742 52.4088C43.1742 52.2247 43.1122 52.0729 42.9882 51.9532C42.8688 51.8382 42.7126 51.7806 42.5197 51.7806H41.6172ZM25.6827 61.3898C25.6735 61.399 25.6712 61.4082 25.6758 61.4174C25.6804 61.4266 25.6896 61.4312 25.7033 61.4312H27.5703C27.5933 61.4312 27.6139 61.4382 27.6323 61.452C27.6461 61.4704 27.653 61.4911 27.653 61.5141V62.1837C27.653 62.2067 27.6461 62.2251 27.6323 62.2389C27.6139 62.2573 27.5933 62.2665 27.5703 62.2665H24.4702C24.4472 62.2665 24.4266 62.2573 24.4082 62.2389C24.3944 62.2251 24.3875 62.2067 24.3875 62.1837V61.5486C24.3875 61.5072 24.4013 61.4727 24.4289 61.4451C24.6539 61.2242 24.8835 60.9848 25.1178 60.7271C25.352 60.4648 25.499 60.3014 25.5587 60.237C25.6873 60.0851 25.8182 59.9402 25.9514 59.8021C26.3693 59.3373 26.5783 58.9921 26.5783 58.7666C26.5783 58.6056 26.5209 58.4721 26.406 58.3662C26.2912 58.265 26.142 58.2144 25.9582 58.2144C25.7745 58.2144 25.6253 58.265 25.5105 58.3662C25.3956 58.4721 25.3382 58.6102 25.3382 58.7804V58.953C25.3382 58.976 25.329 58.9967 25.3107 59.0151C25.2969 59.0289 25.2785 59.0359 25.2556 59.0359H24.4426C24.4197 59.0359 24.4013 59.0289 24.3875 59.0151C24.3692 58.9967 24.36 58.976 24.36 58.953V58.6286C24.3737 58.38 24.4518 58.1591 24.5942 57.9659C24.7366 57.7772 24.9249 57.6322 25.1591 57.531C25.3979 57.4297 25.6643 57.3791 25.9582 57.3791C26.2843 57.3791 26.5691 57.4389 26.8125 57.5586C27.0513 57.6828 27.2373 57.8485 27.3705 58.0556C27.4991 58.2627 27.5634 58.4928 27.5634 58.7459C27.5634 58.9392 27.5152 59.1371 27.4187 59.3396C27.3223 59.5421 27.1776 59.7607 26.9847 59.9954C26.8423 60.1749 26.6885 60.3521 26.5232 60.5269C26.3578 60.7018 26.1121 60.9549 25.786 61.2863L25.6827 61.3898ZM29.8919 62.3425C29.3867 62.3425 28.9872 62.1998 28.6932 61.9145C28.3993 61.6337 28.2523 61.2495 28.2523 60.7616V58.9392C28.2523 58.4606 28.3993 58.0809 28.6932 57.8002C28.9872 57.5195 29.3867 57.3791 29.8919 57.3791C30.3971 57.3791 30.799 57.5195 31.0975 57.8002C31.3915 58.0809 31.5384 58.4606 31.5384 58.9392V60.7616C31.5384 61.2495 31.3915 61.6337 31.0975 61.9145C30.799 62.1998 30.3971 62.3425 29.8919 62.3425ZM29.8919 61.5072C30.0986 61.5072 30.2639 61.4428 30.388 61.3139C30.5074 61.1896 30.5671 61.0217 30.5671 60.81V58.9116C30.5671 58.6999 30.5074 58.5319 30.388 58.4077C30.2639 58.2788 30.0986 58.2144 29.8919 58.2144C29.6899 58.2144 29.5291 58.2788 29.4097 58.4077C29.2857 58.5319 29.2237 58.6999 29.2237 58.9116V60.81C29.2237 61.0217 29.2857 61.1896 29.4097 61.3139C29.5291 61.4428 29.6899 61.5072 29.8919 61.5072ZM33.4674 61.3898C33.4582 61.399 33.4559 61.4082 33.4605 61.4174C33.4651 61.4266 33.4743 61.4312 33.4881 61.4312H35.355C35.378 61.4312 35.3986 61.4382 35.417 61.452C35.4308 61.4704 35.4377 61.4911 35.4377 61.5141V62.1837C35.4377 62.2067 35.4308 62.2251 35.417 62.2389C35.3986 62.2573 35.378 62.2665 35.355 62.2665H32.2549C32.2319 62.2665 32.2136 62.2573 32.1998 62.2389C32.1814 62.2251 32.1722 62.2067 32.1722 62.1837V61.5486C32.1722 61.5072 32.186 61.4727 32.2136 61.4451C32.4386 61.2242 32.6683 60.9848 32.9025 60.7271C33.1367 60.4648 33.2837 60.3014 33.3434 60.237C33.472 60.0851 33.6029 59.9402 33.7361 59.8021C34.154 59.3373 34.363 58.9921 34.363 58.7666C34.363 58.6056 34.3056 58.4721 34.1908 58.3662C34.0759 58.265 33.9267 58.2144 33.743 58.2144C33.5593 58.2144 33.41 58.265 33.2952 58.3662C33.1803 58.4721 33.1229 58.6102 33.1229 58.7804V58.953C33.1229 58.976 33.116 58.9967 33.1023 59.0151C33.0839 59.0289 33.0632 59.0359 33.0403 59.0359H32.2274C32.2044 59.0359 32.186 59.0289 32.1722 59.0151C32.1539 58.9967 32.1447 58.976 32.1447 58.953V58.6286C32.1585 58.38 32.2365 58.1591 32.3789 57.9659C32.5213 57.7772 32.7119 57.6322 32.9507 57.531C33.1849 57.4297 33.449 57.3791 33.743 57.3791C34.069 57.3791 34.3538 57.4389 34.5972 57.5586C34.836 57.6828 35.022 57.8485 35.1552 58.0556C35.2838 58.2627 35.3481 58.4928 35.3481 58.7459C35.3481 58.9392 35.2999 59.1371 35.2035 59.3396C35.107 59.5421 34.9623 59.7607 34.7694 59.9954C34.6271 60.1749 34.4732 60.3521 34.3079 60.5269C34.1425 60.7018 33.8968 60.9549 33.5707 61.2863L33.4674 61.3898ZM39.4816 60.1611C39.5046 60.1611 39.5252 60.168 39.5436 60.1818C39.5574 60.2002 39.5643 60.2209 39.5643 60.2439V60.9411C39.5643 60.9641 39.5574 60.9848 39.5436 61.0033C39.5252 61.0171 39.5046 61.024 39.4816 61.024H39.1854C39.1624 61.024 39.1509 61.0355 39.1509 61.0585V62.1837C39.1509 62.2067 39.144 62.2251 39.1303 62.2389C39.1119 62.2573 39.0912 62.2665 39.0683 62.2665H38.2622C38.2393 62.2665 38.2209 62.2573 38.2071 62.2389C38.1887 62.2251 38.1796 62.2067 38.1796 62.1837V61.0585C38.1796 61.0355 38.1681 61.024 38.1451 61.024H36.0302C36.0072 61.024 35.9888 61.0171 35.975 61.0033C35.9567 60.9848 35.9475 60.9641 35.9475 60.9411V60.3889C35.9475 60.3613 35.9544 60.3267 35.9681 60.2853L37.2082 57.4964C37.2266 57.455 37.2587 57.4343 37.3046 57.4343H38.1658C38.1979 57.4343 38.2209 57.4435 38.2347 57.4619C38.2439 57.4757 38.2416 57.4987 38.2278 57.531L37.0773 60.1196C37.0727 60.1289 37.0727 60.1381 37.0773 60.1473C37.0819 60.1565 37.0888 60.1611 37.098 60.1611H38.1451C38.1681 60.1611 38.1796 60.1496 38.1796 60.1266V59.2706C38.1796 59.2475 38.1887 59.2291 38.2071 59.2153C38.2209 59.1969 38.2393 59.1877 38.2622 59.1877H39.0683C39.0912 59.1877 39.1119 59.1969 39.1303 59.2153C39.144 59.2291 39.1509 59.2475 39.1509 59.2706V60.1266C39.1509 60.1496 39.1624 60.1611 39.1854 60.1611H39.4816Z" fill="#253053"/>
</svg>
