<svg width="64" height="72" viewBox="0 0 64 72" fill="none" xmlns="http://www.w3.org/2000/svg">
<path d="M32.5583 69.9689L4.51404 56.009V9.42881C6.77208 9.16222 8.90817 8.26263 10.6747 6.8343C12.4413 5.40597 13.766 3.50739 14.4953 1.35861H49.4502C50.1871 3.53172 51.532 5.44899 53.326 6.88386C55.1201 8.31874 57.2883 9.21126 59.5745 9.45598V56.009L32.5583 69.9689Z" fill="#9197A9"/>
<path d="M4.76596 56.009L32.5038 69.9689L59.234 55.9955V9.45598C57.0117 9.15144 54.9033 8.28895 53.1064 6.94933L4.76596 56.009Z" fill="#898FA2"/>
<path d="M60.5958 8.15171H60.5073C58.1252 8.14748 55.8146 7.33984 53.9507 5.85998C52.0868 4.38013 50.7791 2.31498 50.24 0L13.617 0C13.0779 2.30481 11.7777 4.36179 9.9254 5.84028C8.07309 7.31877 5.7763 8.13288 3.40427 8.15171V57.2114L4.37107 57.7005L31.7004 71.5856L32.5175 72L33.3277 71.572L59.6494 57.687L60.5958 57.1911V9.51033V8.15171ZM32.5038 69.9689L4.76597 56.0091V9.42881C7.00797 9.15497 9.12577 8.25094 10.8725 6.82209C12.6192 5.39324 13.9229 3.49846 14.6315 1.35862H49.2119C49.929 3.52468 51.2549 5.4395 53.0317 6.87508C54.8085 8.31066 56.9614 9.20652 59.2341 9.45599V56.0091L32.5038 69.9689Z" fill="#4D5672"/>
<mask id="mask0_182_104" style="mask-type:luminance" maskUnits="userSpaceOnUse" x="0" y="38" width="64" height="11">
<path d="M61.8145 38.7138H2.18553L0 43.8087L2.18553 48.9035H61.8145L64 43.8087L61.8145 38.7138Z" fill="white"/>
</mask>
<g mask="url(#mask0_182_104)">
<path d="M-3.40427 35.3173H67.4042V52.3H-3.40427V35.3173Z" fill="#4D5672"/>
</g>
<mask id="mask1_182_104" style="mask-type:luminance" maskUnits="userSpaceOnUse" x="25" y="0" width="14" height="15">
<path d="M32 14.2655L38.8085 10.4614V0H25.1915V10.4614L32 14.2655ZM33.3617 5.33937C33.351 5.05812 33.4219 4.77976 33.566 4.53779C33.7521 4.28761 34.001 4.0908 34.2877 3.96717L34.4511 3.89924C34.7302 3.76337 34.7983 3.64789 34.7983 3.51203C34.7983 3.37617 34.6485 3.23351 34.4102 3.23351C34.2667 3.2229 34.1235 3.25795 34.0011 3.33362C33.8788 3.40929 33.7837 3.52169 33.7294 3.65468L33.3617 3.29465C33.4533 3.11714 33.5954 2.9706 33.7702 2.87348C33.9543 2.76751 34.1637 2.7135 34.3762 2.71724C34.6331 2.70884 34.886 2.78263 35.0979 2.92782C35.1945 2.99123 35.2733 3.07814 35.3269 3.18035C35.3805 3.28256 35.4071 3.39671 35.4043 3.51203C35.4043 3.90603 35.1728 4.14379 34.7234 4.36117L34.4715 4.47665C34.2128 4.60572 34.0834 4.71441 34.0426 4.91141H35.4043V5.43447H33.3617V5.33937ZM35.0638 6.11378L36.0851 7.81206L35.0638 9.51033L34.0426 7.80526H32L33.0213 6.11378H35.0638ZM32.1975 2.71724C32.4809 2.71678 32.7636 2.74408 33.0417 2.79875L32.1975 4.45627C31.563 4.44352 30.9493 4.68238 30.4911 5.12046C30.0329 5.55854 29.7675 6.16006 29.7532 6.79309C29.7693 7.42493 30.0354 8.02472 30.4934 8.46134C30.9515 8.89797 31.5641 9.1359 32.1975 9.12313C32.7803 9.12658 33.3461 8.92719 33.7975 8.5593L34.7234 10.081C33.9817 10.5945 33.1003 10.8695 32.1975 10.8689C31.0885 10.8927 30.0153 10.4771 29.2127 9.71326C28.4101 8.9494 27.9435 7.89941 27.9149 6.79309C27.9435 5.68677 28.4101 4.63679 29.2127 3.87292C30.0153 3.10906 31.0885 2.69352 32.1975 2.71724Z" fill="white"/>
</mask>
<g mask="url(#mask1_182_104)">
<path d="M21.7872 -3.40334H42.2128V17.6553H21.7872V-3.40334Z" fill="#4D5672"/>
</g>
<path d="M12.9974 36.3431C12.9566 36.3431 12.9225 36.3295 12.8953 36.3023C12.8681 36.2706 12.8545 36.2344 12.8545 36.1936V27.9332C12.8545 27.8924 12.8681 27.8562 12.8953 27.8245C12.9225 27.7973 12.9566 27.7838 12.9974 27.7838H14.434C14.4749 27.7838 14.5089 27.7973 14.5362 27.8245C14.5679 27.8562 14.5838 27.8924 14.5838 27.9332V34.801C14.5838 34.8418 14.6042 34.8622 14.6451 34.8622H18.6485C18.6894 34.8622 18.7257 34.8757 18.7574 34.9029C18.7847 34.9346 18.7983 34.9708 18.7983 35.0116V36.1936C18.7983 36.2344 18.7847 36.2706 18.7574 36.3023C18.7257 36.3295 18.6894 36.3431 18.6485 36.3431H12.9974ZM25.3277 32.5525C25.3776 32.8605 25.3935 33.2069 25.3753 33.5918C25.3708 33.6915 25.3186 33.7413 25.2187 33.7413H21.4332C21.3833 33.7413 21.3674 33.7617 21.3855 33.8024C21.4082 33.9655 21.4513 34.1285 21.5149 34.2915C21.7282 34.7444 22.1617 34.9708 22.8153 34.9708C23.3373 34.9663 23.7503 34.7557 24.0545 34.3391C24.0862 34.2893 24.1225 34.2644 24.1634 34.2644C24.1906 34.2644 24.2201 34.2802 24.2519 34.3119L25.1302 35.1814C25.1711 35.2222 25.1915 35.2584 25.1915 35.2901C25.1915 35.3082 25.1756 35.3422 25.1438 35.392C24.876 35.7226 24.5288 35.9808 24.1021 36.1664C23.68 36.3476 23.2147 36.4382 22.7064 36.4382C22.0028 36.4382 21.4082 36.2796 20.9225 35.9626C20.4369 35.6456 20.0874 35.2018 19.874 34.6312C19.7016 34.2236 19.6153 33.6892 19.6153 33.028C19.6153 32.5797 19.6766 32.1857 19.7991 31.846C19.9898 31.2663 20.3189 30.8044 20.7864 30.4602C21.2584 30.1206 21.8167 29.9507 22.4613 29.9507C23.2783 29.9507 23.9342 30.1862 24.4289 30.6572C24.9237 31.1282 25.2233 31.76 25.3277 32.5525ZM22.4749 31.4384C21.9574 31.4384 21.617 31.6785 21.4536 32.1585C21.4218 32.2672 21.3946 32.3985 21.3719 32.5525C21.3719 32.5933 21.3923 32.6136 21.4332 32.6136H23.5506C23.6006 32.6136 23.6164 32.5933 23.5983 32.5525C23.5574 32.317 23.537 32.2038 23.537 32.2128C23.4644 31.9683 23.3373 31.7781 23.1557 31.6422C22.9696 31.5064 22.7427 31.4384 22.4749 31.4384ZM28.8953 29.9575C29.4264 29.9575 29.9007 30.0504 30.3183 30.2361C30.7359 30.4172 31.0604 30.6686 31.2919 30.9901C31.5234 31.3071 31.6391 31.6603 31.6391 32.0498V36.1936C31.6391 36.2344 31.6255 36.2706 31.5983 36.3023C31.5711 36.3295 31.537 36.3431 31.4962 36.3431H30.0596C30.0187 36.3431 29.9847 36.3295 29.9574 36.3023C29.9257 36.2706 29.9098 36.2344 29.9098 36.1936V35.7928C29.9098 35.7702 29.903 35.7543 29.8894 35.7453C29.8712 35.7362 29.8553 35.743 29.8417 35.7656C29.4967 36.214 28.9452 36.4382 28.1872 36.4382C27.5472 36.4382 27.0321 36.2842 26.6417 35.9762C26.2468 35.6683 26.0494 35.2109 26.0494 34.604C26.0494 33.9791 26.2718 33.4922 26.7166 33.1435C27.1569 32.7993 27.7855 32.6272 28.6025 32.6272H29.8485C29.8894 32.6272 29.9098 32.6068 29.9098 32.5661V32.2944C29.9098 32.0272 29.8281 31.8166 29.6647 31.6626C29.5013 31.5132 29.2562 31.4384 28.9294 31.4384C28.6797 31.4384 28.4709 31.4837 28.303 31.5743C28.135 31.6649 28.0261 31.7917 27.9762 31.9547C27.9535 32.0453 27.9013 32.086 27.8196 32.077L26.3353 31.88C26.2355 31.8619 26.1901 31.8256 26.1991 31.7713C26.2309 31.4271 26.3671 31.1169 26.6077 30.8406C26.8482 30.5644 27.1682 30.3493 27.5677 30.1953C27.9625 30.0368 28.4051 29.9575 28.8953 29.9575ZM28.6502 35.1543C28.9997 35.1543 29.297 35.0614 29.5421 34.8757C29.7872 34.6901 29.9098 34.45 29.9098 34.1557V33.7141C29.9098 33.6734 29.8894 33.653 29.8485 33.653H28.9702C28.6025 33.653 28.3143 33.7232 28.1055 33.8636C27.8967 33.9994 27.7923 34.1942 27.7923 34.4478C27.7923 34.6697 27.8695 34.8418 28.0238 34.9641C28.1781 35.0909 28.3869 35.1543 28.6502 35.1543ZM36.766 27.9332C36.766 27.8924 36.7796 27.8562 36.8068 27.8245C36.834 27.7973 36.8681 27.7838 36.9089 27.7838H38.3455C38.3864 27.7838 38.4204 27.7973 38.4477 27.8245C38.4749 27.8562 38.4885 27.8924 38.4885 27.9332V36.1936C38.4885 36.2344 38.4749 36.2706 38.4477 36.3023C38.4204 36.3295 38.3864 36.3431 38.3455 36.3431H36.9089C36.8681 36.3431 36.834 36.3295 36.8068 36.3023C36.7796 36.2706 36.766 36.2344 36.766 36.1936V35.7928C36.766 35.7702 36.7569 35.7566 36.7387 35.7521C36.7206 35.7475 36.7047 35.7521 36.6911 35.7656C36.3461 36.214 35.8763 36.4382 35.2817 36.4382C34.7098 36.4382 34.2173 36.2796 33.8043 35.9626C33.3912 35.6456 33.0939 35.2109 32.9123 34.6584C32.7762 34.2327 32.7081 33.739 32.7081 33.1775C32.7081 32.5978 32.7807 32.0928 32.926 31.6626C33.1166 31.1373 33.4139 30.7229 33.8179 30.4195C34.2218 30.1115 34.7211 29.9575 35.3157 29.9575C35.9058 29.9575 36.3643 30.1613 36.6911 30.5689C36.7047 30.5961 36.7206 30.6052 36.7387 30.5961C36.7569 30.587 36.766 30.5712 36.766 30.5485V27.9332ZM36.5072 34.4342C36.6706 34.1353 36.7523 33.7232 36.7523 33.1978C36.7523 32.6544 36.6616 32.2264 36.48 31.914C36.2939 31.5969 36.0216 31.4384 35.663 31.4384C35.2772 31.4384 34.9867 31.5969 34.7915 31.914C34.5872 32.2355 34.4851 32.668 34.4851 33.2114C34.4851 33.7005 34.5713 34.1081 34.7438 34.4342C34.9481 34.7874 35.2499 34.9641 35.6494 34.9641C36.017 34.9641 36.303 34.7874 36.5072 34.4342ZM45.3651 32.5525C45.415 32.8605 45.4309 33.2069 45.4128 33.5918C45.4082 33.6915 45.356 33.7413 45.2562 33.7413H41.4706C41.4207 33.7413 41.4048 33.7617 41.423 33.8024C41.4457 33.9655 41.4888 34.1285 41.5523 34.2915C41.7657 34.7444 42.1991 34.9708 42.8528 34.9708C43.3747 34.9663 43.7878 34.7557 44.0919 34.3391C44.1237 34.2893 44.16 34.2644 44.2008 34.2644C44.2281 34.2644 44.2576 34.2802 44.2894 34.3119L45.1677 35.1814C45.2085 35.2222 45.2289 35.2584 45.2289 35.2901C45.2289 35.3082 45.213 35.3422 45.1813 35.392C44.9135 35.7226 44.5662 35.9808 44.1396 36.1664C43.7174 36.3476 43.2522 36.4382 42.7438 36.4382C42.0403 36.4382 41.4457 36.2796 40.96 35.9626C40.4743 35.6456 40.1248 35.2018 39.9115 34.6312C39.739 34.2236 39.6528 33.6892 39.6528 33.028C39.6528 32.5797 39.714 32.1857 39.8366 31.846C40.0272 31.2663 40.3563 30.8044 40.8238 30.4602C41.2959 30.1206 41.8542 29.9507 42.4987 29.9507C43.3157 29.9507 43.9716 30.1862 44.4664 30.6572C44.9611 31.1282 45.2607 31.76 45.3651 32.5525ZM42.5123 31.4384C41.9949 31.4384 41.6545 31.6785 41.4911 32.1585C41.4593 32.2672 41.4321 32.3985 41.4094 32.5525C41.4094 32.5933 41.4298 32.6136 41.4706 32.6136H43.5881C43.638 32.6136 43.6539 32.5933 43.6357 32.5525C43.5949 32.317 43.5745 32.2038 43.5745 32.2128C43.5018 31.9683 43.3747 31.7781 43.1932 31.6422C43.0071 31.5064 42.7801 31.4384 42.5123 31.4384ZM49.6204 29.9711C49.9155 29.9711 50.1469 30.0277 50.3149 30.141C50.383 30.1772 50.4079 30.2383 50.3898 30.3244L50.1311 31.7237C50.1265 31.8189 50.0698 31.846 49.9608 31.8053C49.8383 31.7645 49.6953 31.7441 49.5319 31.7441C49.4684 31.7441 49.3799 31.7532 49.2664 31.7713C48.9713 31.7939 48.7217 31.9004 48.5174 32.0906C48.3132 32.2853 48.2111 32.5412 48.2111 32.8582V36.1936C48.2111 36.2344 48.1974 36.2706 48.1702 36.3023C48.1384 36.3295 48.1021 36.3431 48.0613 36.3431H46.6315C46.5906 36.3431 46.5543 36.3295 46.5225 36.3023C46.4953 36.2706 46.4817 36.2344 46.4817 36.1936V30.2021C46.4817 30.1613 46.4953 30.1274 46.5225 30.1002C46.5543 30.073 46.5906 30.0594 46.6315 30.0594H48.0613C48.1021 30.0594 48.1384 30.073 48.1702 30.1002C48.1974 30.1274 48.2111 30.1613 48.2111 30.2021V30.6708C48.2111 30.6935 48.2179 30.7093 48.2315 30.7184C48.2496 30.7274 48.2633 30.7229 48.2723 30.7048C48.6082 30.2157 49.0576 29.9711 49.6204 29.9711Z" fill="#253053"/>
<path d="M13.5489 24.163C13.2312 24.163 12.9543 24.1132 12.7183 24.0136C12.4823 23.9094 12.2984 23.7668 12.1668 23.5856C12.0397 23.3999 11.9762 23.1826 11.9762 22.9335V22.784C11.9762 22.7614 11.983 22.7433 11.9966 22.7297C12.0102 22.7161 12.0284 22.7093 12.0511 22.7093H12.5957C12.6139 22.7093 12.6298 22.7161 12.6434 22.7297C12.6616 22.7433 12.6706 22.7614 12.6706 22.784V22.8995C12.6706 23.0852 12.7523 23.2414 12.9157 23.3682C13.0837 23.4905 13.3129 23.5517 13.6034 23.5517C13.853 23.5517 14.0414 23.4996 14.1685 23.3954C14.2956 23.2867 14.3591 23.1486 14.3591 22.981C14.3591 22.8678 14.3251 22.7727 14.257 22.6957C14.1844 22.6142 14.0845 22.5417 13.9574 22.4783C13.8304 22.4104 13.6374 22.3289 13.3787 22.2338C13.0882 22.1251 12.8522 22.0255 12.6706 21.9349C12.4936 21.8398 12.3438 21.7107 12.2213 21.5477C12.1033 21.3892 12.0443 21.1899 12.0443 20.9499C12.0443 20.5921 12.1736 20.3091 12.4323 20.1008C12.6956 19.8924 13.0451 19.7883 13.4808 19.7883C13.7895 19.7883 14.0596 19.8404 14.2911 19.9445C14.5271 20.0532 14.7109 20.2004 14.8425 20.3861C14.9742 20.5763 15.04 20.7959 15.04 21.045V21.1469C15.04 21.1695 15.0332 21.1877 15.0196 21.2012C15.006 21.2148 14.9878 21.2216 14.9651 21.2216H14.4136C14.3955 21.2216 14.3773 21.2148 14.3591 21.2012C14.3455 21.1877 14.3387 21.1695 14.3387 21.1469V21.0858C14.3387 20.891 14.2616 20.728 14.1072 20.5967C13.9484 20.4653 13.7305 20.3997 13.4536 20.3997C13.2267 20.3997 13.0519 20.4449 12.9294 20.5355C12.8023 20.6306 12.7387 20.7642 12.7387 20.9363C12.7387 21.0586 12.7728 21.1582 12.8408 21.2352C12.9044 21.3122 13.002 21.3824 13.1336 21.4458C13.2652 21.5092 13.4672 21.5907 13.7396 21.6903C14.0301 21.799 14.2616 21.8987 14.434 21.9892C14.6065 22.0798 14.7563 22.2044 14.8834 22.3629C15.006 22.5259 15.0672 22.7274 15.0672 22.9674C15.0672 23.3343 14.9311 23.6241 14.6587 23.837C14.3909 24.0543 14.021 24.163 13.5489 24.163ZM19.0706 20.9431C19.3838 20.9431 19.6289 21.0382 19.806 21.2284C19.9875 21.4186 20.0783 21.6813 20.0783 22.0164V24.0408C20.0783 24.0634 20.0692 24.0815 20.0511 24.0951C20.0374 24.1087 20.0216 24.1155 20.0034 24.1155H19.4451C19.4224 24.1155 19.4043 24.1087 19.3906 24.0951C19.377 24.0815 19.3702 24.0634 19.3702 24.0408V22.1659C19.3702 21.9757 19.3203 21.8262 19.2204 21.7175C19.1206 21.6088 18.9867 21.5545 18.8187 21.5545C18.6508 21.5545 18.5146 21.6088 18.4102 21.7175C18.3013 21.8262 18.2468 21.9734 18.2468 22.1591V24.0408C18.2468 24.0634 18.24 24.0815 18.2264 24.0951C18.2128 24.1087 18.1969 24.1155 18.1787 24.1155H17.6204C17.5977 24.1155 17.5796 24.1087 17.566 24.0951C17.5523 24.0815 17.5455 24.0634 17.5455 24.0408V22.1659C17.5455 21.9757 17.4933 21.8262 17.3889 21.7175C17.2891 21.6088 17.1552 21.5545 16.9872 21.5545C16.8329 21.5545 16.7058 21.5998 16.606 21.6903C16.5061 21.7764 16.4471 21.8987 16.4289 22.0572V24.0408C16.4289 24.0634 16.4221 24.0815 16.4085 24.0951C16.3949 24.1087 16.3767 24.1155 16.354 24.1155H15.7957C15.773 24.1155 15.7549 24.1087 15.7413 24.0951C15.7277 24.0815 15.7208 24.0634 15.7208 24.0408V21.0654C15.7208 21.0427 15.7277 21.0246 15.7413 21.011C15.7549 20.9975 15.773 20.9907 15.7957 20.9907H16.354C16.3767 20.9907 16.3949 20.9975 16.4085 21.011C16.4221 21.0246 16.4289 21.0427 16.4289 21.0654V21.2692C16.4289 21.2782 16.4335 21.285 16.4425 21.2896C16.4516 21.2941 16.4607 21.2896 16.4698 21.276C16.556 21.1627 16.6672 21.079 16.8034 21.0246C16.935 20.9703 17.0825 20.9431 17.246 20.9431C17.4457 20.9431 17.6204 20.9839 17.7702 21.0654C17.9245 21.1469 18.0425 21.2646 18.1243 21.4186C18.1333 21.4367 18.1469 21.4367 18.1651 21.4186C18.2559 21.2556 18.3807 21.1356 18.5396 21.0586C18.6984 20.9816 18.8755 20.9431 19.0706 20.9431ZM21.9915 20.9431C22.2502 20.9431 22.4772 20.9884 22.6723 21.079C22.8675 21.165 23.0196 21.2873 23.1285 21.4458C23.2329 21.6043 23.2851 21.7832 23.2851 21.9824V24.0408C23.2851 24.0634 23.2783 24.0815 23.2647 24.0951C23.2511 24.1087 23.2329 24.1155 23.2102 24.1155H22.6519C22.6292 24.1155 22.6111 24.1087 22.5974 24.0951C22.5838 24.0815 22.577 24.0634 22.577 24.0408V23.8438C22.577 23.8347 22.5725 23.8279 22.5634 23.8234C22.5543 23.8234 22.5452 23.8279 22.5362 23.837C22.3364 24.0543 22.0482 24.163 21.6715 24.163C21.3628 24.163 21.1086 24.086 20.9089 23.9321C20.7138 23.7781 20.6162 23.5471 20.6162 23.2392C20.6162 22.9222 20.7274 22.6753 20.9498 22.4987C21.1722 22.3221 21.4854 22.2338 21.8894 22.2338H22.543C22.5657 22.2338 22.577 22.2225 22.577 22.1998V22.0572C22.577 21.8987 22.5294 21.7741 22.434 21.6836C22.3387 21.5975 22.198 21.5545 22.0119 21.5545C21.8576 21.5545 21.7328 21.5817 21.6374 21.636C21.5421 21.6903 21.4808 21.7673 21.4536 21.867C21.44 21.9168 21.4128 21.9372 21.3719 21.9281L20.7728 21.8534C20.7546 21.8489 20.7387 21.8421 20.7251 21.833C20.7069 21.8239 20.7001 21.8104 20.7047 21.7922C20.741 21.5432 20.8749 21.3394 21.1064 21.1809C21.3424 21.0224 21.6374 20.9431 21.9915 20.9431ZM21.8485 23.5992C22.0482 23.5992 22.2184 23.5471 22.3591 23.443C22.5044 23.3388 22.577 23.2052 22.577 23.0422V22.7501C22.577 22.732 22.5657 22.7229 22.543 22.7229H22.0323C21.8145 22.7229 21.6442 22.7637 21.5217 22.8452C21.3946 22.9267 21.3311 23.0422 21.3311 23.1916C21.3311 23.323 21.3787 23.4248 21.474 23.4973C21.5694 23.5652 21.6942 23.5992 21.8485 23.5992ZM24.0681 24.1155C24.0499 24.1155 24.034 24.1087 24.0204 24.0951C24.0068 24.0815 24 24.0634 24 24.0408V19.9106C24 19.8879 24.0068 19.8698 24.0204 19.8562C24.034 19.8426 24.0499 19.8358 24.0681 19.8358H24.6332C24.6559 19.8358 24.674 19.8426 24.6877 19.8562C24.7013 19.8698 24.7081 19.8879 24.7081 19.9106V24.0408C24.7081 24.0634 24.7013 24.0815 24.6877 24.0951C24.674 24.1087 24.6559 24.1155 24.6332 24.1155H24.0681ZM25.5387 24.1155C25.516 24.1155 25.4979 24.1087 25.4843 24.0951C25.4706 24.0815 25.4638 24.0634 25.4638 24.0408V19.9106C25.4638 19.8879 25.4706 19.8698 25.4843 19.8562C25.4979 19.8426 25.516 19.8358 25.5387 19.8358H26.097C26.1197 19.8358 26.1379 19.8426 26.1515 19.8562C26.1651 19.8698 26.1719 19.8879 26.1719 19.9106V24.0408C26.1719 24.0634 26.1651 24.0815 26.1515 24.0951C26.1379 24.1087 26.1197 24.1155 26.097 24.1155H25.5387ZM30.6179 21.8806C30.5906 21.8941 30.5906 21.9077 30.6179 21.9213C31.0309 22.116 31.2374 22.4512 31.2374 22.9267C31.2374 23.3162 31.1081 23.6105 30.8494 23.8098C30.5906 24.0136 30.2525 24.1155 29.8349 24.1155H28.2962C28.2735 24.1155 28.2553 24.1087 28.2417 24.0951C28.2281 24.0815 28.2213 24.0634 28.2213 24.0408V19.9106C28.2213 19.8879 28.2281 19.8698 28.2417 19.8562C28.2553 19.8426 28.2735 19.8358 28.2962 19.8358H29.7872C30.2321 19.8358 30.5747 19.9309 30.8153 20.1211C31.0559 20.3159 31.1762 20.6057 31.1762 20.9907C31.1762 21.4209 30.9901 21.7175 30.6179 21.8806ZM28.9634 20.4472C28.9407 20.4472 28.9294 20.4563 28.9294 20.4744V21.6088C28.9294 21.6269 28.9407 21.636 28.9634 21.636H29.7872C30.0051 21.636 30.1753 21.5862 30.2979 21.4866C30.425 21.3824 30.4885 21.2375 30.4885 21.0518C30.4885 20.8661 30.425 20.7189 30.2979 20.6102C30.1753 20.5016 30.0051 20.4472 29.7872 20.4472H28.9634ZM29.8349 23.4973C30.0482 23.4973 30.2184 23.4407 30.3455 23.3275C30.4681 23.2143 30.5294 23.058 30.5294 22.8588C30.5294 22.6595 30.4658 22.5055 30.3387 22.3968C30.2116 22.2836 30.0414 22.227 29.8281 22.227H28.9634C28.9407 22.227 28.9294 22.2361 28.9294 22.2542V23.4701C28.9294 23.4883 28.9407 23.4973 28.9634 23.4973H29.8349ZM33.7566 21.0654C33.7566 21.0427 33.7634 21.0246 33.777 21.011C33.7952 20.9975 33.8133 20.9907 33.8315 20.9907H34.3898C34.4125 20.9907 34.4306 20.9975 34.4443 21.011C34.4579 21.0246 34.4647 21.0427 34.4647 21.0654V24.0408C34.4647 24.0634 34.4579 24.0815 34.4443 24.0951C34.4306 24.1087 34.4125 24.1155 34.3898 24.1155H33.8315C33.8133 24.1155 33.7952 24.1087 33.777 24.0951C33.7634 24.0815 33.7566 24.0634 33.7566 24.0408V23.8438C33.7566 23.8347 33.7543 23.8279 33.7498 23.8234C33.7407 23.8188 33.7316 23.8234 33.7225 23.837C33.5546 24.0498 33.3027 24.1562 32.9668 24.1562C32.6582 24.1562 32.3972 24.0679 32.1838 23.8913C31.975 23.7102 31.8706 23.4543 31.8706 23.1237V21.0654C31.8706 21.0427 31.8774 21.0246 31.8911 21.011C31.9047 20.9975 31.9228 20.9907 31.9455 20.9907H32.5106C32.5288 20.9907 32.5447 20.9975 32.5583 21.011C32.5765 21.0246 32.5855 21.0427 32.5855 21.0654V22.9199C32.5855 23.1146 32.6355 23.2686 32.7353 23.3818C32.8352 23.495 32.9736 23.5517 33.1506 23.5517C33.3367 23.5517 33.4843 23.495 33.5932 23.3818C33.7021 23.2686 33.7566 23.1146 33.7566 22.9199V21.0654ZM36.3847 24.1494C36.1305 24.1494 35.9058 24.1132 35.7106 24.0408C35.5155 23.9638 35.3657 23.8596 35.2613 23.7283C35.1523 23.5969 35.0979 23.4498 35.0979 23.2867V23.2256C35.0979 23.2075 35.1069 23.1916 35.1251 23.178C35.1387 23.1644 35.1546 23.1577 35.1728 23.1577H35.7106C35.7333 23.1577 35.7515 23.1644 35.7651 23.178C35.7787 23.1916 35.7855 23.2075 35.7855 23.2256V23.2392C35.7855 23.3433 35.8423 23.4316 35.9557 23.5041C36.0692 23.5811 36.2122 23.6196 36.3847 23.6196C36.5481 23.6196 36.6797 23.5856 36.7796 23.5177C36.884 23.4498 36.9362 23.366 36.9362 23.2663C36.9362 23.1712 36.893 23.101 36.8068 23.0558C36.7251 23.0059 36.5889 22.9561 36.3983 22.9063L36.1668 22.8316C35.958 22.7682 35.7833 22.7025 35.6425 22.6346C35.4973 22.5667 35.377 22.4716 35.2817 22.3493C35.1818 22.2315 35.1319 22.0776 35.1319 21.8873C35.1319 21.602 35.2431 21.3756 35.4655 21.208C35.6925 21.0405 35.9898 20.9567 36.3574 20.9567C36.6071 20.9567 36.825 20.9952 37.0111 21.0722C37.2017 21.1537 37.3469 21.2646 37.4468 21.405C37.5512 21.5454 37.6034 21.7039 37.6034 21.8806C37.6034 21.9032 37.5943 21.9213 37.5762 21.9349C37.5625 21.9485 37.5467 21.9553 37.5285 21.9553H37.0042C36.9861 21.9553 36.9702 21.9485 36.9566 21.9349C36.943 21.9213 36.9362 21.9032 36.9362 21.8806C36.9362 21.7764 36.884 21.6881 36.7796 21.6156C36.6752 21.5477 36.5322 21.5137 36.3506 21.5137C36.1918 21.5137 36.0624 21.5432 35.9625 21.602C35.8627 21.6609 35.8128 21.7424 35.8128 21.8466C35.8128 21.9462 35.8604 22.0209 35.9557 22.0708C36.0511 22.1206 36.2122 22.1772 36.4391 22.2406L36.5685 22.2746C36.7864 22.338 36.9702 22.4036 37.12 22.4716C37.2652 22.5395 37.3878 22.6346 37.4877 22.7569C37.5921 22.8746 37.6443 23.0308 37.6443 23.2256C37.6443 23.5109 37.5308 23.7373 37.3038 23.9049C37.0723 24.0679 36.766 24.1494 36.3847 24.1494ZM38.6519 20.5627C38.5248 20.5627 38.4204 20.5219 38.3387 20.4404C38.257 20.3589 38.2162 20.2547 38.2162 20.1279C38.2162 20.0011 38.257 19.897 38.3387 19.8155C38.4204 19.7339 38.5248 19.6932 38.6519 19.6932C38.7745 19.6932 38.8766 19.7339 38.9583 19.8155C39.04 19.897 39.0808 20.0011 39.0808 20.1279C39.0808 20.2547 39.04 20.3589 38.9583 20.4404C38.8766 20.5219 38.7745 20.5627 38.6519 20.5627ZM38.3523 24.1155C38.3342 24.1155 38.3183 24.1087 38.3047 24.0951C38.2911 24.0815 38.2843 24.0634 38.2843 24.0408V21.0586C38.2843 21.0359 38.2911 21.0178 38.3047 21.0042C38.3183 20.9907 38.3342 20.9839 38.3523 20.9839H38.9174C38.9401 20.9839 38.9583 20.9907 38.9719 21.0042C38.9855 21.0178 38.9923 21.0359 38.9923 21.0586V24.0408C38.9923 24.0634 38.9855 24.0815 38.9719 24.0951C38.9583 24.1087 38.9401 24.1155 38.9174 24.1155H38.3523ZM41.3072 20.9431C41.6386 20.9431 41.9041 21.0405 42.1038 21.2352C42.299 21.4299 42.3966 21.6971 42.3966 22.0368V24.0408C42.3966 24.0634 42.3898 24.0815 42.3762 24.0951C42.3625 24.1087 42.3467 24.1155 42.3285 24.1155H41.7634C41.7407 24.1155 41.7225 24.1087 41.7089 24.0951C41.6953 24.0815 41.6885 24.0634 41.6885 24.0408V22.1862C41.6885 21.996 41.6363 21.8443 41.5319 21.7311C41.423 21.6134 41.28 21.5545 41.103 21.5545C40.9305 21.5545 40.7898 21.6111 40.6808 21.7243C40.5719 21.8375 40.5174 21.9892 40.5174 22.1794V24.0408C40.5174 24.0634 40.5106 24.0815 40.497 24.0951C40.4834 24.1087 40.4652 24.1155 40.4425 24.1155H39.8774C39.8593 24.1155 39.8434 24.1087 39.8298 24.0951C39.8162 24.0815 39.8094 24.0634 39.8094 24.0408V21.0654C39.8094 21.0427 39.8162 21.0246 39.8298 21.011C39.8434 20.9975 39.8593 20.9907 39.8774 20.9907H40.4425C40.4652 20.9907 40.4834 20.9975 40.497 21.011C40.5106 21.0246 40.5174 21.0427 40.5174 21.0654V21.2624C40.5174 21.2714 40.522 21.2782 40.5311 21.2828C40.5401 21.2873 40.5469 21.2828 40.5515 21.2692C40.7149 21.0518 40.9668 20.9431 41.3072 20.9431ZM45.76 22.1998C45.7736 22.304 45.7804 22.4195 45.7804 22.5463L45.7736 22.7365C45.7736 22.7818 45.7486 22.8044 45.6987 22.8044H43.7855C43.7628 22.8044 43.7515 22.8157 43.7515 22.8384C43.7651 22.9742 43.7833 23.0648 43.806 23.1101C43.9058 23.4045 44.1464 23.5539 44.5277 23.5584C44.8045 23.5584 45.0247 23.4452 45.1881 23.2188C45.2017 23.1916 45.2221 23.178 45.2494 23.178C45.263 23.178 45.2766 23.1848 45.2902 23.1984L45.6715 23.5109C45.7078 23.5381 45.7146 23.5698 45.6919 23.606C45.5648 23.7871 45.3946 23.9253 45.1813 24.0204C44.9725 24.12 44.7387 24.1698 44.48 24.1698C44.1623 24.1698 43.8922 24.0996 43.6698 23.9592C43.4474 23.8143 43.2862 23.6128 43.1864 23.3547C43.0911 23.1373 43.0434 22.8316 43.0434 22.4376C43.0434 22.2021 43.0684 22.0119 43.1183 21.867C43.2 21.5817 43.3543 21.3552 43.5813 21.1877C43.8082 21.0246 44.0806 20.9431 44.3983 20.9431C45.2017 20.9431 45.6556 21.362 45.76 22.1998ZM44.3983 21.5545C44.244 21.5545 44.1169 21.593 44.017 21.67C43.9172 21.7424 43.8468 21.8466 43.806 21.9824C43.7833 22.0504 43.7674 22.1387 43.7583 22.2474C43.7492 22.27 43.7583 22.2813 43.7855 22.2813H45.0247C45.0474 22.2813 45.0587 22.27 45.0587 22.2474C45.0496 22.1477 45.0383 22.0708 45.0247 22.0164C44.9838 21.8715 44.9112 21.7583 44.8068 21.6768C44.6979 21.5952 44.5617 21.5545 44.3983 21.5545ZM47.5438 24.1494C47.2896 24.1494 47.065 24.1132 46.8698 24.0408C46.6746 23.9638 46.5248 23.8596 46.4204 23.7283C46.3115 23.5969 46.257 23.4498 46.257 23.2867V23.2256C46.257 23.2075 46.2638 23.1916 46.2774 23.178C46.2956 23.1644 46.3138 23.1577 46.3319 23.1577H46.8698C46.8925 23.1577 46.9106 23.1644 46.9242 23.178C46.9379 23.1916 46.9447 23.2075 46.9447 23.2256V23.2392C46.9447 23.3433 47.0014 23.4316 47.1149 23.5041C47.2284 23.5811 47.3691 23.6196 47.537 23.6196C47.7004 23.6196 47.8343 23.5856 47.9387 23.5177C48.0386 23.4498 48.0885 23.366 48.0885 23.2663C48.0885 23.1712 48.0477 23.101 47.966 23.0558C47.8843 23.0059 47.7481 22.9561 47.5574 22.9063L47.326 22.8316C47.1172 22.7682 46.9424 22.7025 46.8017 22.6346C46.6564 22.5667 46.5339 22.4716 46.434 22.3493C46.3387 22.2315 46.2911 22.0776 46.2911 21.8873C46.2911 21.602 46.4023 21.3756 46.6247 21.208C46.8516 21.0405 47.1489 20.9567 47.5166 20.9567C47.7662 20.9567 47.9841 20.9952 48.1702 21.0722C48.3608 21.1537 48.5061 21.2646 48.606 21.405C48.7104 21.5454 48.7625 21.7039 48.7625 21.8806C48.7625 21.9032 48.7535 21.9213 48.7353 21.9349C48.7217 21.9485 48.7058 21.9553 48.6877 21.9553H48.1634C48.1452 21.9553 48.1294 21.9485 48.1157 21.9349C48.0976 21.9213 48.0885 21.9032 48.0885 21.8806C48.0885 21.7764 48.0363 21.6881 47.9319 21.6156C47.8321 21.5477 47.6913 21.5137 47.5098 21.5137C47.3509 21.5137 47.2216 21.5432 47.1217 21.602C47.0218 21.6609 46.9719 21.7424 46.9719 21.8466C46.9719 21.9462 47.0196 22.0209 47.1149 22.0708C47.2102 22.1206 47.3713 22.1772 47.5983 22.2406L47.7277 22.2746C47.9455 22.338 48.1271 22.4036 48.2723 22.4716C48.4221 22.5395 48.5469 22.6346 48.6468 22.7569C48.7512 22.8746 48.8034 23.0308 48.8034 23.2256C48.8034 23.5109 48.6877 23.7373 48.4562 23.9049C48.2292 24.0679 47.9251 24.1494 47.5438 24.1494ZM50.5055 24.1494C50.2468 24.1494 50.0221 24.1132 49.8315 24.0408C49.6363 23.9638 49.4842 23.8596 49.3753 23.7283C49.2709 23.5969 49.2187 23.4498 49.2187 23.2867V23.2256C49.2187 23.2075 49.2255 23.1916 49.2391 23.178C49.2528 23.1644 49.2709 23.1577 49.2936 23.1577H49.8315C49.8496 23.1577 49.8678 23.1644 49.886 23.178C49.8996 23.1916 49.9064 23.2075 49.9064 23.2256V23.2392C49.9064 23.3433 49.9631 23.4316 50.0766 23.5041C50.1855 23.5811 50.3262 23.6196 50.4987 23.6196C50.6621 23.6196 50.796 23.5856 50.9004 23.5177C51.0003 23.4498 51.0502 23.366 51.0502 23.2663C51.0502 23.1712 51.0094 23.101 50.9277 23.0558C50.8414 23.0059 50.7052 22.9561 50.5191 22.9063L50.2877 22.8316C50.0789 22.7682 49.9018 22.7025 49.7566 22.6346C49.6159 22.5667 49.4956 22.4716 49.3957 22.3493C49.3004 22.2315 49.2528 22.0776 49.2528 21.8873C49.2528 21.602 49.364 21.3756 49.5864 21.208C49.8088 21.0405 50.1038 20.9567 50.4715 20.9567C50.7211 20.9567 50.9413 20.9952 51.1319 21.0722C51.318 21.1537 51.4633 21.2646 51.5677 21.405C51.6675 21.5454 51.7174 21.7039 51.7174 21.8806C51.7174 21.9032 51.7106 21.9213 51.697 21.9349C51.6834 21.9485 51.6652 21.9553 51.6425 21.9553H51.1251C51.1024 21.9553 51.0842 21.9485 51.0706 21.9349C51.057 21.9213 51.0502 21.9032 51.0502 21.8806C51.0502 21.7764 50.998 21.6881 50.8936 21.6156C50.7892 21.5477 50.6485 21.5137 50.4715 21.5137C50.3081 21.5137 50.1764 21.5432 50.0766 21.602C49.9767 21.6609 49.9268 21.7424 49.9268 21.8466C49.9268 21.9462 49.9767 22.0209 50.0766 22.0708C50.1719 22.1206 50.3308 22.1772 50.5532 22.2406L50.6894 22.2746C50.9072 22.338 51.0888 22.4036 51.234 22.4716C51.3793 22.5395 51.5041 22.6346 51.6085 22.7569C51.7084 22.8746 51.7583 23.0308 51.7583 23.2256C51.7583 23.5109 51.6448 23.7373 51.4179 23.9049C51.1909 24.0679 50.8868 24.1494 50.5055 24.1494Z" fill="#253053"/>
<path d="M21.0996 46.3968C21.0542 46.3968 21.0247 46.3742 21.0111 46.3289L20.7864 45.602C20.7773 45.5839 20.766 45.5749 20.7523 45.5749H18.9549C18.9413 45.5749 18.9299 45.5839 18.9208 45.602L18.6962 46.3289C18.6825 46.3742 18.653 46.3968 18.6077 46.3968H17.9268C17.8996 46.3968 17.8791 46.3878 17.8655 46.3697C17.8519 46.3561 17.8496 46.3334 17.8587 46.3017L19.3362 41.7096C19.3498 41.6643 19.3793 41.6417 19.4247 41.6417H20.2757C20.3211 41.6417 20.3506 41.6643 20.3643 41.7096L21.8485 46.3017C21.853 46.3108 21.8553 46.3221 21.8553 46.3357C21.8553 46.3765 21.8303 46.3968 21.7804 46.3968H21.0996ZM19.1319 44.9159C19.1274 44.9431 19.1364 44.9567 19.1591 44.9567H20.5413C20.5685 44.9567 20.5776 44.9431 20.5685 44.9159L19.8672 42.6403C19.8627 42.6221 19.8559 42.6131 19.8468 42.6131C19.8377 42.6131 19.8309 42.6221 19.8264 42.6403L19.1319 44.9159ZM26.206 42.8712C26.5555 42.8712 26.8301 42.9754 27.0298 43.1837C27.225 43.3966 27.3225 43.6909 27.3225 44.0668V46.3153C27.3225 46.338 27.3157 46.3561 27.3021 46.3697C27.284 46.3878 27.2635 46.3968 27.2408 46.3968H26.6213C26.5986 46.3968 26.5804 46.3878 26.5668 46.3697C26.5486 46.3561 26.5396 46.338 26.5396 46.3153V44.2298C26.5396 44.0215 26.4851 43.8562 26.3762 43.7339C26.2627 43.6117 26.1129 43.5505 25.9268 43.5505C25.7407 43.5505 25.5886 43.6117 25.4706 43.7339C25.3526 43.8562 25.2936 44.0193 25.2936 44.223V46.3153C25.2936 46.338 25.2868 46.3561 25.2732 46.3697C25.255 46.3878 25.2346 46.3968 25.2119 46.3968H24.5923C24.5696 46.3968 24.5515 46.3878 24.5379 46.3697C24.5197 46.3561 24.5106 46.338 24.5106 46.3153V44.2298C24.5106 44.0215 24.4539 43.8562 24.3404 43.7339C24.2269 43.6117 24.0772 43.5505 23.8911 43.5505C23.7186 43.5505 23.5756 43.6003 23.4621 43.7C23.3532 43.7996 23.2896 43.9355 23.2715 44.1076V46.3153C23.2715 46.338 23.2647 46.3561 23.2511 46.3697C23.2329 46.3878 23.2125 46.3968 23.1898 46.3968H22.5634C22.5407 46.3968 22.5225 46.3878 22.5089 46.3697C22.4908 46.3561 22.4817 46.338 22.4817 46.3153V43.0071C22.4817 42.9844 22.4908 42.9641 22.5089 42.9459C22.5225 42.9324 22.5407 42.9256 22.5634 42.9256H23.1898C23.2125 42.9256 23.2329 42.9324 23.2511 42.9459C23.2647 42.9641 23.2715 42.9844 23.2715 43.0071V43.2313C23.2715 43.2448 23.276 43.2539 23.2851 43.2584C23.2942 43.263 23.3033 43.2584 23.3123 43.2448C23.4122 43.118 23.537 43.0252 23.6868 42.9663C23.8321 42.9029 23.9955 42.8712 24.177 42.8712C24.3994 42.8712 24.5946 42.9165 24.7625 43.0071C24.9305 43.0977 25.0599 43.229 25.1506 43.4011C25.1643 43.4192 25.1801 43.4192 25.1983 43.4011C25.2982 43.2199 25.4366 43.0863 25.6136 43.0003C25.7906 42.9142 25.9881 42.8712 26.206 42.8712ZM31.0332 44.2706C31.0513 44.3838 31.0604 44.5106 31.0604 44.651L31.0536 44.8616C31.0536 44.9159 31.0264 44.9431 30.9719 44.9431H28.8408C28.8182 44.9431 28.8068 44.9544 28.8068 44.9771C28.8204 45.1265 28.8408 45.2284 28.8681 45.2828C28.977 45.6088 29.2425 45.7741 29.6647 45.7787C29.9733 45.7787 30.2184 45.6519 30.4 45.3982C30.4182 45.3711 30.4408 45.3575 30.4681 45.3575C30.4862 45.3575 30.5021 45.3643 30.5157 45.3779L30.9379 45.7243C30.9787 45.756 30.9855 45.7922 30.9583 45.833C30.8176 46.0323 30.6315 46.1862 30.4 46.2949C30.164 46.4036 29.903 46.458 29.617 46.458C29.263 46.458 28.9634 46.3787 28.7183 46.2202C28.4686 46.0617 28.2871 45.8398 28.1736 45.5545C28.0692 45.3099 28.017 44.9703 28.017 44.5355C28.017 44.2729 28.0443 44.06 28.0987 43.897C28.1895 43.58 28.362 43.3286 28.6162 43.1429C28.8658 42.9618 29.1677 42.8712 29.5217 42.8712C30.4159 42.8712 30.9197 43.3377 31.0332 44.2706ZM29.5217 43.5505C29.3538 43.5505 29.2153 43.5936 29.1064 43.6796C28.9929 43.7611 28.9135 43.8766 28.8681 44.026C28.8408 44.103 28.8227 44.2027 28.8136 44.3249C28.8045 44.3476 28.8136 44.3589 28.8408 44.3589H30.223C30.2457 44.3589 30.257 44.3476 30.257 44.3249C30.2479 44.2117 30.2343 44.1257 30.2162 44.0668C30.1753 43.9038 30.0959 43.777 29.9779 43.6864C29.8553 43.5958 29.7033 43.5505 29.5217 43.5505ZM33.4025 42.8848C33.5478 42.8848 33.6749 42.9142 33.7838 42.9731C33.8201 42.9912 33.8338 43.0252 33.8247 43.075L33.7089 43.6864C33.7044 43.7407 33.6726 43.7566 33.6136 43.7339C33.5455 43.7113 33.4661 43.7 33.3753 43.7C33.3163 43.7 33.2709 43.7022 33.2391 43.7068C33.0485 43.7158 32.8896 43.7815 32.7625 43.9038C32.6355 44.0306 32.5719 44.1936 32.5719 44.3929V46.3153C32.5719 46.338 32.5651 46.3561 32.5515 46.3697C32.5333 46.3878 32.5129 46.3968 32.4902 46.3968H31.8638C31.8411 46.3968 31.823 46.3878 31.8094 46.3697C31.7912 46.3561 31.7821 46.338 31.7821 46.3153V43.0071C31.7821 42.9844 31.7912 42.9641 31.8094 42.9459C31.823 42.9324 31.8411 42.9256 31.8638 42.9256H32.4902C32.5129 42.9256 32.5333 42.9324 32.5515 42.9459C32.5651 42.9641 32.5719 42.9844 32.5719 43.0071V43.3128C32.5719 43.3309 32.5765 43.3399 32.5855 43.3399C32.5901 43.3445 32.5969 43.3399 32.606 43.3264C32.7966 43.032 33.0621 42.8848 33.4025 42.8848ZM34.7915 42.45C34.6508 42.45 34.535 42.4048 34.4443 42.3142C34.3535 42.2236 34.3081 42.1081 34.3081 41.9677C34.3081 41.8273 34.3535 41.7119 34.4443 41.6213C34.535 41.5307 34.6508 41.4854 34.7915 41.4854C34.9322 41.4854 35.0479 41.5307 35.1387 41.6213C35.2295 41.7119 35.2749 41.8273 35.2749 41.9677C35.2749 42.1081 35.2295 42.2236 35.1387 42.3142C35.0479 42.4048 34.9322 42.45 34.7915 42.45ZM34.4647 46.3968C34.442 46.3968 34.4238 46.3878 34.4102 46.3697C34.3921 46.3561 34.383 46.338 34.383 46.3153V43.0003C34.383 42.9776 34.3921 42.9595 34.4102 42.9459C34.4238 42.9278 34.442 42.9188 34.4647 42.9188H35.0911C35.1138 42.9188 35.1342 42.9278 35.1523 42.9459C35.166 42.9595 35.1728 42.9776 35.1728 43.0003V46.3153C35.1728 46.338 35.166 46.3561 35.1523 46.3697C35.1342 46.3878 35.1138 46.3968 35.0911 46.3968H34.4647ZM37.5285 46.4512C37.179 46.4512 36.8772 46.3606 36.623 46.1795C36.3688 46.0028 36.1918 45.7628 36.0919 45.4594C36.0193 45.2556 35.983 44.9839 35.983 44.6442C35.983 44.3181 36.0193 44.051 36.0919 43.8426C36.1872 43.5437 36.3643 43.3082 36.623 43.1361C36.8772 42.9595 37.179 42.8712 37.5285 42.8712C37.8825 42.8712 38.1912 42.9595 38.4545 43.1361C38.7177 43.3128 38.8925 43.5347 38.9787 43.8019C39.0014 43.8743 39.0173 43.9468 39.0264 44.0193V44.0328C39.0264 44.0781 39.0014 44.1053 38.9515 44.1144L38.3387 44.2027H38.3251C38.2843 44.2027 38.257 44.18 38.2434 44.1347C38.2434 44.1121 38.2411 44.094 38.2366 44.0804C38.2275 44.0442 38.2184 44.0125 38.2094 43.9853C38.1685 43.8585 38.0868 43.7543 37.9643 43.6728C37.8417 43.5913 37.6965 43.5505 37.5285 43.5505C37.356 43.5505 37.2108 43.5936 37.0928 43.6796C36.9702 43.7702 36.8885 43.8924 36.8477 44.0464C36.8023 44.1913 36.7796 44.3929 36.7796 44.651C36.7796 44.9001 36.8 45.1016 36.8408 45.2556C36.8862 45.4141 36.9679 45.5386 37.086 45.6292C37.204 45.7243 37.3515 45.7719 37.5285 45.7719C37.701 45.7719 37.8508 45.7288 37.9779 45.6428C38.1004 45.5522 38.1799 45.4322 38.2162 45.2828C38.2207 45.2737 38.223 45.2624 38.223 45.2488C38.2275 45.2443 38.2298 45.2375 38.2298 45.2284C38.2434 45.1741 38.2752 45.1514 38.3251 45.1605L38.9379 45.2556C38.9606 45.2601 38.981 45.2692 38.9991 45.2828C39.0128 45.3009 39.0173 45.3235 39.0128 45.3507C38.9991 45.4232 38.9878 45.4752 38.9787 45.5069C38.8925 45.7968 38.7177 46.0277 38.4545 46.1998C38.1912 46.3674 37.8825 46.4512 37.5285 46.4512ZM41.0213 42.8712C41.3072 42.8712 41.5591 42.921 41.777 43.0207C41.9949 43.1203 42.1628 43.2562 42.2808 43.4283C42.3989 43.6049 42.4579 43.8041 42.4579 44.026V46.3153C42.4579 46.338 42.4511 46.3561 42.4374 46.3697C42.4193 46.3878 42.3989 46.3968 42.3762 46.3968H41.7498C41.7271 46.3968 41.7089 46.3878 41.6953 46.3697C41.6772 46.3561 41.6681 46.338 41.6681 46.3153V46.0979C41.6681 46.0844 41.6635 46.0753 41.6545 46.0708C41.6454 46.0708 41.6363 46.0753 41.6272 46.0844C41.4048 46.3289 41.0826 46.4512 40.6604 46.4512C40.32 46.4512 40.0408 46.3651 39.823 46.193C39.6006 46.0209 39.4894 45.7651 39.4894 45.4254C39.4894 45.0722 39.6142 44.7959 39.8638 44.5967C40.1089 44.4019 40.4562 44.3046 40.9055 44.3046H41.634C41.6567 44.3046 41.6681 44.2932 41.6681 44.2706V44.1076C41.6681 43.9309 41.6159 43.7928 41.5115 43.6932C41.4071 43.5981 41.2505 43.5505 41.0417 43.5505C40.8692 43.5505 40.7308 43.5822 40.6264 43.6456C40.5174 43.7045 40.4494 43.7883 40.4221 43.897C40.4085 43.9513 40.3767 43.974 40.3268 43.9649L39.6664 43.8834C39.6437 43.8789 39.6255 43.8721 39.6119 43.863C39.5938 43.8494 39.5869 43.8336 39.5915 43.8155C39.6278 43.5392 39.7776 43.3128 40.0408 43.1361C40.2996 42.9595 40.6264 42.8712 41.0213 42.8712ZM40.8579 45.8262C41.0803 45.8262 41.2709 45.7673 41.4298 45.6496C41.5886 45.5318 41.6681 45.3824 41.6681 45.2013V44.882C41.6681 44.8593 41.6567 44.848 41.634 44.848H41.0621C40.8216 44.848 40.6332 44.8933 40.497 44.9839C40.3563 45.0744 40.286 45.2035 40.286 45.3711C40.286 45.516 40.3404 45.627 40.4494 45.7039C40.5538 45.7855 40.6899 45.8262 40.8579 45.8262ZM44.5413 46.4376C44.2553 46.4376 44.0057 46.3946 43.7923 46.3085C43.5745 46.227 43.4065 46.1115 43.2885 45.9621C43.1705 45.8172 43.1115 45.6541 43.1115 45.473V45.4118C43.1115 45.3892 43.1206 45.3688 43.1387 45.3507C43.1523 45.3371 43.1705 45.3303 43.1932 45.3303H43.7923C43.815 45.3303 43.8355 45.3371 43.8536 45.3507C43.8672 45.3688 43.874 45.3892 43.874 45.4118V45.4254C43.874 45.5386 43.9376 45.6383 44.0647 45.7243C44.1872 45.8058 44.3438 45.8466 44.5345 45.8466C44.716 45.8466 44.8635 45.8104 44.977 45.7379C45.0905 45.6609 45.1472 45.5658 45.1472 45.4526C45.1472 45.3484 45.1018 45.2692 45.0111 45.2148C44.9157 45.165 44.7637 45.1107 44.5549 45.0518L44.2962 44.9703C44.0647 44.9024 43.8695 44.8299 43.7106 44.7529C43.5518 44.6759 43.4179 44.5695 43.3089 44.4336C43.2 44.3023 43.1455 44.1325 43.1455 43.9241C43.1455 43.6071 43.2704 43.3558 43.52 43.1701C43.7696 42.9799 44.0987 42.8848 44.5072 42.8848C44.7841 42.8848 45.0269 42.9278 45.2357 43.0139C45.4445 43.1044 45.6057 43.2267 45.7191 43.3807C45.8326 43.5392 45.8894 43.7181 45.8894 43.9174C45.8894 43.94 45.8826 43.9604 45.8689 43.9785C45.8508 43.9921 45.8304 43.9989 45.8077 43.9989H45.2289C45.2062 43.9989 45.1881 43.9921 45.1745 43.9785C45.1563 43.9604 45.1472 43.94 45.1472 43.9174C45.1472 43.7996 45.0905 43.7022 44.977 43.6253C44.859 43.5437 44.7001 43.503 44.5004 43.503C44.3234 43.503 44.1804 43.5347 44.0715 43.5981C43.958 43.666 43.9013 43.7588 43.9013 43.8766C43.9013 43.9853 43.9557 44.0668 44.0647 44.1211C44.1691 44.18 44.3461 44.2434 44.5957 44.3114L44.7455 44.3521C44.9861 44.4246 45.1881 44.497 45.3515 44.5695C45.5149 44.6465 45.6533 44.7506 45.7668 44.882C45.8803 45.0178 45.937 45.1922 45.937 45.405C45.937 45.7266 45.8099 45.9779 45.5557 46.1591C45.3016 46.3448 44.9634 46.4376 44.5413 46.4376Z" fill="#B0B6C9"/>
<path d="M21.2153 55.9751C21.1654 55.9751 21.1336 55.9525 21.12 55.9072L19.9149 51.3083L19.9081 51.2811C19.9081 51.2403 19.933 51.2199 19.983 51.2199H20.8272C20.8726 51.2199 20.9021 51.2426 20.9157 51.2879L21.5625 54.0527C21.5671 54.0708 21.5739 54.0798 21.583 54.0798C21.5921 54.0798 21.5989 54.0708 21.6034 54.0527L22.2298 51.2947C22.2434 51.2448 22.2729 51.2199 22.3183 51.2199H23.1421C23.1921 51.2199 23.2238 51.2426 23.2374 51.2879L23.9183 54.0527C23.9228 54.0662 23.9296 54.0753 23.9387 54.0798C23.9478 54.0798 23.9546 54.0708 23.9591 54.0527L24.5855 51.2947C24.5991 51.2448 24.6286 51.2199 24.674 51.2199H25.4774C25.541 51.2199 25.566 51.2494 25.5523 51.3083L24.4357 55.9072C24.4221 55.9525 24.3904 55.9751 24.3404 55.9751H23.5302C23.4848 55.9751 23.4553 55.9525 23.4417 55.9072L22.7472 52.9658C22.7427 52.9477 22.7359 52.9386 22.7268 52.9386C22.7177 52.9386 22.7109 52.9477 22.7064 52.9658L22.0596 55.9004C22.0505 55.9502 22.021 55.9751 21.9711 55.9751H21.2153ZM26.2128 55.9751C26.1901 55.9751 26.1696 55.966 26.1515 55.9479C26.1379 55.9343 26.1311 55.9162 26.1311 55.8936V51.3015C26.1311 51.2788 26.1379 51.2607 26.1515 51.2471C26.1696 51.229 26.1901 51.2199 26.2128 51.2199H27.0094C27.0321 51.2199 27.0502 51.229 27.0638 51.2471C27.082 51.2607 27.0911 51.2788 27.0911 51.3015V55.8936C27.0911 55.9162 27.082 55.9343 27.0638 55.9479C27.0502 55.966 27.0321 55.9751 27.0094 55.9751H26.2128ZM30.6587 51.3015C30.6587 51.2788 30.6655 51.2607 30.6791 51.2471C30.6973 51.229 30.7177 51.2199 30.7404 51.2199H31.537C31.5597 51.2199 31.5779 51.229 31.5915 51.2471C31.6096 51.2607 31.6187 51.2788 31.6187 51.3015V55.8936C31.6187 55.9162 31.6096 55.9343 31.5915 55.9479C31.5779 55.966 31.5597 55.9751 31.537 55.9751H30.7677C30.7223 55.9751 30.6905 55.957 30.6723 55.9208L28.9089 53.0133C28.8999 52.9997 28.8908 52.9952 28.8817 52.9997C28.8726 52.9997 28.8681 53.0088 28.8681 53.0269L28.8817 55.8936C28.8817 55.9162 28.8726 55.9343 28.8545 55.9479C28.8408 55.966 28.8227 55.9751 28.8 55.9751H28.0034C27.9807 55.9751 27.9603 55.966 27.9421 55.9479C27.9285 55.9343 27.9217 55.9162 27.9217 55.8936V51.3015C27.9217 51.2788 27.9285 51.2607 27.9421 51.2471C27.9603 51.229 27.9807 51.2199 28.0034 51.2199H28.7728C28.8182 51.2199 28.8499 51.2381 28.8681 51.2743L30.6247 54.1681C30.6338 54.1817 30.6428 54.1863 30.6519 54.1817C30.661 54.1817 30.6655 54.1727 30.6655 54.1546L30.6587 51.3015ZM35.7379 51.2199C35.7606 51.2199 35.7787 51.229 35.7923 51.2471C35.8105 51.2607 35.8196 51.2788 35.8196 51.3015V51.9672C35.8196 51.9898 35.8105 52.0079 35.7923 52.0215C35.7787 52.0396 35.7606 52.0487 35.7379 52.0487H34.5191C34.4965 52.0487 34.4851 52.06 34.4851 52.0827V55.8936C34.4851 55.9162 34.476 55.9343 34.4579 55.9479C34.4443 55.966 34.4261 55.9751 34.4034 55.9751H33.6068C33.5841 55.9751 33.5637 55.966 33.5455 55.9479C33.5319 55.9343 33.5251 55.9162 33.5251 55.8936V52.0827C33.5251 52.06 33.5138 52.0487 33.4911 52.0487H32.3064C32.2837 52.0487 32.2633 52.0396 32.2451 52.0215C32.2315 52.0079 32.2247 51.9898 32.2247 51.9672V51.3015C32.2247 51.2788 32.2315 51.2607 32.2451 51.2471C32.2633 51.229 32.2837 51.2199 32.3064 51.2199H35.7379ZM39.7413 51.9604C39.7413 51.983 39.7345 52.0011 39.7208 52.0147C39.7027 52.0328 39.6823 52.0419 39.6596 52.0419H37.4264C37.4037 52.0419 37.3923 52.0532 37.3923 52.0759V53.1288C37.3923 53.1514 37.4037 53.1628 37.4264 53.1628H38.8902C38.9129 53.1628 38.9311 53.1696 38.9447 53.1831C38.9628 53.2013 38.9719 53.2216 38.9719 53.2443V53.9032C38.9719 53.9259 38.9628 53.9462 38.9447 53.9643C38.9311 53.9779 38.9129 53.9847 38.8902 53.9847H37.4264C37.4037 53.9847 37.3923 53.9961 37.3923 54.0187V55.1192C37.3923 55.1418 37.4037 55.1531 37.4264 55.1531H39.6596C39.6823 55.1531 39.7027 55.1599 39.7208 55.1735C39.7345 55.1916 39.7413 55.212 39.7413 55.2347V55.8936C39.7413 55.9162 39.7345 55.9343 39.7208 55.9479C39.7027 55.966 39.6823 55.9751 39.6596 55.9751H36.514C36.4913 55.9751 36.4709 55.966 36.4528 55.9479C36.4391 55.9343 36.4323 55.9162 36.4323 55.8936V51.3015C36.4323 51.2788 36.4391 51.2607 36.4528 51.2471C36.4709 51.229 36.4913 51.2199 36.514 51.2199H39.6596C39.6823 51.2199 39.7027 51.229 39.7208 51.2471C39.7345 51.2607 39.7413 51.2788 39.7413 51.3015V51.9604ZM43.023 55.9751C42.9776 55.9751 42.9458 55.9547 42.9277 55.914L42.0766 54.0323C42.0675 54.0142 42.0539 54.0051 42.0357 54.0051H41.4025C41.3799 54.0051 41.3685 54.0164 41.3685 54.0391V55.8936C41.3685 55.9162 41.3594 55.9343 41.3413 55.9479C41.3277 55.966 41.3095 55.9751 41.2868 55.9751H40.4902C40.4675 55.9751 40.4471 55.966 40.4289 55.9479C40.4153 55.9343 40.4085 55.9162 40.4085 55.8936V51.3015C40.4085 51.2788 40.4153 51.2607 40.4289 51.2471C40.4471 51.229 40.4675 51.2199 40.4902 51.2199H42.4374C42.7279 51.2199 42.9821 51.2788 43.2 51.3966C43.4224 51.5143 43.5926 51.6819 43.7106 51.8992C43.8332 52.1166 43.8945 52.368 43.8945 52.6533C43.8945 52.9612 43.8173 53.2239 43.663 53.4413C43.5086 53.6632 43.293 53.8194 43.0162 53.91C42.9935 53.9191 42.9867 53.9349 42.9957 53.9576L43.9217 55.88C43.9308 55.8981 43.9353 55.9117 43.9353 55.9208C43.9353 55.957 43.9103 55.9751 43.8604 55.9751H43.023ZM41.4025 52.0419C41.3799 52.0419 41.3685 52.0532 41.3685 52.0759V53.2375C41.3685 53.2601 41.3799 53.2715 41.4025 53.2715H42.2945C42.4851 53.2715 42.6394 53.2148 42.7574 53.1016C42.88 52.9884 42.9413 52.8412 42.9413 52.6601C42.9413 52.4789 42.88 52.3295 42.7574 52.2117C42.6394 52.0985 42.4851 52.0419 42.2945 52.0419H41.4025Z" fill="#253053"/>
<path d="M25.6545 61.4979C25.6454 61.5069 25.6431 61.516 25.6477 61.525C25.6522 61.5341 25.6613 61.5386 25.6749 61.5386H27.52C27.5427 61.5386 27.5631 61.5454 27.5813 61.559C27.5949 61.5771 27.6017 61.5975 27.6017 61.6201V62.2791C27.6017 62.3017 27.5949 62.3198 27.5813 62.3334C27.5631 62.3515 27.5427 62.3606 27.52 62.3606H24.4562C24.4335 62.3606 24.413 62.3515 24.3949 62.3334C24.3813 62.3198 24.3745 62.3017 24.3745 62.2791V61.6541C24.3745 61.6133 24.3881 61.5794 24.4153 61.5522C24.6377 61.3348 24.8647 61.0993 25.0962 60.8457C25.3277 60.5876 25.4729 60.4268 25.5319 60.3634C25.659 60.214 25.7884 60.0713 25.92 59.9354C26.333 59.478 26.5396 59.1384 26.5396 58.9165C26.5396 58.758 26.4828 58.6266 26.3694 58.5225C26.2559 58.4229 26.1084 58.373 25.9268 58.373C25.7452 58.373 25.5977 58.4229 25.4843 58.5225C25.3708 58.6266 25.314 58.7625 25.314 58.9301V59.0999C25.314 59.1225 25.305 59.1429 25.2868 59.161C25.2732 59.1746 25.255 59.1814 25.2323 59.1814H24.4289C24.4062 59.1814 24.3881 59.1746 24.3745 59.161C24.3563 59.1429 24.3472 59.1225 24.3472 59.0999V58.7806C24.3608 58.5361 24.438 58.3187 24.5787 58.1285C24.7194 57.9428 24.9055 57.8002 25.137 57.7005C25.373 57.6009 25.6363 57.5511 25.9268 57.5511C26.2491 57.5511 26.5305 57.6099 26.7711 57.7277C27.0071 57.85 27.1909 58.013 27.3225 58.2168C27.4496 58.4206 27.5132 58.647 27.5132 58.8961C27.5132 59.0863 27.4655 59.281 27.3702 59.4803C27.2749 59.6796 27.1319 59.8947 26.9413 60.1257C26.8006 60.3023 26.6485 60.4766 26.4851 60.6487C26.3217 60.8208 26.0789 61.0699 25.7566 61.396L25.6545 61.4979ZM29.8145 62.4353C29.3152 62.4353 28.9203 62.2949 28.6298 62.0141C28.3393 61.7379 28.194 61.3597 28.194 60.8797V59.0863C28.194 58.6153 28.3393 58.2417 28.6298 57.9654C28.9203 57.6892 29.3152 57.5511 29.8145 57.5511C30.3138 57.5511 30.7109 57.6892 31.006 57.9654C31.2964 58.2417 31.4417 58.6153 31.4417 59.0863V60.8797C31.4417 61.3597 31.2964 61.7379 31.006 62.0141C30.7109 62.2949 30.3138 62.4353 29.8145 62.4353ZM29.8145 61.6133C30.0187 61.6133 30.1821 61.5499 30.3047 61.4231C30.4227 61.3009 30.4817 61.1356 30.4817 60.9272V59.0591C30.4817 58.8508 30.4227 58.6855 30.3047 58.5632C30.1821 58.4364 30.0187 58.373 29.8145 58.373C29.6147 58.373 29.4559 58.4364 29.3379 58.5632C29.2153 58.6855 29.154 58.8508 29.154 59.0591V60.9272C29.154 61.1356 29.2153 61.3009 29.3379 61.4231C29.4559 61.5499 29.6147 61.6133 29.8145 61.6133ZM33.3481 61.4979C33.339 61.5069 33.3367 61.516 33.3413 61.525C33.3458 61.5341 33.3549 61.5386 33.3685 61.5386H35.2136C35.2363 61.5386 35.2567 61.5454 35.2749 61.559C35.2885 61.5771 35.2953 61.5975 35.2953 61.6201V62.2791C35.2953 62.3017 35.2885 62.3198 35.2749 62.3334C35.2567 62.3515 35.2363 62.3606 35.2136 62.3606H32.1498C32.1271 62.3606 32.1089 62.3515 32.0953 62.3334C32.0772 62.3198 32.0681 62.3017 32.0681 62.2791V61.6541C32.0681 61.6133 32.0817 61.5794 32.1089 61.5522C32.3313 61.3348 32.5583 61.0993 32.7898 60.8457C33.0213 60.5876 33.1665 60.4268 33.2255 60.3634C33.3526 60.214 33.482 60.0713 33.6136 59.9354C34.0267 59.478 34.2332 59.1384 34.2332 58.9165C34.2332 58.758 34.1764 58.6266 34.063 58.5225C33.9495 58.4229 33.802 58.373 33.6204 58.373C33.4389 58.373 33.2913 58.4229 33.1779 58.5225C33.0644 58.6266 33.0077 58.7625 33.0077 58.9301V59.0999C33.0077 59.1225 33.0008 59.1429 32.9872 59.161C32.9691 59.1746 32.9486 59.1814 32.926 59.1814H32.1225C32.0999 59.1814 32.0817 59.1746 32.0681 59.161C32.0499 59.1429 32.0408 59.1225 32.0408 59.0999V58.7806C32.0545 58.5361 32.1316 58.3187 32.2723 58.1285C32.413 57.9428 32.6014 57.8002 32.8374 57.7005C33.0689 57.6009 33.3299 57.5511 33.6204 57.5511C33.9427 57.5511 34.2241 57.6099 34.4647 57.7277C34.7007 57.85 34.8845 58.013 35.0162 58.2168C35.1433 58.4206 35.2068 58.647 35.2068 58.8961C35.2068 59.0863 35.1591 59.281 35.0638 59.4803C34.9685 59.6796 34.8255 59.8947 34.6349 60.1257C34.4942 60.3023 34.3421 60.4766 34.1787 60.6487C34.0153 60.8208 33.7725 61.0699 33.4502 61.396L33.3481 61.4979ZM39.2919 60.2887C39.3146 60.2887 39.335 60.2955 39.3532 60.3091C39.3668 60.3272 39.3736 60.3476 39.3736 60.3702V61.0563C39.3736 61.079 39.3668 61.0993 39.3532 61.1174C39.335 61.131 39.3146 61.1378 39.2919 61.1378H38.9991C38.9764 61.1378 38.9651 61.1491 38.9651 61.1718V62.2791C38.9651 62.3017 38.9583 62.3198 38.9447 62.3334C38.9265 62.3515 38.9061 62.3606 38.8834 62.3606H38.0868C38.0641 62.3606 38.046 62.3515 38.0323 62.3334C38.0142 62.3198 38.0051 62.3017 38.0051 62.2791V61.1718C38.0051 61.1491 37.9938 61.1378 37.9711 61.1378H35.8808C35.8582 61.1378 35.84 61.131 35.8264 61.1174C35.8082 61.0993 35.7991 61.079 35.7991 61.0563V60.5129C35.7991 60.4857 35.806 60.4517 35.8196 60.411L37.0451 57.6666C37.0633 57.6258 37.095 57.6054 37.1404 57.6054H37.9915C38.0233 57.6054 38.046 57.6145 38.0596 57.6326C38.0686 57.6462 38.0664 57.6688 38.0528 57.7005L36.9157 60.2479C36.9112 60.257 36.9112 60.266 36.9157 60.2751C36.9203 60.2842 36.9271 60.2887 36.9362 60.2887H37.9711C37.9938 60.2887 38.0051 60.2774 38.0051 60.2547V59.4124C38.0051 59.3897 38.0142 59.3716 38.0323 59.358C38.046 59.3399 38.0641 59.3309 38.0868 59.3309H38.8834C38.9061 59.3309 38.9265 59.3399 38.9447 59.358C38.9583 59.3716 38.9651 59.3897 38.9651 59.4124V60.2547C38.9651 60.2774 38.9764 60.2887 38.9991 60.2887H39.2919Z" fill="#253053"/>
</svg>
