<?xml version="1.0" encoding="UTF-8"?>
<svg width="4677px" height="2744px" viewBox="0 0 4677 2744" version="1.1" xmlns="http://www.w3.org/2000/svg" xmlns:xlink="http://www.w3.org/1999/xlink">
    <title>Shape 1 Copy 2</title>
    <g id="Page-1" stroke="none" stroke-width="1" fill="none" fill-rule="evenodd" opacity="0.3">
        <g id="Online-timesheets" transform="translate(2673.000000, -2368.000000)" stroke="#2746FF" stroke-width="0.5">
            <g id="Group-10" transform="translate(-362.000000, 2368.000000)">
                <g id="Shape-1-Copy-2" transform="translate(-2311.047783, -1235.481523)">
                    <path d="M2645.40585,2678.14055 C2702.60369,2710.76806 2774.32766,2696.14011 2816.47727,2645.98023 C2943.45633,2494.8483 3135.11283,2398.35631 3350.00949,2398.35631 C3565.11258,2398.35631 3756.92287,2495.01358 3883.92217,2646.34824 C3926.02322,2696.54118 3997.68647,2711.22422 4054.94503,2678.63197 L5068.77402,2100.92731 C5135.93252,2062.59231 5154.97149,1976.52587 5111.59956,1913.15059 C5062.40746,1841.27577 5008.80776,1772.57203 4951.18088,1707.39636 C4798.4806,1534.80292 4614.10133,1391.97882 4412.87273,1277.16553 L4277.81911,1200.0526 L4269.39648,1195.68052 C4261.45548,1191.96514 4253.51043,1188.27179 4245.48444,1184.60268 C4203.43196,1165.43518 4153.67324,1175.61392 4122.45969,1209.31902 C3931.26865,1415.61976 3656.14668,1545.27254 3350.00949,1545.27254 C3044.71012,1545.27254 2770.23978,1416.3073 2579.07302,1210.92108 C2547.98495,1177.48263 2498.61882,1167.65868 2456.91442,1186.87026 L2456.1616,1187.22725 L2298.22803,1277.21181 C2044.58157,1421.75918 1818.27528,1611.03879 1644.75114,1843.43537 C1626.61474,1867.7308 1609.04093,1892.4251 1591.96495,1917.47639 C1549.54416,1979.80713 1570.76063,2064.78496 1636.73728,2102.39495 L2645.40585,2678.14055 Z" id="Shape-1-Copy" transform="translate(3352.421875, 1935.500000) rotate(110.000000) translate(-3352.421875, -1935.500000) "></path>
                    <path d="M1221.45363,3473.02324 C1278.65148,3505.65074 1350.37544,3491.0228 1392.52506,3440.86292 C1519.50411,3289.73099 1711.16061,3193.239 1926.05728,3193.239 C2141.16036,3193.239 2332.97066,3289.89627 2459.96995,3441.23093 C2502.071,3491.42387 2573.73425,3506.1069 2630.99281,3473.51466 L3644.82181,2895.80999 C3711.9803,2857.47499 3731.01927,2771.40855 3687.64734,2708.03328 C3638.45525,2636.15846 3584.85554,2567.45472 3527.22867,2502.27905 C3374.52839,2329.6856 3190.14911,2186.8615 2988.92052,2072.04822 L2853.8669,1994.93528 L2845.44426,1990.56321 C2837.50326,1986.84782 2829.55822,1983.15448 2821.53222,1979.48537 C2779.47975,1960.31787 2729.72102,1970.49661 2698.50748,2004.2017 C2507.31643,2210.50245 2232.19446,2340.15523 1926.05728,2340.15523 C1620.7579,2340.15523 1346.28757,2211.18999 1155.1208,2005.80377 C1124.03273,1972.36532 1074.6666,1962.54137 1032.9622,1981.75294 L1032.20938,1982.10994 L874.275816,2072.0945 C620.62935,2216.64186 394.323067,2405.92148 220.798918,2638.31805 C202.662522,2662.61349 185.088714,2687.30779 168.012736,2712.35908 C125.591945,2774.68982 146.808412,2859.66764 212.785067,2897.27764 L1221.45363,3473.02324 Z" id="Shape-1" transform="translate(1928.469658, 2730.382687) rotate(-17.000000) translate(-1928.469658, -2730.382687) "></path>
                </g>
            </g>
        </g>
    </g>
</svg>