<svg width="65" height="72" viewBox="0 0 65 72" fill="none" xmlns="http://www.w3.org/2000/svg">
<path d="M5.75708 55.8929L32.9691 69.7285L59.1478 55.8929V1.78967H5.75708V55.8929Z" fill="#9197A9"/>
<path d="M59.6988 1.99615L5.20581 56.8566L33.4512 70.8298L59.6988 57.4073V1.99615Z" fill="#898FA2"/>
<path d="M3.96606 20.0306V57.2696L4.93054 57.7514L32.1426 71.587L32.9693 72L33.796 71.587L60.0436 57.7514L61.008 57.2696V0.206482H3.96606V20.0306ZM5.75724 56.2371V1.99616H59.2169V56.2371L32.9693 70.0727L5.75724 56.2371Z" fill="#4D5672"/>
<path d="M32.4868 2.68451C32.7624 2.68451 33.038 2.68451 33.3135 2.75335L32.4868 4.33652C31.2468 4.26769 30.1445 5.23136 30.0756 6.47037C30.0068 7.70937 30.9712 8.81071 32.2113 8.87954H32.4868C33.038 8.87954 33.5891 8.67304 34.0024 8.32887L34.898 9.84321C34.2091 10.3251 33.3824 10.6004 32.4868 10.6004C30.2823 10.6692 28.4223 9.01721 28.3534 6.81453C28.2845 4.61186 29.9379 2.75335 32.1424 2.68451H32.4868ZM35.3114 6.05736L36.3447 7.7782L35.3114 9.43021L34.3469 7.7782H32.3491L33.3824 6.05736H35.3114ZM33.658 5.43786C33.658 5.16253 33.7269 4.88719 33.8647 4.68069C34.0024 4.47419 34.278 4.26769 34.4847 4.13002L34.6225 4.06119C34.898 3.92352 34.9669 3.85469 34.9669 3.71702C34.9669 3.57935 34.7602 3.44168 34.6225 3.44168C34.3469 3.44168 34.1402 3.57935 34.0024 3.85469L33.658 3.51052C33.7269 3.37285 33.8647 3.23518 34.0024 3.09752C34.2091 2.95985 34.4158 2.95985 34.6225 2.95985C34.8291 2.95985 35.1047 3.02868 35.2425 3.16635C35.3803 3.30402 35.5181 3.51052 35.5181 3.71702C35.5181 4.06119 35.3114 4.33652 34.898 4.47419L34.6914 4.61186C34.4847 4.74952 34.3469 4.81836 34.278 5.02486H35.5181V5.50669L33.658 5.43786ZM32.4868 14.0421L39.0315 10.3251V0H25.8733V10.2562L32.4868 14.0421ZM62.3168 38.4092H2.65691L0.452393 43.2275L2.65691 48.0459H62.3168L64.4524 43.2275L62.3168 38.4092Z" fill="#4D5672"/>
<path d="M13.3283 35.3117C13.2869 35.3117 13.2525 35.2979 13.2249 35.2704C13.1974 35.2383 13.1836 35.2015 13.1836 35.1602V26.7901C13.1836 26.7488 13.1974 26.7121 13.2249 26.6799C13.2525 26.6524 13.2869 26.6386 13.3283 26.6386H14.7819C14.8232 26.6386 14.8577 26.6524 14.8852 26.6799C14.9174 26.7121 14.9334 26.7488 14.9334 26.7901V33.7492C14.9334 33.7905 14.9541 33.8111 14.9954 33.8111H19.0462C19.0876 33.8111 19.1243 33.8249 19.1565 33.8524C19.184 33.8845 19.1978 33.9212 19.1978 33.9625V35.1602C19.1978 35.2015 19.184 35.2383 19.1565 35.2704C19.1243 35.2979 19.0876 35.3117 19.0462 35.3117H13.3283ZM25.8045 31.4708C25.855 31.7828 25.8711 32.1339 25.8527 32.5239C25.8481 32.6249 25.7953 32.6754 25.6943 32.6754H21.8639C21.8134 32.6754 21.7973 32.696 21.8157 32.7373C21.8386 32.9025 21.8823 33.0677 21.9466 33.2329C22.1624 33.6918 22.601 33.9212 23.2624 33.9212C23.7906 33.9167 24.2085 33.7033 24.5162 33.2811C24.5484 33.2306 24.5851 33.2054 24.6264 33.2054C24.654 33.2054 24.6838 33.2214 24.716 33.2536L25.6047 34.1346C25.646 34.1759 25.6667 34.2126 25.6667 34.2448C25.6667 34.2631 25.6506 34.2975 25.6185 34.348C25.3475 34.683 24.9962 34.9446 24.5644 35.1327C24.1373 35.3163 23.6666 35.408 23.1522 35.408C22.4403 35.408 21.8386 35.2474 21.3472 34.9262C20.8558 34.605 20.5021 34.1553 20.2863 33.5771C20.1118 33.1641 20.0245 32.6226 20.0245 31.9526C20.0245 31.4983 20.0865 31.0991 20.2105 30.7549C20.4034 30.1675 20.7364 29.6994 21.2094 29.3507C21.6871 29.0065 22.252 28.8344 22.9042 28.8344C23.7309 28.8344 24.3945 29.0731 24.8951 29.5503C25.3957 30.0276 25.6988 30.6677 25.8045 31.4708ZM22.9179 30.3419C22.3944 30.3419 22.0499 30.5851 21.8846 31.0715C21.8524 31.1817 21.8249 31.3147 21.8019 31.4708C21.8019 31.5121 21.8226 31.5327 21.8639 31.5327H24.0064C24.0569 31.5327 24.073 31.5121 24.0546 31.4708C24.0133 31.2321 23.9926 31.1174 23.9926 31.1266C23.9192 30.8788 23.7906 30.6861 23.6068 30.5484C23.4185 30.4107 23.1889 30.3419 22.9179 30.3419ZM29.4144 28.8413C29.9517 28.8413 30.4317 28.9354 30.8542 29.1235C31.2767 29.3071 31.6051 29.5618 31.8394 29.8876C32.0736 30.2088 32.1907 30.5667 32.1907 30.9614V35.1602C32.1907 35.2015 32.1769 35.2383 32.1494 35.2704C32.1218 35.2979 32.0874 35.3117 32.046 35.3117H30.5924C30.5511 35.3117 30.5166 35.2979 30.4891 35.2704C30.4569 35.2383 30.4409 35.2015 30.4409 35.1602V34.7541C30.4409 34.7312 30.434 34.7151 30.4202 34.7059C30.4018 34.6968 30.3857 34.7037 30.372 34.7266C30.0229 35.1809 29.4649 35.408 28.6979 35.408C28.0503 35.408 27.5291 35.252 27.1341 34.94C26.7345 34.6279 26.5347 34.1645 26.5347 33.5495C26.5347 32.9163 26.7598 32.423 27.2099 32.0696C27.6554 31.7209 28.2915 31.5465 29.1181 31.5465H30.3789C30.4202 31.5465 30.4409 31.5258 30.4409 31.4845V31.2092C30.4409 30.9385 30.3582 30.7251 30.1929 30.569C30.0275 30.4176 29.7795 30.3419 29.4488 30.3419C29.1962 30.3419 28.985 30.3878 28.815 30.4796C28.6451 30.5713 28.5349 30.6998 28.4843 30.865C28.4614 30.9568 28.4086 30.9981 28.3259 30.9889L26.8241 30.7893C26.723 30.771 26.6771 30.7342 26.6863 30.6792C26.7184 30.3304 26.8562 30.0161 27.0996 29.7362C27.3431 29.4562 27.6668 29.2383 28.071 29.0822C28.4706 28.9216 28.9184 28.8413 29.4144 28.8413ZM29.1664 34.1071C29.52 34.1071 29.8208 34.013 30.0688 33.8249C30.3169 33.6367 30.4409 33.3935 30.4409 33.0952V32.6478C30.4409 32.6065 30.4202 32.5859 30.3789 32.5859H29.4902C29.1181 32.5859 28.8265 32.657 28.6152 32.7993C28.404 32.9369 28.2983 33.1342 28.2983 33.3912C28.2983 33.6161 28.3764 33.7905 28.5326 33.9144C28.6887 34.0428 28.9 34.1071 29.1664 34.1071ZM37.3782 26.7901C37.3782 26.7488 37.392 26.7121 37.4195 26.6799C37.4471 26.6524 37.4816 26.6386 37.5229 26.6386H38.9765C39.0178 26.6386 39.0523 26.6524 39.0798 26.6799C39.1074 26.7121 39.1212 26.7488 39.1212 26.7901V35.1602C39.1212 35.2015 39.1074 35.2383 39.0798 35.2704C39.0523 35.2979 39.0178 35.3117 38.9765 35.3117H37.5229C37.4816 35.3117 37.4471 35.2979 37.4195 35.2704C37.392 35.2383 37.3782 35.2015 37.3782 35.1602V34.7541C37.3782 34.7312 37.369 34.7174 37.3507 34.7128C37.3323 34.7082 37.3162 34.7128 37.3024 34.7266C36.9534 35.1809 36.478 35.408 35.8764 35.408C35.2977 35.408 34.7994 35.2474 34.3814 34.9262C33.9635 34.605 33.6627 34.1645 33.479 33.6046C33.3412 33.1733 33.2723 32.6731 33.2723 32.104C33.2723 31.5167 33.3458 31.005 33.4927 30.569C33.6856 30.0367 33.9865 29.6168 34.3952 29.3094C34.804 28.9973 35.3092 28.8413 35.9108 28.8413C36.5079 28.8413 36.9718 29.0478 37.3024 29.4608C37.3162 29.4884 37.3323 29.4975 37.3507 29.4884C37.369 29.4792 37.3782 29.4631 37.3782 29.4402V26.7901ZM37.1164 33.3775C37.2818 33.0746 37.3644 32.657 37.3644 32.1247C37.3644 31.574 37.2726 31.1404 37.0889 30.8237C36.9006 30.5025 36.625 30.3419 36.2622 30.3419C35.8718 30.3419 35.5779 30.5025 35.3804 30.8237C35.1737 31.1495 35.0704 31.5878 35.0704 32.1385C35.0704 32.6341 35.1576 33.0471 35.3321 33.3775C35.5388 33.7354 35.8442 33.9144 36.2484 33.9144C36.6204 33.9144 36.9098 33.7354 37.1164 33.3775ZM46.0792 31.4708C46.1297 31.7828 46.1458 32.1339 46.1274 32.5239C46.1228 32.6249 46.07 32.6754 45.969 32.6754H42.1386C42.0881 32.6754 42.072 32.696 42.0904 32.7373C42.1133 32.9025 42.157 33.0677 42.2213 33.2329C42.4371 33.6918 42.8757 33.9212 43.5371 33.9212C44.0653 33.9167 44.4832 33.7033 44.7909 33.2811C44.8231 33.2306 44.8598 33.2054 44.9011 33.2054C44.9287 33.2054 44.9586 33.2214 44.9907 33.2536L45.8794 34.1346C45.9207 34.1759 45.9414 34.2126 45.9414 34.2448C45.9414 34.2631 45.9253 34.2975 45.8932 34.348C45.6222 34.683 45.2709 34.9446 44.8391 35.1327C44.412 35.3163 43.9413 35.408 43.4269 35.408C42.715 35.408 42.1133 35.2474 41.6219 34.9262C41.1305 34.605 40.7768 34.1553 40.561 33.5771C40.3865 33.1641 40.2992 32.6226 40.2992 31.9526C40.2992 31.4983 40.3612 31.0991 40.4852 30.7549C40.6781 30.1675 41.0111 29.6994 41.4841 29.3507C41.9618 29.0065 42.5267 28.8344 43.1789 28.8344C44.0056 28.8344 44.6692 29.0731 45.1698 29.5503C45.6704 30.0276 45.9735 30.6677 46.0792 31.4708ZM43.1926 30.3419C42.6691 30.3419 42.3246 30.5851 42.1593 31.0715C42.1271 31.1817 42.0996 31.3147 42.0766 31.4708C42.0766 31.5121 42.0973 31.5327 42.1386 31.5327H44.2811C44.3316 31.5327 44.3477 31.5121 44.3293 31.4708C44.288 31.2321 44.2673 31.1174 44.2673 31.1266C44.1939 30.8788 44.0653 30.6861 43.8815 30.5484C43.6932 30.4107 43.4636 30.3419 43.1926 30.3419ZM50.3849 28.8551C50.6834 28.8551 50.9177 28.9124 51.0876 29.0272C51.1565 29.0639 51.1817 29.1258 51.1634 29.213L50.9016 30.631C50.897 30.7274 50.8396 30.7549 50.7293 30.7136C50.6053 30.6723 50.4607 30.6516 50.2953 30.6516C50.231 30.6516 50.1415 30.6608 50.0267 30.6792C49.7281 30.7021 49.4755 30.81 49.2689 31.0027C49.0622 31.2 48.9588 31.4593 48.9588 31.7805V35.1602C48.9588 35.2015 48.9451 35.2383 48.9175 35.2704C48.8854 35.2979 48.8486 35.3117 48.8073 35.3117H47.3606C47.3192 35.3117 47.2825 35.2979 47.2503 35.2704C47.2228 35.2383 47.209 35.2015 47.209 35.1602V29.0891C47.209 29.0478 47.2228 29.0134 47.2503 28.9859C47.2825 28.9583 47.3192 28.9446 47.3606 28.9446H48.8073C48.8486 28.9446 48.8854 28.9583 48.9175 28.9859C48.9451 29.0134 48.9588 29.0478 48.9588 29.0891V29.5641C48.9588 29.587 48.9657 29.6031 48.9795 29.6123C48.9979 29.6214 49.0117 29.6168 49.0208 29.5985C49.3607 29.1029 49.8154 28.8551 50.3849 28.8551Z" fill="#253053"/>
<path d="M21.6709 45.912C21.6204 45.912 21.5882 45.8891 21.5744 45.8432L20.3206 41.1832L20.3137 41.1556C20.3137 41.1143 20.339 41.0937 20.3895 41.0937H21.0646C21.1152 41.0937 21.1473 41.1166 21.1611 41.1625L21.9464 44.3013C21.951 44.3151 21.9579 44.322 21.9671 44.322C21.9763 44.322 21.9832 44.3151 21.9878 44.3013L22.7387 41.1625C22.7525 41.1166 22.7823 41.0937 22.8283 41.0937H23.4896C23.5401 41.0937 23.5723 41.1166 23.5861 41.1625L24.3852 44.3082C24.3898 44.322 24.3967 44.3289 24.4059 44.3289C24.415 44.3289 24.4219 44.322 24.4265 44.3082L25.1981 41.1625C25.2119 41.1166 25.244 41.0937 25.2946 41.0937H25.9352C25.9995 41.0937 26.0248 41.1235 26.011 41.1832L24.8192 45.8432C24.8054 45.8891 24.7733 45.912 24.7228 45.912H24.0821C24.0316 45.912 23.9994 45.8891 23.9856 45.8432L23.1796 42.5598C23.175 42.5461 23.1681 42.5369 23.1589 42.5323C23.1497 42.5323 23.1429 42.5415 23.1383 42.5598L22.3667 45.8432C22.3529 45.8891 22.3231 45.912 22.2771 45.912H21.6709ZM26.7757 45.912C26.7528 45.912 26.7321 45.9029 26.7137 45.8845C26.6999 45.8707 26.6931 45.8524 26.6931 45.8294V41.1763C26.6931 41.1533 26.6999 41.135 26.7137 41.1212C26.7321 41.1029 26.7528 41.0937 26.7757 41.0937H27.4095C27.4325 41.0937 27.4509 41.1029 27.4646 41.1212C27.483 41.135 27.4922 41.1533 27.4922 41.1763V45.8294C27.4922 45.8524 27.483 45.8707 27.4646 45.8845C27.4509 45.9029 27.4325 45.912 27.4095 45.912H26.7757ZM31.3019 41.1763C31.3019 41.1533 31.3088 41.135 31.3225 41.1212C31.3409 41.1029 31.3616 41.0937 31.3846 41.0937H32.0184C32.0413 41.0937 32.0597 41.1029 32.0735 41.1212C32.0918 41.135 32.101 41.1533 32.101 41.1763V45.8294C32.101 45.8524 32.0918 45.8707 32.0735 45.8845C32.0597 45.9029 32.0413 45.912 32.0184 45.912H31.4052C31.3593 45.912 31.3271 45.8937 31.3088 45.857L29.3247 42.608C29.3155 42.5943 29.3063 42.5874 29.2971 42.5874C29.288 42.592 29.2834 42.6034 29.2834 42.6218L29.2971 45.8294C29.2971 45.8524 29.288 45.8707 29.2696 45.8845C29.2558 45.9029 29.2374 45.912 29.2145 45.912H28.5807C28.5577 45.912 28.537 45.9029 28.5187 45.8845C28.5049 45.8707 28.498 45.8524 28.498 45.8294V41.1763C28.498 41.1533 28.5049 41.135 28.5187 41.1212C28.537 41.1029 28.5577 41.0937 28.5807 41.0937H29.1938C29.2397 41.0937 29.2719 41.112 29.2903 41.1488L31.2674 44.3977C31.2766 44.4115 31.2858 44.4161 31.295 44.4115C31.3042 44.4115 31.3088 44.4023 31.3088 44.3839L31.3019 41.1763ZM36.2758 41.0937C36.2988 41.0937 36.3172 41.1029 36.3309 41.1212C36.3493 41.135 36.3585 41.1533 36.3585 41.1763V41.7063C36.3585 41.7293 36.3493 41.7476 36.3309 41.7614C36.3172 41.7797 36.2988 41.7889 36.2758 41.7889H35.0082C34.9853 41.7889 34.9738 41.8004 34.9738 41.8233V45.8294C34.9738 45.8524 34.9669 45.8707 34.9531 45.8845C34.9347 45.9029 34.9141 45.912 34.8911 45.912H34.2573C34.2344 45.912 34.216 45.9029 34.2022 45.8845C34.1838 45.8707 34.1746 45.8524 34.1746 45.8294V41.8233C34.1746 41.8004 34.1632 41.7889 34.1402 41.7889H32.9208C32.8979 41.7889 32.8772 41.7797 32.8588 41.7614C32.845 41.7476 32.8382 41.7293 32.8382 41.7063V41.1763C32.8382 41.1533 32.845 41.135 32.8588 41.1212C32.8772 41.1029 32.8979 41.0937 32.9208 41.0937H36.2758ZM40.3611 41.6994C40.3611 41.7224 40.3519 41.7407 40.3335 41.7545C40.3198 41.7728 40.3014 41.782 40.2784 41.782H37.9292C37.9063 41.782 37.8948 41.7935 37.8948 41.8164V43.1036C37.8948 43.1266 37.9063 43.138 37.9292 43.138H39.5068C39.5298 43.138 39.5505 43.1449 39.5688 43.1587C39.5826 43.1771 39.5895 43.1977 39.5895 43.2206V43.7438C39.5895 43.7667 39.5826 43.7874 39.5688 43.8057C39.5505 43.8195 39.5298 43.8264 39.5068 43.8264H37.9292C37.9063 43.8264 37.8948 43.8379 37.8948 43.8608V45.1893C37.8948 45.2122 37.9063 45.2237 37.9292 45.2237H40.2784C40.3014 45.2237 40.3198 45.2329 40.3335 45.2512C40.3519 45.265 40.3611 45.2834 40.3611 45.3063V45.8294C40.3611 45.8524 40.3519 45.8707 40.3335 45.8845C40.3198 45.9029 40.3014 45.912 40.2784 45.912H37.1783C37.1553 45.912 37.1347 45.9029 37.1163 45.8845C37.1025 45.8707 37.0956 45.8524 37.0956 45.8294V41.1763C37.0956 41.1533 37.1025 41.135 37.1163 41.1212C37.1347 41.1029 37.1553 41.0937 37.1783 41.0937H40.2784C40.3014 41.0937 40.3198 41.1029 40.3335 41.1212C40.3519 41.135 40.3611 41.1533 40.3611 41.1763V41.6994ZM43.8814 45.912C43.8355 45.912 43.8034 45.8914 43.785 45.8501L42.8756 43.8677C42.8664 43.8493 42.8527 43.8402 42.8343 43.8402H42.0076C41.9846 43.8402 41.9731 43.8516 41.9731 43.8746V45.8294C41.9731 45.8524 41.964 45.8707 41.9456 45.8845C41.9318 45.9029 41.9134 45.912 41.8905 45.912H41.2567C41.2337 45.912 41.213 45.9029 41.1947 45.8845C41.1809 45.8707 41.174 45.8524 41.174 45.8294V41.1763C41.174 41.1533 41.1809 41.135 41.1947 41.1212C41.213 41.1029 41.2337 41.0937 41.2567 41.0937H43.1512C43.4313 41.0937 43.6793 41.1511 43.8952 41.2658C44.1111 41.3851 44.2787 41.5503 44.3981 41.7614C44.5175 41.9771 44.5772 42.2226 44.5772 42.4979C44.5772 42.8145 44.4946 43.083 44.3292 43.3032C44.1685 43.5281 43.9434 43.6841 43.6541 43.7713C43.6449 43.7713 43.638 43.7759 43.6334 43.7851C43.6288 43.7943 43.6288 43.8034 43.6334 43.8126L44.6048 45.8157C44.614 45.834 44.6186 45.8478 44.6186 45.857C44.6186 45.8937 44.5933 45.912 44.5428 45.912H43.8814ZM42.0076 41.782C41.9846 41.782 41.9731 41.7935 41.9731 41.8164V43.1862C41.9731 43.2092 41.9846 43.2206 42.0076 43.2206H43.041C43.2614 43.2206 43.4405 43.1541 43.5783 43.021C43.7115 42.8925 43.7781 42.7205 43.7781 42.5048C43.7781 42.2891 43.7115 42.1147 43.5783 41.9816C43.4405 41.8486 43.2614 41.782 43.041 41.782H42.0076Z" fill="#B0B6C9"/>
<path d="M23.2487 58.3434C23.2349 58.3572 23.2304 58.3709 23.2349 58.3847C23.2441 58.3985 23.2579 58.4053 23.2763 58.4053H25.9837C26.0159 58.4053 26.0434 58.4168 26.0664 58.4398C26.0939 58.4627 26.1077 58.4902 26.1077 58.5224V59.4929C26.1077 59.525 26.0939 59.5526 26.0664 59.5755C26.0434 59.5985 26.0159 59.6099 25.9837 59.6099H21.492C21.4553 59.6099 21.4254 59.5985 21.4024 59.5755C21.3795 59.5526 21.368 59.525 21.368 59.4929V58.5705C21.368 58.5109 21.3887 58.4604 21.43 58.4191C21.7561 58.1025 22.0891 57.756 22.4289 57.3797C22.7688 57.0034 22.9823 56.7694 23.0696 56.6776C23.2533 56.4573 23.4416 56.2463 23.6345 56.0443C24.2408 55.3744 24.5439 54.8765 24.5439 54.5507C24.5439 54.3166 24.4612 54.1239 24.2959 53.9725C24.1305 53.8256 23.9147 53.7522 23.6483 53.7522C23.3819 53.7522 23.1661 53.8256 23.0007 53.9725C22.8308 54.1239 22.7458 54.3235 22.7458 54.5713V54.8191C22.7458 54.8512 22.7343 54.8788 22.7114 54.9017C22.6884 54.9246 22.6609 54.9361 22.6287 54.9361H21.4507C21.4185 54.9361 21.391 54.9246 21.368 54.9017C21.3404 54.8788 21.3267 54.8512 21.3267 54.8191V54.351C21.3496 53.9931 21.4644 53.6742 21.6711 53.3942C21.8778 53.1189 22.1511 52.9078 22.4909 52.761C22.8354 52.6141 23.2212 52.5407 23.6483 52.5407C24.1213 52.5407 24.5324 52.6302 24.8815 52.8092C25.2305 52.9835 25.4992 53.2199 25.6875 53.5181C25.8804 53.821 25.9768 54.1537 25.9768 54.5162C25.9768 54.7962 25.9056 55.083 25.7633 55.3767C25.6255 55.6703 25.4165 55.987 25.1363 56.3266C24.9297 56.5835 24.7069 56.8405 24.4681 57.0975C24.2293 57.3499 23.8733 57.7147 23.4003 58.192L23.2487 58.3434ZM29.3525 59.7201C28.6177 59.7201 28.039 59.5159 27.6164 59.1074C27.1893 58.699 26.9757 58.1415 26.9757 57.4348V54.7985C26.9757 54.1055 27.1893 53.5572 27.6164 53.1533C28.039 52.7449 28.6177 52.5407 29.3525 52.5407C30.0827 52.5407 30.6637 52.7449 31.0954 53.1533C31.5226 53.5572 31.7361 54.1055 31.7361 54.7985V57.4348C31.7361 58.1415 31.5226 58.699 31.0954 59.1074C30.6637 59.5159 30.0827 59.7201 29.3525 59.7201ZM29.3525 58.5155C29.651 58.5155 29.8876 58.4237 30.0621 58.2401C30.2412 58.0566 30.3308 57.8111 30.3308 57.5036V54.7572C30.3308 54.4543 30.2412 54.2111 30.0621 54.0275C29.8876 53.844 29.651 53.7522 29.3525 53.7522C29.0586 53.7522 28.8243 53.844 28.6498 54.0275C28.4707 54.2111 28.3811 54.4543 28.3811 54.7572V57.5036C28.3811 57.8111 28.4707 58.0566 28.6498 58.2401C28.8243 58.4237 29.0586 58.5155 29.3525 58.5155ZM34.5331 58.3434C34.5193 58.3572 34.517 58.3709 34.5262 58.3847C34.5308 58.3985 34.5446 58.4053 34.5676 58.4053H37.275C37.3071 58.4053 37.3347 58.4168 37.3577 58.4398C37.3806 58.4627 37.3921 58.4902 37.3921 58.5224V59.4929C37.3921 59.525 37.3806 59.5526 37.3577 59.5755C37.3347 59.5985 37.3071 59.6099 37.275 59.6099H32.7764C32.7442 59.6099 32.7167 59.5985 32.6937 59.5755C32.6708 59.5526 32.6593 59.525 32.6593 59.4929V58.5705C32.6593 58.5109 32.6776 58.4604 32.7144 58.4191C33.0451 58.1025 33.378 57.756 33.7133 57.3797C34.0532 57.0034 34.2667 56.7694 34.354 56.6776C34.5423 56.4573 34.7329 56.2463 34.9258 56.0443C35.532 55.3744 35.8352 54.8765 35.8352 54.5507C35.8352 54.3166 35.7525 54.1239 35.5872 53.9725C35.4172 53.8256 35.1991 53.7522 34.9327 53.7522C34.6663 53.7522 34.4504 53.8256 34.2851 53.9725C34.1198 54.1239 34.0371 54.3235 34.0371 54.5713V54.8191C34.0371 54.8512 34.0256 54.8788 34.0027 54.9017C33.9797 54.9246 33.9498 54.9361 33.9131 54.9361H32.7351C32.7029 54.9361 32.6753 54.9246 32.6524 54.9017C32.6294 54.8788 32.6179 54.8512 32.6179 54.8191V54.351C32.6363 53.9931 32.7488 53.6742 32.9555 53.3942C33.1622 53.1189 33.4377 52.9078 33.7822 52.761C34.1267 52.6141 34.5102 52.5407 34.9327 52.5407C35.4057 52.5407 35.8168 52.6302 36.1658 52.8092C36.5195 52.9835 36.7905 53.2199 36.9788 53.5181C37.1671 53.821 37.2612 54.1537 37.2612 54.5162C37.2612 54.7962 37.1923 55.083 37.0545 55.3767C36.9122 55.6703 36.7009 55.987 36.4207 56.3266C36.2141 56.5835 35.9913 56.8405 35.7525 57.0975C35.5137 57.3499 35.1577 57.7147 34.6847 58.192L34.5331 58.3434ZM43.2548 56.5675C43.2869 56.5675 43.3168 56.579 43.3443 56.6019C43.3673 56.6248 43.3788 56.6524 43.3788 56.6845V57.6964C43.3788 57.7285 43.3673 57.756 43.3443 57.779C43.3168 57.8019 43.2869 57.8134 43.2548 57.8134H42.8276C42.7955 57.8134 42.7794 57.8294 42.7794 57.8616V59.4929C42.7794 59.525 42.7679 59.5526 42.745 59.5755C42.7174 59.5985 42.6875 59.6099 42.6554 59.6099H41.4911C41.4544 59.6099 41.4245 59.5985 41.4016 59.5755C41.3786 59.5526 41.3671 59.525 41.3671 59.4929V57.8616C41.3671 57.8294 41.3511 57.8134 41.3189 57.8134H38.2532C38.2211 57.8134 38.1912 57.8019 38.1637 57.779C38.1407 57.756 38.1292 57.7285 38.1292 57.6964V56.8979C38.1292 56.8566 38.1407 56.8061 38.1637 56.7464L39.9618 52.7128C39.9893 52.6531 40.0352 52.6233 40.0995 52.6233H41.3465C41.3924 52.6233 41.4245 52.6348 41.4429 52.6577C41.4613 52.6807 41.459 52.7151 41.436 52.761L39.7689 56.5055C39.7643 56.5193 39.7643 56.5331 39.7689 56.5468C39.778 56.5606 39.7895 56.5675 39.8033 56.5675H41.3189C41.3511 56.5675 41.3671 56.5491 41.3671 56.5124V55.2803C41.3671 55.2436 41.3786 55.2138 41.4016 55.1908C41.4245 55.1679 41.4544 55.1564 41.4911 55.1564H42.6554C42.6875 55.1564 42.7174 55.1679 42.745 55.1908C42.7679 55.2138 42.7794 55.2436 42.7794 55.2803V56.5124C42.7794 56.5491 42.7955 56.5675 42.8276 56.5675H43.2548Z" fill="#253053"/>
</svg>
