<svg width="64" height="72" viewBox="0 0 64 72" fill="none" xmlns="http://www.w3.org/2000/svg">
<path d="M5.30469 56.0537L32.5167 69.9291L58.6954 56.0537V1.79483H5.30469V56.0537Z" fill="#9197A9"/>
<path d="M59.2464 2.00192L4.75342 57.0201L32.9988 71.0336L59.2464 57.5724V2.00192Z" fill="#898FA2"/>
<path d="M3.51343 19.8811V57.2272L4.47791 57.7105L31.69 71.5858L32.5167 72L33.3433 71.5858L59.5909 57.7105L60.5554 57.2272V0H3.51343V19.8811ZM5.3046 56.1918V1.79482H58.7642V56.1918L32.5167 70.0671L5.3046 56.1918Z" fill="#4D5672"/>
<path d="M32.0344 2.69223C32.31 2.69223 32.5856 2.69223 32.8611 2.76127L32.0344 4.34899C30.7944 4.27996 29.6921 5.2464 29.6233 6.48897C29.5544 7.73154 30.5188 8.83605 31.7589 8.90508H32.0344C32.5856 8.90508 33.1367 8.69799 33.5501 8.35283L34.4456 9.87152C33.7567 10.3547 32.93 10.6309 32.0344 10.6309C29.8299 10.6999 27.9699 9.04314 27.901 6.83413C27.8321 4.62512 29.4855 2.76127 31.69 2.69223H32.0344ZM34.859 6.07478L35.8924 7.80057L34.859 9.45733L33.8945 7.80057H31.8967L32.93 6.07478H34.859ZM33.2056 5.4535C33.2056 5.17737 33.2745 4.90125 33.4123 4.69415C33.5501 4.48706 33.8256 4.27996 34.0323 4.1419L34.1701 4.07287C34.4456 3.9348 34.5145 3.86577 34.5145 3.72771C34.5145 3.58965 34.3079 3.45158 34.1701 3.45158C33.8945 3.45158 33.6878 3.58965 33.5501 3.86577L33.2056 3.52061C33.2745 3.38255 33.4123 3.24449 33.5501 3.10642C33.7567 2.96836 33.9634 2.96836 34.1701 2.96836C34.3767 2.96836 34.6523 3.03739 34.7901 3.17546C34.9279 3.31352 35.0657 3.52061 35.0657 3.72771C35.0657 4.07287 34.859 4.34899 34.4456 4.48706L34.239 4.62512C34.0323 4.76318 33.8945 4.83221 33.8256 5.03931H35.0657V5.52253L33.2056 5.4535ZM32.0344 14.0825L38.5791 10.3547V0H25.4209V10.2857L32.0344 14.0825ZM61.8644 38.5197H2.20452L0 43.3519L2.20452 48.1841H61.8644L64 43.3519L61.8644 38.5197Z" fill="#4D5672"/>
<path d="M11.6426 28.158C12.0973 28.158 12.4968 28.25 12.8413 28.4341C13.1858 28.6182 13.4521 28.8828 13.6404 29.228C13.8287 29.5685 13.9229 29.9597 13.9229 30.4015C13.9229 30.8387 13.8265 31.223 13.6336 31.5544C13.4361 31.8811 13.1605 32.1365 12.8069 32.3206C12.4532 32.5047 12.0445 32.5967 11.5806 32.5967H10.1132C10.0811 32.5967 10.065 32.6151 10.065 32.652V35.289C10.065 35.3258 10.0512 35.3557 10.0237 35.3787C10.0007 35.4017 9.97084 35.4132 9.93409 35.4132H8.7285C8.69175 35.4132 8.6619 35.4017 8.63894 35.3787C8.61597 35.3557 8.60449 35.3258 8.60449 35.289V28.2823C8.60449 28.2454 8.61597 28.2155 8.63894 28.1925C8.6619 28.1695 8.69175 28.158 8.7285 28.158H11.6426ZM11.4221 31.4301C11.7436 31.4301 11.9985 31.3381 12.1868 31.154C12.3797 30.9699 12.4762 30.7306 12.4762 30.436C12.4762 30.1277 12.3797 29.8815 12.1868 29.6974C11.9985 29.5087 11.7436 29.4144 11.4221 29.4144H10.1132C10.0811 29.4144 10.065 29.4328 10.065 29.4696V31.3749C10.065 31.4117 10.0811 31.4301 10.1132 31.4301H11.4221ZM19.138 32.2033C19.1747 32.4656 19.1862 32.7578 19.1724 33.08C19.1678 33.1674 19.1242 33.2111 19.0415 33.2111H15.8519C15.8105 33.2111 15.7944 33.2272 15.8036 33.2594C15.8266 33.3975 15.8656 33.5356 15.9207 33.6736C16.0999 34.0602 16.465 34.2535 17.0161 34.2535C17.457 34.2489 17.8038 34.0694 18.0564 33.715C18.0885 33.6736 18.1207 33.6529 18.1528 33.6529C18.1712 33.6529 18.1942 33.6667 18.2217 33.6943L18.9657 34.4261C19.0025 34.4629 19.0209 34.4951 19.0209 34.5227C19.0209 34.5365 19.0071 34.5641 18.9795 34.6056C18.7499 34.8909 18.4582 35.1095 18.1046 35.2614C17.7418 35.4178 17.3468 35.4961 16.9197 35.4961C16.3318 35.4961 15.8312 35.3626 15.4178 35.0957C15.0091 34.8242 14.7151 34.4468 14.536 33.9636C14.3891 33.6184 14.3156 33.1674 14.3156 32.6105C14.3156 32.2286 14.3684 31.8926 14.474 31.6027C14.6348 31.1149 14.9126 30.726 15.3076 30.436C15.7026 30.1461 16.1711 30.0011 16.713 30.0011C17.4019 30.0011 17.9553 30.2013 18.3733 30.6017C18.7912 31.0021 19.0461 31.5359 19.138 32.2033ZM16.7268 31.2644C16.2905 31.2644 16.0034 31.4669 15.8656 31.8719C15.8381 31.9639 15.8151 32.0744 15.7967 32.2033C15.7967 32.2355 15.8151 32.2516 15.8519 32.2516H17.6361C17.6775 32.2516 17.6913 32.2355 17.6775 32.2033C17.6407 32.0054 17.6224 31.9087 17.6224 31.9133C17.5627 31.7062 17.4547 31.5451 17.2986 31.4301C17.147 31.3196 16.9564 31.2644 16.7268 31.2644ZM22.7203 30.0219C22.9683 30.0219 23.1658 30.0702 23.3128 30.1668C23.3633 30.1944 23.3817 30.2451 23.3679 30.3187L23.1543 31.4991C23.1497 31.582 23.1015 31.6073 23.0097 31.5751C22.904 31.5382 22.7846 31.5198 22.6514 31.5198C22.5963 31.5198 22.5182 31.5267 22.4172 31.5405C22.1738 31.5636 21.9648 31.6556 21.7903 31.8167C21.6204 31.9777 21.5354 32.194 21.5354 32.4656V35.289C21.5354 35.3258 21.5216 35.3557 21.4941 35.3787C21.4711 35.4017 21.4435 35.4132 21.4114 35.4132H20.1989C20.1667 35.4132 20.1369 35.4017 20.1093 35.3787C20.0864 35.3557 20.0749 35.3258 20.0749 35.289V30.2151C20.0749 30.1829 20.0864 30.153 20.1093 30.1254C20.1369 30.1024 20.1667 30.0909 20.1989 30.0909H21.4114C21.4435 30.0909 21.4711 30.1024 21.4941 30.1254C21.5216 30.153 21.5354 30.1829 21.5354 30.2151V30.6086C21.5354 30.627 21.5423 30.6408 21.5561 30.65C21.5652 30.6592 21.5744 30.6546 21.5836 30.6362C21.8684 30.2266 22.2473 30.0219 22.7203 30.0219ZM27.1225 30.084C27.1592 30.084 27.1891 30.0955 27.212 30.1185C27.235 30.1415 27.2465 30.1714 27.2465 30.2082V31.1885C27.2465 31.2253 27.235 31.2552 27.212 31.2782C27.1891 31.3012 27.1592 31.3127 27.1225 31.3127H26.1235C26.0868 31.3127 26.0684 31.3289 26.0684 31.3611V35.289C26.0684 35.3258 26.0569 35.3557 26.034 35.3787C26.011 35.4017 25.9812 35.4132 25.9444 35.4132H24.7388C24.7021 35.4132 24.6722 35.4017 24.6493 35.3787C24.6263 35.3557 24.6148 35.3258 24.6148 35.289V31.3611C24.6148 31.3289 24.5965 31.3127 24.5597 31.3127H23.9535C23.9167 31.3127 23.8869 31.3012 23.8639 31.2782C23.8409 31.2552 23.8295 31.2253 23.8295 31.1885V30.2082C23.8295 30.1714 23.8409 30.1415 23.8639 30.1185C23.8869 30.0955 23.9167 30.084 23.9535 30.084H24.5597C24.5965 30.084 24.6148 30.0656 24.6148 30.0288V29.8009C24.6148 29.373 24.6791 29.0393 24.8077 28.8C24.9409 28.5653 25.1522 28.3973 25.4415 28.2961C25.7355 28.1948 26.1419 28.1511 26.6609 28.1649H27.0536C27.0857 28.1649 27.1133 28.1764 27.1362 28.1994C27.1638 28.227 27.1776 28.2569 27.1776 28.2892V29.1244C27.1776 29.1613 27.1638 29.1912 27.1362 29.2142C27.1133 29.2418 27.0857 29.2556 27.0536 29.2556H26.7091C26.4703 29.2602 26.3027 29.3085 26.2062 29.4006C26.1144 29.4972 26.0684 29.6698 26.0684 29.9183V30.0288C26.0684 30.0656 26.0868 30.084 26.1235 30.084H27.1225ZM30.1192 35.4961C29.5406 35.4961 29.0445 35.3442 28.6312 35.0405C28.2178 34.7367 27.9354 34.3225 27.7838 33.7979C27.6874 33.4757 27.6392 33.1237 27.6392 32.7417C27.6392 32.3367 27.6874 31.9708 27.7838 31.6441C27.9446 31.1333 28.2316 30.7329 28.645 30.4429C29.0583 30.153 29.5543 30.008 30.133 30.008C30.6933 30.008 31.1756 30.1507 31.5797 30.436C31.9747 30.726 32.2549 31.1264 32.4202 31.6372C32.535 31.9823 32.5924 32.3436 32.5924 32.721C32.5924 33.0938 32.5442 33.4435 32.4478 33.7703C32.2962 34.3087 32.0138 34.7298 31.6004 35.0335C31.1916 35.3419 30.6979 35.4961 30.1192 35.4961ZM30.1192 34.2466C30.3443 34.2466 30.5372 34.1776 30.6979 34.0395C30.8587 33.9014 30.9735 33.7104 31.0424 33.4665C31.0929 33.2456 31.1182 33.004 31.1182 32.7417C31.1182 32.4518 31.0929 32.2079 31.0424 32.01C30.9643 31.7753 30.8472 31.5912 30.691 31.4577C30.5303 31.3289 30.3351 31.2644 30.1055 31.2644C29.8758 31.2644 29.6829 31.3289 29.5268 31.4577C29.3706 31.5912 29.2581 31.7753 29.1892 32.01C29.1341 32.171 29.1065 32.4149 29.1065 32.7417C29.1065 33.0546 29.1318 33.2963 29.1823 33.4665C29.2512 33.7104 29.366 33.9014 29.5268 34.0395C29.6875 34.1776 29.885 34.2466 30.1192 34.2466ZM36.1748 30.0219C36.4228 30.0219 36.6203 30.0702 36.7672 30.1668C36.8224 30.1944 36.8407 30.2451 36.8224 30.3187L36.6088 31.4991C36.6042 31.582 36.556 31.6073 36.4641 31.5751C36.3585 31.5382 36.2391 31.5198 36.1059 31.5198C36.0508 31.5198 35.975 31.5267 35.8786 31.5405C35.6305 31.5636 35.4193 31.6556 35.2448 31.8167C35.0748 31.9777 34.9899 32.194 34.9899 32.4656V35.289C34.9899 35.3258 34.9761 35.3557 34.9485 35.3787C34.9256 35.4017 34.8957 35.4132 34.859 35.4132H33.6534C33.6212 35.4132 33.5914 35.4017 33.5638 35.3787C33.5408 35.3557 33.5294 35.3258 33.5294 35.289V30.2151C33.5294 30.1829 33.5408 30.153 33.5638 30.1254C33.5914 30.1024 33.6212 30.0909 33.6534 30.0909H34.859C34.8957 30.0909 34.9256 30.1024 34.9485 30.1254C34.9761 30.153 34.9899 30.1829 34.9899 30.2151V30.6086C34.9899 30.627 34.9944 30.6408 35.0036 30.65C35.022 30.6592 35.0335 30.6546 35.0381 30.6362C35.3228 30.2266 35.7017 30.0219 36.1748 30.0219ZM43.3739 30.008C43.9113 30.008 44.3315 30.1691 44.6346 30.4913C44.9378 30.818 45.0893 31.2759 45.0893 31.865V35.289C45.0893 35.3258 45.0778 35.3557 45.0549 35.3787C45.0319 35.4017 45.0043 35.4132 44.9722 35.4132H43.7597C43.7276 35.4132 43.6977 35.4017 43.6702 35.3787C43.6472 35.3557 43.6357 35.3258 43.6357 35.289V32.1825C43.6357 31.9018 43.5645 31.6786 43.4221 31.5129C43.2752 31.3473 43.08 31.2644 42.8366 31.2644C42.5977 31.2644 42.4026 31.3473 42.251 31.5129C42.0994 31.6786 42.0237 31.8995 42.0237 32.1756V35.289C42.0237 35.3258 42.0122 35.3557 41.9892 35.3787C41.9616 35.4017 41.9318 35.4132 41.8996 35.4132H40.7009C40.6642 35.4132 40.6343 35.4017 40.6114 35.3787C40.5884 35.3557 40.5769 35.3258 40.5769 35.289V32.1825C40.5769 31.9064 40.5012 31.6832 40.3496 31.5129C40.198 31.3473 40.0005 31.2644 39.7571 31.2644C39.5413 31.2644 39.3576 31.3289 39.206 31.4577C39.059 31.5912 38.9718 31.7753 38.9442 32.01V35.289C38.9442 35.3258 38.9327 35.3557 38.9098 35.3787C38.8822 35.4017 38.8524 35.4132 38.8202 35.4132H37.6146C37.5779 35.4132 37.548 35.4017 37.5251 35.3787C37.5021 35.3557 37.4906 35.3258 37.4906 35.289V30.2151C37.4906 30.1829 37.5021 30.153 37.5251 30.1254C37.548 30.1024 37.5779 30.0909 37.6146 30.0909H38.8202C38.8524 30.0909 38.8822 30.1024 38.9098 30.1254C38.9327 30.153 38.9442 30.1829 38.9442 30.2151V30.6224C38.9442 30.6408 38.9511 30.6546 38.9649 30.6638C38.9787 30.6684 38.9924 30.6592 39.0062 30.6362C39.291 30.2174 39.7296 30.008 40.322 30.008C40.6665 30.008 40.9673 30.0817 41.2245 30.2289C41.4817 30.3716 41.6792 30.5787 41.817 30.8502C41.8353 30.8916 41.8606 30.8916 41.8928 30.8502C42.0397 30.5649 42.2441 30.3532 42.5059 30.2151C42.7631 30.0771 43.0524 30.008 43.3739 30.008ZM50.7866 32.2033C50.828 32.4656 50.8417 32.7578 50.828 33.08C50.8188 33.1674 50.7728 33.2111 50.6902 33.2111H47.5005C47.4592 33.2111 47.4454 33.2272 47.4592 33.2594C47.4775 33.3975 47.5143 33.5356 47.5694 33.6736C47.7485 34.0602 48.1136 34.2535 48.6648 34.2535C49.1057 34.2489 49.4547 34.0694 49.7119 33.715C49.7395 33.6736 49.7693 33.6529 49.8015 33.6529C49.8244 33.6529 49.8497 33.6667 49.8773 33.6943L50.6213 34.4261C50.6534 34.4629 50.6695 34.4951 50.6695 34.5227C50.6695 34.5365 50.6557 34.5641 50.6282 34.6056C50.4031 34.8909 50.1115 35.1095 49.7533 35.2614C49.395 35.4178 49.0023 35.4961 48.5752 35.4961C47.9828 35.4961 47.4821 35.3626 47.0734 35.0957C46.66 34.8242 46.3638 34.4468 46.1847 33.9636C46.0423 33.6184 45.9711 33.1674 45.9711 32.6105C45.9711 32.2286 46.0216 31.8926 46.1227 31.6027C46.2834 31.1149 46.5613 30.726 46.9563 30.436C47.3512 30.1461 47.822 30.0011 48.3685 30.0011C49.0575 30.0011 49.6109 30.2013 50.0288 30.6017C50.4468 31.0021 50.6994 31.5359 50.7866 32.2033ZM48.3754 31.2644C47.9437 31.2644 47.659 31.4669 47.5212 31.8719C47.4936 31.9639 47.4684 32.0744 47.4454 32.2033C47.4454 32.2355 47.4638 32.2516 47.5005 32.2516H49.2848C49.3261 32.2516 49.3399 32.2355 49.3261 32.2033C49.294 32.0054 49.2779 31.9087 49.2779 31.9133C49.2136 31.7062 49.1057 31.5451 48.9541 31.4301C48.798 31.3196 48.6051 31.2644 48.3754 31.2644ZM54.369 30.0219C54.617 30.0219 54.8145 30.0702 54.9614 30.1668C55.0165 30.1944 55.0372 30.2451 55.0234 30.3187L54.8099 31.4991C54.8007 31.582 54.7502 31.6073 54.6583 31.5751C54.5573 31.5382 54.4379 31.5198 54.3001 31.5198C54.245 31.5198 54.1692 31.5267 54.0727 31.5405C53.8247 31.5636 53.6135 31.6556 53.4389 31.8167C53.269 31.9777 53.184 32.194 53.184 32.4656V35.289C53.184 35.3258 53.1726 35.3557 53.1496 35.3787C53.122 35.4017 53.0922 35.4132 53.06 35.4132H51.8476C51.8154 35.4132 51.7878 35.4017 51.7649 35.3787C51.7373 35.3557 51.7235 35.3258 51.7235 35.289V30.2151C51.7235 30.1829 51.7373 30.153 51.7649 30.1254C51.7878 30.1024 51.8154 30.0909 51.8476 30.0909H53.06C53.0922 30.0909 53.122 30.1024 53.1496 30.1254C53.1726 30.153 53.184 30.1829 53.184 30.2151V30.6086C53.184 30.627 53.1909 30.6408 53.2047 30.65C53.2185 30.6592 53.23 30.6546 53.2392 30.6362C53.5193 30.2266 53.8959 30.0219 54.369 30.0219ZM25.9444 17.9344C25.9444 17.9022 25.9559 17.8723 25.9789 17.8447C26.0018 17.8217 26.0294 17.8102 26.0615 17.8102H27.274C27.3062 17.8102 27.336 17.8217 27.3636 17.8447C27.3866 17.8723 27.398 17.9022 27.398 17.9344V24.9342C27.398 24.971 27.3866 25.001 27.3636 25.024C27.336 25.047 27.3062 25.0585 27.274 25.0585H26.0615C26.0294 25.0585 26.0018 25.047 25.9789 25.024C25.9559 25.001 25.9444 24.971 25.9444 24.9342V22.0763C25.9444 22.0441 25.9261 22.028 25.8893 22.028H23.6021C23.57 22.028 23.5539 22.0441 23.5539 22.0763V24.9342C23.5539 24.971 23.5424 25.001 23.5195 25.024C23.4919 25.047 23.462 25.0585 23.4299 25.0585H22.2174C22.1853 25.0585 22.1577 25.047 22.1347 25.024C22.1072 25.001 22.0934 24.971 22.0934 24.9342V17.9344C22.0934 17.9022 22.1072 17.8723 22.1347 17.8447C22.1577 17.8217 22.1853 17.8102 22.2174 17.8102H23.4299C23.462 17.8102 23.4919 17.8217 23.5195 17.8447C23.5424 17.8723 23.5539 17.9022 23.5539 17.9344V20.7164C23.5539 20.7532 23.57 20.7716 23.6021 20.7716H25.8893C25.9261 20.7716 25.9444 20.7532 25.9444 20.7164V17.9344ZM29.2788 19.1356C29.0445 19.1356 28.8493 19.0573 28.6932 18.9009C28.537 18.749 28.459 18.5557 28.459 18.321C28.459 18.0771 28.5347 17.8792 28.6863 17.7273C28.8379 17.5754 29.0354 17.4995 29.2788 17.4995C29.5222 17.4995 29.7197 17.5754 29.8712 17.7273C30.0228 17.8792 30.0986 18.0771 30.0986 18.321C30.0986 18.5557 30.0205 18.749 29.8643 18.9009C29.7082 19.0573 29.513 19.1356 29.2788 19.1356ZM28.6587 25.0585C28.6266 25.0585 28.5967 25.047 28.5692 25.024C28.5462 25.001 28.5347 24.971 28.5347 24.9342V19.8535C28.5347 19.8167 28.5462 19.7868 28.5692 19.7638C28.5967 19.7407 28.6266 19.7292 28.6587 19.7292H29.8712C29.9034 19.7292 29.9309 19.7407 29.9539 19.7638C29.9815 19.7868 29.9952 19.8167 29.9952 19.8535V24.9342C29.9952 24.971 29.9815 25.001 29.9539 25.024C29.9309 25.047 29.9034 25.0585 29.8712 25.0585H28.6587ZM34.3698 19.8604C34.3698 19.8282 34.3836 19.7983 34.4112 19.7707C34.4341 19.7476 34.4617 19.7361 34.4938 19.7361H35.7063C35.7385 19.7361 35.7683 19.7476 35.7959 19.7707C35.8188 19.7983 35.8303 19.8282 35.8303 19.8604V24.5822C35.8303 25.4842 35.5708 26.1285 35.0519 26.515C34.5329 26.9062 33.8623 27.1018 33.0402 27.1018C32.7968 27.1018 32.5281 27.0834 32.2342 27.0466C32.1653 27.0374 32.1309 26.9937 32.1309 26.9154L32.1722 25.8454C32.1722 25.7534 32.2204 25.7143 32.3169 25.7281C32.5649 25.7695 32.7922 25.7902 32.9989 25.7902C33.4398 25.7902 33.7797 25.6959 34.0185 25.5072C34.2527 25.3093 34.3698 24.9986 34.3698 24.5753C34.3698 24.5522 34.3629 24.5384 34.3492 24.5338C34.3354 24.5292 34.3216 24.5361 34.3078 24.5545C34.046 24.8353 33.6648 24.9756 33.1642 24.9756C32.7141 24.9756 32.3031 24.8675 31.9311 24.6512C31.5545 24.4349 31.2858 24.0851 31.1251 23.6019C31.024 23.2844 30.9735 22.8725 30.9735 22.3662C30.9735 21.8278 31.0355 21.3906 31.1595 21.0546C31.3019 20.6312 31.5453 20.293 31.8897 20.0399C32.2342 19.7822 32.6361 19.6533 33.0953 19.6533C33.6235 19.6533 34.0277 19.8121 34.3078 20.1296C34.3216 20.1434 34.3354 20.148 34.3492 20.1434C34.3629 20.1388 34.3698 20.1273 34.3698 20.1089V19.8604ZM34.2872 23.2015C34.3423 22.999 34.3698 22.716 34.3698 22.3524C34.3698 22.1407 34.3629 21.9774 34.3492 21.8623C34.3354 21.7427 34.3124 21.6299 34.2803 21.5241C34.216 21.34 34.1126 21.1904 33.9703 21.0754C33.8279 20.9649 33.6488 20.9097 33.4329 20.9097C33.2262 20.9097 33.0517 20.9649 32.9093 21.0754C32.7624 21.1904 32.6544 21.34 32.5855 21.5241C32.4891 21.7312 32.4409 22.0119 32.4409 22.3662C32.4409 22.7528 32.4822 23.0289 32.5649 23.1946C32.6246 23.3833 32.7325 23.5329 32.8887 23.6433C33.0448 23.7584 33.2285 23.8159 33.4398 23.8159C33.6603 23.8159 33.844 23.7584 33.9909 23.6433C34.1333 23.5329 34.232 23.3856 34.2872 23.2015ZM39.6469 19.6533C40.198 19.6533 40.6412 19.8236 40.9765 20.1641C41.3118 20.5001 41.4794 20.958 41.4794 21.5379V24.9342C41.4794 24.971 41.4679 25.001 41.445 25.024C41.422 25.047 41.3944 25.0585 41.3623 25.0585H40.1498C40.1177 25.0585 40.0878 25.047 40.0603 25.024C40.0373 25.001 40.0258 24.971 40.0258 24.9342V21.8347C40.0258 21.5632 39.9477 21.34 39.7916 21.1651C39.64 20.9948 39.4356 20.9097 39.1784 20.9097C38.9258 20.9097 38.7215 20.9948 38.5653 21.1651C38.4092 21.34 38.3311 21.5632 38.3311 21.8347V24.9342C38.3311 24.971 38.3196 25.001 38.2966 25.024C38.2737 25.047 38.2438 25.0585 38.2071 25.0585H37.0015C36.9647 25.0585 36.9349 25.047 36.9119 25.024C36.889 25.001 36.8775 24.971 36.8775 24.9342V17.9344C36.8775 17.9022 36.889 17.8723 36.9119 17.8447C36.9349 17.8217 36.9647 17.8102 37.0015 17.8102H38.2071C38.2438 17.8102 38.2737 17.8217 38.2966 17.8447C38.3196 17.8723 38.3311 17.9022 38.3311 17.9344V20.2263C38.3311 20.2447 38.338 20.2585 38.3517 20.2677C38.3655 20.2723 38.3747 20.2677 38.3793 20.2539C38.6641 19.8535 39.0866 19.6533 39.6469 19.6533Z" fill="#253053"/>
<path d="M18.3458 41.2671C18.3687 41.2303 18.4009 41.2119 18.4422 41.2119H19.076C19.099 41.2119 19.1173 41.2211 19.1311 41.2395C19.1495 41.2533 19.1587 41.2717 19.1587 41.2947V45.9613C19.1587 45.9843 19.1495 46.0027 19.1311 46.0165C19.1173 46.0349 19.099 46.0441 19.076 46.0441H18.4422C18.4192 46.0441 18.3986 46.0349 18.3802 46.0165C18.3664 46.0027 18.3595 45.9843 18.3595 45.9613V42.6684C18.3595 42.6546 18.355 42.6454 18.3458 42.6408C18.332 42.6362 18.3228 42.6408 18.3182 42.6546L17.4571 43.98C17.4341 44.0169 17.402 44.0353 17.3606 44.0353H17.0437C17.0024 44.0353 16.9702 44.0169 16.9473 43.98L16.0792 42.6615C16.0746 42.6477 16.0678 42.6431 16.0586 42.6477C16.0448 42.6523 16.0379 42.6615 16.0379 42.6753V45.9613C16.0379 45.9843 16.0287 46.0027 16.0104 46.0165C15.9966 46.0349 15.9782 46.0441 15.9552 46.0441H15.3214C15.2985 46.0441 15.2801 46.0349 15.2663 46.0165C15.248 46.0027 15.2388 45.9843 15.2388 45.9613V41.2947C15.2388 41.2717 15.248 41.2533 15.2663 41.2395C15.2801 41.2211 15.2985 41.2119 15.3214 41.2119H15.9552C15.9966 41.2119 16.0287 41.2303 16.0517 41.2671L17.1746 42.9722C17.1838 42.9814 17.193 42.986 17.2022 42.986C17.2114 42.986 17.2182 42.9814 17.2228 42.9722L18.3458 41.2671ZM20.5434 42.0333C20.401 42.0333 20.2839 41.9873 20.1921 41.8953C20.1002 41.8032 20.0543 41.6859 20.0543 41.5432C20.0543 41.4006 20.1002 41.2832 20.1921 41.1912C20.2839 41.0991 20.401 41.0531 20.5434 41.0531C20.6858 41.0531 20.8029 41.0991 20.8947 41.1912C20.9866 41.2832 21.0325 41.4006 21.0325 41.5432C21.0325 41.6859 20.9866 41.8032 20.8947 41.8953C20.8029 41.9873 20.6858 42.0333 20.5434 42.0333ZM20.2127 46.0441C20.1898 46.0441 20.1714 46.0349 20.1576 46.0165C20.1392 46.0027 20.1301 45.9843 20.1301 45.9613V42.5925C20.1301 42.5695 20.1392 42.5511 20.1576 42.5373C20.1714 42.5189 20.1898 42.5097 20.2127 42.5097H20.8465C20.8695 42.5097 20.8902 42.5189 20.9085 42.5373C20.9223 42.5511 20.9292 42.5695 20.9292 42.5925V45.9613C20.9292 45.9843 20.9223 46.0027 20.9085 46.0165C20.8902 46.0349 20.8695 46.0441 20.8465 46.0441H20.2127ZM24.0293 41.2947C24.0293 41.2717 24.0385 41.2533 24.0569 41.2395C24.0706 41.2211 24.089 41.2119 24.112 41.2119H24.7458C24.7687 41.2119 24.7894 41.2211 24.8078 41.2395C24.8215 41.2533 24.8284 41.2717 24.8284 41.2947V45.9613C24.8284 45.9843 24.8215 46.0027 24.8078 46.0165C24.7894 46.0349 24.7687 46.0441 24.7458 46.0441H24.112C24.089 46.0441 24.0706 46.0349 24.0569 46.0165C24.0385 46.0027 24.0293 45.9843 24.0293 45.9613V45.7542C24.0293 45.7404 24.0247 45.7311 24.0155 45.7265C24.0063 45.7219 23.9971 45.7265 23.988 45.7403C23.7859 45.9797 23.5218 46.0993 23.1957 46.0993C22.8696 46.0993 22.5941 46.0142 22.369 45.8439C22.144 45.6736 21.9809 45.4366 21.8799 45.1329C21.7972 44.8752 21.7559 44.5875 21.7559 44.27C21.7559 43.9432 21.7949 43.6625 21.873 43.4278C21.974 43.1241 22.1371 42.887 22.3621 42.7168C22.5872 42.5465 22.8696 42.4613 23.2095 42.4613C23.5264 42.4613 23.7859 42.5764 23.988 42.8065C23.9971 42.8157 24.0063 42.8203 24.0155 42.8203C24.0247 42.8157 24.0293 42.8065 24.0293 42.7927V41.2947ZM23.864 45.0776C23.9696 44.889 24.0224 44.622 24.0224 44.2769C24.0224 43.9179 23.965 43.6441 23.8502 43.4554C23.7262 43.2529 23.5516 43.1517 23.3266 43.1517C23.0924 43.1517 22.9087 43.2483 22.7755 43.4416C22.6377 43.6441 22.5688 43.9248 22.5688 44.2838C22.5688 44.6059 22.6239 44.8706 22.7341 45.0776C22.8627 45.2985 23.0579 45.409 23.3197 45.409C23.5539 45.409 23.7354 45.2985 23.864 45.0776ZM25.5725 44.3114C25.5495 44.3114 25.5311 44.3045 25.5173 44.2907C25.499 44.2723 25.4898 44.2516 25.4898 44.2286V43.7039C25.4898 43.6809 25.499 43.6602 25.5173 43.6418C25.5311 43.628 25.5495 43.6211 25.5725 43.6211H27.7425C27.7655 43.6211 27.7839 43.628 27.7976 43.6418C27.816 43.6602 27.8252 43.6809 27.8252 43.7039V44.2286C27.8252 44.2516 27.816 44.2723 27.7976 44.2907C27.7839 44.3045 27.7655 44.3114 27.7425 44.3114H25.5725ZM31.6624 41.2671C31.6854 41.2303 31.7176 41.2119 31.7589 41.2119H32.3927C32.4157 41.2119 32.4363 41.2211 32.4547 41.2395C32.4685 41.2533 32.4754 41.2717 32.4754 41.2947V45.9613C32.4754 45.9843 32.4685 46.0027 32.4547 46.0165C32.4363 46.0349 32.4157 46.0441 32.3927 46.0441H31.7589C31.7359 46.0441 31.7176 46.0349 31.7038 46.0165C31.6854 46.0027 31.6762 45.9843 31.6762 45.9613V42.6684C31.6762 42.6546 31.6716 42.6454 31.6624 42.6408C31.6487 42.6362 31.6395 42.6408 31.6349 42.6546L30.7738 43.98C30.7508 44.0169 30.7186 44.0353 30.6773 44.0353H30.3604C30.3191 44.0353 30.2869 44.0169 30.264 43.98L29.3959 42.6615C29.3913 42.6477 29.3844 42.6431 29.3753 42.6477C29.3615 42.6523 29.3546 42.6615 29.3546 42.6753V45.9613C29.3546 45.9843 29.3477 46.0027 29.3339 46.0165C29.3156 46.0349 29.2949 46.0441 29.2719 46.0441H28.6381C28.6152 46.0441 28.5968 46.0349 28.583 46.0165C28.5646 46.0027 28.5555 45.9843 28.5555 45.9613V41.2947C28.5555 41.2717 28.5646 41.2533 28.583 41.2395C28.5968 41.2211 28.6152 41.2119 28.6381 41.2119H29.2719C29.3133 41.2119 29.3454 41.2303 29.3684 41.2671L30.4913 42.9722C30.5005 42.9814 30.5097 42.986 30.5189 42.986C30.528 42.986 30.5349 42.9814 30.5395 42.9722L31.6624 41.2671ZM34.7488 42.4613C35.0381 42.4613 35.293 42.512 35.5135 42.6132C35.7339 42.7145 35.9039 42.8525 36.0233 43.0274C36.1427 43.2069 36.2024 43.4094 36.2024 43.6349V45.9613C36.2024 45.9843 36.1955 46.0027 36.1817 46.0165C36.1633 46.0349 36.1427 46.0441 36.1197 46.0441H35.4859C35.463 46.0441 35.4446 46.0349 35.4308 46.0165C35.4124 46.0027 35.4032 45.9843 35.4032 45.9613V45.7403C35.4032 45.7265 35.3987 45.7173 35.3895 45.7127C35.3803 45.7127 35.3711 45.7173 35.3619 45.7265C35.1369 45.9751 34.8108 46.0993 34.3837 46.0993C34.0392 46.0993 33.7567 46.0119 33.5363 45.837C33.3112 45.6621 33.1987 45.4021 33.1987 45.0569C33.1987 44.698 33.325 44.4172 33.5776 44.2148C33.8256 44.0169 34.177 43.9179 34.6317 43.9179H35.3688C35.3918 43.9179 35.4032 43.9064 35.4032 43.8834V43.7177C35.4032 43.5382 35.3504 43.3979 35.2448 43.2966C35.1392 43.2 34.9807 43.1517 34.7694 43.1517C34.5949 43.1517 34.4548 43.1839 34.3492 43.2483C34.239 43.3081 34.1701 43.3933 34.1425 43.5037C34.1288 43.559 34.0966 43.582 34.0461 43.5728L33.3778 43.4899C33.3549 43.4853 33.3365 43.4784 33.3227 43.4692C33.3044 43.4554 33.2975 43.4393 33.3021 43.4209C33.3388 43.1402 33.4904 42.9101 33.7567 42.7306C34.0185 42.5511 34.3492 42.4613 34.7488 42.4613ZM34.5834 45.4642C34.8085 45.4642 35.0014 45.4044 35.1621 45.2847C35.3229 45.1651 35.4032 45.0132 35.4032 44.8291V44.5047C35.4032 44.4817 35.3918 44.4702 35.3688 44.4702H34.7901C34.5467 44.4702 34.3561 44.5162 34.2183 44.6082C34.0759 44.7003 34.0048 44.8314 34.0048 45.0017C34.0048 45.149 34.0599 45.2617 34.1701 45.34C34.2757 45.4228 34.4135 45.4642 34.5834 45.4642ZM38.6411 42.4752C38.7881 42.4752 38.9167 42.5051 39.0269 42.5649C39.0637 42.5833 39.0774 42.6178 39.0683 42.6684L38.9511 43.2897C38.9466 43.345 38.9144 43.3611 38.8547 43.3381C38.7858 43.315 38.7054 43.3035 38.6136 43.3035C38.5539 43.3035 38.5079 43.3058 38.4758 43.3104C38.2829 43.3196 38.1222 43.3864 37.9936 43.5106C37.865 43.6395 37.8007 43.8052 37.8007 44.0077V45.9613C37.8007 45.9843 37.7938 46.0027 37.78 46.0165C37.7616 46.0349 37.741 46.0441 37.718 46.0441H37.0842C37.0612 46.0441 37.0429 46.0349 37.0291 46.0165C37.0107 46.0027 37.0015 45.9843 37.0015 45.9613V42.5994C37.0015 42.5764 37.0107 42.5557 37.0291 42.5373C37.0429 42.5235 37.0612 42.5166 37.0842 42.5166H37.718C37.741 42.5166 37.7616 42.5235 37.78 42.5373C37.7938 42.5557 37.8007 42.5764 37.8007 42.5994V42.9101C37.8007 42.9285 37.8053 42.9377 37.8144 42.9377C37.819 42.9423 37.8259 42.9377 37.8351 42.9239C38.028 42.6247 38.2967 42.4752 38.6411 42.4752ZM39.6745 46.0441C39.6515 46.0441 39.6332 46.0349 39.6194 46.0165C39.601 46.0027 39.5918 45.9843 39.5918 45.9613V41.2947C39.5918 41.2717 39.601 41.2533 39.6194 41.2395C39.6332 41.2211 39.6515 41.2119 39.6745 41.2119H40.3083C40.3313 41.2119 40.3496 41.2211 40.3634 41.2395C40.3818 41.2533 40.391 41.2717 40.391 41.2947V43.7868C40.391 43.8006 40.3956 43.8098 40.4048 43.8144C40.4139 43.819 40.4231 43.8144 40.4323 43.8006L41.5483 42.5649C41.5805 42.5327 41.6149 42.5166 41.6517 42.5166H42.3819C42.4279 42.5166 42.4508 42.5327 42.4508 42.5649C42.4508 42.5787 42.4439 42.5971 42.4302 42.6201L41.5552 43.6694C41.5415 43.6832 41.5392 43.6993 41.5483 43.7177L42.5817 45.9474C42.5909 45.9659 42.5955 45.9797 42.5955 45.9889C42.5955 46.0257 42.5702 46.0441 42.5197 46.0441H41.8515C41.8055 46.0441 41.7734 46.0234 41.755 45.982L41.0041 44.2286C40.9995 44.2194 40.9903 44.2124 40.9766 44.2078C40.9674 44.2078 40.9605 44.2125 40.9559 44.2217L40.4048 44.8567C40.3956 44.8752 40.391 44.8913 40.391 44.9051V45.9613C40.391 45.9843 40.3818 46.0027 40.3634 46.0165C40.3496 46.0349 40.3313 46.0441 40.3083 46.0441H39.6745ZM45.9092 43.8834C45.9275 43.9984 45.9367 44.1273 45.9367 44.27L45.9298 44.484C45.9298 44.5392 45.9023 44.5668 45.8472 44.5668H43.6909C43.6679 44.5668 43.6564 44.5783 43.6564 44.6013C43.6702 44.7532 43.6909 44.8567 43.7184 44.912C43.8286 45.2433 44.0973 45.4113 44.5244 45.4159C44.8368 45.4159 45.0848 45.287 45.2685 45.0293C45.2868 45.0017 45.3098 44.9879 45.3374 44.9879C45.3557 44.9879 45.3718 44.9948 45.3856 45.0086L45.8127 45.3607C45.8541 45.3929 45.8609 45.4297 45.8334 45.4711C45.691 45.6736 45.5004 45.8301 45.2616 45.9405C45.0274 46.051 44.7656 46.1062 44.4762 46.1062C44.118 46.1062 43.8126 46.0257 43.56 45.8646C43.312 45.7035 43.1306 45.478 43.0157 45.1881C42.9101 44.9396 42.8573 44.5944 42.8573 44.1526C42.8573 43.8857 42.8848 43.6694 42.94 43.5037C43.0318 43.1816 43.2063 42.9262 43.4635 42.7375C43.7161 42.5534 44.0215 42.4613 44.3798 42.4613C45.2846 42.4613 45.7943 42.9354 45.9092 43.8834ZM44.3798 43.1517C44.2098 43.1517 44.0675 43.1954 43.9527 43.2828C43.8424 43.3657 43.7644 43.483 43.7184 43.6349C43.6909 43.7131 43.6725 43.8144 43.6633 43.9386C43.6541 43.9616 43.6633 43.9731 43.6909 43.9731H45.0894C45.1123 43.9731 45.1238 43.9616 45.1238 43.9386C45.1146 43.8236 45.1008 43.7361 45.0825 43.6763C45.0411 43.5106 44.9608 43.3818 44.8413 43.2897C44.7173 43.1977 44.5635 43.1517 44.3798 43.1517ZM48.465 43.0826C48.465 43.1056 48.4581 43.1241 48.4444 43.1379C48.426 43.1563 48.4053 43.1655 48.3824 43.1655H47.6797C47.6567 43.1655 47.6452 43.177 47.6452 43.2V44.8636C47.6452 45.0385 47.6843 45.1651 47.7623 45.2433C47.8358 45.3216 47.9552 45.3607 48.1206 45.3607H48.3273C48.3502 45.3607 48.3686 45.3676 48.3824 45.3814C48.4007 45.3998 48.4099 45.4205 48.4099 45.4435V45.9613C48.4099 46.0119 48.3824 46.0418 48.3273 46.051L47.969 46.0579C47.6062 46.0579 47.3352 45.9958 47.1561 45.8715C46.977 45.7473 46.8851 45.5125 46.8805 45.1674V43.2C46.8805 43.177 46.8691 43.1655 46.8461 43.1655H46.4534C46.4304 43.1655 46.4121 43.1563 46.3983 43.1379C46.3799 43.1241 46.3707 43.1056 46.3707 43.0826V42.5994C46.3707 42.5764 46.3799 42.5557 46.3983 42.5373C46.4121 42.5235 46.4304 42.5166 46.4534 42.5166H46.8461C46.8691 42.5166 46.8805 42.5051 46.8805 42.4821V41.6744C46.8805 41.6514 46.8897 41.6307 46.9081 41.6123C46.9219 41.5985 46.9402 41.5915 46.9632 41.5915H47.5626C47.5855 41.5915 47.6039 41.5985 47.6177 41.6123C47.636 41.6307 47.6452 41.6514 47.6452 41.6744V42.4821C47.6452 42.5051 47.6567 42.5166 47.6797 42.5166H48.3824C48.4053 42.5166 48.426 42.5235 48.4444 42.5373C48.4581 42.5557 48.465 42.5764 48.465 42.5994V43.0826Z" fill="#B0B6C9"/>
<path d="M21.1909 55.7776C21.1404 55.7776 21.1082 55.7545 21.0944 55.7085L19.8751 51.0351L19.8682 51.0075C19.8682 50.966 19.8934 50.9453 19.9439 50.9453H20.7982C20.8441 50.9453 20.874 50.9684 20.8878 51.0144L21.5422 53.824C21.5468 53.8424 21.5537 53.8516 21.5629 53.8516C21.5721 53.8516 21.579 53.8424 21.5836 53.824L22.2174 51.0213C22.2311 50.9707 22.261 50.9453 22.3069 50.9453H23.1405C23.191 50.9453 23.2232 50.9684 23.2369 51.0144L23.9259 53.824C23.9305 53.8378 23.9373 53.847 23.9465 53.8516C23.9557 53.8516 23.9626 53.8424 23.9672 53.824L24.601 51.0213C24.6148 50.9707 24.6446 50.9453 24.6906 50.9453H25.5035C25.5678 50.9453 25.593 50.9753 25.5793 51.0351L24.4494 55.7085C24.4357 55.7545 24.4035 55.7776 24.353 55.7776H23.5332C23.4873 55.7776 23.4574 55.7545 23.4436 55.7085L22.7409 52.7195C22.7363 52.701 22.7294 52.6918 22.7203 52.6918C22.7111 52.6918 22.7042 52.701 22.6996 52.7195L22.0451 55.7016C22.0359 55.7522 22.0061 55.7776 21.9556 55.7776H21.1909ZM26.2475 55.7776C26.2245 55.7776 26.2039 55.7684 26.1855 55.7499C26.1717 55.7361 26.1648 55.7177 26.1648 55.6947V51.0282C26.1648 51.0052 26.1717 50.9868 26.1855 50.973C26.2039 50.9545 26.2245 50.9453 26.2475 50.9453H27.0535C27.0765 50.9453 27.0949 50.9545 27.1086 50.973C27.127 50.9868 27.1362 51.0052 27.1362 51.0282V55.6947C27.1362 55.7177 27.127 55.7361 27.1086 55.7499C27.0949 55.7684 27.0765 55.7776 27.0535 55.7776H26.2475ZM30.7461 51.0282C30.7461 51.0052 30.753 50.9868 30.7668 50.973C30.7851 50.9545 30.8058 50.9453 30.8288 50.9453H31.6348C31.6578 50.9453 31.6761 50.9545 31.6899 50.973C31.7083 50.9868 31.7175 51.0052 31.7175 51.0282V55.6947C31.7175 55.7177 31.7083 55.7361 31.6899 55.7499C31.6761 55.7684 31.6578 55.7776 31.6348 55.7776H30.8563C30.8104 55.7776 30.7782 55.7591 30.7599 55.7223L28.9756 52.7678C28.9664 52.754 28.9572 52.7494 28.948 52.754C28.9388 52.754 28.9343 52.7632 28.9343 52.7816L28.948 55.6947C28.948 55.7177 28.9389 55.7361 28.9205 55.7499C28.9067 55.7684 28.8883 55.7776 28.8654 55.7776H28.0593C28.0364 55.7776 28.0157 55.7684 27.9973 55.7499C27.9836 55.7361 27.9767 55.7177 27.9767 55.6947V51.0282C27.9767 51.0052 27.9836 50.9868 27.9973 50.973C28.0157 50.9545 28.0364 50.9453 28.0593 50.9453H28.8378C28.8837 50.9453 28.9159 50.9638 28.9343 51.0006L30.7117 53.9413C30.7208 53.9551 30.73 53.9597 30.7392 53.9551C30.7484 53.9551 30.753 53.9459 30.753 53.9275L30.7461 51.0282ZM35.8854 50.9453C35.9084 50.9453 35.9267 50.9545 35.9405 50.973C35.9589 50.9868 35.9681 51.0052 35.9681 51.0282V51.7047C35.9681 51.7277 35.9589 51.7461 35.9405 51.7599C35.9267 51.7783 35.9084 51.7875 35.8854 51.7875H34.6522C34.6293 51.7875 34.6178 51.799 34.6178 51.822V55.6947C34.6178 55.7177 34.6086 55.7361 34.5902 55.7499C34.5765 55.7684 34.5581 55.7776 34.5351 55.7776H33.7291C33.7061 55.7776 33.6855 55.7684 33.6671 55.7499C33.6533 55.7361 33.6464 55.7177 33.6464 55.6947V51.822C33.6464 51.799 33.6349 51.7875 33.612 51.7875H32.4133C32.3903 51.7875 32.3696 51.7783 32.3513 51.7599C32.3375 51.7461 32.3306 51.7277 32.3306 51.7047V51.0282C32.3306 51.0052 32.3375 50.9868 32.3513 50.973C32.3696 50.9545 32.3903 50.9453 32.4133 50.9453H35.8854ZM39.9362 51.6978C39.9362 51.7208 39.9293 51.7392 39.9155 51.753C39.8972 51.7714 39.8765 51.7806 39.8535 51.7806H37.5939C37.5709 51.7806 37.5594 51.7921 37.5594 51.8151V52.8851C37.5594 52.9081 37.5709 52.9196 37.5939 52.9196H39.0751C39.098 52.9196 39.1164 52.9266 39.1302 52.9404C39.1485 52.9588 39.1577 52.9795 39.1577 53.0025V53.6721C39.1577 53.6951 39.1485 53.7158 39.1302 53.7342C39.1164 53.748 39.098 53.7549 39.0751 53.7549H37.5939C37.5709 53.7549 37.5594 53.7664 37.5594 53.7894V54.9078C37.5594 54.9308 37.5709 54.9423 37.5939 54.9423H39.8535C39.8765 54.9423 39.8972 54.9492 39.9155 54.963C39.9293 54.9814 39.9362 55.0021 39.9362 55.0251V55.6947C39.9362 55.7177 39.9293 55.7361 39.9155 55.7499C39.8972 55.7684 39.8765 55.7776 39.8535 55.7776H36.6707C36.6478 55.7776 36.6271 55.7684 36.6087 55.7499C36.595 55.7361 36.5881 55.7177 36.5881 55.6947V51.0282C36.5881 51.0052 36.595 50.9868 36.6087 50.973C36.6271 50.9545 36.6478 50.9453 36.6707 50.9453H39.8535C39.8765 50.9453 39.8972 50.9545 39.9155 50.973C39.9293 50.9868 39.9362 51.0052 39.9362 51.0282V51.6978ZM43.2568 55.7776C43.2108 55.7776 43.1787 55.7569 43.1603 55.7154L42.2992 53.8033C42.29 53.7848 42.2762 53.7756 42.2578 53.7756H41.6171C41.5942 53.7756 41.5827 53.7871 41.5827 53.8102V55.6947C41.5827 55.7177 41.5735 55.7361 41.5551 55.7499C41.5414 55.7684 41.523 55.7776 41.5 55.7776H40.694C40.671 55.7776 40.6504 55.7684 40.632 55.7499C40.6182 55.7361 40.6113 55.7177 40.6113 55.6947V51.0282C40.6113 51.0052 40.6182 50.9868 40.632 50.973C40.6504 50.9545 40.671 50.9453 40.694 50.9453H42.6643C42.9582 50.9453 43.2154 51.0052 43.4359 51.1248C43.6609 51.2445 43.8331 51.4148 43.9526 51.6357C44.0766 51.8566 44.1386 52.112 44.1386 52.4019C44.1386 52.7149 44.0605 52.9818 43.9043 53.2027C43.7482 53.4282 43.53 53.587 43.2499 53.679C43.2269 53.6882 43.22 53.7043 43.2292 53.7273L44.1661 55.6809C44.1753 55.6993 44.1799 55.7131 44.1799 55.7223C44.1799 55.7591 44.1546 55.7776 44.1041 55.7776H43.2568ZM41.6171 51.7806C41.5942 51.7806 41.5827 51.7921 41.5827 51.8151V52.9956C41.5827 53.0186 41.5942 53.0301 41.6171 53.0301H42.5196C42.7125 53.0301 42.8687 52.9726 42.9881 52.8575C43.1121 52.7425 43.1741 52.5929 43.1741 52.4088C43.1741 52.2247 43.1121 52.0729 42.9881 51.9532C42.8687 51.8382 42.7125 51.7806 42.5196 51.7806H41.6171ZM25.6826 61.3898C25.6734 61.399 25.6711 61.4082 25.6757 61.4174C25.6803 61.4266 25.6895 61.4312 25.7033 61.4312H27.5702C27.5932 61.4312 27.6138 61.4382 27.6322 61.452C27.646 61.4704 27.6529 61.4911 27.6529 61.5141V62.1837C27.6529 62.2067 27.646 62.2251 27.6322 62.2389C27.6138 62.2573 27.5932 62.2665 27.5702 62.2665H24.4701C24.4471 62.2665 24.4265 62.2573 24.4081 62.2389C24.3943 62.2251 24.3874 62.2067 24.3874 62.1837V61.5486C24.3874 61.5072 24.4012 61.4727 24.4288 61.4451C24.6538 61.2242 24.8834 60.9848 25.1177 60.7271C25.3519 60.4648 25.4989 60.3014 25.5586 60.237C25.6872 60.0851 25.8181 59.9402 25.9513 59.8021C26.3692 59.3373 26.5782 58.9921 26.5782 58.7666C26.5782 58.6056 26.5208 58.4721 26.4059 58.3662C26.2911 58.265 26.1419 58.2144 25.9582 58.2144C25.7744 58.2144 25.6252 58.265 25.5104 58.3662C25.3955 58.4721 25.3381 58.6102 25.3381 58.7804V58.953C25.3381 58.976 25.3289 58.9967 25.3106 59.0151C25.2968 59.0289 25.2784 59.0359 25.2555 59.0359H24.4425C24.4196 59.0359 24.4012 59.0289 24.3874 59.0151C24.3691 58.9967 24.3599 58.976 24.3599 58.953V58.6286C24.3737 58.38 24.4517 58.1591 24.5941 57.9659C24.7365 57.7772 24.9248 57.6322 25.159 57.531C25.3978 57.4297 25.6642 57.3791 25.9582 57.3791C26.2842 57.3791 26.569 57.4389 26.8124 57.5586C27.0512 57.6828 27.2372 57.8485 27.3704 58.0556C27.499 58.2627 27.5633 58.4928 27.5633 58.7459C27.5633 58.9392 27.5151 59.1371 27.4186 59.3396C27.3222 59.5421 27.1775 59.7607 26.9846 59.9954C26.8423 60.1749 26.6884 60.3521 26.5231 60.5269C26.3577 60.7018 26.112 60.9549 25.7859 61.2863L25.6826 61.3898ZM29.8918 62.3425C29.3866 62.3425 28.9871 62.1998 28.6931 61.9145C28.3992 61.6337 28.2522 61.2495 28.2522 60.7616V58.9392C28.2522 58.4606 28.3992 58.0809 28.6931 57.8002C28.9871 57.5195 29.3866 57.3791 29.8918 57.3791C30.397 57.3791 30.7989 57.5195 31.0974 57.8002C31.3914 58.0809 31.5383 58.4606 31.5383 58.9392V60.7616C31.5383 61.2495 31.3914 61.6337 31.0974 61.9145C30.7989 62.1998 30.397 62.3425 29.8918 62.3425ZM29.8918 61.5072C30.0985 61.5072 30.2639 61.4428 30.3879 61.3139C30.5073 61.1896 30.567 61.0217 30.567 60.81V58.9116C30.567 58.6999 30.5073 58.5319 30.3879 58.4077C30.2639 58.2788 30.0985 58.2144 29.8918 58.2144C29.6898 58.2144 29.529 58.2788 29.4096 58.4077C29.2856 58.5319 29.2236 58.6999 29.2236 58.9116V60.81C29.2236 61.0217 29.2856 61.1896 29.4096 61.3139C29.529 61.4428 29.6898 61.5072 29.8918 61.5072ZM33.4673 61.3898C33.4581 61.399 33.4558 61.4082 33.4604 61.4174C33.465 61.4266 33.4742 61.4312 33.488 61.4312H35.3549C35.3779 61.4312 35.3986 61.4382 35.4169 61.452C35.4307 61.4704 35.4376 61.4911 35.4376 61.5141V62.1837C35.4376 62.2067 35.4307 62.2251 35.4169 62.2389C35.3986 62.2573 35.3779 62.2665 35.3549 62.2665H32.2548C32.2319 62.2665 32.2135 62.2573 32.1997 62.2389C32.1813 62.2251 32.1721 62.2067 32.1721 62.1837V61.5486C32.1721 61.5072 32.1859 61.4727 32.2135 61.4451C32.4385 61.2242 32.6682 60.9848 32.9024 60.7271C33.1366 60.4648 33.2836 60.3014 33.3433 60.237C33.4719 60.0851 33.6028 59.9402 33.736 59.8021C34.1539 59.3373 34.3629 58.9921 34.3629 58.7666C34.3629 58.6056 34.3055 58.4721 34.1907 58.3662C34.0758 58.265 33.9266 58.2144 33.7429 58.2144C33.5592 58.2144 33.4099 58.265 33.2951 58.3662C33.1803 58.4721 33.1228 58.6102 33.1228 58.7804V58.953C33.1228 58.976 33.116 58.9967 33.1022 59.0151C33.0838 59.0289 33.0631 59.0359 33.0402 59.0359H32.2273C32.2043 59.0359 32.1859 59.0289 32.1721 59.0151C32.1538 58.9967 32.1446 58.976 32.1446 58.953V58.6286C32.1584 58.38 32.2364 58.1591 32.3788 57.9659C32.5212 57.7772 32.7118 57.6322 32.9506 57.531C33.1848 57.4297 33.4489 57.3791 33.7429 57.3791C34.069 57.3791 34.3537 57.4389 34.5971 57.5586C34.8359 57.6828 35.0219 57.8485 35.1551 58.0556C35.2837 58.2627 35.348 58.4928 35.348 58.7459C35.348 58.9392 35.2998 59.1371 35.2034 59.3396C35.1069 59.5421 34.9622 59.7607 34.7693 59.9954C34.627 60.1749 34.4731 60.3521 34.3078 60.5269C34.1424 60.7018 33.8967 60.9549 33.5706 61.2863L33.4673 61.3898ZM39.4815 60.1611C39.5045 60.1611 39.5251 60.168 39.5435 60.1818C39.5573 60.2002 39.5642 60.2209 39.5642 60.2439V60.9411C39.5642 60.9641 39.5573 60.9848 39.5435 61.0033C39.5251 61.0171 39.5045 61.024 39.4815 61.024H39.1853C39.1623 61.024 39.1508 61.0355 39.1508 61.0585V62.1837C39.1508 62.2067 39.1439 62.2251 39.1302 62.2389C39.1118 62.2573 39.0911 62.2665 39.0682 62.2665H38.2621C38.2392 62.2665 38.2208 62.2573 38.207 62.2389C38.1887 62.2251 38.1795 62.2067 38.1795 62.1837V61.0585C38.1795 61.0355 38.168 61.024 38.145 61.024H36.0301C36.0071 61.024 35.9887 61.0171 35.9749 61.0033C35.9566 60.9848 35.9474 60.9641 35.9474 60.9411V60.3889C35.9474 60.3613 35.9543 60.3267 35.9681 60.2853L37.2081 57.4964C37.2265 57.455 37.2586 57.4343 37.3045 57.4343H38.1657C38.1978 57.4343 38.2208 57.4435 38.2346 57.4619C38.2438 57.4757 38.2415 57.4987 38.2277 57.531L37.0772 60.1196C37.0726 60.1289 37.0726 60.1381 37.0772 60.1473C37.0818 60.1565 37.0887 60.1611 37.0979 60.1611H38.145C38.168 60.1611 38.1795 60.1496 38.1795 60.1266V59.2706C38.1795 59.2475 38.1887 59.2291 38.207 59.2153C38.2208 59.1969 38.2392 59.1877 38.2621 59.1877H39.0682C39.0911 59.1877 39.1118 59.1969 39.1302 59.2153C39.1439 59.2291 39.1508 59.2475 39.1508 59.2706V60.1266C39.1508 60.1496 39.1623 60.1611 39.1853 60.1611H39.4815Z" fill="#253053"/>
</svg>
