<svg width="64" height="72" viewBox="0 0 64 72" fill="none" xmlns="http://www.w3.org/2000/svg">
<path d="M5.30461 55.8466L32.5167 69.7219L58.6954 55.8466V1.5877H5.30461V55.8466Z" fill="#9197A9"/>
<path d="M59.2465 1.79483L4.75348 56.813L32.9989 70.8265L59.2465 57.3653V1.79483Z" fill="#898FA2"/>
<path d="M3.51344 19.8811V57.2272L4.47792 57.7105L31.69 71.5858L32.5167 72L33.3434 71.5858L59.5909 57.7105L60.5554 57.2272V0H3.51344V19.8811ZM5.30462 56.1918V1.79482H58.7642V56.1918L32.5167 70.0671L5.30462 56.1918Z" fill="#4D5672"/>
<path d="M32.0345 2.69571C32.31 2.69571 32.5856 2.69571 32.8612 2.76474L32.0345 4.35247C30.7944 4.28343 29.6922 5.24988 29.6233 6.49245C29.5544 7.73502 30.5189 8.83952 31.7589 8.90855H32.0345C32.5856 8.90855 33.1367 8.70146 33.5501 8.3563L34.4457 9.875C33.7567 10.3582 32.9301 10.6343 32.0345 10.6343C29.8299 10.7034 27.9699 9.04662 27.901 6.8376C27.8321 4.62859 29.4855 2.76474 31.69 2.69571H32.0345ZM34.859 6.07826L35.8924 7.80405L34.859 9.46081L33.8945 7.80405H31.8967L32.93 6.07826H34.859ZM33.2056 5.45697C33.2056 5.18085 33.2745 4.90472 33.4123 4.69762C33.5501 4.49053 33.8256 4.28343 34.0323 4.14537L34.1701 4.07634C34.4457 3.93828 34.5145 3.86924 34.5145 3.73118C34.5145 3.59312 34.3079 3.45505 34.1701 3.45505C33.8945 3.45505 33.6879 3.59312 33.5501 3.86924L33.2056 3.52409C33.2745 3.38602 33.4123 3.24796 33.5501 3.1099C33.7567 2.97183 33.9634 2.97183 34.1701 2.97183C34.3768 2.97183 34.6523 3.04086 34.7901 3.17893C34.9279 3.31699 35.0657 3.52409 35.0657 3.73118C35.0657 4.07634 34.859 4.35247 34.4457 4.49053L34.239 4.62859C34.0323 4.76666 33.8945 4.83569 33.8256 5.04278H35.0657V5.526L33.2056 5.45697ZM32.0345 14.0859L38.5791 10.3582V0.00347193H25.4209V10.2892L32.0345 14.0859Z" fill="#4D5672"/>
<path d="M61.8644 38.3126H2.20452L0 43.1448L2.20452 47.977H61.8644L64 43.1448L61.8644 38.3126Z" fill="#4D5672"/>
<path d="M19.7098 29.083C19.7098 29.1198 19.696 29.1497 19.6685 29.1728C19.6455 29.1958 19.6179 29.2073 19.5858 29.2073H16.1894C16.1573 29.2073 16.1412 29.2257 16.1412 29.2625V30.864C16.1412 30.9008 16.1573 30.9193 16.1894 30.9193H18.4146C18.4468 30.9193 18.4766 30.9308 18.5042 30.9538C18.5272 30.9814 18.5386 31.0113 18.5386 31.0435V32.0445C18.5386 32.0813 18.5272 32.1112 18.5042 32.1342C18.4766 32.1618 18.4468 32.1756 18.4146 32.1756H16.1894C16.1573 32.1756 16.1412 32.1917 16.1412 32.224V33.9014C16.1412 33.9382 16.1573 33.9566 16.1894 33.9566H19.5858C19.6179 33.9566 19.6455 33.9682 19.6685 33.9912C19.696 34.0142 19.7098 34.0418 19.7098 34.074V35.0819C19.7098 35.1187 19.696 35.1486 19.6685 35.1716C19.6455 35.1946 19.6179 35.2061 19.5858 35.2061H14.8047C14.7726 35.2061 14.745 35.1946 14.7221 35.1716C14.6945 35.1486 14.6807 35.1187 14.6807 35.0819V28.0821C14.6807 28.0498 14.6945 28.0199 14.7221 27.9923C14.745 27.9693 14.7726 27.9578 14.8047 27.9578H19.5858C19.6179 27.9578 19.6455 27.9693 19.6685 27.9923C19.696 28.0199 19.7098 28.0498 19.7098 28.0821V29.083ZM22.7479 35.2751C22.284 35.2751 21.8799 35.2107 21.5354 35.0819C21.191 34.953 20.9246 34.7712 20.7363 34.5365C20.548 34.3018 20.4538 34.0349 20.4538 33.7357V33.6322C20.4538 33.6 20.4653 33.5701 20.4883 33.5425C20.5112 33.5194 20.5388 33.5079 20.5709 33.5079H21.7214C21.7582 33.5079 21.788 33.5194 21.811 33.5425C21.8339 33.5701 21.8454 33.6 21.8454 33.6322V33.6391C21.8454 33.7956 21.9304 33.9267 22.1003 34.0326C22.2657 34.1384 22.4769 34.1914 22.7341 34.1914C22.9683 34.1914 23.1589 34.1453 23.3059 34.0533C23.4483 33.9566 23.5195 33.8416 23.5195 33.7081C23.5195 33.5839 23.4575 33.4895 23.3335 33.4251C23.2095 33.3653 23.0051 33.3008 22.7203 33.2318C22.3988 33.149 22.1439 33.0684 21.9556 32.9902C21.5193 32.8383 21.1703 32.6519 20.9085 32.431C20.6467 32.2101 20.5158 31.8926 20.5158 31.4784C20.5158 30.9676 20.7133 30.5626 21.1083 30.2635C21.5033 29.9643 22.0268 29.8147 22.679 29.8147C23.1199 29.8147 23.5057 29.8838 23.8364 30.0218C24.1716 30.1645 24.4288 30.3647 24.608 30.6224C24.7917 30.8755 24.8835 31.1655 24.8835 31.4922C24.8835 31.5244 24.872 31.552 24.8491 31.5751C24.8215 31.5981 24.7917 31.6096 24.7595 31.6096H23.6504C23.6182 31.6096 23.5907 31.5981 23.5677 31.5751C23.5401 31.552 23.5264 31.5244 23.5264 31.4922C23.5264 31.3403 23.4506 31.2115 23.299 31.1056C23.1429 30.9998 22.9362 30.9469 22.679 30.9469C22.454 30.9469 22.268 30.9906 22.121 31.078C21.9786 31.1609 21.9074 31.2736 21.9074 31.4163C21.9074 31.5543 21.9786 31.6579 22.121 31.7269C22.2634 31.796 22.4976 31.8696 22.8237 31.9478L23.0855 32.01C23.1819 32.033 23.2852 32.0629 23.3955 32.0997C23.8869 32.247 24.2727 32.4333 24.5528 32.6588C24.8376 32.889 24.98 33.2203 24.98 33.6529C24.98 34.1637 24.7779 34.5618 24.3737 34.8472C23.9696 35.1325 23.4276 35.2751 22.7479 35.2751ZM28.8517 30.9331C28.8517 30.9653 28.8402 30.9929 28.8172 31.0159C28.7943 31.0435 28.7644 31.0573 28.7277 31.0573H27.7356C27.6989 31.0573 27.6805 31.0734 27.6805 31.1056V33.3008C27.6805 33.5263 27.7287 33.6966 27.8252 33.8117C27.917 33.9221 28.0663 33.9774 28.273 33.9774H28.6105C28.6473 33.9774 28.6771 33.9889 28.7001 34.0119C28.7231 34.0349 28.7345 34.0648 28.7345 34.1016V35.0819C28.7345 35.1601 28.6932 35.2038 28.6105 35.213C28.3212 35.2268 28.1145 35.2337 27.9905 35.2337C27.421 35.2337 26.9962 35.1394 26.716 34.9507C26.4313 34.762 26.2843 34.4054 26.2751 33.8807V31.1056C26.2751 31.0734 26.2591 31.0573 26.2269 31.0573H25.6344C25.6023 31.0573 25.5747 31.0435 25.5518 31.0159C25.5242 30.9929 25.5104 30.9653 25.5104 30.9331V30.008C25.5104 29.9758 25.5242 29.9459 25.5518 29.9183C25.5747 29.8953 25.6023 29.8838 25.6344 29.8838H26.2269C26.2591 29.8838 26.2751 29.8654 26.2751 29.8286V28.5998C26.2751 28.5676 26.2889 28.5377 26.3165 28.51C26.3394 28.487 26.367 28.4755 26.3991 28.4755H27.5565C27.5933 28.4755 27.6231 28.487 27.6461 28.51C27.669 28.5377 27.6805 28.5676 27.6805 28.5998V29.8286C27.6805 29.8654 27.6989 29.8838 27.7356 29.8838H28.7277C28.7644 29.8838 28.7943 29.8953 28.8172 29.9183C28.8402 29.9459 28.8517 29.9758 28.8517 30.008V30.9331ZM30.5326 35.2475C30.2984 35.2475 30.1055 35.1693 29.9539 35.0128C29.7978 34.861 29.7197 34.6654 29.7197 34.4261C29.7197 34.1867 29.7955 33.9912 29.947 33.8393C30.0986 33.6874 30.2938 33.6115 30.5326 33.6115C30.776 33.6115 30.9735 33.6874 31.1251 33.8393C31.2766 33.9912 31.3524 34.1867 31.3524 34.4261C31.3524 34.6654 31.2743 34.861 31.1182 35.0128C30.962 35.1693 30.7668 35.2475 30.5326 35.2475ZM38.648 35.2061C38.5791 35.2061 38.5309 35.1739 38.5033 35.1095L37.2082 32.2447C37.199 32.217 37.1783 32.2032 37.1462 32.2032H36.1886C36.1518 32.2032 36.1335 32.2216 36.1335 32.2585V35.0819C36.1335 35.1187 36.122 35.1486 36.099 35.1716C36.0761 35.1946 36.0485 35.2061 36.0164 35.2061H34.8039C34.7671 35.2061 34.7373 35.1946 34.7143 35.1716C34.6913 35.1486 34.6799 35.1187 34.6799 35.0819V28.0821C34.6799 28.0498 34.6913 28.0199 34.7143 27.9923C34.7373 27.9693 34.7671 27.9578 34.8039 27.9578H37.7593C38.2002 27.9578 38.5883 28.0475 38.9236 28.227C39.2542 28.4065 39.5114 28.6619 39.6952 28.9933C39.8789 29.3246 39.9707 29.7089 39.9707 30.1461C39.9707 30.6155 39.8536 31.0159 39.6194 31.3472C39.3851 31.6832 39.0591 31.9202 38.6411 32.0583C38.6044 32.0721 38.5929 32.0951 38.6067 32.1273L40.0121 35.0612C40.0258 35.0888 40.0327 35.1095 40.0327 35.1233C40.0327 35.1785 39.996 35.2061 39.9225 35.2061H38.648ZM36.1886 29.2073C36.1518 29.2073 36.1335 29.2257 36.1335 29.2625V31.0366C36.1335 31.0688 36.1518 31.0849 36.1886 31.0849H37.5389C37.8328 31.0849 38.0693 30.9998 38.2484 30.8295C38.4321 30.6546 38.524 30.4291 38.524 30.153C38.524 29.8769 38.4321 29.6514 38.2484 29.4765C38.0693 29.297 37.8328 29.2073 37.5389 29.2073H36.1886ZM43.5944 35.3166C43.057 35.3166 42.584 35.2061 42.1752 34.9852C41.7665 34.7689 41.4496 34.4606 41.2245 34.0602C40.9949 33.6644 40.8801 33.2065 40.8801 32.6865V30.4775C40.8801 29.9666 40.9949 29.5133 41.2245 29.1175C41.4496 28.7263 41.7665 28.4203 42.1752 28.1994C42.584 27.9831 43.057 27.875 43.5944 27.875C44.1409 27.875 44.6186 27.9831 45.0273 28.1994C45.4361 28.4203 45.7553 28.7263 45.9849 29.1175C46.21 29.5133 46.3225 29.9666 46.3225 30.4775V32.6865C46.3225 33.2065 46.21 33.6667 45.9849 34.0671C45.7553 34.4675 45.4361 34.7758 45.0273 34.9921C44.6186 35.2084 44.1409 35.3166 43.5944 35.3166ZM43.5944 34.0671C43.9756 34.0671 44.2833 33.9474 44.5175 33.7081C44.7518 33.4642 44.8689 33.1421 44.8689 32.7417V30.4636C44.8689 30.0633 44.7541 29.7411 44.5244 29.4972C44.2948 29.2533 43.9848 29.1313 43.5944 29.1313C43.2178 29.1313 42.9147 29.2533 42.685 29.4972C42.4508 29.7411 42.3337 30.0633 42.3337 30.4636V32.7417C42.3337 33.1421 42.4508 33.4642 42.685 33.7081C42.9147 33.9474 43.2178 34.0671 43.5944 34.0671ZM47.5625 35.2061C47.5304 35.2061 47.5028 35.1946 47.4799 35.1716C47.4523 35.1486 47.4385 35.1187 47.4385 35.0819V28.0821C47.4385 28.0498 47.4523 28.0199 47.4799 27.9923C47.5028 27.9693 47.5304 27.9578 47.5625 27.9578H48.775C48.8072 27.9578 48.837 27.9693 48.8646 27.9923C48.8875 28.0199 48.899 28.0498 48.899 28.0821V35.0819C48.899 35.1187 48.8875 35.1486 48.8646 35.1716C48.837 35.1946 48.8072 35.2061 48.775 35.2061H47.5625ZM26.0202 21.0753C25.9789 21.0937 25.9789 21.1145 26.0202 21.1375C26.6724 21.4734 26.9985 22.0349 26.9985 22.8218C26.9985 23.4938 26.7711 24 26.3165 24.3405C25.8618 24.6811 25.267 24.8514 24.5322 24.8514H21.8523C21.8202 24.8514 21.7926 24.8399 21.7696 24.8169C21.7421 24.7938 21.7283 24.7639 21.7283 24.7271V17.7273C21.7283 17.6951 21.7421 17.6652 21.7696 17.6376C21.7926 17.6146 21.8202 17.6031 21.8523 17.6031H24.4495C26.0799 17.6031 26.8952 18.2658 26.8952 19.5912C26.8952 20.2815 26.6035 20.7762 26.0202 21.0753ZM23.237 18.8525C23.2049 18.8525 23.1888 18.8709 23.1888 18.9077V20.5231C23.1888 20.5599 23.2049 20.5783 23.237 20.5783H24.4495C24.771 20.5783 25.0236 20.5024 25.2073 20.3505C25.3818 20.1986 25.4691 19.9915 25.4691 19.7292C25.4691 19.4577 25.3818 19.2437 25.2073 19.0872C25.0236 18.9308 24.771 18.8525 24.4495 18.8525H23.237ZM24.5322 23.5881C24.8491 23.5881 25.0971 23.5076 25.2762 23.3465C25.4553 23.1854 25.5449 22.9622 25.5449 22.6769C25.5449 22.3961 25.4553 22.1729 25.2762 22.0073C25.0971 21.8462 24.8445 21.7657 24.5184 21.7657H23.237C23.2049 21.7657 23.1888 21.7841 23.1888 21.8209V23.5329C23.1888 23.5697 23.2049 23.5881 23.237 23.5881H24.5322ZM32.744 21.6414C32.7854 21.9037 32.7991 22.196 32.7854 22.5181C32.7808 22.6055 32.7371 22.6493 32.6545 22.6493H29.4579C29.4166 22.6493 29.4028 22.6654 29.4166 22.6976C29.4395 22.8356 29.4786 22.9737 29.5337 23.1118C29.7128 23.4984 30.0779 23.6916 30.6291 23.6916C31.07 23.687 31.4167 23.5076 31.6693 23.1532C31.6969 23.1118 31.729 23.0911 31.7658 23.0911C31.7841 23.0911 31.8071 23.1049 31.8347 23.1325L32.5787 23.8642C32.6154 23.901 32.6338 23.9333 32.6338 23.9609C32.6338 23.9747 32.62 24.0023 32.5925 24.0437C32.3628 24.329 32.0689 24.5476 31.7107 24.6995C31.357 24.856 30.9643 24.9342 30.5326 24.9342C29.9401 24.9342 29.4395 24.8007 29.0308 24.5338C28.622 24.2623 28.3281 23.8849 28.149 23.4017C28.002 23.0566 27.9285 22.6055 27.9285 22.0487C27.9285 21.6667 27.9813 21.3308 28.087 21.0408C28.2431 20.553 28.521 20.1641 28.9206 19.8742C29.3155 19.5843 29.784 19.4393 30.3259 19.4393C31.0148 19.4393 31.5683 19.6395 31.9862 20.0399C32.4042 20.4402 32.6568 20.9741 32.744 21.6414ZM30.3397 20.7026C29.9034 20.7026 29.6164 20.9051 29.4786 21.31C29.451 21.4021 29.4281 21.5125 29.4097 21.6414C29.4097 21.6736 29.4258 21.6897 29.4579 21.6897H31.2491C31.2904 21.6897 31.3042 21.6736 31.2904 21.6414C31.2537 21.4435 31.2353 21.3469 31.2353 21.3515C31.1756 21.1444 31.0677 20.9833 30.9115 20.8682C30.7554 20.7578 30.5648 20.7026 30.3397 20.7026ZM35.7339 24.9204C35.27 24.9204 34.8659 24.856 34.5214 24.7271C34.177 24.5983 33.9106 24.4165 33.7223 24.1818C33.534 23.9471 33.4398 23.6801 33.4398 23.381V23.2775C33.4398 23.2452 33.4513 23.2153 33.4743 23.1877C33.4972 23.1647 33.5271 23.1532 33.5638 23.1532H34.7074C34.7442 23.1532 34.774 23.1647 34.797 23.1877C34.8199 23.2153 34.8314 23.2452 34.8314 23.2775V23.2844C34.8314 23.4408 34.9164 23.572 35.0863 23.6778C35.2563 23.7837 35.4675 23.8366 35.7201 23.8366C35.9544 23.8366 36.145 23.7906 36.2919 23.6985C36.4343 23.6019 36.5055 23.4868 36.5055 23.3534C36.5055 23.2291 36.4435 23.1348 36.3195 23.0704C36.1955 23.0105 35.9934 22.9461 35.7132 22.8771C35.3872 22.7942 35.1323 22.7137 34.9485 22.6355C34.5076 22.4836 34.1563 22.2972 33.8945 22.0763C33.6327 21.8554 33.5018 21.5379 33.5018 21.1237C33.5018 20.6128 33.6993 20.2078 34.0943 19.9087C34.4893 19.6096 35.0151 19.46 35.6719 19.46C36.1128 19.46 36.4986 19.529 36.8293 19.6671C37.16 19.8098 37.4171 20.01 37.6009 20.2677C37.78 20.5208 37.8695 20.8107 37.8695 21.1375C37.8695 21.1697 37.8581 21.1973 37.8351 21.2203C37.8121 21.2433 37.7823 21.2548 37.7455 21.2548H36.6433C36.6065 21.2548 36.5767 21.2433 36.5537 21.2203C36.5307 21.1973 36.5193 21.1697 36.5193 21.1375C36.5193 20.9856 36.4412 20.8567 36.285 20.7509C36.1289 20.645 35.9245 20.5921 35.6719 20.5921C35.4423 20.5921 35.2563 20.6358 35.1139 20.7233C34.9669 20.8061 34.8934 20.9189 34.8934 21.0615C34.8934 21.1996 34.9646 21.3031 35.107 21.3722C35.2494 21.4412 35.4859 21.5148 35.8166 21.5931C35.8901 21.6115 35.975 21.6322 36.0715 21.6552C36.1679 21.6782 36.2713 21.7081 36.3815 21.7449C36.8729 21.8922 37.2587 22.0786 37.5389 22.3041C37.8236 22.5342 37.966 22.8656 37.966 23.2982C37.966 23.809 37.7639 24.2071 37.3597 24.4924C36.9556 24.7777 36.4136 24.9204 35.7339 24.9204ZM41.8377 20.5783C41.8377 20.6105 41.8262 20.6381 41.8032 20.6612C41.7803 20.6888 41.7504 20.7026 41.7137 20.7026H40.7216C40.6895 20.7026 40.6734 20.7187 40.6734 20.7509V22.9461C40.6734 23.1716 40.7193 23.3419 40.8112 23.4569C40.903 23.5674 41.0546 23.6226 41.2659 23.6226H41.6034C41.6356 23.6226 41.6654 23.6341 41.693 23.6571C41.716 23.6801 41.7274 23.71 41.7274 23.7469V24.7271C41.7274 24.8054 41.6861 24.8491 41.6034 24.8583C41.3141 24.8721 41.1074 24.879 40.9834 24.879C40.4093 24.879 39.9822 24.7846 39.702 24.596C39.4173 24.4073 39.2726 24.0506 39.268 23.526V20.7509C39.268 20.7187 39.2497 20.7026 39.2129 20.7026H38.6273C38.5906 20.7026 38.5607 20.6888 38.5378 20.6612C38.5148 20.6381 38.5033 20.6105 38.5033 20.5783V19.6533C38.5033 19.6211 38.5148 19.5912 38.5378 19.5635C38.5607 19.5405 38.5906 19.529 38.6273 19.529H39.2129C39.2497 19.529 39.268 19.5106 39.268 19.4738V18.245C39.268 18.2128 39.2795 18.1829 39.3025 18.1553C39.3254 18.1323 39.3553 18.1208 39.392 18.1208H40.5494C40.5816 18.1208 40.6114 18.1323 40.639 18.1553C40.6619 18.1829 40.6734 18.2128 40.6734 18.245V19.4738C40.6734 19.5106 40.6895 19.529 40.7216 19.529H41.7137C41.7504 19.529 41.7803 19.5405 41.8032 19.5635C41.8262 19.5912 41.8377 19.6211 41.8377 19.6533V20.5783Z" fill="#253053"/>
<path d="M18.3458 41.06C18.3687 41.0232 18.4009 41.0048 18.4422 41.0048H19.076C19.099 41.0048 19.1173 41.014 19.1311 41.0324C19.1495 41.0462 19.1587 41.0646 19.1587 41.0876V45.7542C19.1587 45.7772 19.1495 45.7956 19.1311 45.8094C19.1173 45.8278 19.099 45.837 19.076 45.837H18.4422C18.4192 45.837 18.3986 45.8278 18.3802 45.8094C18.3664 45.7956 18.3595 45.7772 18.3595 45.7542V42.4614C18.3595 42.4476 18.3549 42.4383 18.3458 42.4337C18.332 42.4291 18.3228 42.4337 18.3182 42.4475L17.4571 43.773C17.4341 43.8098 17.4019 43.8282 17.3606 43.8282H17.0437C17.0024 43.8282 16.9702 43.8098 16.9473 43.773L16.0792 42.4545C16.0746 42.4406 16.0677 42.436 16.0586 42.4407C16.0448 42.4453 16.0379 42.4545 16.0379 42.4683V45.7542C16.0379 45.7772 16.0287 45.7956 16.0103 45.8094C15.9966 45.8278 15.9782 45.837 15.9552 45.837H15.3214C15.2985 45.837 15.2801 45.8278 15.2663 45.8094C15.2479 45.7956 15.2388 45.7772 15.2388 45.7542V41.0876C15.2388 41.0646 15.2479 41.0462 15.2663 41.0324C15.2801 41.014 15.2985 41.0048 15.3214 41.0048H15.9552C15.9966 41.0048 16.0287 41.0232 16.0517 41.06L17.1746 42.7651C17.1838 42.7743 17.193 42.7789 17.2022 42.7789C17.2113 42.7789 17.2182 42.7743 17.2228 42.7651L18.3458 41.06ZM20.5434 41.8263C20.401 41.8263 20.2839 41.7802 20.192 41.6882C20.1002 41.5962 20.0543 41.4788 20.0543 41.3361C20.0543 41.1935 20.1002 41.0761 20.192 40.9841C20.2839 40.892 20.401 40.846 20.5434 40.846C20.6858 40.846 20.8029 40.892 20.8947 40.9841C20.9866 41.0761 21.0325 41.1935 21.0325 41.3361C21.0325 41.4788 20.9866 41.5962 20.8947 41.6882C20.8029 41.7802 20.6858 41.8263 20.5434 41.8263ZM20.2127 45.837C20.1897 45.837 20.1714 45.8278 20.1576 45.8094C20.1392 45.7956 20.13 45.7772 20.13 45.7542V42.3854C20.13 42.3624 20.1392 42.344 20.1576 42.3302C20.1714 42.3118 20.1897 42.3026 20.2127 42.3026H20.8465C20.8695 42.3026 20.8901 42.3118 20.9085 42.3302C20.9223 42.344 20.9292 42.3624 20.9292 42.3854V45.7542C20.9292 45.7772 20.9223 45.7956 20.9085 45.8094C20.8901 45.8278 20.8695 45.837 20.8465 45.837H20.2127ZM24.0293 41.0876C24.0293 41.0646 24.0385 41.0462 24.0568 41.0324C24.0706 41.014 24.089 41.0048 24.112 41.0048H24.7458C24.7687 41.0048 24.7894 41.014 24.8078 41.0324C24.8215 41.0462 24.8284 41.0646 24.8284 41.0876V45.7542C24.8284 45.7772 24.8215 45.7956 24.8078 45.8094C24.7894 45.8278 24.7687 45.837 24.7458 45.837H24.112C24.089 45.837 24.0706 45.8278 24.0568 45.8094C24.0385 45.7956 24.0293 45.7772 24.0293 45.7542V45.5471C24.0293 45.5333 24.0247 45.5241 24.0155 45.5195C24.0063 45.5149 23.9971 45.5195 23.9879 45.5333C23.7859 45.7726 23.5218 45.8922 23.1957 45.8922C22.8696 45.8922 22.594 45.8071 22.369 45.6368C22.144 45.4665 21.9809 45.2295 21.8799 44.9258C21.7972 44.6681 21.7559 44.3804 21.7559 44.0629C21.7559 43.7361 21.7949 43.4554 21.873 43.2207C21.974 42.917 22.1371 42.68 22.3621 42.5097C22.5872 42.3394 22.8696 42.2543 23.2095 42.2543C23.5264 42.2543 23.7859 42.3693 23.9879 42.5994C23.9971 42.6086 24.0063 42.6132 24.0155 42.6132C24.0247 42.6086 24.0293 42.5994 24.0293 42.5856V41.0876ZM23.8639 44.8706C23.9696 44.6819 24.0224 44.415 24.0224 44.0698C24.0224 43.7108 23.965 43.437 23.8502 43.2483C23.7262 43.0458 23.5516 42.9446 23.3266 42.9446C23.0924 42.9446 22.9086 43.0412 22.7755 43.2345C22.6377 43.437 22.5688 43.7177 22.5688 44.0767C22.5688 44.3988 22.6239 44.6635 22.7341 44.8706C22.8627 45.0915 23.0579 45.2019 23.3197 45.2019C23.5539 45.2019 23.7353 45.0915 23.8639 44.8706ZM25.5724 44.1043C25.5495 44.1043 25.5311 44.0974 25.5173 44.0836C25.499 44.0652 25.4898 44.0445 25.4898 44.0215V43.4968C25.4898 43.4738 25.499 43.4531 25.5173 43.4347C25.5311 43.4209 25.5495 43.414 25.5724 43.414H27.7425C27.7655 43.414 27.7839 43.4209 27.7976 43.4347C27.816 43.4531 27.8252 43.4738 27.8252 43.4968V44.0215C27.8252 44.0445 27.816 44.0652 27.7976 44.0836C27.7839 44.0974 27.7655 44.1043 27.7425 44.1043H25.5724ZM31.6624 41.06C31.6854 41.0232 31.7175 41.0048 31.7589 41.0048H32.3927C32.4156 41.0048 32.4363 41.014 32.4547 41.0324C32.4685 41.0462 32.4754 41.0646 32.4754 41.0876V45.7542C32.4754 45.7772 32.4685 45.7956 32.4547 45.8094C32.4363 45.8278 32.4156 45.837 32.3927 45.837H31.7589C31.7359 45.837 31.7175 45.8278 31.7038 45.8094C31.6854 45.7956 31.6762 45.7772 31.6762 45.7542V42.4614C31.6762 42.4476 31.6716 42.4383 31.6624 42.4337C31.6487 42.4291 31.6395 42.4337 31.6349 42.4475L30.7737 43.773C30.7508 43.8098 30.7186 43.8282 30.6773 43.8282H30.3604C30.3191 43.8282 30.2869 43.8098 30.2639 43.773L29.3959 42.4545C29.3913 42.4406 29.3844 42.436 29.3752 42.4407C29.3615 42.4453 29.3546 42.4545 29.3546 42.4683V45.7542C29.3546 45.7772 29.3477 45.7956 29.3339 45.8094C29.3155 45.8278 29.2949 45.837 29.2719 45.837H28.6381C28.6151 45.837 28.5968 45.8278 28.583 45.8094C28.5646 45.7956 28.5554 45.7772 28.5554 45.7542V41.0876C28.5554 41.0646 28.5646 41.0462 28.583 41.0324C28.5968 41.014 28.6151 41.0048 28.6381 41.0048H29.2719C29.3132 41.0048 29.3454 41.0232 29.3684 41.06L30.4913 42.7651C30.5005 42.7743 30.5097 42.7789 30.5188 42.7789C30.528 42.7789 30.5349 42.7743 30.5395 42.7651L31.6624 41.06ZM34.7488 42.2543C35.0381 42.2543 35.293 42.3049 35.5135 42.4061C35.7339 42.5074 35.9038 42.6454 36.0233 42.8203C36.1427 42.9998 36.2024 43.2023 36.2024 43.4278V45.7542C36.2024 45.7772 36.1955 45.7956 36.1817 45.8094C36.1633 45.8278 36.1427 45.837 36.1197 45.837H35.4859C35.4629 45.837 35.4446 45.8278 35.4308 45.8094C35.4124 45.7956 35.4032 45.7772 35.4032 45.7542V45.5333C35.4032 45.5195 35.3986 45.5103 35.3895 45.5057C35.3803 45.5057 35.3711 45.5103 35.3619 45.5195C35.1369 45.768 34.8108 45.8922 34.3836 45.8922C34.0392 45.8922 33.7567 45.8048 33.5363 45.6299C33.3112 45.455 33.1987 45.195 33.1987 44.8499C33.1987 44.4909 33.325 44.2102 33.5776 44.0077C33.8256 43.8098 34.177 43.7108 34.6316 43.7108H35.3688C35.3918 43.7108 35.4032 43.6993 35.4032 43.6763V43.5106C35.4032 43.3312 35.3504 43.1908 35.2448 43.0895C35.1391 42.9929 34.9807 42.9446 34.7694 42.9446C34.5949 42.9446 34.4548 42.9768 34.3492 43.0412C34.239 43.101 34.1701 43.1862 34.1425 43.2966C34.1287 43.3519 34.0966 43.3749 34.0461 43.3657L33.3778 43.2828C33.3549 43.2782 33.3365 43.2713 33.3227 43.2621C33.3043 43.2483 33.2975 43.2322 33.302 43.2138C33.3388 42.9331 33.4904 42.703 33.7567 42.5235C34.0185 42.344 34.3492 42.2543 34.7488 42.2543ZM34.5834 45.2571C34.8085 45.2571 35.0014 45.1973 35.1621 45.0777C35.3229 44.958 35.4032 44.8061 35.4032 44.622V44.2976C35.4032 44.2746 35.3918 44.2631 35.3688 44.2631H34.7901C34.5467 44.2631 34.3561 44.3091 34.2183 44.4011C34.0759 44.4932 34.0047 44.6243 34.0047 44.7946C34.0047 44.9419 34.0599 45.0546 34.1701 45.1329C34.2757 45.2157 34.4135 45.2571 34.5834 45.2571ZM38.6411 42.2681C38.7881 42.2681 38.9167 42.298 39.0269 42.3578C39.0637 42.3762 39.0774 42.4107 39.0682 42.4614L38.9511 43.0826C38.9465 43.1379 38.9144 43.154 38.8547 43.131C38.7858 43.108 38.7054 43.0964 38.6136 43.0964C38.5539 43.0964 38.5079 43.0988 38.4758 43.1034C38.2829 43.1126 38.1221 43.1793 37.9935 43.3035C37.8649 43.4324 37.8006 43.5981 37.8006 43.8006V45.7542C37.8006 45.7772 37.7938 45.7956 37.78 45.8094C37.7616 45.8278 37.7409 45.837 37.718 45.837H37.0842C37.0612 45.837 37.0428 45.8278 37.0291 45.8094C37.0107 45.7956 37.0015 45.7772 37.0015 45.7542V42.3923C37.0015 42.3693 37.0107 42.3486 37.0291 42.3302C37.0428 42.3164 37.0612 42.3095 37.0842 42.3095H37.718C37.7409 42.3095 37.7616 42.3164 37.78 42.3302C37.7938 42.3486 37.8006 42.3693 37.8006 42.3923V42.703C37.8006 42.7214 37.8052 42.7306 37.8144 42.7306C37.819 42.7352 37.8259 42.7306 37.8351 42.7168C38.028 42.4176 38.2967 42.2681 38.6411 42.2681ZM39.6745 45.837C39.6515 45.837 39.6332 45.8278 39.6194 45.8094C39.601 45.7956 39.5918 45.7772 39.5918 45.7542V41.0876C39.5918 41.0646 39.601 41.0462 39.6194 41.0324C39.6332 41.014 39.6515 41.0048 39.6745 41.0048H40.3083C40.3313 41.0048 40.3496 41.014 40.3634 41.0324C40.3818 41.0462 40.391 41.0646 40.391 41.0876V43.5797C40.391 43.5935 40.3956 43.6027 40.4047 43.6073C40.4139 43.6119 40.4231 43.6073 40.4323 43.5935L41.5483 42.3578C41.5805 42.3256 41.6149 42.3095 41.6517 42.3095H42.3819C42.4278 42.3095 42.4508 42.3256 42.4508 42.3578C42.4508 42.3716 42.4439 42.39 42.4301 42.413L41.5552 43.4623C41.5414 43.4761 41.5391 43.4922 41.5483 43.5106L42.5817 45.7404C42.5909 45.7588 42.5955 45.7726 42.5955 45.7818C42.5955 45.8186 42.5702 45.837 42.5197 45.837H41.8515C41.8055 45.837 41.7734 45.8163 41.755 45.7749L41.0041 44.0215C40.9995 44.0123 40.9903 44.0054 40.9765 44.0008C40.9674 44.0008 40.9605 44.0054 40.9559 44.0146L40.4047 44.6497C40.3956 44.6681 40.391 44.6842 40.391 44.698V45.7542C40.391 45.7772 40.3818 45.7956 40.3634 45.8094C40.3496 45.8278 40.3313 45.837 40.3083 45.837H39.6745ZM45.9092 43.6763C45.9275 43.7914 45.9367 43.9202 45.9367 44.0629L45.9298 44.2769C45.9298 44.3321 45.9023 44.3597 45.8471 44.3597H43.6909C43.6679 44.3597 43.6564 44.3712 43.6564 44.3942C43.6702 44.5461 43.6909 44.6497 43.7184 44.7049C43.8286 45.0362 44.0973 45.2042 44.5244 45.2088C44.8367 45.2088 45.0848 45.08 45.2685 44.8222C45.2868 44.7946 45.3098 44.7808 45.3374 44.7808C45.3557 44.7808 45.3718 44.7877 45.3856 44.8015L45.8127 45.1536C45.854 45.1858 45.8609 45.2226 45.8334 45.264C45.691 45.4665 45.5004 45.623 45.2616 45.7335C45.0273 45.8439 44.7656 45.8991 44.4762 45.8991C44.118 45.8991 43.8126 45.8186 43.56 45.6575C43.312 45.4964 43.1305 45.2709 43.0157 44.981C42.9101 44.7325 42.8573 44.3873 42.8573 43.9455C42.8573 43.6786 42.8848 43.4623 42.9399 43.2966C43.0318 42.9745 43.2063 42.7191 43.4635 42.5304C43.7161 42.3463 44.0215 42.2543 44.3798 42.2543C45.2845 42.2543 45.7943 42.7283 45.9092 43.6763ZM44.3798 42.9446C44.2098 42.9446 44.0675 42.9883 43.9526 43.0757C43.8424 43.1586 43.7643 43.2759 43.7184 43.4278C43.6909 43.506 43.6725 43.6073 43.6633 43.7315C43.6541 43.7545 43.6633 43.7661 43.6909 43.7661H45.0893C45.1123 43.7661 45.1238 43.7545 45.1238 43.7315C45.1146 43.6165 45.1008 43.529 45.0825 43.4692C45.0411 43.3035 44.9607 43.1747 44.8413 43.0826C44.7173 42.9906 44.5635 42.9446 44.3798 42.9446ZM48.465 42.8755C48.465 42.8986 48.4581 42.917 48.4444 42.9308C48.426 42.9492 48.4053 42.9584 48.3823 42.9584H47.6797C47.6567 42.9584 47.6452 42.9699 47.6452 42.9929V44.6566C47.6452 44.8314 47.6843 44.958 47.7623 45.0362C47.8358 45.1145 47.9552 45.1536 48.1206 45.1536H48.3272C48.3502 45.1536 48.3686 45.1605 48.3823 45.1743C48.4007 45.1927 48.4099 45.2134 48.4099 45.2364V45.7542C48.4099 45.8048 48.3824 45.8347 48.3272 45.8439L47.969 45.8508C47.6062 45.8508 47.3352 45.7887 47.1561 45.6644C46.977 45.5402 46.8851 45.3055 46.8805 44.9603V42.9929C46.8805 42.9699 46.869 42.9584 46.8461 42.9584H46.4534C46.4304 42.9584 46.4121 42.9492 46.3983 42.9308C46.3799 42.917 46.3707 42.8986 46.3707 42.8755V42.3923C46.3707 42.3693 46.3799 42.3486 46.3983 42.3302C46.4121 42.3164 46.4304 42.3095 46.4534 42.3095H46.8461C46.869 42.3095 46.8805 42.298 46.8805 42.275V41.4673C46.8805 41.4443 46.8897 41.4236 46.9081 41.4052C46.9219 41.3914 46.9402 41.3845 46.9632 41.3845H47.5625C47.5855 41.3845 47.6039 41.3914 47.6177 41.4052C47.636 41.4236 47.6452 41.4443 47.6452 41.4673V42.275C47.6452 42.298 47.6567 42.3095 47.6797 42.3095H48.3823C48.4053 42.3095 48.426 42.3164 48.4444 42.3302C48.4581 42.3486 48.465 42.3693 48.465 42.3923V42.8755Z" fill="#B0B6C9"/>
<path d="M21.191 55.5705C21.1404 55.5705 21.1083 55.5475 21.0945 55.5014L19.8751 50.828L19.8682 50.8004C19.8682 50.759 19.8935 50.7383 19.944 50.7383H20.7983C20.8442 50.7383 20.8741 50.7613 20.8878 50.8073L21.5423 53.6169C21.5469 53.6353 21.5538 53.6445 21.563 53.6445C21.5722 53.6445 21.579 53.6353 21.5836 53.6169L22.2174 50.8142C22.2312 50.7636 22.2611 50.7383 22.307 50.7383H23.1406C23.1911 50.7383 23.2232 50.7613 23.237 50.8073L23.9259 53.6169C23.9305 53.6307 23.9374 53.6399 23.9466 53.6445C23.9558 53.6445 23.9627 53.6353 23.9673 53.6169L24.6011 50.8142C24.6149 50.7636 24.6447 50.7383 24.6906 50.7383H25.5035C25.5678 50.7383 25.5931 50.7682 25.5793 50.828L24.4495 55.5014C24.4357 55.5475 24.4036 55.5705 24.3531 55.5705H23.5333C23.4873 55.5705 23.4575 55.5475 23.4437 55.5014L22.741 52.5124C22.7364 52.494 22.7295 52.4848 22.7203 52.4848C22.7112 52.4848 22.7043 52.494 22.6997 52.5124L22.0452 55.4945C22.036 55.5452 22.0062 55.5705 21.9556 55.5705H21.191ZM26.2476 55.5705C26.2246 55.5705 26.2039 55.5613 26.1856 55.5429C26.1718 55.5291 26.1649 55.5106 26.1649 55.4876V50.8211C26.1649 50.7981 26.1718 50.7797 26.1856 50.7659C26.2039 50.7475 26.2246 50.7383 26.2476 50.7383H27.0536C27.0766 50.7383 27.0949 50.7475 27.1087 50.7659C27.1271 50.7797 27.1363 50.7981 27.1363 50.8211V55.4876C27.1363 55.5106 27.1271 55.5291 27.1087 55.5429C27.0949 55.5613 27.0766 55.5705 27.0536 55.5705H26.2476ZM30.7462 50.8211C30.7462 50.7981 30.7531 50.7797 30.7668 50.7659C30.7852 50.7475 30.8059 50.7383 30.8288 50.7383H31.6349C31.6578 50.7383 31.6762 50.7475 31.69 50.7659C31.7084 50.7797 31.7175 50.7981 31.7175 50.8211V55.4876C31.7175 55.5106 31.7084 55.5291 31.69 55.5429C31.6762 55.5613 31.6578 55.5705 31.6349 55.5705H30.8564C30.8105 55.5705 30.7783 55.5521 30.76 55.5152L28.9757 52.5607C28.9665 52.5469 28.9573 52.5423 28.9481 52.5469C28.9389 52.5469 28.9343 52.5561 28.9343 52.5745L28.9481 55.4876C28.9481 55.5106 28.9389 55.5291 28.9206 55.5429C28.9068 55.5613 28.8884 55.5705 28.8654 55.5705H28.0594C28.0365 55.5705 28.0158 55.5613 27.9974 55.5429C27.9836 55.5291 27.9767 55.5106 27.9767 55.4876V50.8211C27.9767 50.7981 27.9836 50.7797 27.9974 50.7659C28.0158 50.7475 28.0365 50.7383 28.0594 50.7383H28.8379C28.8838 50.7383 28.916 50.7567 28.9343 50.7935L30.7117 53.7342C30.7209 53.748 30.7301 53.7526 30.7393 53.748C30.7485 53.748 30.7531 53.7388 30.7531 53.7204L30.7462 50.8211ZM35.8855 50.7383C35.9084 50.7383 35.9268 50.7475 35.9406 50.7659C35.9589 50.7797 35.9681 50.7981 35.9681 50.8211V51.4976C35.9681 51.5206 35.9589 51.539 35.9406 51.5528C35.9268 51.5712 35.9084 51.5804 35.8855 51.5804H34.6523C34.6293 51.5804 34.6179 51.5919 34.6179 51.615V55.4876C34.6179 55.5106 34.6087 55.5291 34.5903 55.5429C34.5765 55.5613 34.5582 55.5705 34.5352 55.5705H33.7292C33.7062 55.5705 33.6855 55.5613 33.6672 55.5429C33.6534 55.5291 33.6465 55.5106 33.6465 55.4876V51.615C33.6465 51.5919 33.635 51.5804 33.6121 51.5804H32.4133C32.3904 51.5804 32.3697 51.5712 32.3513 51.5528C32.3376 51.539 32.3307 51.5206 32.3307 51.4976V50.8211C32.3307 50.7981 32.3376 50.7797 32.3513 50.7659C32.3697 50.7475 32.3904 50.7383 32.4133 50.7383H35.8855ZM39.9363 51.4907C39.9363 51.5137 39.9294 51.5321 39.9156 51.5459C39.8972 51.5643 39.8766 51.5735 39.8536 51.5735H37.594C37.571 51.5735 37.5595 51.585 37.5595 51.6081V52.678C37.5595 52.7011 37.571 52.7126 37.594 52.7126H39.0751C39.0981 52.7126 39.1165 52.7195 39.1302 52.7333C39.1486 52.7517 39.1578 52.7724 39.1578 52.7954V53.465C39.1578 53.488 39.1486 53.5087 39.1302 53.5271C39.1165 53.5409 39.0981 53.5478 39.0751 53.5478H37.594C37.571 53.5478 37.5595 53.5594 37.5595 53.5824V54.7007C37.5595 54.7237 37.571 54.7352 37.594 54.7352H39.8536C39.8766 54.7352 39.8972 54.7421 39.9156 54.7559C39.9294 54.7743 39.9363 54.795 39.9363 54.818V55.4876C39.9363 55.5106 39.9294 55.5291 39.9156 55.5429C39.8972 55.5613 39.8766 55.5705 39.8536 55.5705H36.6708C36.6479 55.5705 36.6272 55.5613 36.6088 55.5429C36.595 55.5291 36.5882 55.5106 36.5882 55.4876V50.8211C36.5882 50.7981 36.595 50.7797 36.6088 50.7659C36.6272 50.7475 36.6479 50.7383 36.6708 50.7383H39.8536C39.8766 50.7383 39.8972 50.7475 39.9156 50.7659C39.9294 50.7797 39.9363 50.7981 39.9363 50.8211V51.4907ZM43.2568 55.5705C43.2109 55.5705 43.1788 55.5498 43.1604 55.5083L42.2992 53.5962C42.2901 53.5778 42.2763 53.5686 42.2579 53.5686H41.6172C41.5943 53.5686 41.5828 53.5801 41.5828 53.6031V55.4876C41.5828 55.5106 41.5736 55.5291 41.5552 55.5429C41.5414 55.5613 41.5231 55.5705 41.5001 55.5705H40.6941C40.6711 55.5705 40.6504 55.5613 40.6321 55.5429C40.6183 55.5291 40.6114 55.5106 40.6114 55.4876V50.8211C40.6114 50.7981 40.6183 50.7797 40.6321 50.7659C40.6504 50.7475 40.6711 50.7383 40.6941 50.7383H42.6644C42.9583 50.7383 43.2155 50.7981 43.4359 50.9177C43.661 51.0374 43.8332 51.2077 43.9526 51.4286C44.0766 51.6495 44.1386 51.9049 44.1386 52.1948C44.1386 52.5078 44.0606 52.7747 43.9044 52.9956C43.7483 53.2211 43.5301 53.3799 43.2499 53.4719C43.227 53.4811 43.2201 53.4972 43.2293 53.5202L44.1662 55.4738C44.1754 55.4922 44.18 55.506 44.18 55.5152C44.18 55.5521 44.1547 55.5705 44.1042 55.5705H43.2568ZM41.6172 51.5735C41.5943 51.5735 41.5828 51.585 41.5828 51.6081V52.7885C41.5828 52.8115 41.5943 52.823 41.6172 52.823H42.5197C42.7126 52.823 42.8687 52.7655 42.9882 52.6504C43.1122 52.5354 43.1742 52.3858 43.1742 52.2017C43.1742 52.0176 43.1122 51.8658 42.9882 51.7461C42.8687 51.6311 42.7126 51.5735 42.5197 51.5735H41.6172ZM25.6827 61.1827C25.6735 61.1919 25.6712 61.2012 25.6758 61.2104C25.6804 61.2196 25.6896 61.2242 25.7033 61.2242H27.5703C27.5932 61.2242 27.6139 61.2311 27.6323 61.2449C27.6461 61.2633 27.653 61.284 27.653 61.307V61.9766C27.653 61.9996 27.6461 62.018 27.6323 62.0318C27.6139 62.0502 27.5932 62.0594 27.5703 62.0594H24.4702C24.4472 62.0594 24.4265 62.0502 24.4082 62.0318C24.3944 62.018 24.3875 61.9996 24.3875 61.9766V61.3415C24.3875 61.3001 24.4013 61.2656 24.4288 61.238C24.6539 61.0171 24.8835 60.7778 25.1178 60.52C25.352 60.2577 25.499 60.0943 25.5587 60.0299C25.6873 59.878 25.8182 59.7331 25.9513 59.595C26.3693 59.1302 26.5783 58.785 26.5783 58.5595C26.5783 58.3985 26.5208 58.265 26.406 58.1592C26.2912 58.0579 26.1419 58.0073 25.9582 58.0073C25.7745 58.0073 25.6253 58.0579 25.5104 58.1592C25.3956 58.265 25.3382 58.4031 25.3382 58.5733V58.7459C25.3382 58.7689 25.329 58.7896 25.3107 58.8081C25.2969 58.8219 25.2785 58.8288 25.2555 58.8288H24.4426C24.4197 58.8288 24.4013 58.8219 24.3875 58.8081C24.3691 58.7896 24.36 58.7689 24.36 58.7459V58.4215C24.3737 58.173 24.4518 57.9521 24.5942 57.7588C24.7366 57.5701 24.9249 57.4251 25.1591 57.3239C25.3979 57.2226 25.6643 57.172 25.9582 57.172C26.2843 57.172 26.5691 57.2318 26.8125 57.3515C27.0513 57.4757 27.2373 57.6414 27.3705 57.8485C27.4991 58.0556 27.5634 58.2857 27.5634 58.5388C27.5634 58.7321 27.5152 58.93 27.4187 59.1325C27.3223 59.335 27.1776 59.5536 26.9847 59.7883C26.8423 59.9678 26.6885 60.145 26.5231 60.3198C26.3578 60.4947 26.1121 60.7478 25.786 61.0792L25.6827 61.1827ZM29.8919 62.1354C29.3867 62.1354 28.9871 61.9927 28.6932 61.7074C28.3993 61.4267 28.2523 61.0424 28.2523 60.5546V58.7321C28.2523 58.2535 28.3993 57.8738 28.6932 57.5931C28.9871 57.3124 29.3867 57.172 29.8919 57.172C30.3971 57.172 30.799 57.3124 31.0975 57.5931C31.3915 57.8738 31.5384 58.2535 31.5384 58.7321V60.5546C31.5384 61.0424 31.3915 61.4267 31.0975 61.7074C30.799 61.9927 30.3971 62.1354 29.8919 62.1354ZM29.8919 61.3001C30.0986 61.3001 30.2639 61.2357 30.3879 61.1068C30.5073 60.9826 30.5671 60.8146 30.5671 60.6029V58.7045C30.5671 58.4928 30.5073 58.3248 30.3879 58.2006C30.2639 58.0717 30.0986 58.0073 29.8919 58.0073C29.6898 58.0073 29.5291 58.0717 29.4097 58.2006C29.2857 58.3248 29.2237 58.4928 29.2237 58.7045V60.6029C29.2237 60.8146 29.2857 60.9826 29.4097 61.1068C29.5291 61.2357 29.6898 61.3001 29.8919 61.3001ZM33.4674 61.1827C33.4582 61.1919 33.4559 61.2012 33.4605 61.2104C33.4651 61.2196 33.4743 61.2242 33.488 61.2242H35.355C35.378 61.2242 35.3986 61.2311 35.417 61.2449C35.4308 61.2633 35.4377 61.284 35.4377 61.307V61.9766C35.4377 61.9996 35.4308 62.018 35.417 62.0318C35.3986 62.0502 35.378 62.0594 35.355 62.0594H32.2549C32.2319 62.0594 32.2136 62.0502 32.1998 62.0318C32.1814 62.018 32.1722 61.9996 32.1722 61.9766V61.3415C32.1722 61.3001 32.186 61.2656 32.2136 61.238C32.4386 61.0171 32.6682 60.7778 32.9025 60.52C33.1367 60.2577 33.2837 60.0943 33.3434 60.0299C33.472 59.878 33.6029 59.7331 33.7361 59.595C34.154 59.1302 34.363 58.785 34.363 58.5595C34.363 58.3985 34.3056 58.265 34.1907 58.1592C34.0759 58.0579 33.9267 58.0073 33.7429 58.0073C33.5592 58.0073 33.41 58.0579 33.2952 58.1592C33.1803 58.265 33.1229 58.4031 33.1229 58.5733V58.7459C33.1229 58.7689 33.116 58.7896 33.1023 58.8081C33.0839 58.8219 33.0632 58.8288 33.0403 58.8288H32.2273C32.2044 58.8288 32.186 58.8219 32.1722 58.8081C32.1539 58.7896 32.1447 58.7689 32.1447 58.7459V58.4215C32.1584 58.173 32.2365 57.9521 32.3789 57.7588C32.5213 57.5701 32.7119 57.4251 32.9507 57.3239C33.1849 57.2226 33.449 57.172 33.7429 57.172C34.069 57.172 34.3538 57.2318 34.5972 57.3515C34.836 57.4757 35.022 57.6414 35.1552 57.8485C35.2838 58.0556 35.3481 58.2857 35.3481 58.5388C35.3481 58.7321 35.2999 58.93 35.2034 59.1325C35.107 59.335 34.9623 59.5536 34.7694 59.7883C34.627 59.9678 34.4732 60.145 34.3079 60.3198C34.1425 60.4947 33.8968 60.7478 33.5707 61.0792L33.4674 61.1827ZM39.4816 59.954C39.5046 59.954 39.5252 59.9609 39.5436 59.9747C39.5574 59.9931 39.5643 60.0138 39.5643 60.0368V60.734C39.5643 60.7571 39.5574 60.7778 39.5436 60.7962C39.5252 60.81 39.5046 60.8169 39.4816 60.8169H39.1854C39.1624 60.8169 39.1509 60.8284 39.1509 60.8514V61.9766C39.1509 61.9996 39.144 62.018 39.1302 62.0318C39.1119 62.0502 39.0912 62.0594 39.0682 62.0594H38.2622C38.2392 62.0594 38.2209 62.0502 38.2071 62.0318C38.1887 62.018 38.1795 61.9996 38.1795 61.9766V60.8514C38.1795 60.8284 38.1681 60.8169 38.1451 60.8169H36.0301C36.0072 60.8169 35.9888 60.81 35.975 60.7962C35.9566 60.7778 35.9475 60.7571 35.9475 60.734V60.1818C35.9475 60.1542 35.9544 60.1197 35.9681 60.0782L37.2082 57.2894C37.2265 57.2479 37.2587 57.2272 37.3046 57.2272H38.1658C38.1979 57.2272 38.2209 57.2364 38.2347 57.2548C38.2438 57.2687 38.2415 57.2917 38.2278 57.3239L37.0773 59.9126C37.0727 59.9218 37.0727 59.931 37.0773 59.9402C37.0819 59.9494 37.0888 59.954 37.0979 59.954H38.1451C38.1681 59.954 38.1795 59.9425 38.1795 59.9195V59.0635C38.1795 59.0405 38.1887 59.0221 38.2071 59.0083C38.2209 58.9898 38.2392 58.9806 38.2622 58.9806H39.0682C39.0912 58.9806 39.1119 58.9898 39.1302 59.0083C39.144 59.0221 39.1509 59.0405 39.1509 59.0635V59.9195C39.1509 59.9425 39.1624 59.954 39.1854 59.954H39.4816Z" fill="#253053"/>
</svg>
