<?xml version="1.0" encoding="UTF-8"?>
<svg width="114px" height="88px" viewBox="0 0 114 88" version="1.1" xmlns="http://www.w3.org/2000/svg" xmlns:xlink="http://www.w3.org/1999/xlink">
    <title>“</title>
    <g id="Page-1" stroke="none" stroke-width="1" fill="none" fill-rule="evenodd" opacity="0.1">
        <g id="HS-home-page-refresh-2020_test" transform="translate(-626.000000, -6991.000000)" fill="#7893BA" fill-rule="nonzero">
            <path d="M671.453376,7079 C674.019293,7079 675.118971,7077.9 675.118971,7075.33333 L675.118971,7037.2 C675.118971,7034.63333 674.019293,7033.53333 671.453376,7033.53333 L653.491961,7033.53333 L653.491961,7031.33333 C653.491961,7019.96667 657.524116,7013 674.019293,7013 C676.585209,7013 677.684887,7011.9 677.684887,7009.33333 L677.684887,6994.66667 C677.684887,6992.1 676.585209,6991 674.019293,6991 L661.55627,6991 C637.363344,6991 626,7010.43333 626,7028.4 L626,7075.33333 C626,7077.9 627.099678,7079 629.665595,7079 L671.453376,7079 Z M733.768489,7079 C736.334405,7079 737.434084,7077.9 737.434084,7075.33333 L737.434084,7037.2 C737.434084,7034.63333 736.334405,7033.53333 733.768489,7033.53333 L715.807074,7033.53333 L715.807074,7031.33333 C715.807074,7019.96667 719.839228,7013 736.334405,7013 C738.900322,7013 740,7011.9 740,7009.33333 L740,6994.66667 C740,6992.1 738.900322,6991 736.334405,6991 L723.871383,6991 C699.678457,6991 688.315113,7010.43333 688.315113,7028.4 L688.315113,7075.33333 C688.315113,7077.9 689.414791,7079 691.980707,7079 L733.768489,7079 Z" id="“"></path>
        </g>
    </g>
</svg>