<svg width="64" height="72" viewBox="0 0 64 72" fill="none" xmlns="http://www.w3.org/2000/svg">
<path d="M5.30463 55.8929L32.5167 69.7285L58.6954 55.8929V1.78967H5.30463V55.8929Z" fill="#9197A9"/>
<path d="M59.2465 1.99617L4.75349 56.8566L32.9989 70.8298L59.2465 57.4073V1.99617Z" fill="#898FA2"/>
<path d="M3.51346 20.0306V57.2696L4.47794 57.7514L31.69 71.587L32.5167 72L33.3434 71.587L59.591 57.7514L60.5554 57.2696V0.206497H3.51346V20.0306ZM5.30463 56.2371V1.99617H58.7643V56.2371L32.5167 70.0727L5.30463 56.2371Z" fill="#4D5672"/>
<path d="M32.0344 2.68451C32.31 2.68451 32.5856 2.68451 32.8611 2.75335L32.0344 4.33652C30.7944 4.26769 29.6921 5.23136 29.6233 6.47036C29.5544 7.70937 30.5188 8.81071 31.7589 8.87954H32.0344C32.5856 8.87954 33.1367 8.67304 33.5501 8.32887L34.4456 9.84321C33.7567 10.325 32.93 10.6004 32.0344 10.6004C29.8299 10.6692 27.9699 9.01721 27.901 6.81453C27.8321 4.61186 29.4855 2.75335 31.69 2.68451H32.0344ZM34.859 6.05736L35.8924 7.7782L34.859 9.43021L33.8945 7.7782H31.8967L32.93 6.05736H34.859ZM33.2056 5.43786C33.2056 5.16252 33.2745 4.88719 33.4123 4.68069C33.5501 4.47419 33.8256 4.26769 34.0323 4.13002L34.1701 4.06119C34.4456 3.92352 34.5145 3.85468 34.5145 3.71702C34.5145 3.57935 34.3079 3.44168 34.1701 3.44168C33.8945 3.44168 33.6878 3.57935 33.5501 3.85468L33.2056 3.51052C33.2745 3.37285 33.4123 3.23518 33.5501 3.09751C33.7567 2.95985 33.9634 2.95985 34.1701 2.95985C34.3767 2.95985 34.6523 3.02868 34.7901 3.16635C34.9279 3.30402 35.0657 3.51052 35.0657 3.71702C35.0657 4.06119 34.859 4.33652 34.4456 4.47419L34.239 4.61185C34.0323 4.74952 33.8945 4.81836 33.8256 5.02486H35.0657V5.50669L33.2056 5.43786ZM32.0344 14.0421L38.5791 10.325V0H25.4209V10.2562L32.0344 14.0421Z" fill="#4D5672"/>
<path d="M61.8644 38.4092H2.20452L0 43.2275L2.20452 48.0459H61.8644L64 43.2275L61.8644 38.4092Z" fill="#4D5672"/>
<path d="M19.3791 35.3117C19.324 35.3117 19.2896 35.2841 19.2758 35.2291L19.0278 34.4168C19.014 34.3985 19.0002 34.3893 18.9864 34.3893H16.9473C16.9335 34.3893 16.9197 34.3985 16.9059 34.4168L16.6717 35.2291C16.6533 35.2841 16.6166 35.3117 16.5615 35.3117H15.5143C15.4776 35.3117 15.4523 35.3025 15.4385 35.2841C15.4202 35.2658 15.4179 35.2359 15.4317 35.1946L17.2159 29.6122C17.2297 29.5572 17.2642 29.5296 17.3193 29.5296H18.6213C18.6764 29.5296 18.7109 29.5572 18.7247 29.6122L20.5158 35.1946C20.5204 35.2084 20.5227 35.2222 20.5227 35.2359C20.5227 35.2864 20.4929 35.3117 20.4332 35.3117H19.3791ZM17.209 33.4394C17.1999 33.4715 17.209 33.4876 17.2366 33.4876H18.6971C18.7292 33.4876 18.7384 33.4715 18.7247 33.4394L17.9806 30.982C17.976 30.9591 17.9691 30.9499 17.96 30.9545C17.9462 30.9591 17.937 30.9683 17.9324 30.982L17.209 33.4394ZM23.671 29.626C23.671 29.5985 23.6802 29.5755 23.6986 29.5572C23.717 29.5388 23.7399 29.5296 23.7675 29.5296H24.7389C24.7664 29.5296 24.7894 29.5388 24.8078 29.5572C24.8261 29.5755 24.8353 29.5985 24.8353 29.626V35.2153C24.8353 35.2428 24.8261 35.2658 24.8078 35.2841C24.7894 35.3025 24.7664 35.3117 24.7389 35.3117H23.7675C23.7399 35.3117 23.717 35.3025 23.6986 35.2841C23.6802 35.2658 23.671 35.2428 23.671 35.2153V34.94C23.671 34.9216 23.6665 34.9124 23.6573 34.9124C23.6435 34.9078 23.632 34.9124 23.6228 34.9262C23.3886 35.2291 23.0717 35.3805 22.6721 35.3805C22.2863 35.3805 21.9534 35.2726 21.6732 35.057C21.3976 34.8413 21.1979 34.5453 21.0738 34.169C20.982 33.8845 20.9361 33.5518 20.9361 33.1709C20.9361 32.7809 20.9843 32.439 21.0807 32.1453C21.2093 31.7965 21.4091 31.5189 21.6801 31.3124C21.9557 31.1059 22.2932 31.0027 22.6928 31.0027C23.0924 31.0027 23.4024 31.1403 23.6228 31.4157C23.632 31.4294 23.6435 31.434 23.6573 31.4294C23.6665 31.4248 23.671 31.4134 23.671 31.395V29.626ZM23.4988 34.0245C23.609 33.818 23.6642 33.5403 23.6642 33.1916C23.6642 32.8199 23.6022 32.5308 23.4782 32.3243C23.3541 32.1086 23.1704 32.0008 22.927 32.0008C22.6698 32.0008 22.4746 32.1086 22.3414 32.3243C22.2037 32.5354 22.1348 32.8268 22.1348 33.1985C22.1348 33.5289 22.1922 33.8042 22.307 34.0245C22.4448 34.2585 22.6492 34.3755 22.9201 34.3755C23.1681 34.3755 23.361 34.2585 23.4988 34.0245ZM27.591 35.3805C27.1271 35.3805 26.7298 35.2589 26.3991 35.0157C26.0685 34.7725 25.8434 34.4421 25.724 34.0245C25.6459 33.7629 25.6069 33.4807 25.6069 33.1778C25.6069 32.8566 25.6459 32.5652 25.724 32.3036C25.848 31.8952 26.0754 31.5763 26.406 31.3468C26.7367 31.1174 27.134 31.0027 27.5979 31.0027C28.0479 31.0027 28.4337 31.1151 28.7552 31.34C29.0767 31.5694 29.3018 31.8883 29.4304 32.2967C29.5222 32.5721 29.5681 32.8612 29.5681 33.164C29.5681 33.4623 29.5291 33.74 29.451 33.9969C29.327 34.4283 29.102 34.7656 28.7759 35.0088C28.4498 35.2566 28.0548 35.3805 27.591 35.3805ZM27.591 34.3755C27.7701 34.3755 27.9239 34.3205 28.0525 34.2103C28.1811 34.1002 28.273 33.9487 28.3281 33.756C28.3694 33.5816 28.3901 33.3889 28.3901 33.1778C28.3901 32.9484 28.3694 32.7533 28.3281 32.5927C28.2638 32.4046 28.1697 32.26 28.0456 32.1591C27.917 32.0535 27.7632 32.0008 27.5841 32.0008C27.3958 32.0008 27.2396 32.0535 27.1156 32.1591C26.9916 32.26 26.9021 32.4046 26.8469 32.5927C26.801 32.7258 26.778 32.9208 26.778 33.1778C26.778 33.4256 26.7987 33.6183 26.84 33.756C26.8952 33.9487 26.987 34.1002 27.1156 34.2103C27.2442 34.3205 27.4027 34.3755 27.591 34.3755ZM34.115 32.2073C34.2114 32.4872 34.2596 32.8176 34.2596 33.1985C34.2596 33.5793 34.2068 33.9235 34.1012 34.231C33.9772 34.5843 33.7774 34.8642 33.5018 35.0707C33.2309 35.2772 32.8933 35.3805 32.4891 35.3805C32.0942 35.3805 31.7864 35.2428 31.566 34.9675C31.5568 34.9491 31.5453 34.9422 31.5315 34.9468C31.5224 34.9514 31.5178 34.9629 31.5178 34.9813V36.7503C31.5178 36.7778 31.5086 36.8008 31.4902 36.8191C31.4672 36.8375 31.442 36.8466 31.4144 36.8466H30.45C30.4224 36.8466 30.3994 36.8375 30.3811 36.8191C30.3627 36.8008 30.3535 36.7778 30.3535 36.7503V31.1679C30.3535 31.1403 30.3627 31.1151 30.3811 31.0922C30.3994 31.0738 30.4224 31.0646 30.45 31.0646H31.4144C31.442 31.0646 31.4672 31.0738 31.4902 31.0922C31.5086 31.1151 31.5178 31.1403 31.5178 31.1679V31.4363C31.5178 31.4547 31.5224 31.4639 31.5315 31.4639C31.5453 31.4684 31.5568 31.4661 31.566 31.457C31.7956 31.1541 32.1148 31.0027 32.5236 31.0027C32.9048 31.0027 33.2355 31.1082 33.5156 31.3193C33.7912 31.5304 33.991 31.8264 34.115 32.2073ZM32.8474 34.0589C32.9852 33.8432 33.054 33.5495 33.054 33.1778C33.054 32.8336 32.9966 32.5583 32.8818 32.3518C32.7532 32.1178 32.5488 32.0008 32.2687 32.0008C32.0161 32.0008 31.8255 32.1178 31.6969 32.3518C31.5821 32.5537 31.5247 32.8336 31.5247 33.1916C31.5247 33.5587 31.5844 33.8432 31.7038 34.0451C31.8324 34.2654 32.0207 34.3755 32.2687 34.3755C32.5167 34.3755 32.7096 34.27 32.8474 34.0589ZM37.4493 31.8975C37.4493 31.925 37.4401 31.9503 37.4218 31.9732C37.4034 31.9916 37.3804 32.0008 37.3529 32.0008H36.5606C36.5331 32.0008 36.5193 32.0145 36.5193 32.0421V33.7904C36.5193 33.974 36.556 34.1094 36.6295 34.1965C36.703 34.2837 36.8224 34.3273 36.9877 34.3273H37.2633C37.2909 34.3273 37.3138 34.3365 37.3322 34.3549C37.3506 34.3778 37.3597 34.4031 37.3597 34.4306V35.2153C37.3597 35.2749 37.3276 35.3094 37.2633 35.3185C37.0291 35.3323 36.8637 35.3392 36.7673 35.3392C36.308 35.3392 35.9658 35.2635 35.7408 35.112C35.5158 34.9606 35.4009 34.6738 35.3963 34.2516V32.0421C35.3963 32.0145 35.3826 32.0008 35.355 32.0008H34.8797C34.8521 32.0008 34.8291 31.9916 34.8108 31.9732C34.7924 31.9503 34.7832 31.925 34.7832 31.8975V31.1679C34.7832 31.1403 34.7924 31.1151 34.8108 31.0922C34.8291 31.0738 34.8521 31.0646 34.8797 31.0646H35.355C35.3826 31.0646 35.3963 31.0509 35.3963 31.0233V30.039C35.3963 30.0115 35.4055 29.9885 35.4239 29.9702C35.4423 29.9518 35.4652 29.9426 35.4928 29.9426H36.4159C36.4435 29.9426 36.4688 29.9518 36.4917 29.9702C36.5101 29.9885 36.5193 30.0115 36.5193 30.039V31.0233C36.5193 31.0509 36.5331 31.0646 36.5606 31.0646H37.3529C37.3804 31.0646 37.4034 31.0738 37.4218 31.0922C37.4401 31.1151 37.4493 31.1403 37.4493 31.1679V31.8975ZM38.7858 30.5897C38.5975 30.5897 38.4413 30.5277 38.3173 30.4038C38.1933 30.2799 38.1313 30.1239 38.1313 29.9357C38.1313 29.743 38.191 29.5847 38.3104 29.4608C38.4345 29.3415 38.5929 29.2818 38.7858 29.2818C38.9787 29.2818 39.1348 29.3415 39.2543 29.4608C39.3737 29.5847 39.4334 29.743 39.4334 29.9357C39.4334 30.1239 39.3714 30.2799 39.2474 30.4038C39.1234 30.5277 38.9695 30.5897 38.7858 30.5897ZM38.2898 35.3117C38.2622 35.3117 38.237 35.3025 38.214 35.2841C38.1956 35.2658 38.1864 35.2428 38.1864 35.2153V31.1541C38.1864 31.1266 38.1956 31.1036 38.214 31.0853C38.237 31.0669 38.2622 31.0577 38.2898 31.0577H39.2543C39.2818 31.0577 39.3048 31.0669 39.3231 31.0853C39.3415 31.1036 39.3507 31.1266 39.3507 31.1541V35.2153C39.3507 35.2428 39.3415 35.2658 39.3231 35.2841C39.3048 35.3025 39.2818 35.3117 39.2543 35.3117H38.2898ZM42.1408 35.3805C41.6769 35.3805 41.2797 35.2589 40.949 35.0157C40.6183 34.7725 40.3933 34.4421 40.2738 34.0245C40.1958 33.7629 40.1567 33.4807 40.1567 33.1778C40.1567 32.8566 40.1958 32.5652 40.2738 32.3036C40.3979 31.8952 40.6252 31.5763 40.9559 31.3468C41.2865 31.1174 41.6838 31.0027 42.1477 31.0027C42.5978 31.0027 42.9836 31.1151 43.3051 31.34C43.6266 31.5694 43.8516 31.8883 43.9802 32.2967C44.0721 32.5721 44.118 32.8612 44.118 33.164C44.118 33.4623 44.0789 33.74 44.0009 33.9969C43.8769 34.4283 43.6518 34.7656 43.3257 35.0088C42.9996 35.2566 42.6047 35.3805 42.1408 35.3805ZM42.1408 34.3755C42.3199 34.3755 42.4738 34.3205 42.6024 34.2103C42.731 34.1002 42.8228 33.9487 42.8779 33.756C42.9193 33.5816 42.9399 33.3889 42.9399 33.1778C42.9399 32.9484 42.9193 32.7533 42.8779 32.5927C42.8136 32.4046 42.7195 32.26 42.5955 32.1591C42.4669 32.0535 42.313 32.0008 42.1339 32.0008C41.9456 32.0008 41.7895 32.0535 41.6655 32.1591C41.5415 32.26 41.4519 32.4046 41.3968 32.5927C41.3508 32.7258 41.3279 32.9208 41.3279 33.1778C41.3279 33.4256 41.3486 33.6183 41.3899 33.756C41.445 33.9487 41.5369 34.1002 41.6655 34.2103C41.7941 34.3205 41.9525 34.3755 42.1408 34.3755ZM47.0803 31.0027C47.5212 31.0027 47.8772 31.1357 48.1481 31.4019C48.4191 31.6726 48.5546 32.0398 48.5546 32.5032V35.2153C48.5546 35.2428 48.5454 35.2658 48.527 35.2841C48.5087 35.3025 48.4857 35.3117 48.4581 35.3117H47.4868C47.4592 35.3117 47.4362 35.3025 47.4179 35.2841C47.3995 35.2658 47.3903 35.2428 47.3903 35.2153V32.7442C47.3903 32.5239 47.3283 32.3449 47.2043 32.2073C47.0803 32.0696 46.915 32.0008 46.7083 32.0008C46.5062 32.0008 46.3432 32.0696 46.2192 32.2073C46.0952 32.3449 46.0332 32.5239 46.0332 32.7442V35.2153C46.0332 35.2428 46.024 35.2658 46.0056 35.2841C45.9872 35.3025 45.9643 35.3117 45.9367 35.3117H44.9653C44.9378 35.3117 44.9148 35.3025 44.8965 35.2841C44.8781 35.2658 44.8689 35.2428 44.8689 35.2153V31.1679C44.8689 31.1403 44.8781 31.1151 44.8965 31.0922C44.9148 31.0738 44.9378 31.0646 44.9653 31.0646H45.9367C45.9643 31.0646 45.9872 31.0738 46.0056 31.0922C46.024 31.1151 46.0332 31.1403 46.0332 31.1679V31.457C46.0332 31.4707 46.0378 31.4799 46.0469 31.4845C46.0607 31.4937 46.0699 31.4914 46.0745 31.4776C46.2995 31.161 46.6348 31.0027 47.0803 31.0027ZM11.8217 21.366C11.8217 21.3384 11.8309 21.3155 11.8493 21.2971C11.8677 21.2788 11.8906 21.2696 11.9182 21.2696H12.8827C12.9102 21.2696 12.9355 21.2788 12.9585 21.2971C12.9768 21.3155 12.986 21.3384 12.986 21.366V26.9552C12.986 26.9828 12.9768 27.0057 12.9585 27.0241C12.9355 27.0424 12.9102 27.0516 12.8827 27.0516H11.9182C11.8906 27.0516 11.8677 27.0424 11.8493 27.0241C11.8309 27.0057 11.8217 26.9828 11.8217 26.9552V24.67C11.8217 24.6424 11.808 24.6287 11.7804 24.6287H9.94791C9.92035 24.6287 9.90657 24.6424 9.90657 24.67V26.9552C9.90657 26.9828 9.89739 27.0057 9.87902 27.0241C9.86064 27.0424 9.83768 27.0516 9.81012 27.0516H8.84565C8.81809 27.0516 8.79283 27.0424 8.76987 27.0241C8.7515 27.0057 8.74231 26.9828 8.74231 26.9552V21.366C8.74231 21.3384 8.7515 21.3155 8.76987 21.2971C8.79283 21.2788 8.81809 21.2696 8.84565 21.2696H9.81012C9.83768 21.2696 9.86064 21.2788 9.87902 21.2971C9.89739 21.3155 9.90657 21.3384 9.90657 21.366V23.5893C9.90657 23.6168 9.92035 23.6306 9.94791 23.6306H11.7804C11.808 23.6306 11.8217 23.6168 11.8217 23.5893V21.366ZM14.4878 22.3296C14.2995 22.3296 14.1434 22.2677 14.0194 22.1438C13.8954 22.0199 13.8334 21.8639 13.8334 21.6757C13.8334 21.483 13.8954 21.3247 14.0194 21.2008C14.1388 21.0814 14.2949 21.0218 14.4878 21.0218C14.6807 21.0218 14.8392 21.0814 14.9632 21.2008C15.0826 21.3247 15.1423 21.483 15.1423 21.6757C15.1423 21.8639 15.0803 22.0199 14.9563 22.1438C14.8323 22.2677 14.6761 22.3296 14.4878 22.3296ZM13.9918 27.0516C13.9643 27.0516 13.9413 27.0424 13.9229 27.0241C13.9046 27.0057 13.8954 26.9828 13.8954 26.9552V22.8941C13.8954 22.8665 13.9046 22.8436 13.9229 22.8252C13.9413 22.8069 13.9643 22.7977 13.9918 22.7977H14.9632C14.9907 22.7977 15.0137 22.8069 15.0321 22.8252C15.0505 22.8436 15.0596 22.8665 15.0596 22.8941V26.9552C15.0596 26.9828 15.0505 27.0057 15.0321 27.0241C15.0137 27.0424 14.9907 27.0516 14.9632 27.0516H13.9918ZM18.5662 22.9078C18.5662 22.8803 18.5754 22.8551 18.5938 22.8321C18.6121 22.8138 18.6351 22.8046 18.6627 22.8046H19.634C19.6616 22.8046 19.6845 22.8138 19.7029 22.8321C19.7213 22.8551 19.7305 22.8803 19.7305 22.9078V26.673C19.7305 27.3935 19.5215 27.9074 19.1036 28.2149C18.6902 28.5224 18.1552 28.6761 17.4984 28.6761C17.3055 28.6761 17.0896 28.6623 16.8508 28.6348C16.7957 28.6302 16.7681 28.5958 16.7681 28.5315L16.8026 27.678C16.8026 27.6092 16.8416 27.5793 16.9197 27.5885C17.1172 27.6206 17.2986 27.6367 17.4639 27.6367C17.8176 27.6367 18.0886 27.561 18.2769 27.4096C18.4698 27.2535 18.5662 27.0057 18.5662 26.6661C18.5662 26.6478 18.5593 26.6363 18.5455 26.6317C18.5364 26.6317 18.5272 26.6363 18.518 26.6455C18.3067 26.8704 17.999 26.9828 17.5948 26.9828C17.2366 26.9828 16.9082 26.8979 16.6097 26.7281C16.3112 26.5537 16.0976 26.2738 15.969 25.8883C15.8863 25.6359 15.845 25.3078 15.845 24.904C15.845 24.4726 15.8955 24.1239 15.9966 23.8577C16.1114 23.5182 16.3066 23.2474 16.5821 23.0455C16.8577 22.8436 17.1769 22.7426 17.5397 22.7426C17.9623 22.7426 18.2883 22.8688 18.518 23.1212C18.5272 23.1304 18.5364 23.135 18.5455 23.135C18.5593 23.1304 18.5662 23.1189 18.5662 23.1006V22.9078ZM18.4973 25.5717C18.5432 25.4065 18.5662 25.1816 18.5662 24.8971C18.5662 24.7273 18.5593 24.5943 18.5455 24.4979C18.5364 24.4061 18.518 24.3189 18.4904 24.2363C18.4399 24.0849 18.3572 23.9656 18.2424 23.8784C18.1276 23.7866 17.9852 23.7407 17.8153 23.7407C17.65 23.7407 17.5076 23.7866 17.3882 23.8784C17.2733 23.9656 17.1884 24.0849 17.1333 24.2363C17.0552 24.4015 17.0162 24.6241 17.0162 24.904C17.0162 25.2115 17.0506 25.4317 17.1195 25.5648C17.17 25.7117 17.2573 25.831 17.3813 25.9227C17.5053 26.0145 17.6522 26.0604 17.8222 26.0604C17.9967 26.0604 18.1414 26.0145 18.2562 25.9227C18.3756 25.831 18.456 25.7139 18.4973 25.5717ZM22.7824 22.7426C23.2233 22.7426 23.5792 22.8757 23.8502 23.1419C24.1165 23.4126 24.2497 23.7797 24.2497 24.2432V26.9552C24.2497 26.9828 24.2406 27.0057 24.2222 27.0241C24.2038 27.0424 24.1808 27.0516 24.1533 27.0516H23.1888C23.1613 27.0516 23.136 27.0424 23.113 27.0241C23.0947 27.0057 23.0855 26.9828 23.0855 26.9552V24.4841C23.0855 24.2639 23.0235 24.0849 22.8995 23.9472C22.7755 23.8096 22.6124 23.7407 22.4103 23.7407C22.2037 23.7407 22.0383 23.8096 21.9143 23.9472C21.7903 24.0849 21.7283 24.2639 21.7283 24.4841V26.9552C21.7283 26.9828 21.7191 27.0057 21.7008 27.0241C21.6824 27.0424 21.6594 27.0516 21.6319 27.0516H20.6674C20.6398 27.0516 20.6146 27.0424 20.5916 27.0241C20.5732 27.0057 20.5641 26.9828 20.5641 26.9552V21.366C20.5641 21.3384 20.5732 21.3155 20.5916 21.2971C20.6146 21.2788 20.6398 21.2696 20.6674 21.2696H21.6319C21.6594 21.2696 21.6824 21.2788 21.7008 21.2971C21.7191 21.3155 21.7283 21.3384 21.7283 21.366V23.1969C21.7283 23.2107 21.7352 23.2199 21.749 23.2245C21.7582 23.2336 21.7651 23.2313 21.7697 23.2176C21.9993 22.9009 22.3369 22.7426 22.7824 22.7426ZM28.8241 24.491C28.8563 24.7021 28.8678 24.9361 28.8586 25.1931C28.854 25.2574 28.8172 25.2895 28.7483 25.2895H26.1925C26.1603 25.2895 26.1511 25.3032 26.1649 25.3308C26.1787 25.4409 26.2085 25.551 26.2545 25.6612C26.3968 25.9732 26.6885 26.1292 27.1294 26.1292C27.483 26.1201 27.7609 25.9755 27.963 25.6956C27.9859 25.6635 28.0112 25.6474 28.0388 25.6474C28.0571 25.6474 28.0755 25.6589 28.0939 25.6818L28.6932 26.2669C28.7208 26.2944 28.7346 26.3197 28.7346 26.3426C28.7346 26.3518 28.7231 26.3725 28.7001 26.4046C28.5164 26.634 28.2822 26.8107 27.9974 26.9346C27.7127 27.0585 27.3981 27.1204 27.0536 27.1204C26.5806 27.1204 26.181 27.0126 25.8549 26.7969C25.5242 26.5813 25.2877 26.2807 25.1453 25.8952C25.0305 25.6199 24.9731 25.2596 24.9731 24.8145C24.9731 24.5117 25.0144 24.2432 25.0971 24.0092C25.2211 23.6191 25.4416 23.3094 25.7585 23.0799C26.0754 22.8459 26.452 22.7289 26.8883 22.7289C27.4394 22.7289 27.8826 22.8895 28.2179 23.2107C28.5486 23.5319 28.7506 23.9587 28.8241 24.491ZM26.8952 23.7407C26.5507 23.7407 26.3234 23.9036 26.2131 24.2294C26.1902 24.2983 26.1695 24.3855 26.1511 24.491C26.1511 24.5185 26.1649 24.5323 26.1925 24.5323H27.6254C27.6576 24.5323 27.669 24.5185 27.6599 24.491C27.6323 24.3304 27.6185 24.2524 27.6185 24.257C27.568 24.0918 27.4807 23.9656 27.3567 23.8784C27.2327 23.7866 27.0789 23.7407 26.8952 23.7407ZM31.2146 27.1067C30.8426 27.1067 30.5188 27.0562 30.2433 26.9552C29.9677 26.8497 29.7541 26.7029 29.6026 26.5147C29.451 26.3266 29.3752 26.1155 29.3752 25.8814V25.7988C29.3752 25.7713 29.3867 25.7461 29.4097 25.7231C29.4281 25.7048 29.451 25.6956 29.4786 25.6956H30.3948C30.4224 25.6956 30.4454 25.7048 30.4637 25.7231C30.4821 25.7461 30.4913 25.7713 30.4913 25.7988V25.8057C30.4913 25.925 30.5602 26.0283 30.698 26.1155C30.8312 26.1981 31.0011 26.2394 31.2078 26.2394C31.3915 26.2394 31.543 26.2027 31.6624 26.1292C31.7773 26.0558 31.8347 25.964 31.8347 25.8539C31.8347 25.753 31.7841 25.6795 31.6831 25.6336C31.5867 25.5832 31.4236 25.5304 31.194 25.4753C30.9368 25.4065 30.7347 25.3422 30.5877 25.2826C30.2341 25.1633 29.9516 25.0141 29.7404 24.8352C29.5337 24.6608 29.4304 24.4084 29.4304 24.078C29.4304 23.6696 29.5888 23.3461 29.9057 23.1074C30.2226 22.8688 30.6428 22.7495 31.1664 22.7495C31.5155 22.7495 31.8232 22.8046 32.0896 22.9147C32.3559 23.0294 32.5603 23.1878 32.7027 23.3897C32.8497 23.5962 32.9231 23.8279 32.9231 24.0849C32.9231 24.1124 32.914 24.1354 32.8956 24.1537C32.8772 24.1767 32.8543 24.1881 32.8267 24.1881H31.938C31.9104 24.1881 31.8875 24.1767 31.8691 24.1537C31.8507 24.1354 31.8416 24.1124 31.8416 24.0849C31.8416 23.9656 31.7796 23.8646 31.6555 23.782C31.5315 23.6994 31.3685 23.6581 31.1664 23.6581C30.9827 23.6581 30.8334 23.6902 30.7186 23.7545C30.6038 23.8233 30.5464 23.9151 30.5464 24.0298C30.5464 24.14 30.6015 24.2226 30.7117 24.2776C30.8266 24.3327 31.0149 24.39 31.2766 24.4497C31.3409 24.4681 31.4098 24.4864 31.4833 24.5048C31.5614 24.5231 31.6441 24.5461 31.7313 24.5736C32.1263 24.6883 32.4363 24.8375 32.6614 25.021C32.8864 25.2 32.9989 25.4639 32.9989 25.8126C32.9989 26.221 32.8382 26.54 32.5167 26.7694C32.1952 26.9943 31.7612 27.1067 31.2146 27.1067ZM36.099 23.6375C36.099 23.665 36.0899 23.6902 36.0715 23.7132C36.0531 23.7315 36.0301 23.7407 36.0026 23.7407H35.2035C35.1759 23.7407 35.1621 23.7545 35.1621 23.782V25.5304C35.1621 25.7139 35.2012 25.8493 35.2792 25.9365C35.3527 26.0237 35.4721 26.0673 35.6375 26.0673H35.9061C35.9337 26.0673 35.959 26.0765 35.9819 26.0948C36.0003 26.1178 36.0095 26.143 36.0095 26.1705V26.9552C36.0095 27.0149 35.975 27.0493 35.9061 27.0585C35.6765 27.0723 35.5112 27.0792 35.4101 27.0792C34.9554 27.0792 34.6156 27.0034 34.3905 26.852C34.1609 26.7006 34.0438 26.4138 34.0392 25.9916V23.782C34.0392 23.7545 34.0254 23.7407 33.9979 23.7407H33.5294C33.5018 23.7407 33.4789 23.7315 33.4605 23.7132C33.4375 23.6902 33.4261 23.665 33.4261 23.6375V22.9078C33.4261 22.8803 33.4375 22.8551 33.4605 22.8321C33.4789 22.8138 33.5018 22.8046 33.5294 22.8046H33.9979C34.0254 22.8046 34.0392 22.7908 34.0392 22.7633V21.779C34.0392 21.7514 34.0484 21.7285 34.0667 21.7101C34.0897 21.6918 34.115 21.6826 34.1425 21.6826H35.0657C35.0932 21.6826 35.1162 21.6918 35.1346 21.7101C35.1529 21.7285 35.1621 21.7514 35.1621 21.779V22.7633C35.1621 22.7908 35.1759 22.8046 35.2035 22.8046H36.0026C36.0301 22.8046 36.0531 22.8138 36.0715 22.8321C36.0899 22.8551 36.099 22.8803 36.099 22.9078V23.6375ZM40.6321 27.1204C40.205 27.1204 39.8306 27.0379 39.5092 26.8726C39.1877 26.7074 38.9374 26.4734 38.7582 26.1705C38.5791 25.8723 38.4896 25.5281 38.4896 25.138V21.366C38.4896 21.3384 38.4988 21.3155 38.5171 21.2971C38.5355 21.2788 38.5585 21.2696 38.586 21.2696H39.5574C39.5849 21.2696 39.6079 21.2788 39.6263 21.2971C39.6446 21.3155 39.6538 21.3384 39.6538 21.366V25.1449C39.6538 25.434 39.7434 25.6681 39.9225 25.847C40.1016 26.026 40.3381 26.1155 40.6321 26.1155C40.9214 26.1155 41.1557 26.026 41.3348 25.847C41.5139 25.6681 41.6035 25.434 41.6035 25.1449V21.366C41.6035 21.3384 41.6126 21.3155 41.631 21.2971C41.654 21.2788 41.6792 21.2696 41.7068 21.2696H42.6713C42.6988 21.2696 42.7218 21.2788 42.7402 21.2971C42.7585 21.3155 42.7677 21.3384 42.7677 21.366V25.138C42.7677 25.5281 42.6782 25.8723 42.499 26.1705C42.3199 26.4734 42.0696 26.7074 41.7481 26.8726C41.4266 27.0379 41.0546 27.1204 40.6321 27.1204ZM45.3511 27.1067C44.9791 27.1067 44.6553 27.0562 44.3798 26.9552C44.1042 26.8497 43.8906 26.7029 43.7391 26.5147C43.5875 26.3266 43.5117 26.1155 43.5117 25.8814V25.7988C43.5117 25.7713 43.5232 25.7461 43.5462 25.7231C43.5646 25.7048 43.5875 25.6956 43.6151 25.6956H44.5313C44.5589 25.6956 44.5818 25.7048 44.6002 25.7231C44.6186 25.7461 44.6278 25.7713 44.6278 25.7988V25.8057C44.6278 25.925 44.6967 26.0283 44.8345 26.1155C44.9676 26.1981 45.1376 26.2394 45.3442 26.2394C45.528 26.2394 45.6795 26.2027 45.7989 26.1292C45.9137 26.0558 45.9712 25.964 45.9712 25.8539C45.9712 25.753 45.9206 25.6795 45.8196 25.6336C45.7232 25.5832 45.5601 25.5304 45.3305 25.4753C45.0733 25.4065 44.8712 25.3422 44.7242 25.2826C44.3706 25.1633 44.0881 25.0141 43.8769 24.8352C43.6702 24.6608 43.5669 24.4084 43.5669 24.078C43.5669 23.6696 43.7253 23.3461 44.0422 23.1074C44.3591 22.8688 44.7793 22.7495 45.3029 22.7495C45.652 22.7495 45.9597 22.8046 46.2261 22.9147C46.4924 23.0294 46.6968 23.1878 46.8392 23.3897C46.9862 23.5962 47.0596 23.8279 47.0596 24.0849C47.0596 24.1124 47.0505 24.1354 47.0321 24.1537C47.0137 24.1767 46.9907 24.1881 46.9632 24.1881H46.0745C46.0469 24.1881 46.024 24.1767 46.0056 24.1537C45.9872 24.1354 45.978 24.1124 45.978 24.0849C45.978 23.9656 45.916 23.8646 45.792 23.782C45.668 23.6994 45.505 23.6581 45.3029 23.6581C45.1192 23.6581 44.9699 23.6902 44.8551 23.7545C44.7403 23.8233 44.6829 23.9151 44.6829 24.0298C44.6829 24.14 44.738 24.2226 44.8482 24.2776C44.963 24.3327 45.1514 24.39 45.4131 24.4497C45.4774 24.4681 45.5463 24.4864 45.6198 24.5048C45.6979 24.5231 45.7806 24.5461 45.8678 24.5736C46.2628 24.6883 46.5728 24.8375 46.7979 25.021C47.0229 25.2 47.1354 25.4639 47.1354 25.8126C47.1354 26.221 46.9747 26.54 46.6532 26.7694C46.3317 26.9943 45.8977 27.1067 45.3511 27.1067ZM51.5651 24.491C51.5973 24.7021 51.6088 24.9361 51.5996 25.1931C51.595 25.2574 51.5582 25.2895 51.4893 25.2895H48.9404C48.9036 25.2895 48.8921 25.3032 48.9059 25.3308C48.9197 25.4409 48.9496 25.551 48.9955 25.6612C49.1379 25.9732 49.4295 26.1292 49.8704 26.1292C50.224 26.1201 50.5019 25.9755 50.704 25.6956C50.727 25.6635 50.7522 25.6474 50.7798 25.6474C50.7981 25.6474 50.8188 25.6589 50.8418 25.6818L51.4342 26.2669C51.4618 26.2944 51.4756 26.3197 51.4756 26.3426C51.4756 26.3518 51.4641 26.3725 51.4411 26.4046C51.262 26.634 51.0278 26.8107 50.7384 26.9346C50.4537 27.0585 50.1391 27.1204 49.7946 27.1204C49.3216 27.1204 48.922 27.0126 48.5959 26.7969C48.2652 26.5813 48.0287 26.2807 47.8863 25.8952C47.7715 25.6199 47.7141 25.2596 47.7141 24.8145C47.7141 24.5117 47.7554 24.2432 47.8381 24.0092C47.9667 23.6191 48.1895 23.3094 48.5064 23.0799C48.8233 22.8459 49.1976 22.7289 49.6293 22.7289C50.1804 22.7289 50.6236 22.8895 50.9589 23.2107C51.2942 23.5319 51.4962 23.9587 51.5651 24.491ZM49.6431 23.7407C49.294 23.7407 49.0644 23.9036 48.9542 24.2294C48.9312 24.2983 48.9128 24.3855 48.899 24.491C48.899 24.5185 48.9128 24.5323 48.9404 24.5323H50.3664C50.3986 24.5323 50.41 24.5185 50.4009 24.491C50.3733 24.3304 50.3595 24.2524 50.3595 24.257C50.309 24.0918 50.2218 23.9656 50.0977 23.8784C49.9737 23.7866 49.8222 23.7407 49.6431 23.7407ZM54.4379 22.7495C54.6354 22.7495 54.7915 22.7885 54.9064 22.8665C54.9523 22.8849 54.9684 22.9262 54.9546 22.9904L54.7824 23.9266C54.7778 23.9954 54.7387 24.0161 54.6652 23.9885C54.5826 23.961 54.4861 23.9472 54.3759 23.9472C54.3346 23.9472 54.2748 23.9518 54.1968 23.961C53.9993 23.9793 53.8317 24.0528 53.6939 24.1813C53.5561 24.3097 53.4872 24.4818 53.4872 24.6975V26.9552C53.4872 26.9828 53.4757 27.0057 53.4527 27.0241C53.4344 27.0424 53.4114 27.0516 53.3839 27.0516H52.4194C52.3918 27.0516 52.3689 27.0424 52.3505 27.0241C52.3275 27.0057 52.316 26.9828 52.316 26.9552V22.9078C52.316 22.8803 52.3275 22.8551 52.3505 22.8321C52.3689 22.8138 52.3918 22.8046 52.4194 22.8046H53.3839C53.4114 22.8046 53.4344 22.8138 53.4527 22.8321C53.4757 22.8551 53.4872 22.8803 53.4872 22.9078V23.2176C53.4872 23.2359 53.4918 23.2474 53.501 23.252C53.5102 23.2566 53.5193 23.2543 53.5285 23.2451C53.7536 22.9147 54.0567 22.7495 54.4379 22.7495Z" fill="#253053"/>
<path d="M11.3671 45.9671C11.0088 45.9671 10.6965 45.9097 10.4301 45.795C10.1638 45.6803 9.95709 45.5197 9.81012 45.3132C9.66775 45.1067 9.59656 44.8635 9.59656 44.5835V44.4115C9.59656 44.3885 9.60574 44.3679 9.62411 44.3495C9.63789 44.3357 9.65626 44.3289 9.67923 44.3289H10.2924C10.3153 44.3289 10.336 44.3357 10.3544 44.3495C10.3681 44.3679 10.375 44.3885 10.375 44.4115V44.5423C10.375 44.7533 10.4692 44.9277 10.6575 45.0654C10.8458 45.2076 11.103 45.2788 11.4291 45.2788C11.7092 45.2788 11.9205 45.2191 12.0629 45.0998C12.2052 44.9805 12.2764 44.8268 12.2764 44.6386C12.2764 44.5101 12.2374 44.4 12.1593 44.3082C12.0812 44.221 11.971 44.1407 11.8286 44.0673C11.6817 43.9939 11.4635 43.9021 11.1742 43.792C10.8481 43.6726 10.584 43.5602 10.3819 43.4547C10.1798 43.3491 10.0122 43.2046 9.87901 43.021C9.74123 42.8421 9.67234 42.6172 9.67234 42.3465C9.67234 41.9426 9.81931 41.6237 10.1132 41.3897C10.4072 41.1556 10.7999 41.0386 11.2913 41.0386C11.6357 41.0386 11.9412 41.0983 12.2075 41.2176C12.4693 41.3369 12.6737 41.5044 12.8207 41.7201C12.9676 41.9312 13.0411 42.1767 13.0411 42.4566V42.5736C13.0411 42.5966 13.0319 42.6172 13.0136 42.6356C12.9998 42.6493 12.9814 42.6562 12.9585 42.6562H12.3384C12.3155 42.6562 12.2971 42.6493 12.2833 42.6356C12.2649 42.6172 12.2558 42.5966 12.2558 42.5736V42.4979C12.2558 42.2822 12.1685 42.1009 11.994 41.9541C11.8149 41.8027 11.5691 41.727 11.2568 41.727C11.0042 41.727 10.809 41.7797 10.6713 41.8853C10.5289 41.9908 10.4577 42.14 10.4577 42.3327C10.4577 42.4704 10.4944 42.5828 10.5679 42.67C10.6414 42.7572 10.7516 42.8352 10.8986 42.904C11.0456 42.9774 11.2729 43.0692 11.5806 43.1793C11.9067 43.3032 12.1685 43.4157 12.366 43.5166C12.5589 43.6176 12.7265 43.7575 12.8689 43.9365C13.0067 44.1201 13.0756 44.3472 13.0756 44.618C13.0756 45.031 12.9217 45.3591 12.614 45.6023C12.3109 45.8455 11.8952 45.9671 11.3671 45.9671ZM17.5742 42.3396C17.9278 42.3396 18.2057 42.4451 18.4078 42.6562C18.6052 42.8719 18.704 43.1702 18.704 43.551V45.8294C18.704 45.8524 18.6971 45.8707 18.6833 45.8845C18.6649 45.9029 18.6443 45.912 18.6213 45.912H17.9944C17.9714 45.912 17.9531 45.9029 17.9393 45.8845C17.9209 45.8707 17.9117 45.8524 17.9117 45.8294V43.7162C17.9117 43.5052 17.8566 43.3377 17.7464 43.2138C17.6316 43.0899 17.48 43.0279 17.2917 43.0279C17.1034 43.0279 16.9496 43.0899 16.8301 43.2138C16.7107 43.3377 16.651 43.5029 16.651 43.7094V45.8294C16.651 45.8524 16.6441 45.8707 16.6304 45.8845C16.612 45.9029 16.5913 45.912 16.5684 45.912H15.9414C15.9185 45.912 15.8978 45.9029 15.8794 45.8845C15.8657 45.8707 15.8588 45.8524 15.8588 45.8294V43.7162C15.8588 43.5052 15.8014 43.3377 15.6865 43.2138C15.5717 43.0899 15.4202 43.0279 15.2319 43.0279C15.0573 43.0279 14.9127 43.0784 14.7978 43.1793C14.6876 43.2803 14.6233 43.418 14.605 43.5923V45.8294C14.605 45.8524 14.5981 45.8707 14.5843 45.8845C14.5659 45.9029 14.5452 45.912 14.5223 45.912H13.8885C13.8655 45.912 13.8471 45.9029 13.8334 45.8845C13.815 45.8707 13.8058 45.8524 13.8058 45.8294V42.4772C13.8058 42.4543 13.815 42.4336 13.8334 42.4153C13.8471 42.4015 13.8655 42.3946 13.8885 42.3946H14.5223C14.5452 42.3946 14.5659 42.4015 14.5843 42.4153C14.5981 42.4336 14.605 42.4543 14.605 42.4772V42.7044C14.605 42.7182 14.6095 42.7273 14.6187 42.7319C14.6279 42.7365 14.6371 42.7319 14.6463 42.7182C14.7473 42.5897 14.8713 42.4956 15.0183 42.4359C15.1699 42.3717 15.3375 42.3396 15.5212 42.3396C15.7463 42.3396 15.9437 42.3855 16.1137 42.4772C16.2836 42.569 16.4145 42.7021 16.5064 42.8765C16.5201 42.8948 16.5362 42.8948 16.5546 42.8765C16.6556 42.6929 16.7957 42.5575 16.9748 42.4704C17.1539 42.3832 17.3537 42.3396 17.5742 42.3396ZM20.8603 42.3396C21.1496 42.3396 21.4045 42.39 21.625 42.491C21.8454 42.592 22.0154 42.7296 22.1348 42.904C22.2542 43.083 22.3139 43.2849 22.3139 43.5097V45.8294C22.3139 45.8524 22.307 45.8707 22.2932 45.8845C22.2748 45.9029 22.2542 45.912 22.2312 45.912H21.5974C21.5745 45.912 21.5561 45.9029 21.5423 45.8845C21.5239 45.8707 21.5147 45.8524 21.5147 45.8294V45.6092C21.5147 45.5954 21.5102 45.5862 21.501 45.5816C21.4918 45.5816 21.4826 45.5862 21.4734 45.5954C21.2484 45.8432 20.9223 45.9671 20.4952 45.9671C20.1507 45.9671 19.8682 45.8799 19.6478 45.7055C19.4227 45.5312 19.3102 45.2719 19.3102 44.9277C19.3102 44.5698 19.4365 44.2899 19.6891 44.0879C19.9371 43.8906 20.2885 43.792 20.7432 43.792H21.4803C21.5033 43.792 21.5147 43.7805 21.5147 43.7575V43.5923C21.5147 43.4134 21.4619 43.2734 21.3563 43.1725C21.2507 43.0761 21.0922 43.0279 20.8809 43.0279C20.7064 43.0279 20.5663 43.06 20.4607 43.1243C20.3505 43.1839 20.2816 43.2688 20.254 43.379C20.2403 43.434 20.2081 43.457 20.1576 43.4478L19.4893 43.3652C19.4664 43.3606 19.448 43.3537 19.4342 43.3445C19.4159 43.3308 19.409 43.3147 19.4136 43.2964C19.4503 43.0164 19.6019 42.787 19.8682 42.608C20.13 42.4291 20.4607 42.3396 20.8603 42.3396ZM20.6949 45.3338C20.92 45.3338 21.1129 45.2742 21.2736 45.1549C21.4344 45.0356 21.5147 44.8841 21.5147 44.7006V44.377C21.5147 44.3541 21.5033 44.3426 21.4803 44.3426H20.9016C20.6582 44.3426 20.4676 44.3885 20.3298 44.4803C20.1874 44.5721 20.1163 44.7029 20.1163 44.8726C20.1163 45.0195 20.1714 45.1319 20.2816 45.2099C20.3872 45.2925 20.525 45.3338 20.6949 45.3338ZM23.1957 45.912C23.1727 45.912 23.1544 45.9029 23.1406 45.8845C23.1222 45.8707 23.113 45.8524 23.113 45.8294V41.1763C23.113 41.1533 23.1222 41.135 23.1406 41.1212C23.1544 41.1029 23.1727 41.0937 23.1957 41.0937H23.8295C23.8525 41.0937 23.8731 41.1029 23.8915 41.1212C23.9053 41.135 23.9122 41.1533 23.9122 41.1763V45.8294C23.9122 45.8524 23.9053 45.8707 23.8915 45.8845C23.8731 45.9029 23.8525 45.912 23.8295 45.912H23.1957ZM24.8422 45.912C24.8192 45.912 24.8009 45.9029 24.7871 45.8845C24.7687 45.8707 24.7595 45.8524 24.7595 45.8294V41.1763C24.7595 41.1533 24.7687 41.135 24.7871 41.1212C24.8009 41.1029 24.8192 41.0937 24.8422 41.0937H25.476C25.499 41.0937 25.5196 41.1029 25.538 41.1212C25.5518 41.135 25.5587 41.1533 25.5587 41.1763V45.8294C25.5587 45.8524 25.5518 45.8707 25.538 45.8845C25.5196 45.9029 25.499 45.912 25.476 45.912H24.8422ZM30.5533 43.3996C30.5257 43.4134 30.5257 43.4271 30.5533 43.4409C31.0217 43.6612 31.256 44.0398 31.256 44.5767C31.256 45.0126 31.1113 45.3453 30.822 45.5748C30.528 45.7996 30.1468 45.912 29.6784 45.912H27.9423C27.9193 45.912 27.901 45.9029 27.8872 45.8845C27.8688 45.8707 27.8596 45.8524 27.8596 45.8294V41.1763C27.8596 41.1533 27.8688 41.135 27.8872 41.1212C27.901 41.1029 27.9193 41.0937 27.9423 41.0937H29.6233C30.1239 41.0937 30.5097 41.2015 30.7806 41.4172C31.0516 41.6329 31.1871 41.9587 31.1871 42.3946C31.1871 42.8765 30.9758 43.2115 30.5533 43.3996ZM28.6932 41.782C28.6703 41.782 28.6588 41.7935 28.6588 41.8164V43.0899C28.6588 43.1128 28.6703 43.1243 28.6932 43.1243H29.6233C29.8667 43.1243 30.0596 43.0669 30.2019 42.9522C30.3397 42.8329 30.4086 42.67 30.4086 42.4635C30.4086 42.2524 30.3397 42.0849 30.2019 41.961C30.0596 41.8417 29.8667 41.782 29.6233 41.782H28.6932ZM29.6784 45.2168C29.9172 45.2168 30.1078 45.1526 30.2502 45.0241C30.3879 44.8956 30.4568 44.7212 30.4568 44.5009C30.4568 44.2761 30.3856 44.1017 30.2433 43.9778C30.1009 43.8493 29.908 43.7851 29.6646 43.7851H28.6932C28.6703 43.7851 28.6588 43.7966 28.6588 43.8195V45.1824C28.6588 45.2053 28.6703 45.2168 28.6932 45.2168H29.6784ZM34.0874 42.4772C34.0874 42.4543 34.0943 42.4336 34.1081 42.4153C34.1264 42.4015 34.1471 42.3946 34.1701 42.3946H34.797C34.82 42.3946 34.8406 42.4015 34.859 42.4153C34.8728 42.4336 34.8797 42.4543 34.8797 42.4772V45.8294C34.8797 45.8524 34.8728 45.8707 34.859 45.8845C34.8406 45.9029 34.82 45.912 34.797 45.912H34.1701C34.1471 45.912 34.1264 45.9029 34.1081 45.8845C34.0943 45.8707 34.0874 45.8524 34.0874 45.8294V45.6092C34.0874 45.5954 34.0828 45.5862 34.0736 45.5816C34.0644 45.577 34.0553 45.5816 34.0461 45.5954C33.8578 45.8386 33.5753 45.9602 33.1987 45.9602C32.8497 45.9602 32.558 45.8593 32.3238 45.6574C32.085 45.4554 31.9656 45.1686 31.9656 44.7969V42.4772C31.9656 42.4543 31.9724 42.4336 31.9862 42.4153C32.0046 42.4015 32.0253 42.3946 32.0482 42.3946H32.682C32.705 42.3946 32.7257 42.4015 32.744 42.4153C32.7578 42.4336 32.7647 42.4543 32.7647 42.4772V44.5698C32.7647 44.7855 32.8221 44.9575 32.9369 45.086C33.0471 45.2145 33.2033 45.2788 33.4054 45.2788C33.6121 45.2788 33.7774 45.2145 33.9014 45.086C34.0254 44.9575 34.0874 44.7855 34.0874 44.5698V42.4772ZM37.0428 45.9533C36.7535 45.9533 36.4986 45.9097 36.2782 45.8226C36.0623 45.74 35.8947 45.6229 35.7752 45.4715C35.6558 45.3247 35.5961 45.1595 35.5961 44.9759V44.9139C35.5961 44.891 35.603 44.8704 35.6168 44.852C35.6352 44.8382 35.6558 44.8314 35.6788 44.8314H36.285C36.308 44.8314 36.3264 44.8382 36.3402 44.852C36.3585 44.8704 36.3677 44.891 36.3677 44.9139V44.9277C36.3677 45.0424 36.4297 45.1434 36.5537 45.2306C36.6823 45.3132 36.8431 45.3545 37.036 45.3545C37.2197 45.3545 37.3689 45.3178 37.4837 45.2444C37.5986 45.1663 37.656 45.07 37.656 44.9553C37.656 44.8497 37.6077 44.7694 37.5113 44.7143C37.4194 44.6639 37.2679 44.6088 37.0566 44.5491L36.7948 44.4665C36.5606 44.3977 36.3631 44.3243 36.2024 44.2463C36.0416 44.1683 35.9061 44.0604 35.7959 43.9227C35.6857 43.7897 35.6306 43.6176 35.6306 43.4065C35.6306 43.0853 35.7569 42.8306 36.0095 42.6424C36.2621 42.4497 36.595 42.3533 37.0084 42.3533C37.2886 42.3533 37.5343 42.3969 37.7455 42.4841C37.9568 42.5759 38.1198 42.6998 38.2347 42.8558C38.3495 43.0164 38.4069 43.1977 38.4069 43.3996C38.4069 43.4226 38.3977 43.4432 38.3793 43.4616C38.3656 43.4753 38.3472 43.4822 38.3242 43.4822H37.7386C37.7157 43.4822 37.695 43.4753 37.6766 43.4616C37.6629 43.4432 37.656 43.4226 37.656 43.3996C37.656 43.2803 37.5963 43.1816 37.4769 43.1036C37.362 43.021 37.2036 42.9797 37.0015 42.9797C36.8224 42.9797 36.6754 43.0118 36.5606 43.0761C36.4504 43.1449 36.3953 43.239 36.3953 43.3583C36.3953 43.4684 36.4481 43.551 36.5537 43.6061C36.6639 43.6658 36.8454 43.73 37.098 43.7988L37.2495 43.8401C37.4929 43.9136 37.6973 43.987 37.8626 44.0604C38.028 44.1384 38.1681 44.244 38.2829 44.377C38.3977 44.5147 38.4551 44.6914 38.4551 44.9071C38.4551 45.2329 38.3265 45.4876 38.0693 45.6711C37.8121 45.8593 37.47 45.9533 37.0428 45.9533ZM39.5849 41.9128C39.4426 41.9128 39.3254 41.8669 39.2336 41.7751C39.1417 41.6834 39.0958 41.5663 39.0958 41.4241C39.0958 41.2818 39.1417 41.1648 39.2336 41.073C39.3254 40.9813 39.4426 40.9354 39.5849 40.9354C39.7273 40.9354 39.8444 40.9813 39.9363 41.073C40.0281 41.1648 40.0741 41.2818 40.0741 41.4241C40.0741 41.5663 40.0281 41.6834 39.9363 41.7751C39.8444 41.8669 39.7273 41.9128 39.5849 41.9128ZM39.2543 45.912C39.2313 45.912 39.2106 45.9029 39.1922 45.8845C39.1785 45.8707 39.1716 45.8524 39.1716 45.8294V42.4704C39.1716 42.4474 39.1785 42.4291 39.1922 42.4153C39.2106 42.3969 39.2313 42.3878 39.2543 42.3878H39.8881C39.911 42.3878 39.9294 42.3969 39.9432 42.4153C39.9615 42.4291 39.9707 42.4474 39.9707 42.4704V45.8294C39.9707 45.8524 39.9615 45.8707 39.9432 45.8845C39.9294 45.9029 39.911 45.912 39.8881 45.912H39.2543ZM42.5748 42.3396C42.9468 42.3396 43.2431 42.4497 43.4635 42.67C43.6886 42.8902 43.8011 43.1908 43.8011 43.5717V45.8294C43.8011 45.8524 43.7919 45.8707 43.7735 45.8845C43.7597 45.9029 43.7414 45.912 43.7184 45.912H43.0846C43.0616 45.912 43.041 45.9029 43.0226 45.8845C43.0088 45.8707 43.0019 45.8524 43.0019 45.8294V43.7369C43.0019 43.5258 42.9422 43.3537 42.8228 43.2206C42.7034 43.0922 42.545 43.0279 42.3475 43.0279C42.15 43.0279 41.9892 43.0922 41.8652 43.2206C41.7458 43.3491 41.6861 43.5189 41.6861 43.73V45.8294C41.6861 45.8524 41.6769 45.8707 41.6586 45.8845C41.6448 45.9029 41.6264 45.912 41.6034 45.912H40.9696C40.9467 45.912 40.926 45.9029 40.9076 45.8845C40.8939 45.8707 40.887 45.8524 40.887 45.8294V42.4772C40.887 42.4543 40.8939 42.4336 40.9076 42.4153C40.926 42.4015 40.9467 42.3946 40.9696 42.3946H41.6034C41.6264 42.3946 41.6448 42.4015 41.6586 42.4153C41.6769 42.4336 41.6861 42.4543 41.6861 42.4772V42.6975C41.6861 42.7113 41.6907 42.7204 41.6999 42.725C41.7091 42.7296 41.716 42.725 41.7206 42.7113C41.9089 42.4635 42.1936 42.3396 42.5748 42.3396ZM47.5763 43.7575C47.5947 43.8723 47.6039 44.0008 47.6039 44.143L47.597 44.3564C47.597 44.4115 47.5694 44.439 47.5143 44.439H45.358C45.3351 44.439 45.3236 44.4505 45.3236 44.4734C45.3374 44.6248 45.358 44.7281 45.3856 44.7832C45.4958 45.1136 45.7645 45.2811 46.1916 45.2857C46.5039 45.2857 46.7519 45.1572 46.9356 44.9002C46.954 44.8726 46.977 44.8589 47.0045 44.8589C47.0229 44.8589 47.039 44.8658 47.0527 44.8795L47.4799 45.2306C47.5212 45.2627 47.5281 45.2994 47.5005 45.3407C47.3582 45.5426 47.1676 45.6987 46.9287 45.8088C46.6945 45.9189 46.4327 45.974 46.1434 45.974C45.7851 45.974 45.4797 45.8937 45.2271 45.7331C44.9791 45.5725 44.7977 45.3476 44.6829 45.0585C44.5773 44.8107 44.5244 44.4665 44.5244 44.026C44.5244 43.7598 44.552 43.5442 44.6071 43.379C44.699 43.0577 44.8712 42.8031 45.1238 42.6149C45.381 42.4314 45.6887 42.3396 46.0469 42.3396C46.9517 42.3396 47.4615 42.8122 47.5763 43.7575ZM46.0469 43.0279C45.877 43.0279 45.7346 43.0715 45.6198 43.1587C45.5096 43.2413 45.4315 43.3583 45.3856 43.5097C45.358 43.5878 45.3396 43.6887 45.3305 43.8126C45.3213 43.8356 45.3305 43.847 45.358 43.847H46.7565C46.7795 43.847 46.791 43.8356 46.791 43.8126C46.7818 43.6979 46.768 43.6107 46.7496 43.551C46.7083 43.3858 46.6256 43.2574 46.5016 43.1656C46.3822 43.0738 46.2306 43.0279 46.0469 43.0279ZM49.5879 45.9533C49.2986 45.9533 49.0437 45.9097 48.8232 45.8226C48.6074 45.74 48.4398 45.6229 48.3203 45.4715C48.2009 45.3247 48.1412 45.1595 48.1412 44.9759V44.9139C48.1412 44.891 48.1481 44.8704 48.1619 44.852C48.1803 44.8382 48.2009 44.8314 48.2239 44.8314H48.8301C48.8531 44.8314 48.8715 44.8382 48.8853 44.852C48.9036 44.8704 48.9128 44.891 48.9128 44.9139V44.9277C48.9128 45.0424 48.9748 45.1434 49.0988 45.2306C49.2274 45.3132 49.3882 45.3545 49.5811 45.3545C49.7648 45.3545 49.914 45.3178 50.0288 45.2444C50.1437 45.1663 50.2011 45.07 50.2011 44.9553C50.2011 44.8497 50.1528 44.7694 50.0564 44.7143C49.9645 44.6639 49.813 44.6088 49.6017 44.5491L49.3399 44.4665C49.1057 44.3977 48.9082 44.3243 48.7475 44.2463C48.5867 44.1683 48.4512 44.0604 48.341 43.9227C48.2308 43.7897 48.1757 43.6176 48.1757 43.4065C48.1757 43.0853 48.302 42.8306 48.5546 42.6424C48.8072 42.4497 49.1401 42.3533 49.5535 42.3533C49.8337 42.3533 50.0794 42.3969 50.2906 42.4841C50.5019 42.5759 50.6649 42.6998 50.7798 42.8558C50.8946 43.0164 50.952 43.1977 50.952 43.3996C50.952 43.4226 50.9428 43.4432 50.9244 43.4616C50.9107 43.4753 50.8923 43.4822 50.8693 43.4822H50.2837C50.2608 43.4822 50.2401 43.4753 50.2217 43.4616C50.208 43.4432 50.2011 43.4226 50.2011 43.3996C50.2011 43.2803 50.1414 43.1816 50.022 43.1036C49.9071 43.021 49.7487 42.9797 49.5466 42.9797C49.3675 42.9797 49.2205 43.0118 49.1057 43.0761C48.9955 43.1449 48.9404 43.239 48.9404 43.3583C48.9404 43.4684 48.9932 43.551 49.0988 43.6061C49.209 43.6658 49.3905 43.73 49.6431 43.7988L49.7946 43.8401C50.038 43.9136 50.2424 43.987 50.4077 44.0604C50.5731 44.1384 50.7132 44.244 50.828 44.377C50.9428 44.5147 51.0002 44.6914 51.0002 44.9071C51.0002 45.2329 50.8716 45.4876 50.6144 45.6711C50.3572 45.8593 50.0151 45.9533 49.5879 45.9533ZM52.9154 45.9533C52.626 45.9533 52.3711 45.9097 52.1507 45.8226C51.9348 45.74 51.7672 45.6229 51.6478 45.4715C51.5284 45.3247 51.4687 45.1595 51.4687 44.9759V44.9139C51.4687 44.891 51.4756 44.8704 51.4893 44.852C51.5077 44.8382 51.5284 44.8314 51.5513 44.8314H52.1576C52.1805 44.8314 52.1989 44.8382 52.2127 44.852C52.2311 44.8704 52.2403 44.891 52.2403 44.9139V44.9277C52.2403 45.0424 52.3023 45.1434 52.4263 45.2306C52.5549 45.3132 52.7156 45.3545 52.9085 45.3545C53.0922 45.3545 53.2415 45.3178 53.3563 45.2444C53.4711 45.1663 53.5285 45.07 53.5285 44.9553C53.5285 44.8497 53.4803 44.7694 53.3839 44.7143C53.292 44.6639 53.1404 44.6088 52.9292 44.5491L52.6674 44.4665C52.4332 44.3977 52.2357 44.3243 52.0749 44.2463C51.9142 44.1683 51.7787 44.0604 51.6685 43.9227C51.5582 43.7897 51.5031 43.6176 51.5031 43.4065C51.5031 43.0853 51.6294 42.8306 51.882 42.6424C52.1346 42.4497 52.4676 42.3533 52.8809 42.3533C53.1611 42.3533 53.4068 42.3969 53.6181 42.4841C53.8293 42.5759 53.9924 42.6998 54.1072 42.8558C54.222 43.0164 54.2794 43.1977 54.2794 43.3996C54.2794 43.4226 54.2703 43.4432 54.2519 43.4616C54.2381 43.4753 54.2197 43.4822 54.1968 43.4822H53.6112C53.5882 43.4822 53.5676 43.4753 53.5492 43.4616C53.5354 43.4432 53.5285 43.4226 53.5285 43.3996C53.5285 43.2803 53.4688 43.1816 53.3494 43.1036C53.2346 43.021 53.0761 42.9797 52.8741 42.9797C52.6949 42.9797 52.548 43.0118 52.4332 43.0761C52.3229 43.1449 52.2678 43.239 52.2678 43.3583C52.2678 43.4684 52.3206 43.551 52.4263 43.6061C52.5365 43.6658 52.7179 43.73 52.9705 43.7988L53.1221 43.8401C53.3655 43.9136 53.5699 43.987 53.7352 44.0604C53.9005 44.1384 54.0406 44.244 54.1554 44.377C54.2703 44.5147 54.3277 44.6914 54.3277 44.9071C54.3277 45.2329 54.1991 45.4876 53.9419 45.6711C53.6847 45.8593 53.3425 45.9533 52.9154 45.9533Z" fill="#B0B6C9"/>
<path d="M21.191 55.6176C21.1404 55.6176 21.1083 55.5946 21.0945 55.5487L19.8751 50.8887L19.8682 50.8612C19.8682 50.8199 19.8935 50.7992 19.944 50.7992H20.7983C20.8442 50.7992 20.8741 50.8222 20.8878 50.8681L21.5423 53.6696C21.5469 53.6879 21.5538 53.6971 21.563 53.6971C21.5722 53.6971 21.579 53.6879 21.5836 53.6696L22.2174 50.8749C22.2312 50.8245 22.2611 50.7992 22.307 50.7992H23.1406C23.1911 50.7992 23.2232 50.8222 23.237 50.8681L23.9259 53.6696C23.9305 53.6834 23.9374 53.6925 23.9466 53.6971C23.9558 53.6971 23.9627 53.6879 23.9673 53.6696L24.6011 50.8749C24.6149 50.8245 24.6447 50.7992 24.6906 50.7992H25.5035C25.5678 50.7992 25.5931 50.8291 25.5793 50.8887L24.4495 55.5487C24.4357 55.5946 24.4036 55.6176 24.3531 55.6176H23.5333C23.4873 55.6176 23.4575 55.5946 23.4437 55.5487L22.741 52.5682C22.7364 52.5499 22.7295 52.5407 22.7203 52.5407C22.7112 52.5407 22.7043 52.5499 22.6997 52.5682L22.0452 55.5419C22.036 55.5923 22.0062 55.6176 21.9556 55.6176H21.191ZM26.2476 55.6176C26.2246 55.6176 26.2039 55.6084 26.1856 55.59C26.1718 55.5763 26.1649 55.5579 26.1649 55.535V50.8818C26.1649 50.8589 26.1718 50.8405 26.1856 50.8268C26.2039 50.8084 26.2246 50.7992 26.2476 50.7992H27.0536C27.0766 50.7992 27.0949 50.8084 27.1087 50.8268C27.1271 50.8405 27.1363 50.8589 27.1363 50.8818V55.535C27.1363 55.5579 27.1271 55.5763 27.1087 55.59C27.0949 55.6084 27.0766 55.6176 27.0536 55.6176H26.2476ZM30.7462 50.8818C30.7462 50.8589 30.7531 50.8405 30.7668 50.8268C30.7852 50.8084 30.8059 50.7992 30.8288 50.7992H31.6349C31.6578 50.7992 31.6762 50.8084 31.69 50.8268C31.7084 50.8405 31.7175 50.8589 31.7175 50.8818V55.535C31.7175 55.5579 31.7084 55.5763 31.69 55.59C31.6762 55.6084 31.6578 55.6176 31.6349 55.6176H30.8564C30.8105 55.6176 30.7783 55.5992 30.76 55.5625L28.9757 52.6164C28.9665 52.6027 28.9573 52.5981 28.9481 52.6027C28.9389 52.6027 28.9343 52.6118 28.9343 52.6302L28.9481 55.535C28.9481 55.5579 28.9389 55.5763 28.9206 55.59C28.9068 55.6084 28.8884 55.6176 28.8654 55.6176H28.0594C28.0365 55.6176 28.0158 55.6084 27.9974 55.59C27.9836 55.5763 27.9767 55.5579 27.9767 55.535V50.8818C27.9767 50.8589 27.9836 50.8405 27.9974 50.8268C28.0158 50.8084 28.0365 50.7992 28.0594 50.7992H28.8379C28.8838 50.7992 28.916 50.8176 28.9343 50.8543L30.7117 53.7866C30.7209 53.8004 30.7301 53.805 30.7393 53.8004C30.7485 53.8004 30.7531 53.7912 30.7531 53.7728L30.7462 50.8818ZM35.8855 50.7992C35.9084 50.7992 35.9268 50.8084 35.9406 50.8268C35.9589 50.8405 35.9681 50.8589 35.9681 50.8818V51.5564C35.9681 51.5793 35.9589 51.5977 35.9406 51.6115C35.9268 51.6298 35.9084 51.639 35.8855 51.639H34.6523C34.6293 51.639 34.6179 51.6505 34.6179 51.6734V55.535C34.6179 55.5579 34.6087 55.5763 34.5903 55.59C34.5765 55.6084 34.5582 55.6176 34.5352 55.6176H33.7292C33.7062 55.6176 33.6855 55.6084 33.6672 55.59C33.6534 55.5763 33.6465 55.5579 33.6465 55.535V51.6734C33.6465 51.6505 33.635 51.639 33.6121 51.639H32.4133C32.3904 51.639 32.3697 51.6298 32.3513 51.6115C32.3376 51.5977 32.3307 51.5793 32.3307 51.5564V50.8818C32.3307 50.8589 32.3376 50.8405 32.3513 50.8268C32.3697 50.8084 32.3904 50.7992 32.4133 50.7992H35.8855ZM39.9363 51.5495C39.9363 51.5725 39.9294 51.5908 39.9156 51.6046C39.8972 51.6229 39.8766 51.6321 39.8536 51.6321H37.594C37.571 51.6321 37.5595 51.6436 37.5595 51.6665V52.7334C37.5595 52.7564 37.571 52.7679 37.594 52.7679H39.0751C39.0981 52.7679 39.1165 52.7748 39.1302 52.7885C39.1486 52.8069 39.1578 52.8275 39.1578 52.8505V53.5182C39.1578 53.5411 39.1486 53.5617 39.1302 53.5801C39.1165 53.5939 39.0981 53.6008 39.0751 53.6008H37.594C37.571 53.6008 37.5595 53.6122 37.5595 53.6352V54.7503C37.5595 54.7732 37.571 54.7847 37.594 54.7847H39.8536C39.8766 54.7847 39.8972 54.7916 39.9156 54.8053C39.9294 54.8237 39.9363 54.8444 39.9363 54.8673V55.535C39.9363 55.5579 39.9294 55.5763 39.9156 55.59C39.8972 55.6084 39.8766 55.6176 39.8536 55.6176H36.6708C36.6479 55.6176 36.6272 55.6084 36.6088 55.59C36.595 55.5763 36.5882 55.5579 36.5882 55.535V50.8818C36.5882 50.8589 36.595 50.8405 36.6088 50.8268C36.6272 50.8084 36.6479 50.7992 36.6708 50.7992H39.8536C39.8766 50.7992 39.8972 50.8084 39.9156 50.8268C39.9294 50.8405 39.9363 50.8589 39.9363 50.8818V51.5495ZM43.2568 55.6176C43.2109 55.6176 43.1788 55.5969 43.1604 55.5556L42.2992 53.6489C42.2901 53.6306 42.2763 53.6214 42.2579 53.6214H41.6172C41.5943 53.6214 41.5828 53.6329 41.5828 53.6558V55.535C41.5828 55.5579 41.5736 55.5763 41.5552 55.59C41.5414 55.6084 41.5231 55.6176 41.5001 55.6176H40.6941C40.6711 55.6176 40.6504 55.6084 40.6321 55.59C40.6183 55.5763 40.6114 55.5579 40.6114 55.535V50.8818C40.6114 50.8589 40.6183 50.8405 40.6321 50.8268C40.6504 50.8084 40.6711 50.7992 40.6941 50.7992H42.6644C42.9583 50.7992 43.2155 50.8589 43.4359 50.9782C43.661 51.0975 43.8332 51.2673 43.9526 51.4876C44.0766 51.7078 44.1386 51.9625 44.1386 52.2516C44.1386 52.5637 44.0606 52.8298 43.9044 53.0501C43.7483 53.2749 43.5301 53.4333 43.2499 53.525C43.227 53.5342 43.2201 53.5503 43.2293 53.5732L44.1662 55.5212C44.1754 55.5396 44.18 55.5533 44.18 55.5625C44.18 55.5992 44.1547 55.6176 44.1042 55.6176H43.2568ZM41.6172 51.6321C41.5943 51.6321 41.5828 51.6436 41.5828 51.6665V52.8436C41.5828 52.8665 41.5943 52.878 41.6172 52.878H42.5197C42.7126 52.878 42.8687 52.8206 42.9882 52.7059C43.1122 52.5912 43.1742 52.4421 43.1742 52.2585C43.1742 52.0749 43.1122 51.9235 42.9882 51.8042C42.8687 51.6895 42.7126 51.6321 42.5197 51.6321H41.6172ZM25.6827 61.2138C25.6735 61.2229 25.6712 61.2321 25.6758 61.2413C25.6804 61.2505 25.6896 61.2551 25.7033 61.2551H27.5703C27.5932 61.2551 27.6139 61.2619 27.6323 61.2757C27.6461 61.2941 27.653 61.3147 27.653 61.3377V62.0053C27.653 62.0283 27.6461 62.0466 27.6323 62.0604C27.6139 62.0788 27.5932 62.0879 27.5703 62.0879H24.4702C24.4472 62.0879 24.4265 62.0788 24.4082 62.0604C24.3944 62.0466 24.3875 62.0283 24.3875 62.0053V61.3721C24.3875 61.3308 24.4013 61.2964 24.4288 61.2688C24.6539 61.0486 24.8835 60.8099 25.1178 60.553C25.352 60.2914 25.499 60.1285 25.5587 60.0642C25.6873 59.9128 25.8182 59.7683 25.9513 59.6306C26.3693 59.1671 26.5783 58.8229 26.5783 58.5981C26.5783 58.4375 26.5208 58.3044 26.406 58.1988C26.2912 58.0979 26.1419 58.0474 25.9582 58.0474C25.7745 58.0474 25.6253 58.0979 25.5104 58.1988C25.3956 58.3044 25.3382 58.4421 25.3382 58.6118V58.7839C25.3382 58.8069 25.329 58.8275 25.3107 58.8459C25.2969 58.8596 25.2785 58.8665 25.2555 58.8665H24.4426C24.4197 58.8665 24.4013 58.8596 24.3875 58.8459C24.3691 58.8275 24.36 58.8069 24.36 58.7839V58.4604C24.3737 58.2126 24.4518 57.9923 24.5942 57.7996C24.7366 57.6115 24.9249 57.4669 25.1591 57.366C25.3979 57.265 25.6643 57.2145 25.9582 57.2145C26.2843 57.2145 26.5691 57.2742 26.8125 57.3935C27.0513 57.5174 27.2373 57.6826 27.3705 57.8891C27.4991 58.0956 27.5634 58.325 27.5634 58.5774C27.5634 58.7702 27.5152 58.9675 27.4187 59.1694C27.3223 59.3713 27.1776 59.5893 26.9847 59.8233C26.8423 60.0023 26.6885 60.179 26.5231 60.3533C26.3578 60.5277 26.1121 60.7801 25.786 61.1105L25.6827 61.2138ZM29.8919 62.1637C29.3867 62.1637 28.9871 62.0214 28.6932 61.7369C28.3993 61.457 28.2523 61.0738 28.2523 60.5874V58.7702C28.2523 58.2929 28.3993 57.9143 28.6932 57.6344C28.9871 57.3545 29.3867 57.2145 29.8919 57.2145C30.3971 57.2145 30.799 57.3545 31.0975 57.6344C31.3915 57.9143 31.5384 58.2929 31.5384 58.7702V60.5874C31.5384 61.0738 31.3915 61.457 31.0975 61.7369C30.799 62.0214 30.3971 62.1637 29.8919 62.1637ZM29.8919 61.3308C30.0986 61.3308 30.2639 61.2665 30.3879 61.138C30.5073 61.0141 30.5671 60.8466 30.5671 60.6356V58.7426C30.5671 58.5315 30.5073 58.364 30.3879 58.2401C30.2639 58.1117 30.0986 58.0474 29.8919 58.0474C29.6898 58.0474 29.5291 58.1117 29.4097 58.2401C29.2857 58.364 29.2237 58.5315 29.2237 58.7426V60.6356C29.2237 60.8466 29.2857 61.0141 29.4097 61.138C29.5291 61.2665 29.6898 61.3308 29.8919 61.3308ZM33.4674 61.2138C33.4582 61.2229 33.4559 61.2321 33.4605 61.2413C33.4651 61.2505 33.4743 61.2551 33.488 61.2551H35.355C35.378 61.2551 35.3986 61.2619 35.417 61.2757C35.4308 61.2941 35.4377 61.3147 35.4377 61.3377V62.0053C35.4377 62.0283 35.4308 62.0466 35.417 62.0604C35.3986 62.0788 35.378 62.0879 35.355 62.0879H32.2549C32.2319 62.0879 32.2136 62.0788 32.1998 62.0604C32.1814 62.0466 32.1722 62.0283 32.1722 62.0053V61.3721C32.1722 61.3308 32.186 61.2964 32.2136 61.2688C32.4386 61.0486 32.6682 60.8099 32.9025 60.553C33.1367 60.2914 33.2837 60.1285 33.3434 60.0642C33.472 59.9128 33.6029 59.7683 33.7361 59.6306C34.154 59.1671 34.363 58.8229 34.363 58.5981C34.363 58.4375 34.3056 58.3044 34.1907 58.1988C34.0759 58.0979 33.9267 58.0474 33.7429 58.0474C33.5592 58.0474 33.41 58.0979 33.2952 58.1988C33.1803 58.3044 33.1229 58.4421 33.1229 58.6118V58.7839C33.1229 58.8069 33.116 58.8275 33.1023 58.8459C33.0839 58.8596 33.0632 58.8665 33.0403 58.8665H32.2273C32.2044 58.8665 32.186 58.8596 32.1722 58.8459C32.1539 58.8275 32.1447 58.8069 32.1447 58.7839V58.4604C32.1584 58.2126 32.2365 57.9923 32.3789 57.7996C32.5213 57.6115 32.7119 57.4669 32.9507 57.366C33.1849 57.265 33.449 57.2145 33.7429 57.2145C34.069 57.2145 34.3538 57.2742 34.5972 57.3935C34.836 57.5174 35.022 57.6826 35.1552 57.8891C35.2838 58.0956 35.3481 58.325 35.3481 58.5774C35.3481 58.7702 35.2999 58.9675 35.2034 59.1694C35.107 59.3713 34.9623 59.5893 34.7694 59.8233C34.627 60.0023 34.4732 60.179 34.3079 60.3533C34.1425 60.5277 33.8968 60.7801 33.5707 61.1105L33.4674 61.2138ZM39.4816 59.9885C39.5046 59.9885 39.5252 59.9954 39.5436 60.0092C39.5574 60.0275 39.5643 60.0482 39.5643 60.0711V60.7663C39.5643 60.7893 39.5574 60.8099 39.5436 60.8283C39.5252 60.8421 39.5046 60.8489 39.4816 60.8489H39.1854C39.1624 60.8489 39.1509 60.8604 39.1509 60.8834V62.0053C39.1509 62.0283 39.144 62.0466 39.1302 62.0604C39.1119 62.0788 39.0912 62.0879 39.0682 62.0879H38.2622C38.2392 62.0879 38.2209 62.0788 38.2071 62.0604C38.1887 62.0466 38.1795 62.0283 38.1795 62.0053V60.8834C38.1795 60.8604 38.1681 60.8489 38.1451 60.8489H36.0301C36.0072 60.8489 35.9888 60.8421 35.975 60.8283C35.9566 60.8099 35.9475 60.7893 35.9475 60.7663V60.2157C35.9475 60.1881 35.9544 60.1537 35.9681 60.1124L37.2082 57.3315C37.2265 57.2902 37.2587 57.2696 37.3046 57.2696H38.1658C38.1979 57.2696 38.2209 57.2788 38.2347 57.2971C38.2438 57.3109 38.2415 57.3338 38.2278 57.366L37.0773 59.9472C37.0727 59.9564 37.0727 59.9656 37.0773 59.9748C37.0819 59.9839 37.0888 59.9885 37.0979 59.9885H38.1451C38.1681 59.9885 38.1795 59.977 38.1795 59.9541V59.1006C38.1795 59.0776 38.1887 59.0593 38.2071 59.0455C38.2209 59.0271 38.2392 59.018 38.2622 59.018H39.0682C39.0912 59.018 39.1119 59.0271 39.1302 59.0455C39.144 59.0593 39.1509 59.0776 39.1509 59.1006V59.9541C39.1509 59.977 39.1624 59.9885 39.1854 59.9885H39.4816Z" fill="#253053"/>
</svg>
