<svg width="99" height="24" viewBox="0 0 99 24" fill="none" xmlns="http://www.w3.org/2000/svg">
<g clip-path="url(#clip0_450_8700)">
<path opacity="1" d="M29.5004 24V8H24.1671V24H18.8337V0H24.1671V5.33333H32.1671V8H34.8337V24H29.5004ZM42.8337 10.6667V24H37.5004V5.33333H42.8337V8H45.5004V5.33333H50.8337V10.6667H42.8337ZM69.5004 18.6667V21.3333H66.8337V18.6667H69.5004ZM56.1671 24V21.3333H53.5004V8H56.1671V5.33333H66.8337V8H69.5004V16H58.8337V21.3333H66.8337V24H56.1671ZM64.1671 13.3333V8H58.8337V13.3333H64.1671ZM80.1671 2.66667V5.33333H82.8337V8H80.1671V24H74.8337V8H72.1671V5.33333H74.8337V2.66667H77.5004V0H85.5004V2.66667H80.1671ZM93.5004 10.6667V13.3333H96.1671V16H98.8337V21.3333H96.1671V24H88.1671V21.3333H93.5004V18.6667H90.8337V16H88.1671V13.3333H85.5004V8H88.1671V5.33333H96.1671V8H90.8337V10.6667H93.5004ZM85.5004 18.6667H88.1671V21.3333H85.5004V18.6667ZM98.8337 10.6667H96.1671V8H98.8337V10.6667Z" fill="#636B83"/>
<path opacity="1" fill-rule="evenodd" clip-rule="evenodd" d="M2.8339 24V21.3334H0.167236V16H2.8339V13.3334H10.8339V8.00004H2.8339V5.33337H13.5006V8.00004H16.1672V24H2.8339ZM5.50057 16V21.3334H10.8339V16H5.50057ZM0.167236 10.6667V8.00004H2.8339V10.6667H0.167236Z" fill="#636B83"/>
</g>
<defs>
<clipPath id="clip0_450_8700">
<rect width="98.6667" height="24" fill="white" transform="translate(0.167236)"/>
</clipPath>
</defs>
</svg>
