<svg viewBox="0 0 36 36" fill="none" xmlns="http://www.w3.org/2000/svg">
<path fill-rule="evenodd" clip-rule="evenodd" d="M27.8529 18.9594C23.6639 18.9594 20.2682 22.3963 20.2682 26.636C20.2682 30.8756 23.6639 34.3125 27.8529 34.3125C32.0418 34.3125 35.4375 30.8756 35.4375 26.636C35.4375 22.3963 32.0418 18.9594 27.8529 18.9594ZM8.14719 18.96C3.95832 18.96 0.5625 22.3963 0.5625 26.636C0.5625 30.8756 3.95832 34.3125 8.14719 34.3125C12.3362 34.3125 15.7322 30.8756 15.7322 26.636C15.7322 22.3963 12.3362 18.96 8.14719 18.96ZM25.5846 9.3637C25.5846 13.6035 22.1889 17.0408 18.0001 17.0408C13.811 17.0408 10.4153 13.6035 10.4153 9.3637C10.4153 5.12469 13.811 1.6875 18.0001 1.6875C22.1889 1.6875 25.5846 5.12469 25.5846 9.3637Z" fill="#F06A6A"/>
</svg>