<svg xmlns="http://www.w3.org/2000/svg" width="40" height="38"><defs><linearGradient id="a" x1="100.977%" x2="47.708%" y1="11.742%" y2="51.776%"><stop offset="0%" stop-color="#F869D5"/><stop offset="100%" stop-color="#A472FF"/></linearGradient><linearGradient id="b" x1="104.897%" x2="33.832%" y1="17.185%" y2="68.455%"><stop offset="0%" stop-color="#FF7676"/><stop offset="100%" stop-color="#F966BE"/></linearGradient><linearGradient id="c" x1="115.286%" x2="36.742%" y1="-6.862%" y2="53.368%"><stop offset="0%" stop-color="#4AFFB1"/><stop offset="100%" stop-color="#2BD2FF"/></linearGradient></defs><g fill="none" fill-rule="nonzero"><path fill="url(#a)" d="m.061 29.859 17.105-16.963 5.597 5.551L36.715 4.61l3.279 3.252-17.176 17.033-5.657-5.61L3.279 33.051z"/><path fill="url(#b)" d="M15.51.589 0 15.749l3.498 3.52L16.934 6.141l5.614 5.648 3.547-3.466L18.428.61A2.076 2.076 0 0 0 15.51.589Z"/><path fill="url(#c)" d="m40 22.04-3.54-3.51-13.408 13.287-5.683-5.636-3.54 3.51 7.76 7.694a2.081 2.081 0 0 0 2.932 0L40 22.04Z"/></g></svg>
