<svg xmlns="http://www.w3.org/2000/svg" width="121" height="27"><g fill="#616B86" fill-rule="nonzero"><path d="m.074 9.86 11.054.002 6.722.001v-6.67zM17.85 3.193v23.548L26.245.044z"/><path d="m17.85 9.863-6.722-.001 6.722 16.879z"/><path d="m.074 9.86 12.778 4.333-1.724-4.331zM40.796 20.542c-.098.098-.26.22-.487.366a5.334 5.334 0 0 1-.889.44 7.784 7.784 0 0 1-1.34.377 9.323 9.323 0 0 1-1.813.159c-1.315 0-2.451-.212-3.409-.634-.958-.423-1.75-1.013-2.374-1.768-.625-.757-1.083-1.65-1.375-2.683-.293-1.032-.439-2.166-.439-3.402 0-1.235.159-2.378.475-3.426.317-1.05.791-1.955 1.424-2.72a6.547 6.547 0 0 1 2.374-1.792c.95-.43 2.066-.646 3.348-.646.633 0 1.206.057 1.717.17.511.114.957.248 1.339.403.381.154.698.317.95.487.251.171.442.314.572.427.146.13.272.285.377.464.106.179.158.374.158.585 0 .325-.121.65-.365.975a7.046 7.046 0 0 1-.803.903 9.9 9.9 0 0 0-.658-.598 4.447 4.447 0 0 0-.815-.536 5.402 5.402 0 0 0-1.023-.39 4.79 4.79 0 0 0-1.278-.159c-.828 0-1.522.167-2.082.5-.56.333-1.01.768-1.351 1.305a5.539 5.539 0 0 0-.73 1.84 10.705 10.705 0 0 0 0 4.304c.145.7.397 1.318.754 1.855.357.536.824.967 1.4 1.292.576.325 1.294.488 2.155.488.454 0 .872-.057 1.254-.17a5.023 5.023 0 0 0 1.777-.927c.22-.18.402-.334.548-.464.097.114.21.252.34.415.132.164.254.335.366.512.113.179.21.358.292.536.081.18.122.342.122.488 0 .211-.04.39-.122.536-.081.147-.211.31-.39.488Zm12.547-1.87c0 1.292.188 2.233.564 2.821a4.812 4.812 0 0 1-.821.246c-.253.049-.518.073-.796.073-.588 0-1.033-.114-1.335-.343-.302-.229-.494-.556-.576-.982-.359.377-.832.696-1.42.958-.588.26-1.307.392-2.156.392-.44 0-.882-.061-1.323-.183a3.474 3.474 0 0 1-1.2-.6 3.108 3.108 0 0 1-.882-1.112c-.229-.465-.343-1.032-.343-1.7 0-.831.2-1.508.6-2.03.4-.522.903-.933 1.507-1.235a6.814 6.814 0 0 1 1.96-.623 18.616 18.616 0 0 1 1.935-.22 7.02 7.02 0 0 1 .575-.025h.527v-.447c0-.628-.168-1.075-.502-1.34-.335-.264-.878-.397-1.63-.397-.701 0-1.326.115-1.873.344-.547.229-1.082.49-1.604.785a3.599 3.599 0 0 1-.551-.92c-.14-.335-.209-.585-.209-.748 0-.23.127-.45.38-.663.253-.212.6-.405 1.041-.576.441-.172.947-.31 1.519-.417a9.908 9.908 0 0 1 1.812-.16c.882 0 1.63.09 2.242.27.612.18 1.11.458 1.494.834.383.377.657.847.82 1.41.163.565.245 1.224.245 1.976v4.612Zm-3.135-2.846h-.343c-.115 0-.229.009-.343.025-.408.033-.813.082-1.212.147-.4.065-.756.18-1.066.343-.31.164-.563.377-.76.638-.195.262-.293.597-.293 1.006 0 .458.13.846.392 1.165.26.32.702.479 1.322.479.31 0 .604-.04.882-.123a3.01 3.01 0 0 0 .735-.319c.212-.13.38-.274.502-.43.123-.154.184-.297.184-.428v-2.503Zm9.234-4.833c.26-.31.668-.626 1.221-.945.553-.319 1.253-.478 2.1-.478.603 0 1.176.102 1.722.307.545.204 1.03.536 1.453.993.423.458.76 1.064 1.013 1.816.252.752.379 1.677.379 2.772 0 1.276-.147 2.327-.44 3.153-.293.826-.671 1.48-1.135 1.962-.464.483-.981.822-1.55 1.019-.57.196-1.14.294-1.71.294-.472 0-.883-.053-1.233-.16a4.935 4.935 0 0 1-.892-.355 2.366 2.366 0 0 1-.805-.663v6.031h-3.331V9.913a5.89 5.89 0 0 1 .641-.086 7.83 7.83 0 0 1 .47-.012c.542 0 1.003.09 1.381.27.379.18.617.483.716.908Zm4.41 4.539c0-.491-.041-.949-.122-1.374a3.344 3.344 0 0 0-.402-1.104 1.956 1.956 0 0 0-.755-.724c-.317-.172-.703-.258-1.157-.258-.682 0-1.157.132-1.425.393-.268.262-.402.548-.402.859v5.2c.13.132.361.287.694.467.333.18.718.27 1.157.27.828 0 1.437-.327 1.827-.982.39-.654.584-1.57.584-2.747Zm6.049 4.22a4.27 4.27 0 0 1-.22-1.031c-.034-.36-.05-.72-.05-1.08V6.258l.368-.05c.114-.015.236-.028.367-.036.13-.008.261-.012.392-.012.261 0 .523.024.784.073.26.05.498.148.71.295.212.147.384.347.515.6.13.254.196.586.196.994v1.742h3.429v2.478h-3.43v5.232c0 1.141.466 1.711 1.397 1.711.228 0 .445-.036.649-.11.204-.074.388-.155.551-.245a3.458 3.458 0 0 0 .686-.503c.245.36.432.671.563.934.13.264.196.51.196.742 0 .215-.085.425-.257.631a2.537 2.537 0 0 1-.723.57 4.49 4.49 0 0 1-1.126.421c-.441.107-.923.161-1.446.161-1.012 0-1.8-.196-2.363-.589a3.13 3.13 0 0 1-1.188-1.545Zm14.928-.32a3.904 3.904 0 0 0 1.917-.465c.246-.131.46-.274.64-.43.18-.155.344-.298.491-.43.197.246.401.561.615.945.213.385.32.7.32.945 0 .36-.205.687-.613.981-.343.262-.83.487-1.457.675-.63.188-1.368.282-2.217.282a8.829 8.829 0 0 1-2.266-.294 5.008 5.008 0 0 1-1.984-1.03c-.58-.491-1.05-1.15-1.409-1.976-.359-.826-.539-1.868-.539-3.128 0-1.03.16-1.917.478-2.662.318-.744.743-1.361 1.274-1.852a5.02 5.02 0 0 1 1.8-1.08 6.322 6.322 0 0 1 2.058-.343c.914 0 1.69.143 2.327.43.637.286 1.155.67 1.555 1.152.4.483.69 1.035.87 1.656.18.622.27 1.276.27 1.963v.344c0 .13-.005.27-.013.417l-.024.429c-.009.14-.021.25-.037.331h-7.226c.065.9.344 1.648.835 2.245.492.597 1.27.896 2.335.896Zm1.116-4.98c0-.785-.152-1.423-.456-1.913-.303-.491-.85-.737-1.638-.737-.673 0-1.211.234-1.613.7-.403.466-.604 1.116-.604 1.95h4.311Zm8.81-3.397c.098-.146.229-.308.392-.487a2.78 2.78 0 0 1 .6-.487c.237-.146.498-.268.784-.365.286-.097.592-.146.919-.146.196 0 .404.016.625.049.22.032.424.093.612.182.187.09.339.21.453.365a.934.934 0 0 1 .171.572c0 .357-.09.766-.269 1.23-.18.462-.36.857-.539 1.184a3.63 3.63 0 0 0-.833-.527 2.41 2.41 0 0 0-.98-.185c-.506 0-.93.148-1.273.443-.343.295-.515.648-.515 1.058v7.942h-3.33V9.913a5.859 5.859 0 0 1 .636-.086 7.71 7.71 0 0 1 .465-.012c.523 0 .976.102 1.36.304.383.203.625.515.722.936Zm9.472 0c.098-.146.228-.308.392-.487a2.78 2.78 0 0 1 .6-.487c.236-.146.498-.268.784-.365.285-.097.591-.146.918-.146.196 0 .404.016.625.049.22.032.424.093.612.182.188.09.339.21.453.365a.935.935 0 0 1 .172.572c0 .357-.09.766-.27 1.23-.18.462-.359.857-.539 1.184a3.627 3.627 0 0 0-.832-.527 2.41 2.41 0 0 0-.98-.185c-.506 0-.931.148-1.274.443-.343.295-.514.648-.514 1.058v7.942h-3.332V9.913a5.869 5.869 0 0 1 .637-.086c.13-.008.286-.012.466-.012.522 0 .975.102 1.359.304.384.203.625.515.723.936Zm15.897 7.617c0 1.292.188 2.233.564 2.821a4.818 4.818 0 0 1-.821.246c-.253.049-.519.073-.796.073-.588 0-1.033-.114-1.335-.343-.303-.229-.494-.556-.576-.982-.359.377-.833.696-1.42.958-.588.26-1.307.392-2.156.392-.44 0-.882-.061-1.323-.183a3.472 3.472 0 0 1-1.2-.6 3.109 3.109 0 0 1-.882-1.112c-.229-.465-.343-1.032-.343-1.7 0-.831.2-1.508.6-2.03.4-.522.903-.933 1.507-1.235a6.812 6.812 0 0 1 1.96-.623 18.609 18.609 0 0 1 1.935-.22c.196-.017.387-.025.575-.025h.527v-.447c0-.628-.168-1.075-.502-1.34-.335-.264-.878-.397-1.63-.397-.701 0-1.326.115-1.873.344-.547.229-1.082.49-1.605.785a3.604 3.604 0 0 1-.55-.92c-.14-.335-.209-.585-.209-.748 0-.23.126-.45.38-.663.253-.212.6-.405 1.04-.576.442-.172.948-.31 1.52-.417a9.91 9.91 0 0 1 1.812-.16c.882 0 1.63.09 2.241.27.613.18 1.11.458 1.495.834.383.377.657.847.82 1.41.163.565.245 1.224.245 1.976v4.612Zm-3.135-2.846h-.343c-.115 0-.229.009-.343.025a15.09 15.09 0 0 0-1.213.147c-.4.065-.755.18-1.065.343-.31.164-.564.377-.76.638-.195.262-.293.597-.293 1.006 0 .458.13.846.392 1.165.26.32.702.479 1.322.479.31 0 .604-.04.882-.123.278-.081.523-.188.735-.319.212-.13.38-.274.502-.43.123-.154.184-.297.184-.428v-2.503Z"/></g></svg>
