<svg xmlns="http://www.w3.org/2000/svg" width="48" height="48"><g fill="none" fill-rule="nonzero"><path fill="#25C16F" d="M23.918 0h18.027A6.001 6.001 0 0 1 48 6.055v18.027C48 37.292 37.291 48 24.082 48h-.137A23.918 23.918 0 0 1 0 24.082C0 10.827 10.69.136 23.918 0Z"/><path fill="#FFF" d="M23.918 10.69c-6.07 0-10.99 4.922-10.99 10.992v7.473a3.736 3.736 0 0 0 3.654 3.654h3.109v-8.59h-4.2v-2.4a8.536 8.536 0 0 1 17.045 0v2.4h-4.254v8.59h2.809v.136a3.436 3.436 0 0 1-3.382 3.382h-3.354c-.273 0-.573.137-.573.41a.6.6 0 0 0 .573.572h3.381a4.39 4.39 0 0 0 4.364-4.364v-.272a3.6 3.6 0 0 0 2.81-3.546v-7.309c.135-6.19-4.774-11.127-10.992-11.127Z"/></g></svg>
