<svg xmlns="http://www.w3.org/2000/svg" width="113" height="32"><path fill="#616B86" fill-rule="evenodd" d="M24.148 7.17c-.32.363-.697.725-1.093 1.126l-1.563 1.506h4.54v1.869h-7.309v-.973l2.543-3.108c.47-.477.866-.896 1.149-1.259.282-.343.621-.762.772-1.03.188-.305 1.15-1.239 1.055-2.402-.414-1.297-1.601-1.412-2.298-1.316-.716.019-1.545.991-1.676 1.83 0 0-1.3-.19-1.583-.324.02-.362.64-1.945 1.846-2.65.584-.267.96-.4 1.639-.4.527 0 .998.075 1.432.209.433.133.79.343 1.092.61.301.267.81.591.96.992.246.515.434 1.049.434 1.583.056 1.182-.942 2.345-1.13 2.65-.226.382-.49.744-.81 1.087ZM15.672 32C7.007 32 0 24.887 0 16.133 0 7.361 7.026.267 15.672.267v5.607c-5.595 0-10.134 4.596-10.134 10.26 0 5.663 4.54 10.278 10.134 10.278 4.445 0 8.212-2.898 9.587-6.922-2.712 0-6.555-.02-6.555-.02v-5.873h12.45c.133.82.208 1.678.208 2.536C31.343 24.906 24.336 32 15.672 32ZM36.617 0h1.055v31.733h-1.055V0Zm15.314 23.437c-.904.553-2.034.84-3.353.84-1.375 0-2.524-.23-3.41-.706-.903-.477-1.487-1.125-1.789-1.964-.282-.84-.433-2.098-.433-3.776v-5.016c0-1.24.038-2.155.132-2.784.094-.61.358-1.22.81-1.793.452-.572 1.055-1.03 1.846-1.354.79-.324 1.695-.495 2.712-.495 1.394 0 2.543.247 3.447.762.904.515 1.488 1.145 1.79 1.907.282.763.339.534.339 2.136v1.335l-3.843-.057v-1.163c0-.878-.094-1.43-.301-1.66-.207-.21-.64-.324-1.3-.324-.772 0-1.243.134-1.45.4-.208.268-.302.84-.302 1.717v7.838c0 .84.094 1.392.302 1.66.207.266.659.38 1.394.38.696 0 1.13-.133 1.356-.38.207-.268.32-.611.32-1.565l-.019-1.24h3.861v.268c0 1.773-.056 2.346-.32 3.07-.301.744-.885 1.411-1.79 1.964Zm10.981-12.51c0-.534-.263-1.163-.772-1.335-.509-.171-1.168-.248-2.524-.248v4.863c1.318 0 1.978-.076 2.486-.21.528-.133.791-1.372.791-2.135v-.935h.02Zm0 7.686c0-.916-.188-1.469-.565-1.698-.377-.21-1.111-.324-2.712-.324v7.419h-3.786l.056-17.24h3.41c2.279 0 3.823.076 4.633.248s1.47.572 1.978 1.24c.509.667.772 1.735.772 3.203 0 1.335-.226 2.537-.565 2.994-.358.458-1.055.744-2.09.84.941.228 1.582.514 1.902.877.32.362.527.705.603 1.01.075.305.17.82.17 2.213v4.52l-3.768.095v-5.397h-.038ZM76.4 11.194c0-.8-.132-1.297-.377-1.525-.245-.23-.772-.325-1.544-.325-.66 0-1.168.096-1.526.267-.358.172-.528.706-.528 1.583v7.972c0 .991.113 1.602.34 1.83.226.23.772.344 1.6.344.867 0 1.413-.134 1.658-.4.245-.268.358-.897.358-1.908v-7.838h.019Zm2.957 11.233c-.47.59-1.13 1.049-1.94 1.373-.81.324-1.77.477-2.863.477-1.036 0-1.959-.153-2.788-.458-.829-.305-1.488-.744-1.978-1.354a3.72 3.72 0 0 1-.885-1.964c-.094-.706-.15-1.946-.15-3.72v-2.936c0-1.716.037-2.937.131-3.661a3.772 3.772 0 0 1 .867-1.965c.49-.59 1.13-1.049 1.94-1.373.81-.324 1.77-.477 2.863-.477 1.036 0 1.959.153 2.788.458.828.305 1.488.744 1.977 1.354.49.591.792 1.259.886 1.964.094.706.15 1.946.15 3.7v2.956c0 1.716-.037 2.937-.131 3.661a3.772 3.772 0 0 1-.867 1.965Zm14.052 1.487c-.547-2.632-1.827-9.096-2.26-12.472-.189 1.45-1.696 7.914-2.393 12.472h-4.144l-3.22-17.163h3.635l1.036 5.988.753 7.113c.17-2.994 1.677-8.257 2.392-13.101h4.22c.056.496.772 2.384 1.054 5.664l1.055 7.323c.283-4.158 1.243-9.02 1.884-12.987h3.371l-3.465 17.163h-3.918Zm15.916-12.205c0-.763-.056-1.258-.17-1.487-.112-.21-.395-.382-.828-.477-.433-.095-1.224-.153-2.411-.153v11.462c1.563 0 2.505-.134 2.882-.382.358-.248.546-.953.546-2.098V11.71h-.019Zm3.447 10.203c-.15.515-.433.934-.829 1.22a3.603 3.603 0 0 1-1.45.61c-.565.115-1.168.172-2.336.172h-6.084V6.751h3.617c2.335 0 3.654.095 4.464.305.829.19 1.45.515 1.884.973.433.457.696.953.81 1.506.113.553.15 1.64.15 3.261v6.007c.019 1.545-.056 2.575-.226 3.109Z"/></svg>
