<svg xmlns="http://www.w3.org/2000/svg" width="130" height="24"><g fill="#616B86" fill-rule="nonzero"><path d="M32.852 9.063 24.122.3a.757.757 0 0 0-1.04 0l-1.715 1.722 7.014 7.04a.737.737 0 0 1 0 1.044l-7.211 7.238 1.715 1.722a.757.757 0 0 0 1.04 0l8.927-8.96a.764.764 0 0 0 0-1.044M17.982.937l-.634-.636a.757.757 0 0 0-1.04 0l-1.715 1.722 1.138 1.143 2.236 2.244 2.231-2.244L17.982.937ZM17.77 13.954l-2.232 2.244-1.139 1.143 1.716 1.722a.757.757 0 0 0 1.04 0l.63-.636 2.235-2.244-2.25-2.229Z"/><path d="M21.606 9.063a.764.764 0 0 1 0 1.044l-3.837 3.847 2.236 2.244 6.072-6.095a.737.737 0 0 0 0-1.044l-5.86-5.878-2.235 2.244 3.624 3.638ZM7.37 9.272l6.073-6.095L11.207.933 10.57.301a.757.757 0 0 0-1.04 0L.596 9.272a.737.737 0 0 0 0 1.044l8.729 8.762a.757.757 0 0 0 1.04 0l.641-.636 2.236-2.244-5.872-5.882a.737.737 0 0 1 0-1.044"/><path d="m14.145 9.272 2.683-2.69-2.235-2.243-1.139-1.143-6.072 6.095a.737.737 0 0 0 0 1.044l5.848 5.863 1.139-1.143 2.235-2.244-2.474-2.48a.764.764 0 0 1 0-1.043"/><path d="m14.145 10.316 2.474 2.48 2.68-2.69a.737.737 0 0 0 0-1.043l-2.47-2.48-2.684 2.69a.764.764 0 0 0 0 1.043M39.85 7.204a8.576 8.576 0 0 1 .581-2.895 6.272 6.272 0 0 1 1.518-2.248A6.959 6.959 0 0 1 44.405.606 10.276 10.276 0 0 1 47.82.09c1.291-.041 2.579.16 3.796.595a7.445 7.445 0 0 1 2.372 1.428 4.914 4.914 0 0 1 1.237 1.718c.205.479.34.984.402 1.501a.595.595 0 0 1-.197.515.757.757 0 0 1-.516.198H52.78a.708.708 0 0 1-.463-.145.94.94 0 0 1-.247-.305 13.287 13.287 0 0 0-.277-.465 3.122 3.122 0 0 0-.713-.739 4.928 4.928 0 0 0-1.276-.685 5.492 5.492 0 0 0-1.977-.305 4.543 4.543 0 0 0-3.161 1.07 3.908 3.908 0 0 0-1.264 2.869c-.038.67-.053 1.39-.053 2.156 0 .766 0 1.486.053 2.156.049 1.463.474 2.526 1.264 3.185a4.758 4.758 0 0 0 3.153.99 7.151 7.151 0 0 0 1.792-.213c.512-.126.992-.36 1.408-.685a3.15 3.15 0 0 0 .922-1.258 4.93 4.93 0 0 0 .33-1.904v-.225h-3.214a.67.67 0 0 1-.501-.213.683.683 0 0 1-.21-.5V8.952a.722.722 0 0 1 .71-.716h6.073c.39.006.706.324.71.716v2.907a8.241 8.241 0 0 1-.501 2.922 6.18 6.18 0 0 1-1.518 2.286 6.956 6.956 0 0 1-2.505 1.523 11.644 11.644 0 0 1-6.98 0 6.637 6.637 0 0 1-2.436-1.447 6.334 6.334 0 0 1-1.488-2.286 8.886 8.886 0 0 1-.57-2.922c0-.335-.03-.705-.037-1.108-.008-.404 0-.823 0-1.246V8.339c0-.408.023-.762.038-1.112M63.954 8.027a3.355 3.355 0 0 0-1.306.224c-.336.134-.644.33-.907.58a2.605 2.605 0 0 0-.569.796 3.01 3.01 0 0 0-.247.83h5.951a4.295 4.295 0 0 0-.197-.83 2.146 2.146 0 0 0-.474-.797 2.432 2.432 0 0 0-.87-.579 3.578 3.578 0 0 0-1.38-.224m-6.453 3.965a8.52 8.52 0 0 1 .448-2.788 6.719 6.719 0 0 1 1.29-2.286 6.12 6.12 0 0 1 2.042-1.524 6.31 6.31 0 0 1 2.657-.552 6.393 6.393 0 0 1 2.657.54c.784.344 1.49.846 2.072 1.475a6.446 6.446 0 0 1 1.305 2.141c.31.824.466 1.698.463 2.58v1.188a.726.726 0 0 1-.713.716h-8.798c-.008.372.076.74.247 1.07.168.3.398.56.676.762.292.217.621.379.971.476.371.104.754.157 1.139.157.463.013.925-.045 1.37-.172a2.9 2.9 0 0 0 .87-.434c.147-.114.306-.213.473-.293.16-.06.33-.088.501-.08h2.107a.758.758 0 0 1 .516.213.6.6 0 0 1 .197.503c-.059.346-.2.672-.41.952a4.517 4.517 0 0 1-1.138 1.143 7.379 7.379 0 0 1-1.898.952 7.72 7.72 0 0 1-2.596.381 6.733 6.733 0 0 1-2.656-.514 5.727 5.727 0 0 1-2.057-1.455 6.627 6.627 0 0 1-1.29-2.263 8.857 8.857 0 0 1-.449-2.895M76.744 13.897c-.025.476.131.943.437 1.307.288.327.827.491 1.62.491h1.606c.39.004.707.32.713.713v1.744a.726.726 0 0 1-.713.717h-1.951c-1.652 0-2.918-.402-3.795-1.204-.878-.803-1.321-2.032-1.329-3.688V8.29H71.58a.667.667 0 0 1-.497-.214.66.66 0 0 1-.213-.499V5.83a.672.672 0 0 1 .213-.5.682.682 0 0 1 .497-.213h1.742V.804a.722.722 0 0 1 .71-.713h2.003c.39.007.704.322.71.713v4.312h3.416a.723.723 0 0 1 .68.713v1.748a.722.722 0 0 1-.71.713h-3.416l.03 5.607ZM94.054 11.966l-2.9-7.54-2.895 7.54h5.795ZM92.604.354a.837.837 0 0 1 .634.225c.17.197.299.427.38.674l6.452 16.717c.017.059.026.12.026.182a.726.726 0 0 1-.713.717h-1.898a.996.996 0 0 1-.74-.225 1.341 1.341 0 0 1-.288-.438l-1.139-2.934h-8.323l-1.138 2.934a1.341 1.341 0 0 1-.289.438.996.996 0 0 1-.74.225H82.93a.727.727 0 0 1-.71-.717.551.551 0 0 1 .027-.182L88.7 1.253c.081-.247.21-.477.38-.674.17-.16.4-.242.634-.225h2.892ZM111.365 12.731a6.883 6.883 0 0 0 0-1.478c-.103-1.143-.456-1.973-1.052-2.472a3.29 3.29 0 0 0-2.186-.762 3.2 3.2 0 0 0-2.175.762 3.152 3.152 0 0 0-1.013 2.194c-.04.334-.058.67-.053 1.006-.005.336.013.672.053 1.006a3.205 3.205 0 0 0 1.013 2.167 3.132 3.132 0 0 0 2.175.793 3.29 3.29 0 0 0 2.186-.762c.596-.5.95-1.326 1.052-2.473m-2.44 6.42a6.274 6.274 0 0 1-1.462-.157 5.886 5.886 0 0 1-1.139-.38 4.393 4.393 0 0 1-.816-.534 4.69 4.69 0 0 1-.55-.514v5.63a.726.726 0 0 1-.713.716h-2a.726.726 0 0 1-.714-.716V5.83a.726.726 0 0 1 .714-.713h2c.39.006.705.321.713.713v.61a4.69 4.69 0 0 1 .55-.515c.257-.203.536-.377.832-.518a5.886 5.886 0 0 1 1.138-.381c.48-.11.97-.162 1.461-.156a5.418 5.418 0 0 1 2.384.514c.693.33 1.311.797 1.818 1.375a6.63 6.63 0 0 1 1.188 1.985c.289.747.453 1.538.485 2.339.02.263.027.571.027.926 0 .354 0 .662-.027.925a7.307 7.307 0 0 1-.485 2.34 6.63 6.63 0 0 1-1.188 1.984 5.634 5.634 0 0 1-1.818 1.375 5.417 5.417 0 0 1-2.399.5M126.257 12.731a6.883 6.883 0 0 0 0-1.478c-.106-1.143-.455-1.973-1.055-2.472a3.275 3.275 0 0 0-2.186-.762 3.2 3.2 0 0 0-2.175.762 3.152 3.152 0 0 0-1.013 2.194c-.039.334-.056.67-.053 1.006a8.06 8.06 0 0 0 .053 1.006 3.205 3.205 0 0 0 1.013 2.167 3.132 3.132 0 0 0 2.175.793c.797.02 1.574-.25 2.186-.762.6-.5.949-1.326 1.055-2.473m-2.452 6.4a6.296 6.296 0 0 1-1.46-.156 5.98 5.98 0 0 1-1.14-.38 4.354 4.354 0 0 1-.827-.519 4.759 4.759 0 0 1-.554-.514v5.634a.69.69 0 0 1-.212.503.678.678 0 0 1-.498.213h-2.003a.722.722 0 0 1-.71-.716V5.83a.722.722 0 0 1 .71-.713h2.003a.726.726 0 0 1 .71.713v.61c.171-.187.356-.359.554-.515.256-.203.533-.377.828-.518a5.98 5.98 0 0 1 1.138-.381c.48-.11.97-.162 1.461-.156a5.433 5.433 0 0 1 2.388.514c.692.33 1.31.799 1.818 1.375a6.618 6.618 0 0 1 1.184 1.985c.289.747.453 1.538.486 2.339.018.263.026.571.026.926 0 .354 0 .662-.026.925a7.307 7.307 0 0 1-.486 2.34 6.618 6.618 0 0 1-1.184 1.984 5.695 5.695 0 0 1-1.818 1.375 5.433 5.433 0 0 1-2.388.515"/></g></svg>
