<svg xmlns="http://www.w3.org/2000/svg" width="34" height="34"><path fill="#FFF" fill-rule="nonzero" d="M16.67.943C7.52.943.1 8.363.1 17.516c0 7.321 4.747 13.53 11.332 15.723.83.152 1.132-.36 1.132-.799 0-.394-.016-1.436-.022-2.819C7.932 30.623 6.96 27.4 6.96 27.4c-.755-1.915-1.84-2.424-1.84-2.424-1.506-1.029.113-1.008.113-1.008 1.663.117 2.539 1.708 2.539 1.708 1.479 2.531 3.877 1.8 4.823 1.376.15-1.072.579-1.801 1.052-2.215-3.68-.419-7.548-1.839-7.548-8.19 0-1.81.646-3.29 1.706-4.447-.17-.42-.738-2.104.163-4.387 0 0 1.39-.444 4.556 1.7a15.892 15.892 0 0 1 4.149-.558 15.89 15.89 0 0 1 4.147.558c3.165-2.144 4.553-1.7 4.553-1.7.905 2.282.336 3.967.165 4.387 1.062 1.158 1.704 2.637 1.704 4.446 0 6.366-3.874 7.767-7.567 8.178.597.511 1.124 1.524 1.124 3.069 0 2.215-.02 4.002-.02 4.546 0 .443.298.958 1.14.796 6.579-2.193 11.322-8.4 11.322-15.719C33.242 8.364 25.822.943 16.671.943Z"/></svg>
