<svg viewBox="0 0 24 24" fill="none" xmlns="http://www.w3.org/2000/svg">
<path d="M23.238 9.65495L23.2053 9.57103L20.0408 1.27335C19.9764 1.11072 19.8624 0.972758 19.7152 0.879263C19.5678 0.787356 19.3959 0.743091 19.2227 0.752444C19.0495 0.761797 18.8834 0.824318 18.7467 0.931564C18.6115 1.04189 18.5134 1.19139 18.4658 1.35971L16.3291 7.92779H7.67695L5.54024 1.35971C5.4939 1.19047 5.39562 1.04022 5.25938 0.930348C5.12268 0.823101 4.95651 0.760581 4.78332 0.751228C4.61013 0.741875 4.43826 0.78614 4.2909 0.878046C4.14396 0.971919 4.03006 1.10976 3.96525 1.27213L0.794686 9.56616L0.763211 9.65009C0.307665 10.846 0.251435 12.1582 0.603 13.389C0.954564 14.6198 1.69486 15.7024 2.71228 16.4736L2.72317 16.4821L2.75223 16.5028L7.57283 20.1298L9.95772 21.9434L11.4104 23.0453C11.5804 23.175 11.7879 23.2451 12.0012 23.2451C12.2146 23.2451 12.4221 23.175 12.592 23.0453L14.0447 21.9434L16.4296 20.1298L21.2792 16.4809L21.2914 16.4712C22.3065 15.6999 23.0451 14.6184 23.3961 13.3892C23.7471 12.1601 23.6916 10.8497 23.238 9.65495Z" fill="#E24329"/>
<path d="M23.238 9.65497L23.2053 9.57104C21.6634 9.88904 20.2103 10.5453 18.9501 11.4928L12 16.7728C14.3667 18.5718 16.4272 20.1347 16.4272 20.1347L21.2768 16.4858L21.2889 16.476C22.3055 15.7048 23.0452 14.6226 23.3968 13.3924C23.7483 12.1622 23.6926 10.8506 23.238 9.65497Z" fill="#FC6D26"/>
<path d="M7.57281 20.1347L9.9577 21.9482L11.4104 23.0502C11.5803 23.1798 11.7878 23.25 12.0012 23.25C12.2145 23.25 12.422 23.1798 12.592 23.0502L14.0447 21.9482L16.4296 20.1347C16.4296 20.1347 14.3667 18.5669 12 16.7728C9.63326 18.5669 7.57281 20.1347 7.57281 20.1347Z" fill="#FCA326"/>
<path d="M5.04873 11.4928C3.78946 10.5433 2.33675 9.88536 0.794686 9.56616L0.763211 9.65009C0.307665 10.846 0.251435 12.1582 0.603 13.389C0.954564 14.6198 1.69486 15.7024 2.71228 16.4736L2.72317 16.4821L2.75223 16.5028L7.57283 20.1298C7.57283 20.1298 9.63086 18.5669 12 16.7679L5.04873 11.4928Z" fill="#FC6D26"/>
</svg>