<svg width="122" height="20" viewBox="0 0 122 20" fill="none" xmlns="http://www.w3.org/2000/svg">
<g opacity="1">
<path d="M60.7508 19.426C64.8139 19.426 67.5206 16.7865 67.5206 12.3318V0.936768H63.077V12.1534C63.077 14.2269 62.3343 15.2544 60.7754 15.2544C59.2717 15.2544 58.6272 14.2023 58.6272 12.1534V0.936768H54.1591V12.3318C54.1652 16.8849 56.6386 19.426 60.7508 19.426Z" fill="#636C87"/>
<path d="M79.4278 1.93353C78.2002 1.06598 76.7456 0.936768 74.8307 0.936768H68.8036V19.143H73.2472V13.2794H74.5238C76.4142 13.2794 77.8443 13.1502 78.9981 12.461C80.8087 11.3597 81.8828 9.41538 81.8828 7.05884C81.8828 4.77614 81.042 3.0595 79.4278 1.93353ZM74.1187 9.33539H73.3025V5.00995H74.4747C76.4449 5.00995 77.3901 5.62523 77.3901 7.13268C77.384 8.76933 76.316 9.33539 74.1187 9.33539Z" fill="#636C87"/>
<path d="M106.458 9.00314L113.228 19.143H117.131V0.936768H112.694V11.052L106.022 0.936768H102.015V19.143H106.458V9.00314Z" fill="#636C87"/>
<path d="M50.1986 3.29316C48.4371 1.55191 46.1416 0.60437 43.7111 0.60437C41.1333 0.60437 38.8808 1.50268 37.0948 3.26855C35.3088 5.03441 34.3329 7.34173 34.3329 9.85209C34.3329 12.5409 35.2044 14.7928 36.9107 16.6141C38.6967 18.5091 40.9983 19.4813 43.6804 19.4813C46.2091 19.4813 48.6089 18.4845 50.3704 16.6387C52.0828 14.8728 53.0035 12.5409 53.0035 9.93207C53.0096 7.44017 52.0399 5.10825 50.1986 3.29316ZM43.6866 14.9712C41.1824 14.9712 38.9115 12.7685 38.9115 9.90131C38.9115 7.23713 41.029 5.1144 43.7418 5.1144C46.2951 5.1144 48.4187 7.23713 48.4187 9.90131C48.4125 12.867 46.2951 14.9712 43.6866 14.9712Z" fill="#636C87"/>
<path d="M98.3294 3.29316C96.5679 1.55191 94.2663 0.60437 91.842 0.60437C89.2581 0.60437 87.0117 1.50268 85.2257 3.26855C83.4396 5.03441 82.4637 7.34173 82.4637 9.85209C82.4637 12.5409 83.3353 14.7928 85.0415 16.6141C86.8337 18.5091 89.1292 19.4813 91.8113 19.4813C94.34 19.4813 96.7398 18.4845 98.5013 16.6387C100.214 14.8728 101.134 12.5409 101.134 9.93207C101.14 7.44017 100.171 5.10825 98.3294 3.29316ZM91.8174 14.9712C89.3133 14.9712 87.0424 12.7685 87.0424 9.90131C87.0424 7.23713 89.166 5.1144 91.8727 5.1144C94.4259 5.1144 96.5495 7.23713 96.5495 9.90131C96.5434 12.867 94.4198 14.9712 91.8174 14.9712Z" fill="#636C87"/>
<path d="M3.40652 16.6081C5.19256 18.5031 7.46961 19.4999 10.1517 19.4999C13.2451 19.4999 16.1543 17.9617 17.8913 15.4267C18.9408 13.8885 19.4502 12.1473 19.4502 10.0984C19.4502 9.7169 19.4257 9.30466 19.4011 8.89242H9.05311V12.5287H14.2394C13.3433 14.1162 11.8396 14.9899 10.1517 14.9899C7.6476 14.9899 5.40124 12.7626 5.40124 9.86456C5.40124 7.24961 7.49416 5.07766 10.1517 5.07766C11.5818 5.07766 12.7541 5.66833 13.8834 6.84352H18.9408C17.4862 2.94877 14.0859 0.567627 10.207 0.567627C7.62919 0.567627 5.38283 1.49055 3.59065 3.25642C1.80461 5.02228 0.834871 7.3296 0.834871 9.83995C0.828734 12.5349 1.69413 14.7868 3.40652 16.6081Z" fill="#636C87"/>
<path d="M29.5343 12.8917C32.1121 12.1719 33.6465 9.97529 33.6465 7.02808C33.6465 4.77614 32.8056 3.0595 31.1914 1.93353C29.9639 1.06598 28.5093 0.936768 26.5944 0.936768H20.5673V19.143H25.0109V13.2794L28.4848 19.143H33.9779L29.5343 12.8917ZM25.8824 9.33539H25.017V5.00995H26.2445C28.2086 5.00995 29.1538 5.62523 29.1538 7.13268C29.1538 8.76933 28.0797 9.33539 25.8824 9.33539Z" fill="#636C87"/>
<path d="M119.799 3.24417C120.179 3.24417 120.504 3.1088 120.768 2.83808C121.038 2.56735 121.167 2.24125 121.167 1.86593C121.167 1.48445 121.032 1.16451 120.768 0.899934C120.504 0.635362 120.179 0.5 119.799 0.5C119.424 0.5 119.099 0.635362 118.835 0.899934C118.565 1.17066 118.436 1.49061 118.436 1.86593C118.436 2.24741 118.571 2.57351 118.835 2.83808C119.099 3.1088 119.418 3.24417 119.799 3.24417ZM118.97 1.02914C119.203 0.795336 119.48 0.678432 119.805 0.678432C120.13 0.678432 120.412 0.795336 120.639 1.02914C120.867 1.2568 120.983 1.53983 120.983 1.86593C120.983 2.19203 120.867 2.47506 120.639 2.70887C120.412 2.94268 120.136 3.05958 119.805 3.05958C119.48 3.05958 119.197 2.94268 118.97 2.70887C118.743 2.47506 118.627 2.19818 118.627 1.86593C118.627 1.53983 118.737 1.26295 118.97 1.02914Z" fill="#636C87"/>
<path d="M120.406 2.59201C120.4 2.57971 120.393 2.5551 120.393 2.51203C120.393 2.47511 120.387 2.43204 120.387 2.40128V2.29053C120.387 2.21669 120.363 2.1367 120.308 2.05672C120.253 1.97673 120.167 1.92751 120.05 1.90905C120.142 1.89674 120.216 1.87213 120.265 1.83522C120.363 1.77369 120.412 1.66909 120.412 1.53988C120.412 1.34914 120.332 1.21993 120.179 1.1584C120.093 1.12149 119.958 1.10303 119.768 1.10303H119.241V2.61047H119.505V2.0198H119.713C119.854 2.0198 119.952 2.03826 120.007 2.06902C120.105 2.1244 120.148 2.2413 120.148 2.41358V2.53049L120.154 2.57971C120.154 2.58586 120.154 2.59201 120.154 2.59817C120.154 2.60432 120.154 2.61047 120.161 2.61047H120.406V2.59201ZM120.007 1.7983C119.952 1.82291 119.866 1.82906 119.756 1.82906H119.517V1.28146H119.744C119.891 1.28146 119.995 1.29992 120.062 1.33684C120.13 1.37375 120.161 1.44759 120.161 1.55834C120.161 1.68139 120.105 1.76138 120.007 1.7983Z" fill="#636C87"/>
</g>
</svg>
