<svg xmlns="http://www.w3.org/2000/svg" width="14" height="20"><path fill="#FFF" fill-rule="nonzero" d="M13.821 11.86V.481h-3.118v.759C9.69.566 8.51.229 7.247.229c-3.54 0-6.49 2.95-6.49 6.574 0 3.624 2.95 6.574 6.49 6.574 1.264 0 2.444-.337 3.456-1.011v.253a3.418 3.418 0 0 1-3.456 3.455 3.61 3.61 0 0 1-1.854-.505l-1.517 2.697a6.757 6.757 0 0 0 3.371.927 6.583 6.583 0 0 0 6.574-6.574c0-.169.085-.59 0-.759Zm-6.574-1.601c-1.854 0-3.456-1.518-3.456-3.456a3.418 3.418 0 0 1 3.456-3.456 3.418 3.418 0 0 1 3.456 3.456c0 1.854-1.517 3.456-3.456 3.456Z"/></svg>
