<svg xmlns="http://www.w3.org/2000/svg" width="34" height="13"><path fill="#FFF" fill-rule="nonzero" d="M33.222 7.82c0-.24-.139-.371-.267-.371-.301 0-.29.514-.94 1.04a14.082 14.082 0 0 1-.15-1.883c0-1.126.255-1.958.255-2.32a.404.404 0 0 0-.394-.437c-.466.071-.875.348-1.113.755-.186.35-.302 1.86-.302 2.725 0 .36-.081.754-.394.754s-.453-.35-.453-1.477c0-1.126.267-1.958.267-2.32a.414.414 0 0 0-.417-.437c-.465.074-.873.35-1.114.755-.162.35-.278 1.86-.278 2.725a4.06 4.06 0 0 0 .034.494c.016.157-.142.26-.277.26-.267 0-.395-.35-.395-1.477 0-1.126.673-5.186.673-5.547a.42.42 0 0 0-.418-.437 1.58 1.58 0 0 0-1.113.744c-.174.36-.684 5.098-.684 5.963 0 .052.001.104.003.155a.664.664 0 0 1-.71.6c-.29 0-.523-.35-.523-1.478 0-.46.093-1.313.198-2.166.475-.076.777-.164.974-.35.169-.258.269-.556.29-.864 0-.11-.035-.241-.163-.241-.255 0-.626.219-.95.306.104-.722.185-1.302.185-1.444a.414.414 0 0 0-.418-.438 1.601 1.601 0 0 0-1.113.744c-.13.54-.215 1.088-.255 1.642-.417.164-.719.328-.719.448 0 .263.302.317.638.328-.128 1.149-.209 2.342-.209 2.769l.002.052c0 .002-.002.003-.001.006.012.375-.002.685-.245.685-.208 0-.406-.251-.406-1.028 0-.7.128-1.247.128-1.816 0-.744-.197-1.39-1.09-1.39A1.774 1.774 0 0 0 20 4.626c.162-1.532.452-3.337.452-3.567a.41.41 0 0 0-.394-.437 1.58 1.58 0 0 0-1.113.744c-.181.351-.581 4.848-.602 6.59 0 .35-.189.415-.384.532a13.142 13.142 0 0 1-.151-1.882c0-1.126.279-1.958.279-2.32a.42.42 0 0 0-.418-.437 1.486 1.486 0 0 0-.835.405c-.104-.208-.336-.405-.893-.405-.882 0-2.215.766-2.215 3.031 0 .325.045.649.134.962-.074.13-.163.241-.318.241-.267 0-.395-.35-.395-1.477 0-1.126.267-1.958.267-2.32a.414.414 0 0 0-.418-.437 1.574 1.574 0 0 0-1.101.755c-.174.35-.29 1.86-.29 2.736 0 1.006.37 1.816 1.461 1.816.454.005.88-.214 1.142-.585.255.372.679.591 1.13.585.429 0 .842-.16 1.16-.449.034.142.08.307.104.46-1.334.47-2.668.798-2.668 1.881 0 .602.557 1.27 1.81 1.27 2.076 0 2.424-1.313 2.424-2.003a7.59 7.59 0 0 0-.116-1.072 3.73 3.73 0 0 0 .378-.251.227.227 0 0 0 .213.164c1.09 0 1.299-.47 1.299-.766 0-.405-.012-.613-.012-.81 0-1.05.093-2.648.8-2.648.21 0 .267.197.267.493 0 .525-.197 1.357-.197 1.915 0 1.006.383 1.816 1.45 1.816a1.38 1.38 0 0 0 1.105-.52c.3.355.75.548 1.214.52a1.626 1.626 0 0 0 1.363-.777c.213.505.724.817 1.27.777.415.005.809-.18 1.07-.502.264.342.68.53 1.11.502.455.008.883-.214 1.137-.591l.139.602c-1.334.47-2.667.798-2.667 1.881 0 .602.556 1.27 1.809 1.27 2.076 0 2.424-1.313 2.424-2.003a7.583 7.583 0 0 0-.116-1.072c.94-.547 1.113-1.116 1.113-1.422ZM16.481 6.767c-.02.272-.103.536-.246.769a.808.808 0 0 1-.592.375c-.184.02-.669.031-.669-1.322a1.833 1.833 0 0 1 .722-1.543v-.001c1.066-.676.837 1.225.785 1.722Zm-.516 4.622a.577.577 0 0 1-.615-.591c0-.416.731-.722 1.38-.963.031.196.047.393.047.59 0 .46-.313.964-.812.964Zm14.056 0a.577.577 0 0 1-.615-.591c0-.416.731-.722 1.38-.963.031.196.047.393.047.59 0 .46-.313.964-.812.964Zm-17.188-7.85c-.335 0-.67-.129-.67-.893 0-.677.682-.993 1.085-.993.37 0 .693.164.693.59a1.216 1.216 0 0 1-1.108 1.296ZM1.259 2.645c0-.677.682-.993 1.086-.993.37 0 .693.163.693.589a1.216 1.216 0 0 1-1.109 1.296c-.335 0-.67-.128-.67-.892Zm10.11 5.154c0 .971-.803 1.452-1.97 1.452a2.48 2.48 0 0 1-1.467-.456c-.26.238-.602.368-.955.36-.927 0-1.436-.6-1.436-1.584 0-.557.173-1.311.173-1.803 0-.284-.07-.48-.266-.48-.463 0-.869 1.354-.869 3.103 0 .295-.208.765-1.297.765-.154 0-.226-.109-.253-.294a1.35 1.35 0 0 1-.86.294c-1.09 0-1.461-.81-1.461-1.816 0-.876.116-2.386.29-2.736.237-.403.64-.68 1.101-.755a.414.414 0 0 1 .418.438c0 .361-.267 1.193-.267 2.32 0 1.126.128 1.476.395 1.476a.39.39 0 0 0 .437-.318c.028-.287.056-.595.061-.904.012-1.792.046-1.989.116-2.24.104-.514.938-.863 1.309-.863a.343.343 0 0 1 .382.393c0 .23-.162.546-.232.994.267-.568.962-1.289 1.599-1.289.718 0 .903.514.903 1.158 0 .689-.185 1.377-.185 2.131 0 .662.132.903.365.934a.761.761 0 0 1-.026-.184c0-.63.69-1.143.996-1.143.215 0 .283.182.306.481a2.1 2.1 0 0 0 .016.144c.065.447.29 1.009.81 1.009A.435.435 0 0 0 10 7.938a.985.985 0 0 0-.314-.63c-.4-.38-.826-.733-1.273-1.056a1.468 1.468 0 0 1-.627-1.17c-.001-.19.04-.377.122-.548.25-.513.866-.763 1.673-.756.253.001.504.043.744.123.363.112.68.335.91.638.105.141.164.311.17.487-.05.504-.417.92-.911 1.03-.195-.001-.255-.167-.273-.439a1.936 1.936 0 0 0-.047-.31c-.085-.364-.29-.74-.692-.744a.395.395 0 0 0-.455.404c.009.145.06.286.148.403.17.253.39.47.644.639.683.464 1.55.945 1.55 1.79Z"/></svg>
