<svg width="121" height="24" viewBox="0 0 121 24" fill="none" xmlns="http://www.w3.org/2000/svg">
<g clip-path="url(#clip0_450_8653)">
<g opacity="1">
<path d="M14.5658 9.61955C15.9878 11.0466 17.1509 13.3834 16.4853 14.7719C14.7055 18.4847 1.42455 24.9972 0.296699 23.8696C-0.831155 22.7432 5.6929 9.47435 9.41153 7.69565C10.8018 7.03091 13.1415 8.19251 14.5715 9.61275C14.5703 9.61388 14.5692 9.61615 14.5658 9.61955Z" fill="#636C87"/>
<path d="M21.6021 8.05183C21.3715 7.19764 20.782 6.33438 19.9018 6.23229C18.2878 6.04512 15.7447 8.89467 15.9265 9.57076C16.1082 10.2468 19.7019 11.4391 21.0433 10.476C21.735 9.97913 21.8326 8.90601 21.6055 8.05183H21.6021ZM16.6079 0.157704C17.8062 0.482135 19.0181 1.30683 19.1612 2.53876C19.4247 4.79844 15.4244 8.36038 14.4749 8.10628C13.5254 7.85218 11.8523 2.82009 13.2051 0.940423C13.9025 -0.0283342 15.4085 -0.164459 16.6091 0.153166C16.6079 0.153166 16.6079 0.155435 16.6079 0.157704Z" fill="#636C87"/>
</g>
<g opacity="1">
<path d="M52.3438 13.5331L51.1558 13.3527C50.0234 13.1859 49.368 12.8195 49.368 12.1537C49.368 11.3891 50.221 10.9149 51.4817 10.9149C52.3733 10.9149 53.0991 11.2484 53.7942 11.6023L53.9328 11.6727C54.093 11.7544 54.2656 11.7952 54.4439 11.7952C54.8562 11.7952 55.2367 11.5717 55.4355 11.211L55.532 11.0363C55.6854 10.7572 55.7183 10.4362 55.624 10.1322C55.5297 9.82932 55.3219 9.58429 55.0379 9.44249C54.0259 8.93656 52.9276 8.48168 51.4806 8.48168C48.4571 8.48168 46.5103 9.93935 46.5103 12.2864C46.5103 14.2125 47.896 15.4207 50.5197 15.778L51.718 15.9334C52.9844 16.1104 53.6 16.4847 53.6 17.078C53.6 17.6259 53.3036 18.353 51.342 18.353C50.2607 18.353 49.1624 18.0785 48.2708 17.5147C48.0925 17.4024 47.8881 17.3423 47.6779 17.3423C47.2861 17.3423 46.9147 17.5499 46.708 17.8834L46.6409 17.9912C46.4751 18.2589 46.4251 18.5878 46.5035 18.893C46.5819 19.1981 46.775 19.45 47.0476 19.602C48.6013 20.4743 50.3959 20.784 51.3409 20.784C54.4928 20.784 56.4429 19.4046 56.4429 16.977C56.4463 15.0372 55.0652 13.9233 52.3438 13.5331ZM88.9883 17.7734C88.7611 17.5193 88.434 17.3741 88.0933 17.3741C87.8627 17.3741 87.6378 17.4398 87.4413 17.5635C86.7996 17.9696 86.0976 18.1851 85.4082 18.1851C83.5148 18.1851 82.1405 16.6912 82.1405 14.6334C82.1405 12.5756 83.5148 11.0817 85.4082 11.0817C86.1351 11.0817 86.7859 11.279 87.397 11.6852C87.8706 11.9994 88.5498 11.9188 88.9394 11.5037L89.0405 11.3959C89.3074 11.1123 89.4335 10.7266 89.3881 10.3398C89.3438 9.95977 89.1359 9.62059 88.819 9.41073C87.8877 8.79363 86.7337 8.46806 85.4809 8.46806C81.8463 8.46806 79.3078 11.0034 79.3078 14.6323C79.3078 18.2623 81.8463 20.7976 85.4809 20.7976C86.7394 20.7976 87.9002 20.4652 88.8383 19.8356C89.1518 19.6258 89.3585 19.29 89.4051 18.9134C89.4528 18.5345 89.3336 18.1545 89.0791 17.8709L88.9883 17.7734ZM30.1718 4.2981C29.2257 4.2981 28.4851 5.04792 28.4851 6.0042C28.4851 6.96501 29.2098 7.68875 30.1718 7.68875C31.1293 7.68875 31.88 6.94913 31.88 6.0042C31.88 5.04792 31.1293 4.2981 30.1718 4.2981ZM30.6818 8.56902H29.6868C29.1995 8.56902 28.8043 8.96379 28.8043 9.45043V19.6167C28.8043 20.1034 29.1995 20.4981 29.6868 20.4981H30.6818C31.169 20.4981 31.5643 20.1034 31.5643 19.6167V9.45043C31.5643 8.96379 31.169 8.56902 30.6818 8.56902ZM63.3509 18.1318C62.2344 18.1273 60.9362 17.2538 60.9362 15.7235V11.1373H63.3588C63.8461 11.1373 64.2414 10.7425 64.2414 10.2558V9.45043C64.2414 8.96379 63.8461 8.56902 63.3588 8.56902H60.9362V5.92252C60.9362 5.43588 60.5409 5.04111 60.0537 5.04111H59.0042C58.5169 5.04111 58.1217 5.43588 58.1217 5.92252V15.559C58.1217 18.3337 60.2297 20.7863 63.1487 20.7863H63.1499C63.4406 20.7863 63.7155 20.6728 63.9233 20.4652C64.1301 20.2588 64.2448 19.9843 64.2448 19.6927V19.0132C64.2425 18.5243 63.8416 18.1341 63.3509 18.1318ZM39.2378 8.4692C35.7054 8.4692 33.7348 11.2915 33.7348 13.7055V19.6167C33.7348 20.1034 34.1301 20.4981 34.6173 20.4981H35.6236C36.1109 20.4981 36.5062 20.1034 36.5062 19.6167V14.149C36.5062 12.3181 37.617 11.1055 39.2366 11.1055C40.8563 11.1055 41.9671 12.3181 41.9671 14.149V19.6167C41.9671 20.1034 42.3624 20.4981 42.8496 20.4981H43.8559C44.3432 20.4981 44.7385 20.1034 44.7385 19.6167V13.7055C44.7407 11.2904 42.7713 8.4692 39.2378 8.4692ZM111.903 8.59171C111.52 8.50777 110.561 8.4692 110.063 8.4692C110.019 8.4692 109.975 8.47033 109.931 8.47033C107.196 8.47033 104.67 10.6971 104.67 13.7667C104.67 13.769 104.669 13.7724 104.669 13.7747V19.6167C104.669 20.1034 105.064 20.4981 105.552 20.4981H106.558C107.045 20.4981 107.441 20.1034 107.441 19.6167V13.8677C107.441 12.1968 108.635 11.1066 110.099 11.1066C110.368 11.1112 110.655 11.1407 110.937 11.1962C111.014 11.211 111.091 11.2189 111.169 11.2189C111.728 11.2189 112.212 10.8332 112.343 10.291C112.414 9.99267 112.468 9.77146 112.518 9.56841C112.568 9.36536 112.533 9.13621 112.418 8.95017C112.301 8.7664 112.118 8.63822 111.903 8.59171ZM119.285 11.1373C119.772 11.1373 120.167 10.7425 120.167 10.2558V9.45043C120.167 8.96379 119.772 8.56902 119.285 8.56902H116.862V5.92252C116.862 5.43588 116.467 5.04111 115.978 5.04111H114.929C114.442 5.04111 114.046 5.43588 114.046 5.92252V15.559C114.046 18.3337 116.154 20.7863 119.073 20.7863H119.075C119.366 20.7863 119.64 20.6728 119.848 20.4652C120.055 20.2588 120.17 19.9843 120.17 19.6927V19.0132C120.17 18.5232 119.769 18.133 119.278 18.1318C118.161 18.1273 116.863 17.2538 116.863 15.7235V11.1373H119.285ZM100.076 9.41527C100.075 9.41413 100.073 9.413 100.071 9.41186C99.1401 8.79476 97.9861 8.4692 96.7333 8.4692C96.7117 8.4692 96.6902 8.47033 96.6686 8.47033C96.647 8.47033 96.6254 8.4692 96.6038 8.4692C95.351 8.4692 94.1959 8.79476 93.2657 9.41186C93.2646 9.413 93.2623 9.41413 93.2612 9.41527C91.5847 10.4691 90.5614 12.3306 90.5614 14.6345C90.5614 17.0474 91.6847 18.9758 93.5042 19.9979C94.3527 20.4981 95.3601 20.7965 96.446 20.7976C98.4291 20.7987 99.6273 19.6768 100.003 19.1868V19.6088C100.003 20.0954 100.399 20.4902 100.886 20.4902H101.892C102.379 20.4902 102.775 20.0954 102.775 19.6088V14.6334C102.776 12.3295 101.752 10.468 100.076 9.41527ZM97.7771 18.0002C97.4546 18.1069 97.1263 18.1681 96.8003 18.1817C96.7765 18.1829 96.7526 18.1829 96.7288 18.184C96.7083 18.184 96.689 18.1851 96.6686 18.1851C96.6481 18.1851 96.6288 18.184 96.6084 18.184C96.5845 18.184 96.5607 18.1829 96.5368 18.1817C96.2108 18.1681 95.8815 18.1069 95.56 18.0002C94.2584 17.5408 93.3941 16.2658 93.3941 14.6334C93.3941 12.7072 94.5991 11.2745 96.3063 11.0998C96.3153 11.0987 96.3244 11.0987 96.3335 11.0975C96.3721 11.0941 96.4107 11.0907 96.4505 11.0885C96.4721 11.0873 96.4948 11.0862 96.5164 11.0851C96.5539 11.0839 96.5925 11.0828 96.63 11.0828C96.6436 11.0828 96.6561 11.0817 96.6697 11.0817C96.6833 11.0817 96.6958 11.0817 96.7095 11.0828C96.7481 11.0828 96.7856 11.0839 96.8231 11.0851C96.8458 11.0862 96.8673 11.0873 96.8889 11.0885C96.9275 11.0907 96.9673 11.093 97.0059 11.0975C97.015 11.0987 97.0241 11.0987 97.0332 11.0998C98.7403 11.2745 99.9454 12.7061 99.9454 14.6334C99.9431 16.2646 99.0788 17.5408 97.7771 18.0002ZM74.9531 9.41527C74.952 9.41413 74.9497 9.413 74.9486 9.41186C74.0172 8.79476 72.8633 8.4692 71.6105 8.4692C71.5889 8.4692 71.5673 8.47033 71.5457 8.47033C71.5241 8.47033 71.5026 8.4692 71.481 8.4692C70.2282 8.4692 69.0731 8.79476 68.1428 9.41186C68.1417 9.413 68.1394 9.41413 68.1383 9.41527C66.4619 10.4691 65.4385 12.3306 65.4385 14.6345C65.4385 17.0474 66.5618 18.9758 68.3814 19.9979C69.2298 20.4981 70.2373 20.7965 71.3231 20.7976C73.3062 20.7987 74.5045 19.6768 74.8804 19.1868V19.6088C74.8804 20.0954 75.2757 20.4902 75.763 20.4902H76.7693C77.2565 20.4902 77.6518 20.0954 77.6518 19.6088V14.6334C77.6529 12.3295 76.6296 10.468 74.9531 9.41527ZM72.6543 18.0002C72.3317 18.1069 72.0035 18.1681 71.6775 18.1817C71.6536 18.1829 71.6298 18.1829 71.6059 18.184C71.5855 18.184 71.5662 18.1851 71.5457 18.1851C71.5253 18.1851 71.506 18.184 71.4855 18.184C71.4617 18.184 71.4378 18.1829 71.414 18.1817C71.088 18.1681 70.7586 18.1069 70.4372 18.0002C69.1355 17.5408 68.2712 16.2658 68.2712 14.6334C68.2712 12.7072 69.4763 11.2745 71.1834 11.0998C71.1925 11.0987 71.2016 11.0987 71.2107 11.0975C71.2493 11.0941 71.2879 11.0907 71.3276 11.0885C71.3492 11.0873 71.3719 11.0862 71.3935 11.0851C71.431 11.0839 71.4696 11.0828 71.5071 11.0828C71.5207 11.0828 71.5332 11.0817 71.5469 11.0817C71.5605 11.0817 71.573 11.0817 71.5866 11.0828C71.6252 11.0828 71.6627 11.0839 71.7002 11.0851C71.7229 11.0862 71.7445 11.0873 71.7661 11.0885C71.8047 11.0907 71.8444 11.093 71.8831 11.0975C71.8921 11.0987 71.9012 11.0987 71.9103 11.0998C73.6174 11.2745 74.8225 12.7061 74.8225 14.6334C74.8202 16.2646 73.9559 17.5408 72.6543 18.0002Z" fill="#636C87"/>
</g>
</g>
<defs>
<clipPath id="clip0_450_8653">
<rect width="120" height="24" fill="white" transform="translate(0.167236)"/>
</clipPath>
</defs>
</svg>
