<svg xmlns="http://www.w3.org/2000/svg" xmlns:xlink="http://www.w3.org/1999/xlink" width="80" height="80"><defs><linearGradient id="a" x1="38.11" x2="23.17" y1="18.54" y2="33.48" gradientUnits="userSpaceOnUse"><stop offset=".18" stop-color="#0052cc"/><stop offset="1" stop-color="#2684ff"/></linearGradient><linearGradient xlink:href="#a" id="b" x1="42.07" x2="56.98" y1="61.47" y2="46.55"/></defs><path fill="#2684ff" d="M74.18 38 43 6.9l-3-3-23.42 23.42L5.86 38a2.86 2.86 0 0 0 0 4.05l21.42 21.46L40 76.25l23.47-23.44.36-.36 10.35-10.36a2.86 2.86 0 0 0 0-4.09ZM40 50.77l-10.7-10.7L40 29.37l10.7 10.7Z"/><path fill="url(#a)" d="M40 29.37A18 18 0 0 1 40 4L16.54 27.37l12.74 12.74L40 29.37Z"/><path fill="url(#b)" d="M50.75 40 40 50.77a18 18 0 0 1 0 25.48l23.5-23.47Z"/></svg>
