<svg viewBox="0 0 443.67 399.72" xmlns="http://www.w3.org/2000/svg"><rect fill="#0a0a0a" height="213.51" rx="3.96" width="33.71" y=".09"/><rect fill="#ffb521" height="33.71" rx="3.96" width="33.71" x="72.18" y=".31"/><g fill="#0a0a0a"><rect height="33.71" opacity=".6" rx="3.96" width="33.71" x="408.84" y="309.83"/><path d="m252 187.11a4 4 0 0 0 4 4h25.8a4 4 0 0 0 4-4v-67.33c0-37.58-22.3-58.34-53.22-58.34-16.58 0-25.58 4.86-33.98 16.48v-17.52a4 4 0 0 0 -4-4h-26a4 4 0 0 0 -4 4v126.71a4 4 0 0 0 4 4h26a4 4 0 0 0 4-4v-62.39c0-22 8.62-33.86 26.84-33.86 17.74 0 26.6 11.86 26.6 33.86z"/><path d="m194.75 214.05h-26a4 4 0 0 0 -4 4v62.35c0 22-11.35 33.87-29.57 33.87-17.74 0-29.33-11.87-29.33-33.87v-66.35-153.65a4 4 0 0 0 -4-4h-25.76a4 4 0 0 0 -4 4v153.65h-.06v71.3c0 37.57 22.35 58.33 53.28 58.33 16.54 0 31-7.41 39.4-19v20.08a4 4 0 0 0 4 4h26a4 4 0 0 0 4-4v-126.76a4 4 0 0 0 -3.96-3.95z"/><path d="m326.28 213.91c-18.94 0-33 9.53-40.3 20.2v-16.26a4 4 0 0 0 -4-4h-25.89a4 4 0 0 0 -4 4v177.91a4 4 0 0 0 4 4h25.91a4 4 0 0 0 4-4v-72a49.31 49.31 0 0 0 40.3 20c31.27 0 55.71-26.11 55.71-65.38s-24.46-64.47-55.73-64.47zm-8.15 101.93c-16.51 0-32.15-13.17-32.15-37s15.64-37 32.15-37c16.74 0 32.37 12.71 32.37 36.55s-15.63 37.45-32.37 37.45z"/><path d="m439.7 191a4 4 0 0 0 3-6.6l-54.13-60.4 53.78-61a4 4 0 0 0 -3-6.59h-26.72a4 4 0 0 0 -2.9 1.26l-51.73 55.49v-109.16a4 4 0 0 0 -4-4h-25.9a4 4 0 0 0 -4 4v183a4 4 0 0 0 4 4h25.9a4 4 0 0 0 4-4v-53l51.33 55.69a4 4 0 0 0 2.92 1.27z"/></g></svg>