<?xml version="1.0" encoding="UTF-8" ?>
<!DOCTYPE svg PUBLIC "-//W3C//DTD SVG 1.1//EN" "http://www.w3.org/Graphics/SVG/1.1/DTD/svg11.dtd">
<svg width="726pt" height="139pt" viewBox="0 0 726 139" version="1.1" xmlns="http://www.w3.org/2000/svg">
<g id="#ffffffff">
<path fill="#707279" opacity="1.00" d=" M 68.47 21.85 C 81.64 19.00 95.94 21.33 107.29 28.67 C 119.02 36.06 127.50 48.46 130.02 62.10 C 132.85 76.10 129.47 91.28 120.82 102.68 C 113.88 112.19 103.44 119.08 91.99 121.81 C 79.64 124.91 66.15 123.20 54.98 117.06 C 40.65 109.24 30.34 94.29 28.65 77.99 C 27.04 64.91 30.74 51.27 38.82 40.85 C 45.97 31.19 56.78 24.46 68.47 21.85 M 71.46 24.64 C 57.16 27.02 44.26 36.38 37.42 49.15 C 32.54 58.14 30.46 68.75 32.08 78.89 C 33.88 91.51 41.03 103.23 51.32 110.73 C 62.27 118.92 76.86 121.95 90.18 118.87 C 103.59 115.93 115.40 106.81 121.93 94.76 C 126.63 86.07 128.65 75.90 127.33 66.09 C 125.54 50.62 115.57 36.43 101.72 29.35 C 92.52 24.47 81.70 22.86 71.46 24.64 Z" />
<path fill="#707279" opacity="1.00" d=" M 63.91 37.92 C 69.15 33.90 75.97 31.86 82.55 32.66 C 91.82 33.67 100.18 40.13 103.46 48.86 C 107.80 59.84 103.39 73.32 93.36 79.55 C 87.00 83.71 78.79 84.52 71.60 82.29 C 71.99 81.38 72.39 80.48 72.79 79.58 C 79.65 81.50 87.34 80.38 93.04 76.00 C 100.81 70.56 103.99 59.81 100.95 50.91 C 97.78 41.13 87.36 34.31 77.10 35.66 C 66.56 36.72 57.56 46.20 57.24 56.82 C 56.72 64.69 60.82 72.44 67.31 76.83 C 66.99 77.54 66.37 78.94 66.06 79.65 C 59.09 75.26 54.40 67.40 54.24 59.13 C 53.78 51.05 57.47 42.83 63.91 37.92 Z" />
<path fill="#707279" opacity="1.00" d=" M 177.51 52.76 C 187.32 50.03 198.51 55.81 201.64 65.55 C 204.52 73.66 201.58 83.45 194.47 88.39 C 189.28 92.24 182.26 92.97 176.18 91.08 C 169.28 88.81 163.88 82.52 162.99 75.27 C 161.23 65.49 167.81 55.12 177.51 52.76 M 178.41 58.63 C 173.34 60.21 169.46 64.89 168.70 70.12 C 167.16 78.42 174.72 86.91 183.16 86.29 C 191.69 86.35 198.82 77.28 196.53 69.02 C 194.92 61.24 185.99 55.89 178.41 58.63 Z" />
<path fill="#707279" opacity="1.00" d=" M 363.55 53.24 C 363.42 51.94 365.40 52.49 366.21 52.06 C 374.09 61.26 382.10 70.35 389.96 79.57 C 390.08 70.66 389.90 61.75 390.06 52.84 C 391.99 52.76 393.93 52.75 395.87 52.82 C 396.12 65.81 396.02 78.82 395.92 91.81 C 395.22 91.87 393.82 92.00 393.12 92.06 C 385.25 82.70 377.35 73.36 369.52 63.97 C 369.41 73.14 369.67 82.31 369.38 91.47 C 367.45 91.50 365.54 91.50 363.62 91.47 C 363.37 78.73 363.50 65.98 363.55 53.24 Z" />
<path fill="#707279" opacity="1.00" d=" M 468.73 54.89 C 469.29 53.54 470.11 52.33 471.04 51.19 C 477.28 64.49 483.02 78.03 488.81 91.53 C 488.10 91.50 486.66 91.44 485.95 91.40 C 484.07 88.08 482.77 84.46 481.17 81.00 C 474.20 81.00 467.24 81.00 460.28 81.00 C 458.72 84.49 457.25 88.03 455.63 91.49 C 454.89 91.49 453.40 91.49 452.66 91.48 C 457.84 79.21 463.45 67.12 468.73 54.89 M 470.84 56.69 C 467.69 63.96 464.48 71.20 461.40 78.50 C 467.63 78.50 473.86 78.49 480.09 78.51 C 476.96 71.26 473.94 63.96 470.84 56.69 Z" />
<path fill="#707279" opacity="1.00" d=" M 503.39 56.25 C 511.05 50.30 523.18 50.76 529.92 57.93 C 529.42 58.39 528.42 59.31 527.92 59.77 C 525.20 57.89 522.49 55.75 519.14 55.19 C 510.43 53.05 500.96 59.36 499.14 68.04 C 497.29 75.42 500.91 83.79 507.72 87.28 C 513.69 90.53 521.17 89.60 527.00 86.46 C 526.99 83.06 527.00 79.65 527.00 76.25 C 523.67 76.25 520.34 76.27 517.01 76.21 C 517.01 75.53 517.00 74.18 517.00 73.50 C 521.33 73.52 525.66 73.42 529.99 73.60 C 529.89 78.30 530.24 83.03 529.83 87.72 C 526.24 91.15 520.73 91.94 515.94 92.03 C 508.95 92.33 502.02 88.59 498.48 82.56 C 493.30 74.19 495.41 62.12 503.39 56.25 Z" />
<path fill="#707279" opacity="1.00" d=" M 580.86 52.77 C 581.16 52.53 581.76 52.05 582.06 51.81 C 584.35 53.90 586.04 56.54 587.94 58.97 C 594.96 68.09 601.96 77.24 608.99 86.37 C 609.02 75.17 608.98 63.97 609.01 52.77 C 609.69 52.79 611.05 52.83 611.74 52.85 C 611.67 66.01 611.90 79.19 611.62 92.35 C 610.45 91.95 609.15 91.67 608.54 90.49 C 600.12 79.60 591.77 68.65 583.50 57.64 C 583.49 68.87 583.53 80.09 583.48 91.32 C 582.57 91.41 581.68 91.50 580.78 91.59 C 580.78 78.65 580.61 65.70 580.86 52.77 Z" />
<path fill="#707279" opacity="1.00" d=" M 628.80 59.85 C 635.62 50.51 650.97 49.41 658.91 57.92 C 658.42 58.41 657.46 59.38 656.98 59.87 C 652.96 56.33 647.58 54.11 642.17 55.07 C 633.11 56.23 626.33 65.61 627.80 74.58 C 628.81 83.14 637.13 90.13 645.79 89.30 C 650.04 89.37 653.50 86.75 656.86 84.51 C 657.39 84.91 658.44 85.70 658.96 86.10 C 651.29 94.62 636.19 93.91 629.17 84.93 C 623.24 78.01 623.04 66.93 628.80 59.85 Z" />
<path fill="#707279" opacity="1.00" d=" M 214.56 52.79 C 219.67 52.77 224.79 52.63 229.89 52.83 C 236.66 53.38 241.87 60.45 240.58 67.08 C 239.78 72.66 234.68 77.29 229.04 77.48 C 226.19 77.56 223.34 77.49 220.50 77.49 C 220.43 82.03 220.67 86.59 220.37 91.12 C 218.58 91.93 216.45 91.33 214.53 91.41 C 214.49 78.54 214.44 65.67 214.56 52.79 M 220.50 58.51 C 220.50 63.00 220.50 67.50 220.50 72.00 C 223.82 71.89 227.26 72.41 230.48 71.37 C 234.55 69.88 236.24 64.06 233.18 60.83 C 229.97 57.21 224.71 58.86 220.50 58.51 Z" />
<path fill="#707279" opacity="1.00" d=" M 251.01 52.77 C 252.96 52.75 254.91 52.76 256.87 52.83 C 257.22 61.29 256.81 69.76 257.08 78.21 C 257.43 82.57 261.23 86.41 265.70 86.30 C 270.47 86.76 274.86 82.66 274.98 77.93 C 275.11 69.57 274.82 61.20 275.13 52.83 C 277.12 52.76 279.12 52.75 281.12 52.78 C 281.40 60.20 281.17 67.62 281.26 75.05 C 281.38 79.18 280.60 83.58 277.79 86.78 C 272.30 93.71 260.44 93.93 254.65 87.28 C 252.21 84.53 250.80 80.82 250.98 77.13 C 251.02 69.01 250.98 60.89 251.01 52.77 Z" />
<path fill="#707279" opacity="1.00" d=" M 295.29 91.39 C 295.28 78.52 295.14 65.64 295.36 52.77 C 297.30 52.75 299.25 52.76 301.20 52.80 C 301.32 63.94 301.21 75.09 301.26 86.24 C 306.58 86.31 311.91 86.14 317.24 86.37 C 317.24 88.06 317.23 89.75 317.20 91.44 C 309.90 91.51 302.59 91.60 295.29 91.39 Z" />
<path fill="#707279" opacity="1.00" d=" M 327.06 52.86 C 335.12 52.63 343.19 52.79 351.26 52.76 C 351.25 54.51 351.23 56.25 351.21 58.00 C 345.05 58.00 338.90 58.00 332.74 58.00 C 332.74 61.75 332.74 65.50 332.74 69.26 C 338.04 69.28 343.34 69.20 348.65 69.31 C 348.69 71.01 348.68 72.71 348.68 74.41 C 343.36 74.60 338.05 74.47 332.73 74.50 C 332.75 78.42 332.74 82.34 332.74 86.26 C 338.89 86.26 345.04 86.24 351.19 86.27 C 351.23 88.01 351.24 89.75 351.26 91.49 C 343.17 91.46 335.09 91.62 327.01 91.40 C 327.03 78.55 326.93 65.70 327.06 52.86 Z" />
<path fill="#707279" opacity="1.00" d=" M 405.77 52.81 C 414.39 52.71 423.02 52.73 431.65 52.79 C 431.71 54.51 431.73 56.23 431.73 57.94 C 428.40 58.03 425.07 58.00 421.74 58.00 C 421.72 69.13 421.79 80.26 421.71 91.39 C 419.74 91.49 417.76 91.50 415.80 91.47 C 415.68 80.32 415.78 69.16 415.75 58.00 C 412.45 58.00 409.15 58.03 405.85 57.94 C 405.78 56.23 405.76 54.52 405.77 52.81 Z" />
<path fill="#707279" opacity="1.00" d=" M 543.52 91.48 C 543.47 78.57 543.50 65.67 543.51 52.77 C 551.38 52.78 559.26 52.65 567.13 52.82 C 567.13 53.41 567.13 54.59 567.13 55.18 C 560.26 55.37 553.38 55.19 546.51 55.26 C 546.49 60.26 546.51 65.26 546.50 70.27 C 552.75 70.41 559.04 69.88 565.27 70.61 C 564.98 71.18 564.40 72.34 564.11 72.91 C 558.25 73.14 552.37 72.93 546.50 73.00 C 546.50 78.33 546.50 83.67 546.50 89.00 C 553.46 89.02 560.42 88.95 567.38 89.04 C 567.29 89.63 567.12 90.82 567.03 91.41 C 559.20 91.63 551.36 91.46 543.52 91.48 Z" />
<path fill="#707279" opacity="1.00" d=" M 664.58 52.84 C 665.42 52.81 667.11 52.74 667.96 52.70 C 672.28 58.43 676.44 64.27 680.69 70.04 C 685.00 64.31 689.23 58.53 693.50 52.78 C 694.35 52.79 696.05 52.83 696.90 52.85 C 692.18 59.69 686.99 66.18 682.00 72.81 C 682.00 79.02 682.00 85.22 682.00 91.43 C 681.31 91.45 679.95 91.50 679.27 91.52 C 679.24 85.31 679.26 79.09 679.26 72.88 C 674.46 66.14 669.32 59.63 664.58 52.84 Z" />
<path fill="#707279" opacity="1.00" d=" M 55.45 108.00 C 62.49 90.41 69.63 72.86 76.60 55.24 C 78.29 55.25 79.98 55.27 81.68 55.29 C 74.75 72.89 67.64 90.42 60.65 107.99 C 58.92 108.00 57.18 108.00 55.45 108.00 Z" />
<path fill="#707279" opacity="1.00" d=" M 82.48 55.06 C 85.61 62.12 88.30 69.36 91.19 76.52 C 89.75 77.22 88.32 77.92 86.88 78.62 C 84.66 73.12 82.37 67.65 80.28 62.10 C 80.26 59.60 81.80 57.41 82.48 55.06 Z" />
<path fill="#707279" opacity="1.00" d=" M 88.49 82.74 C 89.96 82.05 91.42 81.35 92.87 80.62 C 96.50 89.75 100.14 98.89 103.83 108.00 C 102.10 108.00 100.37 108.00 98.64 108.00 C 95.35 99.54 91.87 91.16 88.49 82.74 Z" />
</g>
</svg>
