<svg viewBox="0 0 64 64" fill="none" xmlns="http://www.w3.org/2000/svg">
<path d="M26.5593 13.3983C26.1367 13.3987 25.7281 13.5508 25.4069 13.8273C25.0857 14.1039 24.8729 14.4867 24.8068 14.9071L21.8951 33.5071C22.0308 32.6384 22.774 31.9983 23.6475 31.9983H32.1799C40.7672 31.9983 48.0539 25.6889 49.3853 17.1389C49.4844 16.5006 49.5406 15.8562 49.5534 15.2102C47.3711 14.0578 44.8075 13.3983 41.9986 13.3983H26.5593Z" fill="#001C64"/>
<path d="M49.5533 15.2109C49.5406 15.8569 49.4844 16.5012 49.3853 17.1396C48.0539 25.6896 40.7665 31.9989 32.1799 31.9989H23.6474C22.7746 31.9989 22.0308 32.6384 21.895 33.5077L19.2177 50.5996L17.5407 61.322C17.508 61.5292 17.5202 61.741 17.5767 61.9429C17.6331 62.1449 17.7324 62.332 17.8677 62.4916C18.0029 62.6511 18.1709 62.7791 18.3601 62.8669C18.5492 62.9547 18.7551 63.0001 18.9633 63H28.2246C28.6472 62.9996 29.0558 62.8475 29.377 62.571C29.6982 62.2944 29.9109 61.9116 29.977 61.4912L32.4164 45.9082C32.4825 45.4876 32.6955 45.1045 33.017 44.8279C33.3385 44.5514 33.7474 44.3994 34.1702 44.3994H39.6229C48.2102 44.3994 55.4969 38.0901 56.8284 29.54C57.7738 23.4717 54.7393 17.9496 49.5533 15.2109Z" fill="#0070E0"/>
<path d="M16.0378 1C15.165 1 14.4212 1.63943 14.2854 2.50741L7.01789 48.9216C6.88008 49.8027 7.55611 50.5996 8.44192 50.5996H19.2191L21.895 33.5078L24.8068 14.9078C24.8729 14.4875 25.0857 14.1046 25.4069 13.8281C25.7281 13.5515 26.1367 13.3994 26.5592 13.399H41.9985C44.8082 13.399 47.371 14.0592 49.5533 15.211C49.7028 7.4267 43.3252 1 34.5569 1H16.0378Z" fill="#003087"/>
</svg>