<svg width="77" height="48" viewBox="0 0 77 48" fill="none" xmlns="http://www.w3.org/2000/svg">
<g opacity="1">
<path d="M22.2596 5.28205C23.7182 5.28205 24.9006 4.09962 24.9006 2.64103C24.9006 1.18243 23.7182 0 22.2596 0C20.801 0 19.6185 1.18243 19.6185 2.64103C19.6185 4.09962 20.801 5.28205 22.2596 5.28205Z" fill="#636B83"/>
<path d="M16.081 12.6302C16.081 13.0395 15.9153 13.4326 15.6165 13.7119C15.3176 14.0108 14.9083 14.1765 14.4827 14.1635C14.0767 14.1505 13.6901 13.9848 13.401 13.6989L13.349 13.647C13.3198 13.6177 13.284 13.5885 13.2483 13.569C13.2093 13.5495 13.1736 13.5235 13.1411 13.491C12.0269 12.5749 10.6203 12.0877 9.17794 12.1137C7.32305 12.1137 5.87422 12.7471 4.82495 14.0173C3.77569 15.2874 3.25918 17.0904 3.25593 19.426V36.1753C3.28841 36.6171 3.1065 37.0491 2.76865 37.335C2.47304 37.5851 2.09946 37.7215 1.71289 37.728C1.32632 37.7215 0.952743 37.5819 0.65713 37.335C0.319286 37.0491 0.13737 36.6171 0.169855 36.1753V19.426C0.160109 18.0584 0.351771 16.6973 0.735094 15.3849C1.08593 14.1895 1.66092 13.0687 2.43406 12.0909C3.18771 11.1391 4.14602 10.3692 5.24076 9.83647C6.47194 9.26473 7.81682 8.98212 9.17469 9.0146C10.3377 9.03409 11.4909 9.26149 12.5726 9.68379C13.6901 10.0801 14.7101 10.7103 15.558 11.5354C15.8796 11.8148 16.0648 12.2079 16.081 12.6302ZM23.7994 36.172C23.8319 36.6138 23.65 37.0459 23.3122 37.3317C22.7014 37.8482 21.8081 37.8482 21.2006 37.3317C20.8628 37.0459 20.6809 36.6138 20.7134 36.172V11.0839C20.6809 10.6421 20.8628 10.21 21.2006 9.92418C21.8114 9.40767 22.7047 9.40767 23.3122 9.92418C23.65 10.21 23.8319 10.6421 23.7994 11.0839V36.172ZM50.5801 36.172C50.6125 36.6138 50.4274 37.0459 50.0895 37.3317C49.4821 37.845 48.5887 37.845 47.9813 37.3317C47.6434 37.0459 47.4615 36.6138 47.494 36.172V19.0654C47.5005 18.1364 47.3153 17.217 46.9515 16.3627C46.2433 14.693 44.9147 13.3643 43.2449 12.6562C41.5135 11.935 39.5676 11.935 37.8394 12.6562C36.1697 13.3643 34.8411 14.693 34.1329 16.3627C33.7691 17.217 33.5872 18.1364 33.5937 19.0654V36.172C33.6261 36.6138 33.4442 37.0459 33.1064 37.3317C32.4957 37.8482 31.6023 37.8482 30.9949 37.3317C30.657 37.0459 30.4751 36.6138 30.5076 36.172V19.0654C30.4978 17.7206 30.7642 16.3887 31.2937 15.151C31.794 13.9588 32.5217 12.8738 33.4312 11.9577C34.3376 11.0547 35.4063 10.3302 36.579 9.82023C39.0934 8.75147 41.9326 8.75147 44.4469 9.82023C46.8573 10.8208 48.7706 12.7374 49.7744 15.1478C50.3039 16.3854 50.5703 17.7173 50.5606 19.0622L50.5801 36.172ZM76.8344 37.9749C76.8474 39.3263 76.581 40.6679 76.0483 41.9089C75.0315 44.3062 73.1149 46.2131 70.7078 47.2136C69.4701 47.7432 68.1382 48.0095 66.7933 47.9998C66.0332 47.9965 65.273 47.9186 64.5259 47.7691C63.7202 47.6132 62.9276 47.3793 62.1642 47.074C61.3976 46.7686 60.6731 46.3723 60.004 45.8948C59.3673 45.4465 58.8183 44.8877 58.383 44.2478C58.2075 43.9911 58.1166 43.6825 58.1263 43.3707C58.1166 42.9484 58.2952 42.5423 58.6136 42.2662C58.9125 41.9836 59.3088 41.8244 59.7181 41.8244C59.939 41.8276 60.1566 41.8699 60.358 41.9543C60.6114 42.0648 60.8193 42.2532 60.9525 42.4936C60.9558 42.5326 60.972 42.5715 61.0045 42.5943L61.2091 42.8022C61.9011 43.5591 62.7814 44.1178 63.7592 44.4232C64.7305 44.7448 65.7473 44.9105 66.7706 44.9137C67.6997 44.9202 68.619 44.735 69.4733 44.3712C71.1431 43.663 72.4717 42.3344 73.1799 40.6647C73.5502 39.8168 73.7419 38.9007 73.7419 37.9782V34.4373C72.829 35.3079 71.7635 35.9966 70.5941 36.4709C69.3856 36.9711 68.0927 37.2245 66.7868 37.218C65.4354 37.231 64.0938 36.9646 62.8529 36.4319C60.4652 35.4184 58.5649 33.5147 57.5481 31.1271C57.0153 29.8862 56.7457 28.5445 56.762 27.1932V19.0654C56.7522 17.7206 57.0186 16.3887 57.5481 15.151C58.0484 13.9588 58.7728 12.8738 59.6856 11.9577C60.5919 11.0547 61.6607 10.3302 62.8334 9.82023C65.3477 8.75147 68.1869 8.75147 70.7013 9.82023C73.1116 10.8208 75.0283 12.7374 76.0288 15.1478C76.5583 16.3854 76.8247 17.7173 76.8149 19.0622V37.9749H76.8344ZM73.7451 19.0654C73.7516 18.1364 73.5664 17.217 73.2026 16.3627C72.4944 14.693 71.1658 13.3643 69.4961 12.6562C67.7646 11.935 65.8188 11.935 64.0906 12.6562C62.4176 13.3611 61.0825 14.6897 60.3678 16.3594C60.0072 17.2138 59.822 18.1331 59.8285 19.0622V27.1477C59.8188 28.0833 60.004 29.0091 60.3678 29.8699C60.7186 30.6983 61.2286 31.4487 61.8621 32.0854C62.4956 32.7221 63.2492 33.2289 64.0776 33.5765C65.809 34.2976 67.7549 34.2976 69.4831 33.5765C71.1528 32.8683 72.4814 31.5397 73.1896 29.8699C73.5599 29.0091 73.7484 28.0833 73.7451 27.1477V19.0654Z" fill="#636B83"/>
</g>
</svg>
