<svg xmlns="http://www.w3.org/2000/svg" xml:space="preserve" width="20" height="20"><g fill="#E01E5A"><path d="M4.25 12.616c0 1.147-.937 2.085-2.083 2.085S.083 13.763.083 12.616s.938-2.083 2.084-2.083H4.25v2.083zM5.3 12.616c0-1.147.937-2.083 2.083-2.083 1.147 0 2.083.936 2.083 2.083v5.217a2.088 2.088 0 0 1-2.083 2.084A2.089 2.089 0 0 1 5.3 17.833v-5.217z"/></g><g fill="#36C5F0"><path d="M7.383 4.25C6.236 4.25 5.3 3.313 5.3 2.167S6.237.083 7.383.083c1.147 0 2.083.938 2.083 2.084V4.25H7.383zM7.383 5.3c1.147 0 2.083.937 2.083 2.083a2.087 2.087 0 0 1-2.083 2.083H2.167A2.089 2.089 0 0 1 .083 7.383 2.09 2.09 0 0 1 2.167 5.3h5.216z"/></g><g fill="#2EB67D"><path d="M15.748 7.383A2.09 2.09 0 0 1 17.833 5.3c1.147 0 2.084.937 2.084 2.083a2.088 2.088 0 0 1-2.084 2.083h-2.085V7.383zM14.701 7.383c0 1.147-.938 2.083-2.085 2.083s-2.083-.936-2.083-2.083V2.167c0-1.146.936-2.084 2.083-2.084s2.085.938 2.085 2.084v5.216z"/></g><g fill="#ECB22E"><path d="M12.616 15.748a2.09 2.09 0 0 1 2.085 2.085c0 1.147-.938 2.084-2.085 2.084s-2.083-.937-2.083-2.084v-2.085h2.083zM12.616 14.701c-1.147 0-2.083-.938-2.083-2.085s.936-2.083 2.083-2.083h5.217c1.147 0 2.084.936 2.084 2.083s-.937 2.085-2.084 2.085h-5.217z"/></g></svg>
