<?xml version="1.0" encoding="UTF-8"?>
<svg width="500px" height="500px" viewBox="0 0 500 500" version="1.1" xmlns="http://www.w3.org/2000/svg" xmlns:xlink="http://www.w3.org/1999/xlink">
    <title>Artboard</title>
    <g id="Artboard" stroke="none" stroke-width="1" fill="none" fill-rule="evenodd">
        <g id="logo_black" transform="translate(0.000000, 182.000000)" fill-rule="nonzero">
            <polygon id="Path" fill="#201515" points="117.414 92.8436 117.344 92.6204 161.801 51.921 161.801 32.311 90.4769 32.311 90.4769 51.921 133.079 51.921 133.149 52.1089 89.1265 92.8436 89.1265 112.454 162.517 112.454 162.517 92.8436"></polygon>
            <path d="M206.296,30.4438 C198.069,30.4438 191.364,31.6846 186.181,34.1662 C181.354,36.3289 177.287,39.8922 174.509,44.3939 C171.852,48.9252 170.183,53.9674 169.613,59.1894 L191.254,62.2308 C192.037,57.6199 193.603,54.3516 195.951,52.4258 C198.621,50.4116 201.911,49.3939 205.251,49.5489 C209.643,49.5489 212.829,50.7232 214.81,53.0716 C216.771,55.4201 217.769,58.6728 217.769,62.9588 L217.769,65.0959 L196.961,65.0959 C186.369,65.0959 178.76,67.4444 174.134,72.1414 C169.507,76.8384 167.198,83.0385 167.205979,90.7416 C167.205979,98.6325 169.515,104.504 174.134,108.355 C178.752,112.207 184.561,114.121 191.56,114.097223 C200.241,114.097223 206.919,111.111 211.592,105.138 C214.352,101.467 216.323,97.2655 217.381,92.7965 L218.168,92.7965 L221.151,112.406 L240.761,112.406 L240.761,62.7475 C240.761,52.4845 238.056,44.5349 232.647,38.8985 C227.237,33.2621 218.454,30.4438 206.296,30.4438 Z M213.154,91.6575 C210.042,94.2525 205.968,95.5442 200.895,95.5442 C196.714,95.5442 193.81,94.8123 192.182,93.3484 C191.389,92.6558 190.757,91.797 190.333,90.833 C189.909,89.8691 189.702,88.8235 189.728,87.7707 C189.681,86.7778 189.838,85.7858 190.187,84.8552 C190.536,83.9246 191.071,83.0748 191.759,82.3574 C192.503,81.6595 193.381,81.1197 194.34,80.7706 C195.299,80.4214 196.318,80.2701 197.337,80.3259 L217.804,80.3259 L217.804,81.6763 C217.846,83.5851 217.448,85.4779 216.642,87.2085 C215.835,88.9391 214.642,90.4613 213.154,91.6575 Z" id="Shape" fill="#201515"></path>
            <polygon id="Path" fill="#201515" points="359.329 32.311 336.161 32.311 336.161 112.465 359.329 112.465"></polygon>
            <path d="M496.109,32.311 C489.565,32.311 484.406,34.6203 480.633,39.2391 C477.924,42.5583 475.865,47.4628 474.456,53.9524 L473.775,53.9524 L470.746,32.311 L450.959,32.311 L450.959,112.454 L474.128,112.454 L474.128,71.3548 C474.128,66.1725 475.341,62.1996 477.768,59.4362 C480.194,56.6728 484.672,55.2911 491.201,55.2911 L499.996,55.2911 L499.996,32.311 L496.109,32.311 Z" id="Path" fill="#201515"></path>
            <path d="M427.991,34.9311 C422.582,31.7137 415.76,30.1089 407.524,30.1166717 C394.561,30.1166717 384.415,33.8078 377.088,41.1899 C369.76,48.572 366.097,58.7488 366.097,71.7204 C365.91,79.5627 367.622,87.3338 371.087,94.3716 C374.259,100.643 379.199,105.848 385.296,109.343 C391.433,112.89 398.733,114.667 407.195,114.674 C414.515,114.674 420.629,113.547 425.537,111.293 C430.152,109.268 434.17,106.094 437.209,102.075 C440.103,98.129 442.252,93.6879 443.55,88.9701 L423.588,83.3806 C422.748,86.4485 421.13,89.2474 418.891,91.5064 C416.636,93.761 412.859,94.8883 407.559,94.8883 C401.258,94.8883 396.561,93.0839 393.468,89.475 C391.226,86.8682 389.817,83.1458 389.194,78.3196 L443.856,78.3196 C444.079,76.0651 444.196,74.1745 444.196,72.648 L444.196,67.6574 C444.328,60.9531 442.943,54.3056 440.145,48.2119 C437.526,42.6607 433.289,38.0313 427.991,34.9311 Z M406.855,49.2216748 C416.249,49.2216748 421.576,53.8443 422.836,63.0896 L389.605,63.0896 C390.133,60.0048 391.411,57.0972 393.328,54.6233 C396.373,51.0144 400.882,49.2139 406.855,49.2216748 Z" id="Shape" fill="#201515"></path>
            <path d="M347.993,0.00751877193 C346.25,-0.0517558881 344.513,0.239929012 342.885,0.865259012 C341.257,1.49059001 339.772,2.43677001 338.517,3.64761001 C337.28,4.87005001 336.31,6.33640001 335.669,7.95351001 C335.028,9.57063001 334.73,11.3032 334.795,13.0415 C334.732,14.791 335.031,16.5346 335.672,18.1635 C336.314,19.7925 337.284,21.2718 338.522,22.5091 C339.761,23.7464 341.241,24.7152 342.87,25.3551 C344.5,25.995 346.244,26.2922 347.993,26.2282 C349.731,26.2939 351.465,25.9968 353.082,25.3559 C354.699,24.7151 356.165,23.7444 357.387,22.5058 C358.599,21.2544 359.545,19.7709 360.168,18.1444 C360.792,16.5179 361.08,14.7822 361.015,13.0415 C361.095,11.3111 360.814,9.58300001 360.188,7.96756001 C359.563,6.35213001 358.608,4.88487001 357.384,3.65944001 C356.159,2.43401001 354.693,1.47735001 353.078,0.850567012 C351.463,0.223787012 349.735,-0.0593171881 348.005,0.0192726119 L347.993,0.00751877193 Z" id="Path" fill="#201515"></path>
            <path d="M300.14,30.1167 C292.25,30.1167 285.909,32.5943 281.118,37.5496 C277.571,41.2211 274.969,46.701 273.309,53.9891 L272.569,53.9891 L269.54,32.3477 L249.753,32.3477 L249.753,135.494 L272.921,135.494 L272.921,93.0095 L273.767,93.0095 C274.474,95.8422 275.465,98.5961 276.726,101.229 C278.686,105.518 281.9,109.113 285.944,111.539 C290.137,113.827 294.86,114.966 299.635,114.839 C309.335,114.839 316.721,111.062 321.794,103.507 C326.866,95.9529 329.403,85.4121 329.403,71.8848 C329.403,58.8193 326.949,48.5916 322.04,41.2016 C317.132,33.8117 309.832,30.1167 300.14,30.1167 Z M302.489,88.195 C299.788,92.1092 295.561,94.0663 289.807,94.0663 C287.435,94.1758 285.07,93.7185 282.91,92.7322 C280.749,91.7459 278.855,90.259 277.384,88.3947 C274.385,84.6293 272.89,79.4743 272.897968,72.9298 L272.897968,71.4033 C272.897968,64.757 274.393,59.6686 277.384,56.138 C280.374,52.6075 284.515,50.8617 289.807,50.9009 C295.663,50.9009 299.917,52.7601 302.571,56.4785 C305.225,60.197 306.552141,65.3833 306.552141,72.0373 C306.568,78.9184 305.221,84.3043 302.512,88.195 L302.489,88.195 Z" id="Shape" fill="#201515"></path>
            <polygon id="Path" fill="#FF4F00" points="80.1543 92.8433 0 92.8433 0 112.477 80.1543 112.477"></polygon>
        </g>
    </g>
</svg>