<svg viewBox="0 0 48 48" fill="none" xmlns="http://www.w3.org/2000/svg">
<path d="M22.1729 15.5089V42.0001H0L22.1729 15.5089Z" fill="#03363D"/>
<path d="M22.1729 6C22.1729 12.0592 17.2093 16.9711 11.0865 16.9711C4.96358 16.9711 0 12.0592 0 6H22.1729Z" fill="#03363D"/>
<path d="M25.8247 32.4912V6H48L25.8247 32.4912Z" fill="#03363D"/>
<path d="M39.26 38.8599C38.9925 38.8455 38.7593 39.0382 38.726 39.3012H39.7584C39.7431 39.0436 39.5205 38.8465 39.26 38.8599Z" fill="#03363D"/>
<path d="M36.9112 31.0262C30.7879 31.0275 25.8247 35.9401 25.8247 41.9997H47.9976C47.9983 39.0896 46.8305 36.2984 44.7513 34.2404C42.6721 32.1824 39.8519 31.0262 36.9112 31.0262Z" fill="#03363D"/>
</svg>